<?xml version="1.0" standalone="no"?>
<!DOCTYPE svg PUBLIC "-//W3C//DTD SVG 1.1//EN" "http://www.w3.org/Graphics/SVG/1.1/DTD/svg11.dtd" >
<svg xmlns="http://www.w3.org/2000/svg" xmlns:xlink="http://www.w3.org/1999/xlink" version="1.1">
<metadata>
Created by FontForge 20170731 at Thu Jan 26 16:57:52 2023
 By Aleksey,,,
Copyright (c) 2018 by Phil Pluckthun. All rights reserved. |DCNT
</metadata>
<defs>
<font id="DankMono-Italic" horiz-adv-x="1126" >
  <font-face 
    font-family="Dank Mono"
    font-weight="400"
    font-style="italic"
    font-stretch="normal"
    units-per-em="2048"
    panose-1="0 0 5 9 0 0 0 0 0 0"
    ascent="1595"
    descent="-453"
    x-height="973"
    cap-height="1331"
    bbox="-1083 -455 3166 2198"
    underline-thickness="86"
    underline-position="-342"
    slope="-8"
    unicode-range="U+0020-E0B3"
  />
<missing-glyph 
 />
    <glyph glyph-name=".notdef" 
 />
    <glyph glyph-name=".null" horiz-adv-x="0" 
 />
    <glyph glyph-name="nonmarkingreturn" horiz-adv-x="682" 
 />
    <glyph glyph-name="space" unicode=" " 
 />
    <glyph glyph-name="exclam" unicode="!" 
d="M444 350l95 649l59 332h178l-57 -332l-135 -649h-140zM360 82q9 51 41.5 78.5t83.5 27.5q52 0 74.5 -27.5t13.5 -78.5q-9 -53 -41 -81t-83 -28q-52 0 -75 28t-14 81z" />
    <glyph glyph-name="quotedbl" unicode="&#x22;" 
d="M414 1331h178l-21 -139q-25 -100 -77 -249t-66 -173l-94 18zM756 1331h180l-21 -139q-27 -102 -78.5 -250.5t-64.5 -171.5l-94 18z" />
    <glyph glyph-name="numbersign" unicode="#" 
d="M791 455h141l-17 -121h-159l-97 -334h-137l96 334h-235l-96 -334h-140l97 334h-119l16 121h135l117 424h-129l17 122h147l94 328h140l-95 -328h236l92 328h141l-96 -328h131l-16 -122h-150zM649 455l117 424h-236l-114 -424h233z" />
    <glyph glyph-name="dollar" unicode="$" 
d="M1020 993l-129 -22q15 60 15 105.5t-10.5 73t-31.5 46t-44.5 25.5t-53.5 10l-96 -496q122 -25 190 -69t92.5 -120.5t1.5 -193.5q-36 -162 -147 -255t-281 -115l-20 -111h-148l21 104q-172 9 -273 113l97 88q82 -67 198 -80l105 535q-146 48 -213.5 145t-38.5 232
q27 121 135.5 212t251.5 123l18 91h146l-14 -78q51 -2 93 -13t80.5 -36.5t56.5 -66t22 -102t-23 -145.5zM389 993q-31 -150 143 -221l86 451q-94 -21 -152 -80.5t-77 -149.5zM815 358q26 110 -17 162.5t-153 77.5l-96 -494q216 46 266 254z" />
    <glyph glyph-name="percent" unicode="%" 
d="M1139 1294l-1008 -1321l-96 68l1003 1317zM362 864q-109 0 -169.5 73.5t-45.5 186.5q13 104 89 169t182 65q112 0 173 -70t46 -180q-13 -104 -92.5 -174t-182.5 -70zM362 961q71 0 108.5 38t49.5 125q12 79 -11 112.5t-89 33.5q-70 0 -107 -37.5t-47 -124.5
q-11 -80 11 -113.5t85 -33.5zM754 -23q-109 0 -169.5 74.5t-45.5 188.5q13 103 89.5 168t182.5 65q111 0 171.5 -70t45.5 -182q-14 -103 -92 -173.5t-182 -70.5zM754 76q72 0 108.5 38t50.5 126q11 78 -11.5 110.5t-88.5 32.5q-70 0 -107 -37t-47 -125q-11 -78 10.5 -111.5
t84.5 -33.5z" />
    <glyph glyph-name="ampersand" unicode="&#x26;" 
d="M1006 485q-70 -132 -162 -249q31 -41 151 -189l-129 -47l-110 137q-160 -157 -332 -157q-166 0 -260.5 109.5t-71.5 272.5q29 224 264 369q-94 196 -80 318q19 145 109 228t236 83q114 0 206 -71t129 -199l-98 -80q-30 99 -104 158t-144 59q-78 0 -139 -45t-68 -121
q-4 -41 5.5 -91t43 -133t114 -211.5t202.5 -291.5q75 99 158 264zM436 106q117 0 244 127q-169 223 -262 385q-154 -119 -178 -272q-15 -105 40 -172.5t156 -67.5z" />
    <glyph glyph-name="quotesingle" unicode="'" 
d="M578 1331h178l-21 -139q-25 -100 -77 -249t-66 -173l-94 18z" />
    <glyph glyph-name="parenleft" unicode="(" 
d="M463 489q-35 -219 10 -388t191 -357l-95 -82q-182 200 -248 401t-28 447q39 238 166 438t370 398l76 -97q-206 -191 -307.5 -363t-134.5 -397z" />
    <glyph glyph-name="parenright" unicode=")" 
d="M610 489q33 224 -17 396t-200 364l105 97q184 -197 251.5 -397t34.5 -439q-34 -246 -159.5 -446.5t-368.5 -401.5l-70 82q201 189 297 358t127 387z" />
    <glyph glyph-name="asterisk" unicode="*" 
d="M496 952l-222 129l80 103l203 -82l59 258l125 -8l-43 -265l248 60l37 -109l-285 -102l148 -217l-113 -66l-158 170l-184 -149l-100 82z" />
    <glyph glyph-name="plus" unicode="+" 
d="M901 569l-16 -118h-277l-41 -275h-118l38 275h-274l16 118h275l39 275h119l-39 -275h278z" />
    <glyph glyph-name="comma" unicode="," 
d="M516 188q51 0 74.5 -27.5t17.5 -78.5q-6 -35 -20 -57q-39 -70 -120 -163t-120 -118l-80 45q43 62 133 227q-11 25 -8 66q16 106 123 106z" />
    <glyph glyph-name="hyphen" unicode="-" 
d="M881 444h-633v119h633v-119z" />
    <glyph glyph-name="period" unicode="." 
d="M455 82q0 51 28.5 78.5t79.5 27.5t79 -27.5t28 -78.5q0 -52 -28 -80.5t-79 -28.5q-52 0 -80 28t-28 81z" />
    <glyph glyph-name="slash" unicode="/" 
d="M1104 1370l-1002 -1603l-98 65l1002 1604z" />
    <glyph glyph-name="zero" unicode="0" 
d="M674 1358q133 0 227 -91t131.5 -254.5t9.5 -369.5q-26 -188 -105 -341t-195.5 -241t-247.5 -88q-134 0 -228.5 90t-132 246t-10.5 348q28 204 109 364.5t196.5 248.5t245.5 88zM291 643q-23 -178 2 -317l543 813q-57 110 -164 110q-133 -2 -238 -167.5t-143 -438.5z
M879 657q26 194 4 340l-533 -813q54 -82 148 -82q137 0 242 154.5t139 400.5z" />
    <glyph glyph-name="one" unicode="1" 
d="M905 119l-2 -6q-1 -3 -4 -21.5t-4 -25.5t-2 -21t0 -24.5t4 -20.5h-739l16 119h295l139 993q-47 -53 -135 -91t-197 -48l13 141q110 25 201 81t151 136h143l-170 -1212h291z" />
    <glyph glyph-name="two" unicode="2" 
d="M879 1059q12 80 -40.5 126t-158.5 46q-93 0 -171.5 -39.5t-148.5 -132.5l-94 76q143 227 408 227q173 0 269.5 -88.5t76.5 -229.5q-11 -81 -60.5 -171t-135.5 -188.5t-164.5 -177.5t-197 -193t-183.5 -181l671 4l-18 -137h-873l17 137q71 73 191 183t211 195.5t183.5 183
t149 189.5t68.5 171z" />
    <glyph glyph-name="three" unicode="3" 
d="M324 1210q42 71 141 109.5t203 38.5q171 0 270.5 -102.5t75.5 -268.5q-31 -213 -221 -307q84 -39 125 -132.5t24 -215.5q-23 -170 -147.5 -264.5t-325.5 -94.5q-273 0 -358 226l108 61q45 -90 104.5 -123t168.5 -33q129 0 206.5 62t94.5 180q19 133 -54.5 205t-224.5 72
h-80l19 118h71q145 0 233 69t107 196q15 105 -43 164t-178 59q-68 0 -135.5 -26.5t-101.5 -82.5z" />
    <glyph glyph-name="four" unicode="4" 
d="M952 510l-18 -137h-186l-54 -373h-145l53 373h-455l19 137l543 821h155l-542 -821h299l34 244h156q-19 -64 -27 -111l-18 -133h186z" />
    <glyph glyph-name="five" unicode="5" 
d="M334 666l-127 -4l147 669h670l-16 -119h-537l-98 -430q31 50 97 79.5t151 29.5q181 0 274.5 -117.5t65.5 -308.5q-29 -213 -167.5 -352.5t-320.5 -139.5q-194 0 -350 179l117 100q53 -72 116.5 -105.5t149.5 -33.5q125 0 206 87.5t103 245.5q22 152 -43 234t-207 82
q-72 0 -134 -25.5t-97 -70.5z" />
    <glyph glyph-name="six" unicode="6" 
d="M915 1182q-33 21 -85 33t-101 12q-155 0 -267 -114t-140 -298l-13 -78q50 52 135.5 80.5t184.5 28.5q200 0 300 -116.5t72 -315.5q-28 -200 -164.5 -320.5t-334.5 -120.5q-203 0 -304.5 127.5t-72.5 343.5l53 379q32 237 188.5 386t372.5 149q78 0 150.5 -19t122.5 -51z
M508 113q131 0 233.5 91.5t122.5 227.5q17 126 -49.5 207.5t-189.5 81.5q-96 0 -190.5 -46t-147.5 -116l-19 -123q-17 -145 49 -234t191 -89z" />
    <glyph glyph-name="seven" unicode="7" 
d="M1130 1331l-20 -119q-46 -55 -130 -151t-138.5 -160.5t-129.5 -158t-126.5 -173.5t-104 -174.5t-87 -194t-52.5 -200.5h-162q19 101 54 200t88 194.5t103.5 174t127.5 174t130 158t140 161t131 150.5h-712l22 119h866z" />
    <glyph glyph-name="eight" unicode="8" 
d="M942 295q-26 -140 -156.5 -231t-308.5 -91q-179 0 -278.5 96.5t-73.5 243.5q21 123 115.5 220t244.5 155q-99 45 -146 145.5t-24 225.5q26 141 129 220t258 79q154 0 237 -89.5t58 -230.5q-21 -120 -96.5 -215.5t-189.5 -140.5q133 -56 195 -155t36 -232zM707 1249
q-99 0 -176.5 -64.5t-96.5 -160.5q-15 -83 29 -155t139 -119q111 51 183 129t89 165q15 89 -32 147t-135 58zM481 98q134 0 224.5 60t107.5 159q15 94 -44.5 175.5t-176.5 136.5q-141 -57 -232.5 -144t-109.5 -188q-18 -94 39.5 -146.5t191.5 -52.5z" />
    <glyph glyph-name="nine" unicode="9" 
d="M244 147q68 -43 184 -43q154 0 271.5 114.5t152.5 297.5l14 78q-57 -55 -144 -91t-179 -36q-202 0 -299 120.5t-60 330.5q35 199 175.5 318.5t338.5 119.5q205 0 302.5 -127.5t60.5 -343.5l-66 -379q-43 -237 -204 -385t-375 -148q-78 0 -150.5 19t-122.5 51zM690 1219
q-131 0 -237 -93t-131 -229q-23 -139 39 -222t186 -83q93 0 191 53.5t157 126.5l23 123q25 145 -39.5 234.5t-188.5 89.5z" />
    <glyph glyph-name="colon" unicode=":" 
d="M510 782q19 105 127 105q51 0 73 -27t13 -78q-18 -108 -125 -108q-106 0 -88 108zM377 133q9 51 42 79t85 28q51 0 73 -28t13 -79q-19 -108 -125 -108q-52 0 -74.5 27.5t-13.5 80.5z" />
    <glyph glyph-name="semicolon" unicode=";" 
d="M571 887q51 0 77.5 -27t25.5 -78q-6 -108 -111 -108q-108 0 -102 108q1 51 30 78t80 27zM500 240q51 0 73.5 -28t14.5 -79q-7 -31 -19 -49h2q-39 -70 -126 -167t-128 -122l-77 45q39 55 139 226q-12 27 -6 67q9 51 42.5 79t84.5 28z" />
    <glyph glyph-name="less" unicode="&#x3c;" 
d="M193 612l714 406l35 -135l-620 -348l522 -351l-82 -133l-594 406z" />
    <glyph glyph-name="equal" unicode="=" 
d="M897 618h-659l26 119h662zM854 315h-659l26 119h662z" />
    <glyph glyph-name="greater" unicode="&#x3e;" 
d="M936 612l-21 -155l-706 -406l-45 133l618 351l-522 348l74 135z" />
    <glyph glyph-name="question" unicode="?" 
d="M645 1366q194 0 292.5 -84t74.5 -254q-10 -71 -38.5 -126.5t-66.5 -91t-82.5 -66t-89 -62t-83 -68t-67.5 -94t-40 -131.5h-156q13 88 44.5 156.5t72 110.5t86 76t90.5 63t83.5 61t66 79t36.5 109q13 99 -41 144t-182 45q-93 0 -187.5 -40t-144.5 -112l-73 113
q52 82 161 127t244 45zM317 82q6 51 38 78.5t83 27.5t74.5 -27.5t17.5 -78.5q-16 -109 -120 -109q-52 0 -76.5 28t-16.5 81z" />
    <glyph glyph-name="at" unicode="@" 
d="M721 1358q220 0 308 -147t42 -414l-141 -797h-146l9 51q-84 -78 -181 -78q-141 0 -209.5 125t-33.5 318q32 175 130.5 277t237.5 102q56 0 95.5 -23.5t72.5 -75.5l-10 -78l33 189q73 420 -213 420q-122 0 -207.5 -80t-153 -267.5t-125.5 -512.5q-41 -224 -23 -369
t103 -209q16 -13 31 -25.5t22.5 -19t16.5 -13t18 -12.5l-125 -86q-14 8 -28.5 20t-22 19t-23.5 25t-20 22q-178 187 -84 705q86 486 229 710t398 224zM655 113q91 0 166 86l68 389q-20 47 -47.5 64.5t-77.5 17.5q-101 0 -166 -70.5t-90 -204.5q-25 -135 13.5 -208.5
t133.5 -73.5z" />
    <glyph glyph-name="A" unicode="A" 
d="M791 0l-37 375h-428l-174 -375h-148l604 1331h205l119 -1331h-141zM381 496h362l-57 608h-22z" />
    <glyph glyph-name="B" unicode="B" 
d="M786 745q105 -38 149 -128.5t21 -221.5q-35 -180 -168.5 -287.5t-322.5 -107.5h-408l258 1331h295q212 0 301 -84t56 -260q-18 -92 -59.5 -150t-121.5 -92zM592 1186h-158l-76 -387h148q152 0 227.5 50t97.5 159q19 99 -36 138.5t-203 39.5zM483 145q134 0 222.5 71
t113.5 200q23 120 -37.5 178.5t-208.5 58.5h-241l-101 -508h252z" />
    <glyph glyph-name="C" unicode="C" 
d="M838 309l163 -28q-41 -124 -189.5 -216t-305.5 -92q-225 0 -326.5 183.5t-58.5 494.5q43 310 202 508.5t363 198.5q139 0 252 -85.5t133 -203.5l-164 -41q-12 84 -77 139.5t-150 55.5q-144 0 -252.5 -160t-146.5 -428q-35 -252 24 -388t205 -136q104 0 203.5 60.5
t124.5 137.5z" />
    <glyph glyph-name="D" unicode="D" 
d="M297 1331h319q290 0 385.5 -149t32.5 -502q-121 -680 -540 -680h-433zM231 145h295q136 0 228.5 130t136.5 384q47 266 -9 393.5t-216 127.5h-252z" />
    <glyph glyph-name="E" unicode="E" 
d="M360 629l-94 -484h598l-30 -145h-740l258 1331h740l-27 -145h-598l-80 -414h496l-29 -143h-494z" />
    <glyph glyph-name="F" unicode="F" 
d="M854 532h-496l-102 -532h-147l258 1331h743l-29 -145h-596l-100 -508h496z" />
    <glyph glyph-name="G" unicode="G" 
d="M1016 502l-6 -27q-42 -233 -176 -367.5t-338 -134.5q-229 0 -325.5 177t-45.5 503q49 322 219.5 513.5t407.5 191.5q102 0 187.5 -47.5t174.5 -151.5l-133 -92q-64 90 -114 123t-122 33q-178 0 -295.5 -151.5t-164.5 -438.5q-41 -257 14 -389.5t205 -132.5
q146 0 245 99.5t130 270.5l-295 -4l16 121h428l-12 -84v-12z" />
    <glyph glyph-name="H" unicode="H" 
d="M291 575l-113 -575h-143l258 1331h143l-123 -633zM1141 1331l-236 -1220q-1 -3 -5 -21.5t-5 -24.5t-3 -20t-1 -24.5t4 -20.5h-154l256 1331h144zM852 575h-561l22 123h561z" />
    <glyph glyph-name="I" unicode="I" 
d="M1001 1212h-237l-193 -1093h291v-6q-1 -4 -4 -18.5t-4.5 -20t-3.5 -18t-2 -20t1 -18t3 -18.5h-741l20 119h295l192 1093h-249l22 119h633z" />
    <glyph glyph-name="J" unicode="J" 
d="M1130 1331q-24 -82 -28 -110l-166 -940q-23 -138 -150 -223t-311 -85q-135 0 -243.5 43.5t-149.5 114.5l104 107q91 -132 318 -132q259 0 289 175l163 931h-540l20 119h694z" />
    <glyph glyph-name="K" unicode="K" 
d="M1145 1333l-676 -682l473 -651h-221l-379 526l-63 -67l-91 -459h-143l258 1333l143 -2l-120 -629l630 629z" />
    <glyph glyph-name="L" unicode="L" 
d="M854 0h-768l258 1331h148l-236 -1212h618z" />
    <glyph glyph-name="M" unicode="M" 
d="M768 0l207 1061q-176 -341 -348 -592h-148q-8 37 -35.5 146t-52.5 224.5t-39 215.5l-200 -1055h-144l254 1331h152q24 -161 77 -371.5t93 -324.5q73 98 207 313t223 383h157l-260 -1331h-143z" />
    <glyph glyph-name="N" unicode="N" 
d="M881 0h-148l-340 1008l-194 -1008h-144l258 1331h152l328 -983l186 983h160z" />
    <glyph glyph-name="O" unicode="O" 
d="M483 -27q-229 0 -320.5 182.5t-33.5 522.5q58 330 207.5 505t372.5 175q224 0 318.5 -187t37.5 -514q-58 -327 -210.5 -505.5t-371.5 -178.5zM492 113q160 0 259.5 134.5t151.5 430.5q51 301 4 430t-202 127q-309 -3 -408 -578q-49 -289 -1.5 -416.5t196.5 -127.5z" />
    <glyph glyph-name="P" unicode="P" 
d="M213 0h-147l258 1331h397q191 0 285 -114.5t59 -303.5q-21 -103 -71.5 -177.5t-128 -118.5t-173.5 -64.5t-217 -20.5h-160zM702 1186h-260l-100 -508h236q148 0 236.5 65.5t113.5 192.5q23 122 -34 186t-192 64z" />
    <glyph glyph-name="Q" unicode="Q" 
d="M709 1358q224 0 318.5 -187t37.5 -514q-58 -327 -210.5 -505.5t-371.5 -178.5h-2q-54 -137 -65 -229h-154q9 79 74 254q-148 56 -201 229t-6 451q58 330 207.5 505t372.5 175zM903 678q51 301 4 430t-202 127q-309 -3 -408 -578q-39 -230 -17 -357t109 -167
q83 206 113 313h157q-32 -106 -122 -329q139 15 228 150t138 411z" />
    <glyph glyph-name="R" unicode="R" 
d="M711 1331q191 0 286.5 -115t57.5 -303q-60 -296 -379 -362q15 -40 41 -89.5t50 -88.5t50.5 -89.5t40.5 -91.5t20.5 -94t-8.5 -98h-170q9 45 10 80.5t-11 78.5t-26.5 77t-36.5 75.5t-41.5 74.5t-41 74.5t-35.5 74.5q-24 -3 -53 -3h-152l-102 -532h-145l256 1331h389z
M918 936q23 122 -34 186t-192 64h-252l-98 -508h225q148 0 237 65.5t114 192.5z" />
    <glyph glyph-name="S" unicode="S" 
d="M643 741q196 -38 275 -125.5t51 -263.5q-30 -188 -165.5 -283.5t-350.5 -95.5q-201 0 -316 115l92 88q46 -38 111 -60t125 -22q149 0 244.5 65.5t121.5 198.5q21 115 -31.5 168.5t-178.5 75.5q-202 36 -306.5 141t-78.5 265q17 99 90.5 179.5t180 124.5t222.5 44
q45 0 83.5 -6.5t77.5 -22t64.5 -42t44.5 -67t18 -96t-16 -129.5l-127 -22q10 51 10 92t-7 68t-23 46.5t-33.5 30t-43 16.5t-45.5 7.5t-48 1.5q-135 0 -215 -63.5t-98 -176.5q-14 -95 53.5 -159t218.5 -93z" />
    <glyph glyph-name="T" unicode="T" 
d="M293 1331h866l-22 -119h-367l-235 -1212h-144l234 1212h-355z" />
    <glyph glyph-name="U" unicode="U" 
d="M813 352l191 979h143l-189 -969q-33 -177 -162.5 -283t-336.5 -106q-205 0 -292 101.5t-52 277.5l190 979h144l-189 -969q-23 -128 44 -198t198 -70q120 0 203.5 65.5t107.5 192.5z" />
    <glyph glyph-name="V" unicode="V" 
d="M1038 1331h156l-668 -1331h-147l-176 1331h151l138 -1104z" />
    <glyph glyph-name="W" unicode="W" 
d="M1042 1331h144q-42 -271 -159 -681.5t-222 -649.5h-135q-84 371 -92 594q-73 -197 -289 -594h-139q-19 231 3.5 638.5t63.5 692.5h143q-42 -261 -72.5 -595t-13.5 -498q5 10 28.5 53.5t30.5 56.5t28 53.5t30 57.5t27.5 54t28 57.5t25 53.5t26 57t22 52.5t21.5 54.5
l145 -6q4 -187 76 -544q76 169 158 505.5t122 587.5z" />
    <glyph glyph-name="X" unicode="X" 
d="M1147 1331l-475 -667l270 -664h-166l-209 516l-366 -516h-154l469 651l-274 680h159l217 -534l383 534h146z" />
    <glyph glyph-name="Y" unicode="Y" 
d="M1202 1331l-563 -776l-78 -555h-145l80 553h-2l-318 778h156l264 -610l455 610h151z" />
    <glyph glyph-name="Z" unicode="Z" 
d="M1112 1331l-18 -137l-365 -461h186l-20 -119h-262l-379 -477h723l-19 -137h-911l19 137l380 477h-184l21 119h258l366 461h-639l19 137h825z" />
    <glyph glyph-name="bracketleft" unicode="[" 
d="M479 1331h447l-25 -135h-291l-248 -1405h291l-24 -133h-445z" />
    <glyph glyph-name="backslash" unicode="\" 
d="M219 1370l117 66l549 -1604l-115 -65z" />
    <glyph glyph-name="bracketright" unicode="]" 
d="M883 1331l-293 -1673h-445l23 133h289l245 1405h-288l22 135h447z" />
    <glyph glyph-name="asciicircum" unicode="^" 
d="M862 973l-198 268l-254 -268h-156l354 444h146l260 -444h-152z" />
    <glyph glyph-name="underscore" unicode="_" 
d="M1085 -342h-1042v121h1042v-121z" />
    <glyph glyph-name="grave" unicode="`" horiz-adv-x="1024" 
d="M424 1366l96 129l354 -276l-61 -89z" />
    <glyph glyph-name="a" unicode="a" 
d="M813 303l-41 -225q-150 -105 -295 -105q-209 0 -310 138t-61 368q41 238 177.5 379t324.5 141q109 0 183.5 -53.5t105.5 -154.5l-29 -166q-50 132 -110.5 190.5t-149.5 58.5q-126 0 -227.5 -111.5t-132.5 -283.5q-29 -167 41.5 -266.5t216.5 -99.5q175 0 307 190zM760 0
l170 973h145l-149 -860q-1 -5 -5 -22t-5.5 -24.5t-3 -21t-1 -24.5t3.5 -21h-155z" />
    <glyph glyph-name="b" unicode="b" 
d="M719 999q186 0 270.5 -141.5t38.5 -378.5q-46 -231 -197.5 -368.5t-361.5 -137.5q-143 0 -252 103q4 -54 19 -76h-183l258 1341l144 -10l-103 -538q69 100 163.5 153t203.5 53zM885 479q34 172 -27 283.5t-188 111.5q-89 0 -173 -59t-178 -190l-61 -324q64 -188 236 -188
q148 0 254 99.5t137 266.5z" />
    <glyph glyph-name="c" unicode="c" 
d="M844 90q-207 -115 -312 -115q-188 0 -289.5 93.5t-101.5 263.5q0 97 26 194.5t75.5 181.5t115.5 149.5t150.5 103.5t175.5 38q133 0 220 -79t87 -199q0 -25 -2 -37l-188 -31q8 46 8 66q0 64 -37 104.5t-102 40.5q-76 0 -147 -54t-119 -136.5t-76.5 -178.5t-28.5 -182
q0 -104 58 -153t180 -49q66 0 137 21.5t112 55.5z" />
    <glyph glyph-name="d" unicode="d" 
d="M997 1331h156q-2 -7 -15 -48.5t-18 -63.5l-217 -1035q-26 -114 27 -114q15 0 43 14l8 -68q-74 -43 -145 -43q-62 0 -87 29.5t-16 81.5zM780 303q-138 -190 -313 -190q-147 0 -213.5 99t-32.5 267q37 172 143.5 283.5t233.5 111.5q88 0 147.5 -59t102.5 -190l35 166
q-28 101 -101.5 154.5t-183.5 53.5q-186 0 -326.5 -141t-191.5 -379q-49 -230 47.5 -368t306.5 -138q143 0 299 105z" />
    <glyph glyph-name="e" unicode="e" 
d="M989 711q0 -75 -43.5 -131.5t-112 -88.5t-162.5 -50.5t-185.5 -23t-190.5 0.5q-19 -138 50 -225t198 -87q146 0 309 138l72 -107q-84 -77 -187 -120.5t-207 -43.5q-193 0 -299.5 125t-80.5 320q24 163 94 294t181.5 209t244.5 78q141 0 230 -88t89 -200zM637 877
q-115 0 -205 -106.5t-121 -254.5q88 5 151.5 11t140.5 20.5t125 35t81 56t33 82.5q0 59 -58 107.5t-147 48.5z" />
    <glyph glyph-name="f" unicode="f" 
d="M506 657h2h418l-6 -129l-287 -2q55 -87 92 -198.5t37 -223.5q0 -260 -225 -419q-71 -50 -127 -50q-51 0 -88 29.5t-56.5 81.5t-28 109.5t-8.5 124.5q0 137 28 290t65 254h-172v131h221q15 50 36.5 132.5t37.5 139.5t39.5 129.5t48.5 121t57.5 92.5t75 66t92.5 22
q95 0 163 -61t68 -154q0 -99 -78 -180l-49 28q23 48 23 84q0 57 -37.5 98t-85.5 41q-23 0 -42.5 -10.5t-36.5 -37t-30.5 -56t-31 -82.5t-31.5 -100t-38.5 -126t-45.5 -145zM612 121q0 127 -43 250.5t-86 154.5h-18q-36 -97 -62 -256t-26 -286q0 -187 61 -187q17 0 33 13
q141 100 141 311z" />
    <glyph glyph-name="g" unicode="g" 
d="M936 973h156q-3 -12 -15 -52t-18 -61l-164 -860q-27 -137 -168.5 -222t-329.5 -85q-165 0 -291 63l115 105q88 -37 203 -37q132 0 220 45.5t106 130.5l38 203q-162 -109 -311 -109q-197 0 -296.5 130t-59.5 335q40 201 184 320.5t346 119.5q189 0 264 -145zM504 231
q94 0 179 43t140 119l58 293q-29 90 -95 139t-157 49q-129 0 -235 -91t-132 -224q-25 -137 45 -232.5t197 -95.5z" />
    <glyph glyph-name="h" unicode="h" 
d="M860 106q29 0 88 29l23 -63q-44 -43 -94 -67.5t-77 -28.5l-28 -3q-41 0 -58 33.5t-5 85.5q2 8 14 54t40.5 157.5t61.5 239.5q37 131 -8 226t-147 95q-94 0 -179 -90.5t-196 -306.5l-94 -467h-146l275 1341l141 -10l-129 -631q83 157 173.5 228t205.5 71q95 0 162.5 -60.5
t87.5 -157.5t-8 -218q-29 -101 -57 -193t-45 -146t-21 -68q-11 -50 20 -50z" />
    <glyph glyph-name="i" unicode="i" 
d="M520 1253q7 51 39.5 78t83.5 27t74 -27t16 -78q-15 -108 -121 -108q-107 0 -92 108zM831 270l37 -51q-116 -246 -299 -246q-145 0 -206.5 97.5t-30.5 261.5q25 125 131 524l-193 -6l29 104l336 19q-7 -29 -74 -286.5t-84 -354.5q-36 -221 119 -221q64 0 127.5 42.5
t107.5 116.5z" />
    <glyph glyph-name="j" unicode="j" 
d="M737 1253q9 51 42.5 78t84.5 27q105 0 86 -105q-21 -108 -127 -108q-107 0 -86 108zM877 973l-189 -975q-33 -171 -129.5 -268t-247.5 -97q-67 0 -111 35.5t-60.5 93t-9.5 131.5t38 152l82 29q-39 -90 -35 -158.5t37.5 -108.5t83.5 -40q160 0 205 235l166 852l-197 -6
l20 108z" />
    <glyph glyph-name="k" unicode="k" 
d="M973 584q-74 -266 -273 -348q101 -160 201 -236l-203 -2q-27 20 -55.5 56t-45.5 63t-50 82q-10 0 -32 -1t-34 -1q-100 0 -186 47l-49 -244h-146l273 1341l143 -10l-90 -446q123 114 227 114q65 0 121 -18.5t93.5 -49.5t66 -72.5t39.5 -87.5t13 -94.5t-13 -92.5zM813 594
q9 38 11 79t-11.5 80.5t-36 70.5t-61.5 50t-88 19q-108 0 -219 -100l-21 -103q18 -15 36 -34t32.5 -35t33.5 -43t29 -42t30.5 -48t28 -46t30 -51.5t28.5 -48.5q117 57 178 252zM324 387q70 -60 155 -68q-70 122 -129 191z" />
    <glyph glyph-name="l" unicode="l" 
d="M633 111q66 0 131 42.5t110 116.5l37 -51q-116 -246 -303 -246q-120 0 -171.5 58.5t-51.5 177.5q0 26 2 51.5t7 56t8 45.5t11.5 53.5t10.5 47.5q-91 -59 -225 -117l-21 96q15 6 69 28t76 32.5t60.5 36t71.5 57.5q63 351 140.5 556.5t152.5 205.5q64 0 123 -71t59 -167
q0 -157 -87 -294t-288 -287q-18 -81 -39 -207q-8 -39 -8 -76q0 -145 125 -145zM768 1196q-34 0 -81.5 -134t-98.5 -370q114 111 174.5 215t60.5 183q0 42 -12.5 74t-42.5 32z" />
    <glyph glyph-name="m" unicode="m" 
d="M993 55q-44 -36 -89 -56.5t-68 -22.5l-23 -3q-41 0 -61.5 34t-8.5 83q2 7 11.5 53.5t33 158t52.5 243.5q37 165 38 218q-8 96 -81 101q-33 0 -73 -38t-77 -117l-6 -29l-119 -680h-139l127 717q9 60 -13 98.5t-75 38.5q-38 0 -70 -28.5t-78 -94.5l27 154q41 63 82 88.5
t102 25.5q124 0 154 -129q73 129 172 129q94 0 137 -51t42.5 -148.5t-25.5 -238.5q-19 -105 -38.5 -194t-35.5 -151t-17 -66q-8 -37 23 -45t70 12zM301 885l-27 -154l-106 -618q-1 -4 -4 -18.5t-4.5 -20t-3.5 -18t-2 -20t1 -18t3 -18.5h-156l170 973h145z" />
    <glyph glyph-name="n" unicode="n" 
d="M965 135l22 -63q-44 -43 -93.5 -67.5t-77.5 -28.5l-28 -3q-40 0 -57 33.5t-8 85.5q3 9 14 52t39 161t58 238q34 132 -13.5 226.5t-150.5 94.5q-95 0 -179 -93.5t-192 -315.5l4 32l35 193q82 168 172.5 243.5t210.5 75.5q95 0 163.5 -60.5t89.5 -157.5t-5 -218
q-26 -101 -52.5 -193.5t-43 -145.5t-19.5 -68q-14 -50 20 -50q29 0 91 29zM338 680l-35 -193l-84 -487h-145l170 973h182q-1 -1 -10.5 -16t-14.5 -24t-13 -24t-12.5 -29t-6.5 -26z" />
    <glyph glyph-name="o" unicode="o" 
d="M496 -27q-205 0 -308 145t-71 388q32 228 170 360.5t342 132.5q207 0 311 -139.5t72 -372.5q-32 -232 -173.5 -373t-342.5 -141zM500 98q137 0 229.5 108t120.5 300q26 182 -34.5 279.5t-194.5 95.5q-132 -2 -220 -104.5t-116 -289.5q-26 -181 31.5 -285t183.5 -104z" />
    <glyph glyph-name="p" unicode="p" 
d="M696 999q187 0 273 -141t45 -379q-40 -230 -190 -368t-359 -138q-143 0 -258 105l39 223q68 -188 239 -188q148 0 253 99.5t134 266.5q31 172 -32 283.5t-191 111.5q-88 0 -170.5 -58.5t-175.5 -188.5l29 166q68 100 161 153t203 53zM246 303l-39 -225l-74 -420l-147 -10
l233 1325h182q-50 -72 -59 -119l-10 -61v-2l-31 -166q0 2 2 2l-57 -326v2z" />
    <glyph glyph-name="q" unicode="q" 
d="M805 303l-43 -225q-153 -105 -297 -105q-209 0 -308 138t-55 368q46 238 184.5 379t325.5 141q111 0 185 -53.5t102 -154.5l-31 -166q-47 132 -107 190.5t-149 58.5q-126 0 -230 -111.5t-138 -283.5q-32 -167 36.5 -266.5t215.5 -99.5q177 0 309 190zM936 973h154
q-3 -9 -10.5 -34t-12.5 -43.5t-8 -35.5l-170 -880q-27 -126 -23.5 -189t43.5 -106l-137 -58q-77 89 -49 252z" />
    <glyph glyph-name="r" unicode="r" 
d="M395 918q5 -5 15.5 -13.5t16.5 -14t16 -16.5t14.5 -19.5t10.5 -23t5 -28t-2 -33.5q62 89 182 146t187 57q100 0 200 -47l-110 -142q-55 31 -128.5 23.5t-144 -37t-127.5 -79.5t-79 -103l-119 -588h-139l133 709q4 20 4 36.5t-1.5 29t-8.5 24.5t-12 19t-17 16.5t-19 14.5
t-22 15z" />
    <glyph glyph-name="s" unicode="s" 
d="M772 623q76 -91 122 -194t46 -167q0 -122 -100 -204.5t-248 -82.5q-64 0 -140 17.5t-122 42.5l65 121q55 -35 117 -41q24 -6 76 -6q94 0 153.5 42t59.5 109q0 42 -31 101t-100 161q-31 44 -43 62.5t-23.5 42.5t-17.5 51q-92 -162 -192 -293t-179 -190l-106 112
q139 100 260 277.5t194 388.5h187q-23 -60 -30 -80t-13.5 -49.5t-6.5 -57.5q0 -40 15.5 -74.5t56.5 -88.5z" />
    <glyph glyph-name="t" unicode="t" 
d="M473 332q-6 -24 -6 -45q-15 -176 123 -176q64 0 127.5 42.5t107.5 116.5l39 -51q-116 -246 -299 -246q-127 0 -190.5 74.5t-57.5 204.5q3 42 11 80q3 20 90 420q3 18 11 51.5t11 50.5h-180l16 119h189q62 273 72 358h143q-17 -117 -72 -358h301l-16 -119h-309l-21 -92
q-57 -257 -90 -430z" />
    <glyph glyph-name="u" unicode="u" 
d="M1042 973l-165 -860q-1 -7 -6.5 -28.5t-6.5 -28.5t-3 -28.5t3 -27.5h-153l26 139q-56 -75 -143.5 -120.5t-179.5 -45.5q-102 0 -172.5 65.5t-95 175t0.5 237.5l101 524h155l-108 -561q-25 -126 34.5 -219t176.5 -93q39 0 70.5 11t64 38t57 54.5t66.5 79.5l-14 -82
l147 770h145z" />
    <glyph glyph-name="v" unicode="v" 
d="M926 973h155l-540 -973h-148l-174 973h154l133 -746z" />
    <glyph glyph-name="w" unicode="w" 
d="M975 999h143q-26 -165 -84.5 -352.5t-110 -313t-143.5 -333.5h-137q-70 321 -76 508q-16 -45 -36.5 -91.5t-35.5 -79.5t-43 -87t-40 -76.5t-48.5 -88.5t-46.5 -85h-139q-16 190 -22.5 329.5t-1.5 321.5t28 348h144q-59 -383 -23 -761q68 127 94.5 178t68.5 144.5
t71 176.5l143 -6q0 -225 57 -493q91 208 149.5 387t88.5 374z" />
    <glyph glyph-name="x" unicode="x" 
d="M1030 973l-395 -498l242 -475h-152l-182 360l-287 -360h-160l385 481l-250 492h152l192 -375l299 375h156z" />
    <glyph glyph-name="y" unicode="y" 
d="M901 973h162q-62 -154 -240.5 -483.5t-359.5 -636.5q-75 -131 -172.5 -181.5t-227.5 -27.5l37 112q144 -29 242 156l86 147q-23 109 -76.5 314.5t-84 353t-29.5 246.5h141q-1 -63 14.5 -162t30.5 -165t53 -217.5t49 -197.5q298 529 375 742z" />
    <glyph glyph-name="z" unicode="z" 
d="M993 973l-16 -119l-676 -735h580l-2 -6q-1 -9 -4 -27.5t-4 -30t-0.5 -27.5t3.5 -28h-741l17 119l677 735h-553l17 119h702z" />
    <glyph glyph-name="braceleft" unicode="{" 
d="M946 1219q-45 8 -89.5 3t-81 -18.5t-62 -44.5t-31.5 -76q-5 -33 9.5 -152t0.5 -200q-31 -201 -213 -235q61 -10 96 -50.5t41 -95.5t-2 -119q-11 -61 -37.5 -121t-50.5 -111t-30 -93q-10 -60 19 -95t80.5 -40.5t115.5 0.5l-13 -113q-110 -8 -193.5 18.5t-128.5 95
t-28 169.5q9 58 57 146t60 165q2 23 4.5 47t-8 47t-29 40.5t-58.5 28.5t-98 11l15 137q71 0 121.5 17t77 47t39 59t18.5 66q10 71 -8.5 174.5t-8.5 163.5q20 127 134 191t292 50z" />
    <glyph glyph-name="bar" unicode="|" 
d="M614 1331h156l-295 -1673h-156z" />
    <glyph glyph-name="braceright" unicode="}" 
d="M362 1219l25 112q182 14 275.5 -50t74.5 -191q-9 -60 -60 -163.5t-63 -174.5q-2 -26 -3.5 -52t10 -51t31 -44t60.5 -30.5t99 -11.5l-29 -137q-58 0 -102 -11.5t-68.5 -27.5t-41 -41.5t-23 -45.5t-10.5 -48q-10 -81 -1 -118.5t18.5 -90t2.5 -102.5q-16 -102 -82.5 -170
t-158 -94.5t-199.5 -18.5l24 113q62 -6 115 -0.5t92.5 40.5t50.5 95q7 46 -10.5 146.5t-5.5 178.5q15 102 69.5 176.5t147.5 88.5q-168 34 -137 235q9 62 36 131.5t53 128t32 92.5q7 45 -9 76t-48 44.5t-75 18.5t-90 -3z" />
    <glyph glyph-name="asciitilde" unicode="~" 
d="M414 690q50 0 90 -17.5t66 -42t48.5 -49t48 -42t54.5 -17.5q94 0 192 146l95 -80q-55 -84 -130.5 -143.5t-166.5 -59.5q-48 0 -87.5 17.5t-65 42.5t-48.5 50t-50 42.5t-57 17.5q-91 0 -192 -147l-90 79q127 203 293 203z" />
    <glyph glyph-name="exclamdown" unicode="&#xa1;" 
d="M500 1079q15 107 123 107q105 0 90 -107q-12 -106 -119 -106q-106 0 -94 106zM500 811h139l-72 -651l-45 -330h-180l47 330z" />
    <glyph glyph-name="cent" unicode="&#xa2;" 
d="M989 684l-188 -31q8 46 8 66q0 64 -37 104.5t-102 40.5q-76 0 -147 -54t-119 -136.5t-76.5 -178.5t-28.5 -182q0 -104 58 -153t180 -49q66 0 137 21.5t112 55.5l58 -98q-207 -115 -312 -115h-6l-28 -190h-144l29 209q-118 32 -180 119t-62 219q0 136 50 268t142.5 233
t207.5 142l28 199h146l-25 -175q130 -1 215.5 -80t85.5 -198q0 -25 -2 -37z" />
    <glyph glyph-name="sterling" unicode="&#xa3;" 
d="M780 1358q107 0 182.5 -45t106.5 -123l-96 -80q-28 54 -84.5 84.5t-118.5 30.5q-87 0 -142.5 -59.5t-72.5 -174.5q-7 -50 -17 -161.5t-18 -172.5h314l-27 -120h-311q-54 -230 -209 -420l618 2l-18 -119h-764l14 119q149 182 211 418h-186l26 120h185q11 66 21.5 184.5
t17.5 166.5q23 165 119.5 257.5t248.5 92.5z" />
    <glyph glyph-name="currency" unicode="&#xa4;" 
d="M389 807q90 53 213 53q126 0 201 -57l172 151l86 -98l-168 -149q50 -92 33 -218q-18 -118 -92 -208l127 -144l-109 -96l-131 145q-89 -51 -207 -51q-120 0 -205 53l-172 -149l-86 98l172 152q-45 89 -28 217q16 121 84 205l-125 147l106 98zM598 733q-104 0 -168 -64
t-82 -180q-15 -109 27.5 -168t142.5 -59q105 0 169 63.5t81 180.5q15 109 -27.5 168t-142.5 59z" />
    <glyph glyph-name="yen" unicode="&#xa5;" 
d="M1217 1331l-555 -749h235l-12 -119h-258l-23 -137h256l-14 -119h-260l-33 -207h-145l32 207h-237l14 119h242l22 137h-239l12 119h229l-293 749h158l250 -610l469 610h150z" />
    <glyph glyph-name="brokenbar" unicode="&#xa6;" 
d="M487 614l125 717h156l-125 -717h-156zM598 358l-123 -700h-156l123 700h156z" />
    <glyph glyph-name="section" unicode="&#xa7;" 
d="M729 1460q129 0 244 -46t157 -116l-104 -96q-41 62 -125 94.5t-184 32.5q-135 0 -211.5 -60.5t-95.5 -158.5q-5 -25 -8 -43t0 -35t5 -27.5t14.5 -23.5t20.5 -20t32 -20t40 -21t53 -25q33 -17 154 -94t135 -84q59 -32 89 -73.5t31 -84.5t-19 -91t-54.5 -91.5t-81.5 -87.5
q93 -100 72 -223q-27 -141 -152.5 -235.5t-312.5 -94.5q-127 0 -241.5 46t-155.5 116l100 96q41 -62 125 -94.5t184 -32.5q137 0 214 60.5t96 158.5q4 22 5.5 39t2.5 31.5t-5 27t-8.5 21t-17 20t-21.5 17.5t-31 18t-36.5 18.5t-46.5 22.5q-33 17 -154.5 94.5t-134.5 83.5
q-73 41 -101.5 94.5t-13.5 110.5t52.5 112.5t97.5 110.5q-93 100 -72 223q27 141 152.5 235.5t310.5 94.5zM754 639q-17 8 -49 31t-84.5 56.5t-118.5 66.5q-7 4 -60 32q-51 -47 -79.5 -84t-36.5 -71t12 -62t68 -51q17 -7 91.5 -58t161.5 -96q9 -6 58 -32q50 48 78 84.5
t37 70.5t-10.5 62t-67.5 51z" />
    <glyph glyph-name="dieresis" unicode="&#xa8;" horiz-adv-x="1024" 
d="M387 1253q0 51 28 78t81 27q104 0 104 -105q0 -108 -104 -108q-109 0 -109 108zM729 1253q0 51 28 78t79 27q106 0 106 -105q0 -108 -106 -108q-107 0 -107 108z" />
    <glyph glyph-name="copyright" unicode="&#xa9;" 
d="M692 1460q97 0 175.5 -37t132 -105.5t75 -174.5t2.5 -236q-36 -254 -182.5 -396t-343.5 -142q-95 0 -173.5 37t-132 105.5t-75 174.5t-2.5 236q25 170 103 293.5t186.5 184t234.5 60.5zM555 477q152 0 272 122t150 327q30 198 -53.5 313t-233.5 115q-153 0 -272.5 -119.5
t-147.5 -323.5q-28 -199 54 -316.5t231 -117.5zM764 813l98 -22q-24 -89 -95.5 -141t-174.5 -52q-126 0 -182 82t-37 227q22 148 98 242t199 94q91 0 152 -50.5t69 -125.5l-98 -20q-3 50 -35.5 77t-87.5 27q-164 0 -201 -256q-14 -104 16 -154.5t107 -50.5q144 0 172 123z
" />
    <glyph glyph-name="guillemotleft" unicode="&#xab;" 
d="M449 121q-22 27 -54.5 67.5t-51 64t-56.5 75t-88 121.5q-32 40 -35 50q-3 17 27 50q6 5 14 14q110 104 203.5 190t142.5 132l57 -103q-6 -6 -35.5 -34t-39.5 -39t-36 -37t-40.5 -42.5t-35 -41t-36.5 -47.5t-31 -47q8 -23 17.5 -45.5t23 -46.5l22.5 -40t27.5 -42t25.5 -36
t28.5 -39t25.5 -34zM807 121q-22 27 -54.5 67.5t-51 64t-56.5 75t-88 121.5q-32 40 -35 50q-3 17 27 50q6 5 14 14q110 104 203.5 190t142.5 132l58 -103q-6 -6 -35.5 -34t-39.5 -39t-36 -37t-40.5 -42.5t-35 -41t-36.5 -47.5t-31 -47q8 -23 17.5 -45.5t23 -46.5l22.5 -40
t27.5 -42t25.5 -36t28.5 -39t25.5 -34z" />
    <glyph glyph-name="logicalnot" unicode="&#xac;" 
d="M838 240h-138l31 204h-498l17 119h635z" />
    <glyph glyph-name="registered" unicode="&#xae;" 
d="M694 1460q123 0 218.5 -61.5t140.5 -167.5t26 -230q-17 -121 -89.5 -223t-181 -161.5t-228.5 -59.5q-186 0 -299.5 134.5t-87.5 324.5q26 184 173.5 314t327.5 130zM584 670q143 0 259 102t136 246q20 138 -64.5 236t-224.5 98q-144 0 -259.5 -101.5t-135.5 -244.5
q-19 -140 65 -238t224 -98zM821 1071q-11 -79 -86 -119q3 -6 9 -19t9.5 -20.5t9 -19.5t9 -19.5t7.5 -17.5t6.5 -17.5t4.5 -15t3 -13t0 -9.5l-88 6q1 7 -1 17.5t-8 25t-11 26t-14 31t-14 29.5h-100l-20 -133h-82l59 420h158q65 0 111 -41.5t38 -110.5zM567 1018h72
q49 0 73 13t31 52q6 35 -13 47.5t-64 12.5h-80z" />
    <glyph glyph-name="macron" unicode="&#xaf;" horiz-adv-x="1024" 
d="M811 1126h-498v103h498v-103z" />
    <glyph glyph-name="degree" unicode="&#xb0;" 
d="M485 846q-108 0 -179.5 79t-59.5 187q10 104 92.5 175t191.5 71q110 0 182 -76t60 -180q-11 -104 -95.5 -180t-191.5 -76zM485 946q73 0 116 43.5t52 122.5q9 74 -23.5 114t-99.5 40q-70 0 -111.5 -43t-49.5 -121q-8 -75 22 -115.5t94 -40.5z" />
    <glyph glyph-name="plusminus" unicode="&#xb1;" 
d="M647 643h332l-21 -113h-331l-47 -260h-144l47 260h-329l20 113h330l45 262h143zM162 96l18 113h697l-19 -113h-696z" />
    <glyph glyph-name="acute" unicode="&#xb4;" horiz-adv-x="1024" 
d="M895 1366l-455 -236l-37 89l431 276z" />
    <glyph glyph-name="paragraph" unicode="&#xb6;" 
d="M723 1331h395l-297 -1673h-143l272 1554h-186l-275 -1554h-143l141 776q-210 27 -287.5 143.5t-41.5 323.5q26 141 87 230t178 140t298 58z" />
    <glyph glyph-name="periodcentered" unicode="&#xb7;" 
d="M455 543q0 51 28.5 78.5t79.5 27.5t79 -27.5t28 -78.5q0 -52 -28 -80.5t-79 -28.5q-52 0 -80 28t-28 81z" />
    <glyph glyph-name="cedilla" unicode="&#xb8;" horiz-adv-x="1024" 
d="M559 -436q-82 0 -132.5 22t-90.5 76l78 72q22 -39 54 -53.5t99 -14.5q72 0 104.5 17t35.5 55t-20.5 58t-68.5 20q-30 0 -60 -9.5t-44 -23.5l-94 8l53 209h100l-36 -125q6 9 40.5 17t71.5 8q83 0 126.5 -45t37.5 -123q-6 -82 -71 -125t-183 -43z" />
    <glyph glyph-name="guillemotright" unicode="&#xbb;" 
d="M168 121l-49 90q6 5 31 29.5t33.5 33.5t31.5 32t34.5 35.5t31 34.5t32 38.5t27.5 38t27 41.5q-7 21 -16 43t-17 38.5t-22 39.5t-21 35t-24.5 36.5t-23 32t-24.5 33.5t-22 30l84 103q35 -46 105 -132t151 -190q28 -43 25.5 -55.5t-40.5 -48.5q-2 -2 -3 -3.5t-3 -3t-4 -3.5
q-70 -70 -123 -121.5t-78 -75t-69.5 -64t-73.5 -67.5zM526 121l-49 90q6 5 31 29.5t33.5 33.5t31.5 32t34.5 35.5t31 34.5t32 38.5t27.5 38t27 41.5q-7 21 -16 43t-17 38.5t-22 39.5t-21 35t-24.5 36.5t-23 32t-24.5 33.5t-22 30l84 103q35 -46 105 -132t151 -190
q28 -43 25.5 -55.5t-40.5 -48.5q-2 -2 -3 -3.5t-3 -3t-4 -3.5q-70 -70 -123 -121.5t-78 -75t-69.5 -64t-73.5 -67.5z" />
    <glyph glyph-name="onequarter" unicode="&#xbc;" 
d="M367 1219q-17 -24 -57 -37t-113 -23l-9 76q127 25 191 96h96l-84 -592h-94zM981 985l70 -51l-912 -621l-63 56zM915 332q-19 -63 -24 -109h110l-10 -73h-110l-21 -150h-96l20 150h-241l10 73l287 369h104l-289 -369h140l16 109h104z" />
    <glyph glyph-name="onehalf" unicode="&#xbd;" 
d="M295 739l70 480q-17 -24 -57 -37t-113 -23l-7 76q125 26 189 96h96l-84 -592h-94zM1049 950l-912 -618l-61 53l903 616zM938 455q6 34 -22.5 52.5t-86.5 18.5q-102 0 -176 -82l-69 39q37 51 102 83t135 32q95 0 157.5 -46.5t53.5 -109.5q-6 -43 -47.5 -92t-90.5 -86
t-126.5 -94.5t-122.5 -95.5h352l-10 -74h-481l10 74q46 40 127 98t137.5 98t104 91t53.5 94z" />
    <glyph glyph-name="threequarters" unicode="&#xbe;" 
d="M309 745q-147 0 -203 101l58 37q28 -39 59 -52.5t92 -13.5q74 0 114.5 21.5t47.5 74.5q8 56 -28 83.5t-119 27.5h-45l8 66h39q77 0 123.5 31t52.5 83q6 48 -27.5 65t-97.5 17q-92 0 -131 -53l-45 57q22 32 73.5 50t110.5 18q93 0 159 -46.5t56 -119.5q-6 -43 -39.5 -80
t-87.5 -59q48 -16 77 -58.5t22 -95.5q-10 -70 -86 -112t-183 -42zM981 985l70 -51l-912 -621l-63 56zM915 332q-19 -63 -24 -109h110l-10 -73h-110l-21 -150h-96l20 150h-241l10 73l287 369h104l-289 -369h140l16 109h104z" />
    <glyph glyph-name="questiondown" unicode="&#xbf;" 
d="M809 1079q-6 -52 -37.5 -79t-83.5 -27q-104 0 -92 106q7 52 38.5 79.5t82.5 27.5q107 0 92 -107zM481 -205q-195 0 -292.5 84t-73.5 254q10 71 38.5 126.5t66.5 91t82.5 66t89 61.5t83 68t67.5 94.5t40 131.5h155q-14 -88 -45.5 -156.5t-72 -110.5t-86 -76t-90.5 -63
t-83 -61t-65.5 -79t-36.5 -109q-13 -99 41 -145t182 -46q93 0 187 40t145 112l74 -113q-51 -81 -160.5 -125.5t-245.5 -44.5z" />
    <glyph glyph-name="Agrave" unicode="&#xc0;" 
d="M956 1577l-63 -88l-387 235l94 129zM608 1331h205l119 -1331h-141l-37 375h-428l-174 -375h-148zM381 496h362l-57 608h-22z" />
    <glyph glyph-name="Aacute" unicode="&#xc1;" 
d="M977 1724l-455 -235l-37 88l430 276zM608 1331h205l119 -1331h-141l-37 375h-428l-174 -375h-148zM381 496h362l-57 608h-22z" />
    <glyph glyph-name="Acircumflex" unicode="&#xc2;" 
d="M752 1630l-193 -182h-125l285 321h115l174 -321h-121zM608 1331h205l119 -1331h-141l-37 375h-428l-174 -375h-148zM381 496h362l-57 608h-22z" />
    <glyph glyph-name="Atilde" unicode="&#xc3;" 
d="M1016 1712l86 -72q-46 -70 -113.5 -117.5t-150.5 -47.5q-44 0 -76.5 12t-51 29.5t-34.5 35t-36.5 29.5t-47.5 12q-95 0 -170 -114l-84 71q106 166 262 166q45 0 78 -12.5t52 -30t34.5 -34.5t35 -29.5t44.5 -12.5q96 0 172 115zM608 1331h205l119 -1331h-141l-37 375h-428
l-174 -375h-148zM381 496h362l-57 608h-22z" />
    <glyph glyph-name="Adieresis" unicode="&#xc4;" 
d="M561 1503q-106 0 -106 109q0 51 27.5 77.5t78.5 26.5t79 -26.5t28 -77.5q0 -54 -28 -81.5t-79 -27.5zM903 1716q105 0 105 -104q0 -109 -105 -109q-108 0 -108 109q0 104 108 104zM608 1331h205l119 -1331h-141l-37 375h-428l-174 -375h-148zM381 496h362l-57 608h-22z
" />
    <glyph glyph-name="Aring" unicode="&#xc5;" 
d="M682 1343q-86 0 -141.5 56.5t-55.5 144.5q0 86 55.5 140.5t141.5 54.5q88 0 143.5 -54.5t55.5 -140.5t-57 -143.5t-142 -57.5zM682 1667q-54 0 -76 -27.5t-22 -95.5q0 -66 23 -95.5t75 -29.5q55 0 78.5 29t23.5 96q0 66 -23.5 94.5t-78.5 28.5zM791 0l-37 375h-428
l-174 -375h-148l604 1331h205l119 -1331h-141zM381 496h362l-57 608h-22z" />
    <glyph glyph-name="AE" unicode="&#xc6;" 
d="M1098 1186h-424l43 -414h272l-20 -143h-238l51 -484h174l-20 -145h-285l2 6l-32 369h-316l-119 -375h-147l450 1331h629zM342 496h268l-51 608h-22z" />
    <glyph glyph-name="Ccedilla" unicode="&#xc7;" 
d="M510 111q104 0 203.5 60.5t124.5 137.5l163 -28q-41 -124 -189.5 -216t-305.5 -92q-9 0 -26 1t-25 1l-31 -100q8 9 42 17t71 8q84 0 127.5 -45t37.5 -123q-6 -82 -70.5 -125t-182.5 -43q-82 0 -133 22t-91 76l76 72q24 -39 56.5 -53.5t97.5 -14.5q73 0 105.5 17t35.5 55
q3 78 -88 78q-32 0 -61.5 -9.5t-43.5 -23.5l-94 8l53 207q-152 57 -214 227.5t-27 425.5q43 310 202 508.5t363 198.5q139 0 252 -85.5t133 -203.5l-164 -41q-12 84 -77 139.5t-150 55.5q-144 0 -252.5 -160t-146.5 -428q-35 -252 24 -388t205 -136z" />
    <glyph glyph-name="Egrave" unicode="&#xc8;" 
d="M506 1724l94 129l356 -276l-63 -88zM266 145l94 484h494l29 143h-496l80 414h598l27 145h-740l-258 -1331h740l30 145h-598z" />
    <glyph glyph-name="Eacute" unicode="&#xc9;" 
d="M977 1724l-455 -235l-37 88l430 276zM266 145l94 484h494l29 143h-496l80 414h598l27 145h-740l-258 -1331h740l30 145h-598z" />
    <glyph glyph-name="Ecircumflex" unicode="&#xca;" 
d="M887 1448l-135 182l-193 -182h-125l285 321h115l174 -321h-121zM266 145l94 484h494l29 143h-496l80 414h598l27 145h-740l-258 -1331h740l30 145h-598z" />
    <glyph glyph-name="Edieresis" unicode="&#xcb;" 
d="M455 1612q0 51 27.5 77.5t78.5 26.5t79 -26.5t28 -77.5q0 -54 -28 -81.5t-79 -27.5q-106 0 -106 109zM795 1612q0 104 108 104q105 0 105 -104q0 -109 -105 -109q-108 0 -108 109zM266 145l94 484h494l29 143h-496l80 414h598l27 145h-740l-258 -1331h740l30 145h-598z
" />
    <glyph glyph-name="Igrave" unicode="&#xcc;" 
d="M956 1577l-63 -88l-387 235l94 129zM1001 1212h-237l-193 -1093h291v-6q-1 -4 -4 -18.5t-4.5 -20t-3.5 -18t-2 -20t1 -18t3 -18.5h-741l20 119h295l192 1093h-249l22 119h633z" />
    <glyph glyph-name="Iacute" unicode="&#xcd;" 
d="M977 1724l-455 -235l-37 88l430 276zM1001 1212h-237l-193 -1093h291v-6q-1 -4 -4 -18.5t-4.5 -20t-3.5 -18t-2 -20t1 -18t3 -18.5h-741l20 119h295l192 1093h-249l22 119h633z" />
    <glyph glyph-name="Icircumflex" unicode="&#xce;" 
d="M752 1630l-193 -182h-125l285 321h115l174 -321h-121zM1001 1212h-237l-193 -1093h291v-6q-1 -4 -4 -18.5t-4.5 -20t-3.5 -18t-2 -20t1 -18t3 -18.5h-741l20 119h295l192 1093h-249l22 119h633z" />
    <glyph glyph-name="Idieresis" unicode="&#xcf;" 
d="M561 1503q-106 0 -106 109q0 51 27.5 77.5t78.5 26.5t79 -26.5t28 -77.5q0 -54 -28 -81.5t-79 -27.5zM903 1503q-108 0 -108 109q0 104 108 104q105 0 105 -104q0 -109 -105 -109zM1001 1212h-237l-193 -1093h291v-6q-1 -4 -4 -18.5t-4.5 -20t-3.5 -18t-2 -20t1 -18
t3 -18.5h-741l20 119h295l192 1093h-249l22 119h633z" />
    <glyph glyph-name="Eth" unicode="&#xd0;" 
d="M616 1331q290 0 385.5 -149t32.5 -502q-121 -680 -540 -680h-433l236 1331h319zM891 659q47 266 -9 393.5t-216 127.5h-252l-109 -617h565q12 47 21 96zM526 145q207 0 310 299h-551l-54 -299h295z" />
    <glyph glyph-name="Ntilde" unicode="&#xd1;" 
d="M881 0h-148l-340 1008l-194 -1008h-144l258 1331h152l328 -983l186 983h160z" />
    <glyph glyph-name="Ograve" unicode="&#xd2;" 
d="M506 1724l94 129l356 -276l-63 -88zM483 -27q-229 0 -320.5 182.5t-33.5 522.5q58 330 207.5 505t372.5 175q224 0 318.5 -187t37.5 -514q-58 -327 -210.5 -505.5t-371.5 -178.5zM492 113q160 0 259.5 134.5t151.5 430.5q51 301 4 430t-202 127q-309 -3 -408 -578
q-49 -289 -1.5 -416.5t196.5 -127.5z" />
    <glyph glyph-name="Oacute" unicode="&#xd3;" 
d="M977 1724l-455 -235l-37 88l430 276zM483 -27q-229 0 -320.5 182.5t-33.5 522.5q58 330 207.5 505t372.5 175q224 0 318.5 -187t37.5 -514q-58 -327 -210.5 -505.5t-371.5 -178.5zM492 113q160 0 259.5 134.5t151.5 430.5q51 301 4 430t-202 127q-309 -3 -408 -578
q-49 -289 -1.5 -416.5t196.5 -127.5z" />
    <glyph glyph-name="Ocircumflex" unicode="&#xd4;" 
d="M887 1448l-135 182l-193 -182h-125l285 321h115l174 -321h-121zM483 -27q-229 0 -320.5 182.5t-33.5 522.5q58 330 207.5 505t372.5 175q224 0 318.5 -187t37.5 -514q-58 -327 -210.5 -505.5t-371.5 -178.5zM492 113q160 0 259.5 134.5t151.5 430.5q51 301 4 430
t-202 127q-309 -3 -408 -578q-49 -289 -1.5 -416.5t196.5 -127.5z" />
    <glyph glyph-name="Otilde" unicode="&#xd5;" 
d="M600 1716q45 0 78 -12.5t52 -30t34.5 -34.5t35 -29.5t44.5 -12.5q96 0 172 115l86 -72q-46 -70 -113.5 -117.5t-150.5 -47.5q-44 0 -76.5 12t-51 29.5t-34.5 35t-36.5 29.5t-47.5 12q-95 0 -170 -114l-84 71q106 166 262 166zM483 -27q-229 0 -320.5 182.5t-33.5 522.5
q58 330 207.5 505t372.5 175q224 0 318.5 -187t37.5 -514q-58 -327 -210.5 -505.5t-371.5 -178.5zM492 113q160 0 259.5 134.5t151.5 430.5q51 301 4 430t-202 127q-309 -3 -408 -578q-49 -289 -1.5 -416.5t196.5 -127.5z" />
    <glyph glyph-name="Odieresis" unicode="&#xd6;" 
d="M455 1612q0 51 27.5 77.5t78.5 26.5t79 -26.5t28 -77.5q0 -54 -28 -81.5t-79 -27.5q-106 0 -106 109zM795 1612q0 104 108 104q105 0 105 -104q0 -109 -105 -109q-108 0 -108 109zM483 -27q-229 0 -320.5 182.5t-33.5 522.5q58 330 207.5 505t372.5 175q224 0 318.5 -187
t37.5 -514q-58 -327 -210.5 -505.5t-371.5 -178.5zM492 113q160 0 259.5 134.5t151.5 430.5q51 301 4 430t-202 127q-309 -3 -408 -578q-49 -289 -1.5 -416.5t196.5 -127.5z" />
    <glyph glyph-name="multiply" unicode="&#xd7;" 
d="M905 743l-266 -235l207 -238l-92 -77l-207 233l-262 -233l-76 83l264 236l-203 229l92 82l203 -231l266 235z" />
    <glyph glyph-name="Oslash" unicode="&#xd8;" 
d="M952 1272q93 -84 122 -241t-9 -374q-58 -327 -210.5 -505.5t-371.5 -178.5q-75 0 -151 27l-49 -100l-105 65l51 101q-176 173 -100 612q58 330 207.5 505t372.5 175q78 0 137 -23l47 95l104 -64zM297 657q-55 -306 6 -436l490 1002q-32 12 -88 12q-309 -3 -408 -578z
M903 678q60 336 -12 465l-496 -1014q39 -16 97 -16q160 0 259.5 134.5t151.5 430.5z" />
    <glyph glyph-name="Ugrave" unicode="&#xd9;" 
d="M506 1724l94 129l356 -276l-63 -88zM813 352q-24 -127 -107.5 -192.5t-203.5 -65.5q-131 0 -198 70t-44 198l189 969h-144l-190 -979q-35 -176 52 -277.5t292 -101.5q207 0 336.5 106t162.5 283l189 969h-143z" />
    <glyph glyph-name="Uacute" unicode="&#xda;" 
d="M977 1724l-455 -235l-37 88l430 276zM813 352q-24 -127 -107.5 -192.5t-203.5 -65.5q-131 0 -198 70t-44 198l189 969h-144l-190 -979q-35 -176 52 -277.5t292 -101.5q207 0 336.5 106t162.5 283l189 969h-143z" />
    <glyph glyph-name="Ucircumflex" unicode="&#xdb;" 
d="M887 1448l-135 182l-193 -182h-125l285 321h115l174 -321h-121zM813 352q-24 -127 -107.5 -192.5t-203.5 -65.5q-131 0 -198 70t-44 198l189 969h-144l-190 -979q-35 -176 52 -277.5t292 -101.5q207 0 336.5 106t162.5 283l189 969h-143z" />
    <glyph glyph-name="Udieresis" unicode="&#xdc;" 
d="M455 1612q0 51 27.5 77.5t78.5 26.5t79 -26.5t28 -77.5q0 -54 -28 -81.5t-79 -27.5q-106 0 -106 109zM795 1612q0 104 108 104q105 0 105 -104q0 -109 -105 -109q-108 0 -108 109zM813 352q-24 -127 -107.5 -192.5t-203.5 -65.5q-131 0 -198 70t-44 198l189 969h-144
l-190 -979q-35 -176 52 -277.5t292 -101.5q207 0 336.5 106t162.5 283l189 969h-143z" />
    <glyph glyph-name="Yacute" unicode="&#xdd;" 
d="M977 1724l-455 -235l-37 88l430 276zM1202 1331l-563 -776l-78 -555h-145l80 553h-2l-318 778h156l264 -610l455 610h151z" />
    <glyph glyph-name="Thorn" unicode="&#xde;" 
d="M248 0h-146l189 1331h143l-47 -334h252q190 0 294 -96t81 -252q-23 -158 -168.5 -242.5t-394.5 -84.5h-158zM629 862h-260l-58 -407h236q138 0 227 57t103 154q13 88 -55 142t-193 54z" />
    <glyph glyph-name="germandbls" unicode="&#xdf;" 
d="M688 1358q101 0 169 -51t92 -126.5t9 -158.5q-10 -55 -42.5 -99t-72.5 -71.5t-79.5 -51t-69.5 -52t-35 -60.5q-4 -26 11 -47.5t42 -36t59.5 -34t64 -41t55.5 -56.5t34 -82.5t-1 -116.5q-22 -130 -111 -212t-221 -82q-129 0 -217 59l78 108q53 -36 131 -36t120.5 52
t55.5 126q8 49 -3.5 87t-36 61.5t-55.5 43t-62.5 37.5t-56 38.5t-36.5 53.5t-4 76q9 47 39.5 84t70 62.5t78.5 50.5t69.5 61.5t39.5 83.5q13 82 -23.5 142.5t-99.5 60.5q-94 0 -158 -81.5t-90 -234.5l-162 -915h-147l160 915q37 206 143.5 324.5t261.5 118.5z" />
    <glyph glyph-name="agrave" unicode="&#xe0;" 
d="M455 1366l94 129l356 -276l-63 -89zM813 303q-132 -190 -307 -190q-146 0 -216.5 99.5t-41.5 266.5q31 172 132.5 283.5t227.5 111.5q89 0 149.5 -58.5t110.5 -190.5l29 166q-31 101 -105.5 154.5t-183.5 53.5q-188 0 -324.5 -141t-177.5 -379q-40 -230 61 -368t310 -138
q145 0 295 105zM930 973l-170 -973h155q-3 10 -3.5 21t1 24.5t3 21t5.5 24.5t5 22l149 860h-145z" />
    <glyph glyph-name="aacute" unicode="&#xe1;" 
d="M926 1366l-455 -236l-37 89l430 276zM813 303q-132 -190 -307 -190q-146 0 -216.5 99.5t-41.5 266.5q31 172 132.5 283.5t227.5 111.5q89 0 149.5 -58.5t110.5 -190.5l29 166q-31 101 -105.5 154.5t-183.5 53.5q-188 0 -324.5 -141t-177.5 -379q-40 -230 61 -368
t310 -138q145 0 295 105zM930 973l-170 -973h155q-3 10 -3.5 21t1 24.5t3 21t5.5 24.5t5 22l149 860h-145z" />
    <glyph glyph-name="acircumflex" unicode="&#xe2;" 
d="M836 1090l-136 182l-192 -182h-125l285 321h114l174 -321h-120zM813 303q-132 -190 -307 -190q-146 0 -216.5 99.5t-41.5 266.5q31 172 132.5 283.5t227.5 111.5q89 0 149.5 -58.5t110.5 -190.5l29 166q-31 101 -105.5 154.5t-183.5 53.5q-188 0 -324.5 -141t-177.5 -379
q-40 -230 61 -368t310 -138q145 0 295 105zM930 973l-170 -973h155q-3 10 -3.5 21t1 24.5t3 21t5.5 24.5t5 22l149 860h-145z" />
    <glyph glyph-name="atilde" unicode="&#xe3;" 
d="M549 1358q45 0 78 -12.5t52 -30t34.5 -34.5t35 -29.5t44.5 -12.5q96 0 172 115l86 -72q-46 -70 -114 -118t-151 -48q-44 0 -76 12.5t-50.5 30t-34.5 34.5t-36.5 29.5t-47.5 12.5q-95 0 -170 -115l-84 72q106 166 262 166zM813 303q-132 -190 -307 -190
q-146 0 -216.5 99.5t-41.5 266.5q31 172 132.5 283.5t227.5 111.5q89 0 149.5 -58.5t110.5 -190.5l29 166q-31 101 -105.5 154.5t-183.5 53.5q-188 0 -324.5 -141t-177.5 -379q-40 -230 61 -368t310 -138q145 0 295 105zM930 973l-170 -973h155q-3 10 -3.5 21t1 24.5t3 21
t5.5 24.5t5 22l149 860h-145z" />
    <glyph glyph-name="adieresis" unicode="&#xe4;" 
d="M403 1253q0 51 28 78t79 27t78.5 -27t27.5 -78q0 -108 -106 -108q-107 0 -107 108zM743 1253q0 51 28 78t81 27q104 0 104 -105q0 -108 -104 -108q-109 0 -109 108zM813 303q-132 -190 -307 -190q-146 0 -216.5 99.5t-41.5 266.5q31 172 132.5 283.5t227.5 111.5
q89 0 149.5 -58.5t110.5 -190.5l29 166q-31 101 -105.5 154.5t-183.5 53.5q-188 0 -324.5 -141t-177.5 -379q-40 -230 61 -368t310 -138q145 0 295 105zM930 973l-170 -973h155q-3 10 -3.5 21t1 24.5t3 21t5.5 24.5t5 22l149 860h-145z" />
    <glyph glyph-name="aring" unicode="&#xe5;" 
d="M631 985q-86 0 -141.5 56.5t-55.5 144.5q0 86 55 140t142 54q88 0 143 -54t55 -140t-56.5 -143.5t-141.5 -57.5zM631 1061q55 0 78.5 29t23.5 96q0 66 -23.5 94.5t-78.5 28.5q-54 0 -76.5 -28t-22.5 -95q0 -66 23.5 -95.5t75.5 -29.5zM813 303q-132 -190 -307 -190
q-146 0 -216.5 99.5t-41.5 266.5q31 172 132.5 283.5t227.5 111.5q89 0 149.5 -58.5t110.5 -190.5l29 166q-31 101 -105.5 154.5t-183.5 53.5q-188 0 -324.5 -141t-177.5 -379q-40 -230 61 -368t310 -138q145 0 295 105zM930 973l-170 -973h155q-3 10 -3.5 21t1 24.5t3 21
t5.5 24.5t5 22l149 860h-145z" />
    <glyph glyph-name="ae" unicode="&#xe6;" 
d="M608 356q-24 -154 -2 -202t115 -48q67 0 113.5 34t80.5 108l74 -113q-58 -162 -268 -162q-206 0 -236 156q-50 -87 -96.5 -120.5t-118.5 -33.5q-131 0 -198.5 78t-48.5 207q43 312 493 277q23 126 20.5 201.5t-33 107t-100.5 31.5q-55 0 -102.5 -35.5t-105.5 -114.5
l-78 113q105 159 286 159q81 0 136.5 -30t70.5 -80q61 110 232 110q149 0 205 -122t22 -377l-14 -80h-437zM834 877q-77 0 -123 -80t-72 -260h279q22 191 3.5 265.5t-87.5 74.5zM471 264l27 156q-305 25 -336 -174q-10 -71 19.5 -110.5t78.5 -39.5q60 0 119 42.5t92 125.5z
" />
    <glyph glyph-name="ccedilla" unicode="&#xe7;" 
d="M989 684l-188 -31q8 46 8 66q0 64 -37 104.5t-102 40.5q-76 0 -147 -54t-119 -136.5t-76.5 -178.5t-28.5 -182q0 -104 58 -153t180 -49q66 0 137 21.5t112 55.5l58 -98q-207 -115 -312 -115q-31 0 -75 7l-33 -107q8 9 42 17t71 8q84 0 127.5 -45t37.5 -123
q-6 -82 -70.5 -125t-182.5 -43q-82 0 -133 22t-91 76l76 72q24 -39 56.5 -53.5t97.5 -14.5q73 0 105.5 17t35.5 55q3 78 -88 78q-32 0 -61.5 -9.5t-43.5 -23.5l-94 8l53 209h3q-109 35 -166.5 120t-57.5 212q0 97 26 194.5t75.5 181.5t115.5 149.5t150.5 103.5t175.5 38
q133 0 220 -79t87 -199q0 -25 -2 -37z" />
    <glyph glyph-name="egrave" unicode="&#xe8;" 
d="M905 1219l-63 -89l-387 236l94 129zM989 711q0 -75 -43.5 -131.5t-112 -88.5t-162.5 -50.5t-185.5 -23t-190.5 0.5q-19 -138 50 -225t198 -87q146 0 309 138l72 -107q-84 -77 -187 -120.5t-207 -43.5q-193 0 -299.5 125t-80.5 320q24 163 94 294t181.5 209t244.5 78
q141 0 230 -88t89 -200zM637 877q-115 0 -205 -106.5t-121 -254.5q88 5 151.5 11t140.5 20.5t125 35t81 56t33 82.5q0 59 -58 107.5t-147 48.5z" />
    <glyph glyph-name="eacute" unicode="&#xe9;" 
d="M926 1366l-455 -236l-37 89l430 276zM989 711q0 -75 -43.5 -131.5t-112 -88.5t-162.5 -50.5t-185.5 -23t-190.5 0.5q-19 -138 50 -225t198 -87q146 0 309 138l72 -107q-84 -77 -187 -120.5t-207 -43.5q-193 0 -299.5 125t-80.5 320q24 163 94 294t181.5 209t244.5 78
q141 0 230 -88t89 -200zM637 877q-115 0 -205 -106.5t-121 -254.5q88 5 151.5 11t140.5 20.5t125 35t81 56t33 82.5q0 59 -58 107.5t-147 48.5z" />
    <glyph glyph-name="ecircumflex" unicode="&#xea;" 
d="M700 1272l-192 -182h-125l285 321h114l174 -321h-120zM989 711q0 -75 -43.5 -131.5t-112 -88.5t-162.5 -50.5t-185.5 -23t-190.5 0.5q-19 -138 50 -225t198 -87q146 0 309 138l72 -107q-84 -77 -187 -120.5t-207 -43.5q-193 0 -299.5 125t-80.5 320q24 163 94 294
t181.5 209t244.5 78q141 0 230 -88t89 -200zM637 877q-115 0 -205 -106.5t-121 -254.5q88 5 151.5 11t140.5 20.5t125 35t81 56t33 82.5q0 59 -58 107.5t-147 48.5z" />
    <glyph glyph-name="edieresis" unicode="&#xeb;" 
d="M510 1145q-107 0 -107 108q0 51 28 78t79 27t78.5 -27t27.5 -78q0 -108 -106 -108zM852 1145q-109 0 -109 108q0 51 28 78t81 27q104 0 104 -105q0 -108 -104 -108zM989 711q0 -75 -43.5 -131.5t-112 -88.5t-162.5 -50.5t-185.5 -23t-190.5 0.5q-19 -138 50 -225t198 -87
q146 0 309 138l72 -107q-84 -77 -187 -120.5t-207 -43.5q-193 0 -299.5 125t-80.5 320q24 163 94 294t181.5 209t244.5 78q141 0 230 -88t89 -200zM637 877q-115 0 -205 -106.5t-121 -254.5q88 5 151.5 11t140.5 20.5t125 35t81 56t33 82.5q0 59 -58 107.5t-147 48.5z" />
    <glyph glyph-name="igrave" unicode="&#xec;" 
d="M455 1366l94 129l356 -276l-63 -89zM831 270l37 -51q-116 -246 -299 -246q-145 0 -206.5 97.5t-30.5 261.5q25 125 131 524l-193 -6l29 104l336 19q-7 -29 -74 -286.5t-84 -354.5q-36 -221 119 -221q64 0 127.5 42.5t107.5 116.5z" />
    <glyph glyph-name="iacute" unicode="&#xed;" 
d="M926 1366l-455 -236l-37 89l430 276zM831 270l37 -51q-116 -246 -299 -246q-145 0 -206.5 97.5t-30.5 261.5q25 125 131 524l-193 -6l29 104l336 19q-7 -29 -74 -286.5t-84 -354.5q-36 -221 119 -221q64 0 127.5 42.5t107.5 116.5z" />
    <glyph glyph-name="icircumflex" unicode="&#xee;" 
d="M836 1090l-136 182l-192 -182h-125l285 321h114l174 -321h-120zM831 270l37 -51q-116 -246 -299 -246q-145 0 -206.5 97.5t-30.5 261.5q25 125 131 524l-193 -6l29 104l336 19q-7 -29 -74 -286.5t-84 -354.5q-36 -221 119 -221q64 0 127.5 42.5t107.5 116.5z" />
    <glyph glyph-name="idieresis" unicode="&#xef;" 
d="M403 1253q0 51 28 78t79 27t78.5 -27t27.5 -78q0 -108 -106 -108q-107 0 -107 108zM743 1253q0 51 28 78t81 27q104 0 104 -105q0 -108 -104 -108q-109 0 -109 108zM831 270l37 -51q-116 -246 -299 -246q-145 0 -206.5 97.5t-30.5 261.5q25 125 131 524l-193 -6l29 104
l336 19q-7 -29 -74 -286.5t-84 -354.5q-36 -221 119 -221q64 0 127.5 42.5t107.5 116.5z" />
    <glyph glyph-name="eth" unicode="&#xf0;" 
d="M799 1208q249 -241 209 -575l-27 -201q-12 -89 -45.5 -162.5t-79.5 -121.5t-97.5 -84t-106 -55t-98.5 -27.5t-81 -8.5q-195 0 -299.5 128t-75.5 331q29 204 170 326.5t346 122.5q184 0 265 -138q13 208 -199 390l-217 -140l-41 88l164 125q-117 81 -234 119l72 109
q141 -48 274 -142l176 135l64 -129zM506 113q49 0 99.5 18.5t98.5 55t84 100.5t48 145l18 129q-34 91 -105.5 143t-164.5 52q-127 0 -225 -88.5t-117 -218.5q-19 -141 57.5 -238.5t206.5 -97.5z" />
    <glyph glyph-name="ntilde" unicode="&#xf1;" 
d="M965 1354l86 -72q-46 -70 -114 -118t-151 -48q-44 0 -76 12.5t-50.5 30t-34.5 34.5t-36.5 29.5t-47.5 12.5q-95 0 -170 -115l-84 72q106 166 262 166q45 0 78 -12.5t52 -30t34.5 -34.5t35 -29.5t44.5 -12.5q96 0 172 115zM874 106q29 0 91 29l22 -63q-44 -43 -93.5 -67.5
t-77.5 -28.5l-28 -3q-40 0 -57 33.5t-8 85.5q3 9 14 52t39 161t58 238q34 132 -13.5 226.5t-150.5 94.5q-95 0 -179 -93.5t-192 -315.5l4 32l35 193q82 168 172.5 243.5t210.5 75.5q95 0 163.5 -60.5t89.5 -157.5t-5 -218q-26 -101 -52.5 -193.5t-43 -145.5t-19.5 -68
q-14 -50 20 -50zM338 680l-35 -193l-84 -487h-145l170 973h182q-1 -1 -10.5 -16t-14.5 -24t-13 -24t-12.5 -29t-6.5 -26z" />
    <glyph glyph-name="ograve" unicode="&#xf2;" 
d="M455 1366l94 129l356 -276l-63 -89zM496 -27q-205 0 -308 145t-71 388q32 228 170 360.5t342 132.5q207 0 311 -139.5t72 -372.5q-32 -232 -173.5 -373t-342.5 -141zM500 98q137 0 229.5 108t120.5 300q26 182 -34.5 279.5t-194.5 95.5q-132 -2 -220 -104.5t-116 -289.5
q-26 -181 31.5 -285t183.5 -104z" />
    <glyph glyph-name="oacute" unicode="&#xf3;" 
d="M926 1366l-455 -236l-37 89l430 276zM496 -27q-205 0 -308 145t-71 388q32 228 170 360.5t342 132.5q207 0 311 -139.5t72 -372.5q-32 -232 -173.5 -373t-342.5 -141zM500 98q137 0 229.5 108t120.5 300q26 182 -34.5 279.5t-194.5 95.5q-132 -2 -220 -104.5t-116 -289.5
q-26 -181 31.5 -285t183.5 -104z" />
    <glyph glyph-name="ocircumflex" unicode="&#xf4;" 
d="M836 1090l-136 182l-192 -182h-125l285 321h114l174 -321h-120zM496 -27q-205 0 -308 145t-71 388q32 228 170 360.5t342 132.5q207 0 311 -139.5t72 -372.5q-32 -232 -173.5 -373t-342.5 -141zM500 98q137 0 229.5 108t120.5 300q26 182 -34.5 279.5t-194.5 95.5
q-132 -2 -220 -104.5t-116 -289.5q-26 -181 31.5 -285t183.5 -104z" />
    <glyph glyph-name="otilde" unicode="&#xf5;" 
d="M549 1358q45 0 78 -12.5t52 -30t34.5 -34.5t35 -29.5t44.5 -12.5q96 0 172 115l86 -72q-46 -70 -114 -118t-151 -48q-44 0 -76 12.5t-50.5 30t-34.5 34.5t-36.5 29.5t-47.5 12.5q-95 0 -170 -115l-84 72q106 166 262 166zM496 -27q-205 0 -308 145t-71 388
q32 228 170 360.5t342 132.5q207 0 311 -139.5t72 -372.5q-32 -232 -173.5 -373t-342.5 -141zM500 98q137 0 229.5 108t120.5 300q26 182 -34.5 279.5t-194.5 95.5q-132 -2 -220 -104.5t-116 -289.5q-26 -181 31.5 -285t183.5 -104z" />
    <glyph glyph-name="odieresis" unicode="&#xf6;" 
d="M403 1253q0 51 28 78t79 27t78.5 -27t27.5 -78q0 -108 -106 -108q-107 0 -107 108zM743 1253q0 51 28 78t81 27q104 0 104 -105q0 -108 -104 -108q-109 0 -109 108zM496 -27q-205 0 -308 145t-71 388q32 228 170 360.5t342 132.5q207 0 311 -139.5t72 -372.5
q-32 -232 -173.5 -373t-342.5 -141zM500 98q137 0 229.5 108t120.5 300q26 182 -34.5 279.5t-194.5 95.5q-132 -2 -220 -104.5t-116 -289.5q-26 -181 31.5 -285t183.5 -104z" />
    <glyph glyph-name="divide" unicode="&#xf7;" 
d="M500 825q7 52 39.5 79.5t83.5 27.5q105 0 90 -107q-15 -106 -121 -106q-107 0 -92 106zM936 444h-770l16 119h770zM410 178q7 52 39 79.5t83 27.5t74.5 -27.5t16.5 -79.5q-15 -106 -121 -106q-107 0 -92 106z" />
    <glyph glyph-name="oslash" unicode="&#xf8;" 
d="M852 942q98 -62 140 -179.5t20 -275.5q-32 -232 -173.5 -373t-342.5 -141q-52 0 -109 13l-90 -187l-104 68l81 168q-97 64 -138.5 185.5t-18.5 285.5q32 228 170 360.5t342 132.5q66 0 108 -12l88 184l107 -65zM285 487q-30 -217 55 -319l342 706q-31 7 -61 7
q-132 -2 -220 -104.5t-116 -289.5zM850 506q30 213 -57 309l-349 -711q27 -6 56 -6q137 0 229.5 108t120.5 300z" />
    <glyph glyph-name="ugrave" unicode="&#xf9;" 
d="M905 1219l-63 -89l-387 236l94 129zM1042 973l-165 -860q-1 -7 -6.5 -28.5t-6.5 -28.5t-3 -28.5t3 -27.5h-153l26 139q-56 -75 -143.5 -120.5t-179.5 -45.5q-102 0 -172.5 65.5t-95 175t0.5 237.5l101 524h155l-108 -561q-25 -126 34.5 -219t176.5 -93q39 0 70.5 11
t64 38t57 54.5t66.5 79.5l-14 -82l147 770h145z" />
    <glyph glyph-name="uacute" unicode="&#xfa;" 
d="M926 1366l-455 -236l-37 89l430 276zM1042 973l-165 -860q-1 -7 -6.5 -28.5t-6.5 -28.5t-3 -28.5t3 -27.5h-153l26 139q-56 -75 -143.5 -120.5t-179.5 -45.5q-102 0 -172.5 65.5t-95 175t0.5 237.5l101 524h155l-108 -561q-25 -126 34.5 -219t176.5 -93q39 0 70.5 11
t64 38t57 54.5t66.5 79.5l-14 -82l147 770h145z" />
    <glyph glyph-name="ucircumflex" unicode="&#xfb;" 
d="M700 1272l-192 -182h-125l285 321h114l174 -321h-120zM1042 973l-165 -860q-1 -7 -6.5 -28.5t-6.5 -28.5t-3 -28.5t3 -27.5h-153l26 139q-56 -75 -143.5 -120.5t-179.5 -45.5q-102 0 -172.5 65.5t-95 175t0.5 237.5l101 524h155l-108 -561q-25 -126 34.5 -219t176.5 -93
q39 0 70.5 11t64 38t57 54.5t66.5 79.5l-14 -82l147 770h145z" />
    <glyph glyph-name="udieresis" unicode="&#xfc;" 
d="M510 1145q-107 0 -107 108q0 51 28 78t79 27t78.5 -27t27.5 -78q0 -108 -106 -108zM852 1145q-109 0 -109 108q0 51 28 78t81 27q104 0 104 -105q0 -108 -104 -108zM1042 973l-165 -860q-1 -7 -6.5 -28.5t-6.5 -28.5t-3 -28.5t3 -27.5h-153l26 139q-56 -75 -143.5 -120.5
t-179.5 -45.5q-102 0 -172.5 65.5t-95 175t0.5 237.5l101 524h155l-108 -561q-25 -126 34.5 -219t176.5 -93q39 0 70.5 11t64 38t57 54.5t66.5 79.5l-14 -82l147 770h145z" />
    <glyph glyph-name="yacute" unicode="&#xfd;" 
d="M926 1366l-455 -236l-37 89l430 276zM901 973h162q-62 -154 -240.5 -483.5t-359.5 -636.5q-75 -131 -172.5 -181.5t-227.5 -27.5l37 112q144 -29 242 156l86 147q-23 109 -76.5 314.5t-84 353t-29.5 246.5h141q-1 -63 14.5 -162t30.5 -165t53 -217.5t49 -197.5
q298 529 375 742z" />
    <glyph glyph-name="thorn" unicode="&#xfe;" 
d="M403 1331l-235 -1683l-143 10l235 1673h143zM260 303l-33 -225q118 -105 262 -105q210 0 354.5 137.5t176.5 368.5q35 237 -56.5 378.5t-279.5 141.5q-110 0 -201.5 -53.5t-154.5 -154.5l-25 -166q90 131 171 190t169 59q127 0 194 -111.5t42 -283.5
q-23 -167 -125 -266.5t-248 -99.5q-175 0 -246 190z" />
    <glyph glyph-name="ydieresis" unicode="&#xff;" 
d="M510 1145q-107 0 -107 108q0 51 28 78t79 27t78.5 -27t27.5 -78q0 -108 -106 -108zM852 1145q-109 0 -109 108q0 51 28 78t81 27q104 0 104 -105q0 -108 -104 -108zM901 973h162q-62 -154 -240.5 -483.5t-359.5 -636.5q-75 -131 -172.5 -181.5t-227.5 -27.5l37 112
q144 -29 242 156l86 147q-23 109 -76.5 314.5t-84 353t-29.5 246.5h141q-1 -63 14.5 -162t30.5 -165t53 -217.5t49 -197.5q298 529 375 742z" />
    <glyph glyph-name="Amacron" unicode="&#x100;" 
d="M930 1587v-102h-496v102h496zM791 0l-37 375h-428l-174 -375h-148l604 1331h205l119 -1331h-141zM381 496h362l-57 608h-22z" />
    <glyph glyph-name="amacron" unicode="&#x101;" 
d="M879 1126h-496v103h496v-103zM813 303q-132 -190 -307 -190q-146 0 -216.5 99.5t-41.5 266.5q31 172 132.5 283.5t227.5 111.5q89 0 149.5 -58.5t110.5 -190.5l29 166q-31 101 -105.5 154.5t-183.5 53.5q-188 0 -324.5 -141t-177.5 -379q-40 -230 61 -368t310 -138
q145 0 295 105zM930 973l-170 -973h155q-3 10 -3.5 21t1 24.5t3 21t5.5 24.5t5 22l149 860h-145z" />
    <glyph glyph-name="Abreve" unicode="&#x102;" 
d="M690 1425q-123 0 -199 77.5t-61 187.5h123q-10 -73 27.5 -116.5t111.5 -43.5q77 0 128 42t61 118h123q-17 -113 -107 -189t-207 -76zM608 1331h205l119 -1331h-141l-37 375h-428l-174 -375h-148zM381 496h362l-57 608h-22z" />
    <glyph glyph-name="abreve" unicode="&#x103;" 
d="M829 1331h123q-17 -113 -106.5 -188.5t-206.5 -75.5q-123 0 -199 77t-61 187h123q-10 -73 27.5 -116.5t111.5 -43.5q77 0 127.5 42t60.5 118zM813 303q-132 -190 -307 -190q-146 0 -216.5 99.5t-41.5 266.5q31 172 132.5 283.5t227.5 111.5q89 0 149.5 -58.5
t110.5 -190.5l29 166q-31 101 -105.5 154.5t-183.5 53.5q-188 0 -324.5 -141t-177.5 -379q-40 -230 61 -368t310 -138q145 0 295 105zM930 973l-170 -973h155q-3 10 -3.5 21t1 24.5t3 21t5.5 24.5t5 22l149 860h-145z" />
    <glyph glyph-name="Aogonek" unicode="&#x104;" 
d="M932 -211l14 -115q-72 -41 -139 -41q-70 0 -115 44t-33 114q5 38 37 86t92 123h3l-37 375h-428l-174 -375h-148l604 1331h205l119 -1331h-45q-112 -140 -117 -193q-4 -27 17.5 -39t54.5 -12q34 0 90 33zM381 496h362l-57 608h-22z" />
    <glyph glyph-name="aogonek" unicode="&#x105;" 
d="M813 303l-41 -225q-150 -105 -295 -105q-209 0 -310 138t-61 368q41 238 177.5 379t324.5 141q109 0 183.5 -53.5t105.5 -154.5l-29 -166q-50 132 -110.5 190.5t-149.5 58.5q-126 0 -227.5 -111.5t-132.5 -283.5q-29 -167 41.5 -266.5t216.5 -99.5q175 0 307 190z
M842 -244q34 0 90 33l14 -115q-72 -41 -139 -41q-70 0 -115 44t-33 114q5 38 37 86t92 123h-28l170 973h145l-149 -860q-1 -5 -5 -22t-5.5 -24.5t-3 -21t-1 -24.5t3.5 -21h-28q-112 -140 -117 -193q-4 -27 17.5 -39t54.5 -12z" />
    <glyph glyph-name="Cacute" unicode="&#x106;" 
d="M977 1724l-455 -235l-37 88l430 276zM838 309l163 -28q-41 -124 -189.5 -216t-305.5 -92q-225 0 -326.5 183.5t-58.5 494.5q43 310 202 508.5t363 198.5q139 0 252 -85.5t133 -203.5l-164 -41q-12 84 -77 139.5t-150 55.5q-144 0 -252.5 -160t-146.5 -428
q-35 -252 24 -388t205 -136q104 0 203.5 60.5t124.5 137.5z" />
    <glyph glyph-name="cacute" unicode="&#x107;" 
d="M926 1366l-455 -236l-37 89l430 276zM844 90q-207 -115 -312 -115q-188 0 -289.5 93.5t-101.5 263.5q0 97 26 194.5t75.5 181.5t115.5 149.5t150.5 103.5t175.5 38q133 0 220 -79t87 -199q0 -25 -2 -37l-188 -31q8 46 8 66q0 64 -37 104.5t-102 40.5q-76 0 -147 -54
t-119 -136.5t-76.5 -178.5t-28.5 -182q0 -104 58 -153t180 -49q66 0 137 21.5t112 55.5z" />
    <glyph glyph-name="Cdotaccent" unicode="&#x10a;" 
d="M575 1612q0 51 28 77.5t79 26.5q106 0 106 -104q0 -109 -106 -109q-107 0 -107 109zM838 309l163 -28q-41 -124 -189.5 -216t-305.5 -92q-225 0 -326.5 183.5t-58.5 494.5q43 310 202 508.5t363 198.5q139 0 252 -85.5t133 -203.5l-164 -41q-12 84 -77 139.5t-150 55.5
q-144 0 -252.5 -160t-146.5 -428q-35 -252 24 -388t205 -136q104 0 203.5 60.5t124.5 137.5z" />
    <glyph glyph-name="cdotaccent" unicode="&#x10b;" 
d="M524 1253q0 51 28 78t79 27q106 0 106 -105q0 -108 -106 -108q-107 0 -107 108zM844 90q-207 -115 -312 -115q-188 0 -289.5 93.5t-101.5 263.5q0 97 26 194.5t75.5 181.5t115.5 149.5t150.5 103.5t175.5 38q133 0 220 -79t87 -199q0 -25 -2 -37l-188 -31q8 46 8 66
q0 64 -37 104.5t-102 40.5q-76 0 -147 -54t-119 -136.5t-76.5 -178.5t-28.5 -182q0 -104 58 -153t180 -49q66 0 137 21.5t112 55.5z" />
    <glyph glyph-name="Ccaron" unicode="&#x10c;" 
d="M889 1794h121l-262 -321h-117l-195 321h125l144 -182zM838 309l163 -28q-41 -124 -189.5 -216t-305.5 -92q-225 0 -326.5 183.5t-58.5 494.5q43 310 202 508.5t363 198.5q139 0 252 -85.5t133 -203.5l-164 -41q-12 84 -77 139.5t-150 55.5q-144 0 -252.5 -160
t-146.5 -428q-35 -252 24 -388t205 -136q104 0 203.5 60.5t124.5 137.5z" />
    <glyph glyph-name="ccaron" unicode="&#x10d;" 
d="M838 1436h120l-262 -322h-116l-195 322h125l143 -183zM844 90q-207 -115 -312 -115q-188 0 -289.5 93.5t-101.5 263.5q0 97 26 194.5t75.5 181.5t115.5 149.5t150.5 103.5t175.5 38q133 0 220 -79t87 -199q0 -25 -2 -37l-188 -31q8 46 8 66q0 64 -37 104.5t-102 40.5
q-76 0 -147 -54t-119 -136.5t-76.5 -178.5t-28.5 -182q0 -104 58 -153t180 -49q66 0 137 21.5t112 55.5z" />
    <glyph glyph-name="Dcaron" unicode="&#x10e;" 
d="M889 1794h121l-262 -321h-117l-195 321h125l144 -182zM616 1331h-319l-236 -1331h433q419 0 540 680q63 353 -32.5 502t-385.5 149zM526 145h-295l183 1035h252q160 0 216 -127.5t9 -393.5q-44 -254 -136.5 -384t-228.5 -130z" />
    <glyph glyph-name="dcaron" unicode="&#x10f;" 
d="M838 1436h120l-262 -322h-116l-195 322h125l143 -183zM997 1331h156q-2 -7 -15 -48.5t-18 -63.5l-217 -1035q-26 -114 27 -114q15 0 43 14l8 -68q-74 -43 -145 -43q-62 0 -87 29.5t-16 81.5zM780 303q-138 -190 -313 -190q-147 0 -213.5 99t-32.5 267q37 172 143.5 283.5
t233.5 111.5q88 0 147.5 -59t102.5 -190l35 166q-28 101 -101.5 154.5t-183.5 53.5q-186 0 -326.5 -141t-191.5 -379q-49 -230 47.5 -368t306.5 -138q143 0 299 105z" />
    <glyph glyph-name="Dcroat" unicode="&#x110;" 
d="M616 1331q290 0 385.5 -149t32.5 -502q-121 -680 -540 -680h-433l236 1331h319zM891 659q47 266 -9 393.5t-216 127.5h-252l-109 -617h565q12 47 21 96zM526 145q207 0 310 299h-551l-54 -299h295z" />
    <glyph glyph-name="dcroat" unicode="&#x111;" 
d="M1120 1219l-217 -1035q-26 -114 27 -114q15 0 43 14l8 -68q-74 -43 -145 -43q-61 0 -87 28t-18 77h2l37 176l39 190h2l16 86l21 95l16 84l133 622h156q-2 -7 -15 -48.5t-18 -63.5zM770 254l-37 -170q0 -4 -2 -6q-153 -105 -297 -105q-210 0 -306.5 138t-47.5 368
q51 238 191.5 379t326.5 141q110 0 183.5 -53.5t101.5 -154.5l-19 -82l-16 -84q-43 131 -102.5 190t-147.5 59q-109 0 -205.5 -86t-146.5 -225h588l-7 -33l-18 -86h-594q-22 -154 45.5 -242.5t206.5 -88.5q175 0 313 190z" />
    <glyph glyph-name="Emacron" unicode="&#x112;" 
d="M930 1485h-496v102h496v-102zM266 145l94 484h494l29 143h-496l80 414h598l27 145h-740l-258 -1331h740l30 145h-598z" />
    <glyph glyph-name="emacron" unicode="&#x113;" 
d="M879 1229v-103h-496v103h496zM989 711q0 -75 -43.5 -131.5t-112 -88.5t-162.5 -50.5t-185.5 -23t-190.5 0.5q-19 -138 50 -225t198 -87q146 0 309 138l72 -107q-84 -77 -187 -120.5t-207 -43.5q-193 0 -299.5 125t-80.5 320q24 163 94 294t181.5 209t244.5 78
q141 0 230 -88t89 -200zM637 877q-115 0 -205 -106.5t-121 -254.5q88 5 151.5 11t140.5 20.5t125 35t81 56t33 82.5q0 59 -58 107.5t-147 48.5z" />
    <glyph glyph-name="Edotaccent" unicode="&#x116;" 
d="M575 1612q0 51 28 77.5t79 26.5q106 0 106 -104q0 -109 -106 -109q-107 0 -107 109zM266 145l94 484h494l29 143h-496l80 414h598l27 145h-740l-258 -1331h740l30 145h-598z" />
    <glyph glyph-name="edotaccent" unicode="&#x117;" 
d="M631 1145q-107 0 -107 108q0 51 28 78t79 27q106 0 106 -105q0 -108 -106 -108zM989 711q0 -75 -43.5 -131.5t-112 -88.5t-162.5 -50.5t-185.5 -23t-190.5 0.5q-19 -138 50 -225t198 -87q146 0 309 138l72 -107q-84 -77 -187 -120.5t-207 -43.5q-193 0 -299.5 125
t-80.5 320q24 163 94 294t181.5 209t244.5 78q141 0 230 -88t89 -200zM637 877q-115 0 -205 -106.5t-121 -254.5q88 5 151.5 11t140.5 20.5t125 35t81 56t33 82.5q0 59 -58 107.5t-147 48.5z" />
    <glyph glyph-name="Eogonek" unicode="&#x118;" 
d="M1065 1186h-598l-80 -414h496l-29 -143h-494l-94 -484h598l-30 -145h53q-112 -140 -117 -193q-4 -27 17.5 -39t54.5 -12q34 0 90 33l14 -115q-72 -41 -139 -41q-70 0 -115 44t-33 114q5 38 37 86t92 123h-694l258 1331h740z" />
    <glyph glyph-name="eogonek" unicode="&#x119;" 
d="M989 711q0 -75 -43.5 -131.5t-112 -88.5t-162.5 -50.5t-185.5 -23t-190.5 0.5q-19 -138 50 -225t198 -87q146 0 309 138l72 -107q-56 -49 -90 -69h20q-111 -134 -119 -193q-3 -27 19 -39t53 -12q41 0 90 35l14 -117q-72 -41 -139 -41q-70 0 -114.5 44t-32.5 116
q9 55 77 143q-85 -31 -172 -31q-193 0 -299.5 125t-80.5 320q24 163 94 294t181.5 209t244.5 78q141 0 230 -88t89 -200zM637 877q-115 0 -205 -106.5t-121 -254.5q88 5 151.5 11t140.5 20.5t125 35t81 56t33 82.5q0 59 -58 107.5t-147 48.5z" />
    <glyph glyph-name="Ecaron" unicode="&#x11a;" 
d="M889 1794h121l-262 -321h-117l-195 321h125l144 -182zM266 145l94 484h494l29 143h-496l80 414h598l27 145h-740l-258 -1331h740l30 145h-598z" />
    <glyph glyph-name="ecaron" unicode="&#x11b;" 
d="M696 1114h-116l-195 322h125l143 -183l185 183h120zM989 711q0 -75 -43.5 -131.5t-112 -88.5t-162.5 -50.5t-185.5 -23t-190.5 0.5q-19 -138 50 -225t198 -87q146 0 309 138l72 -107q-84 -77 -187 -120.5t-207 -43.5q-193 0 -299.5 125t-80.5 320q24 163 94 294
t181.5 209t244.5 78q141 0 230 -88t89 -200zM637 877q-115 0 -205 -106.5t-121 -254.5q88 5 151.5 11t140.5 20.5t125 35t81 56t33 82.5q0 59 -58 107.5t-147 48.5z" />
    <glyph glyph-name="Gbreve" unicode="&#x11e;" 
d="M881 1690h123q-17 -113 -107 -189t-207 -76q-123 0 -199 77.5t-61 187.5h123q-10 -73 27.5 -116.5t111.5 -43.5q77 0 128 42t61 118zM1016 502l-6 -27q-42 -233 -176 -367.5t-338 -134.5q-229 0 -325.5 177t-45.5 503q49 322 219.5 513.5t407.5 191.5q102 0 187.5 -47.5
t174.5 -151.5l-133 -92q-64 90 -114 123t-122 33q-178 0 -295.5 -151.5t-164.5 -438.5q-41 -257 14 -389.5t205 -132.5q146 0 245 99.5t130 270.5l-295 -4l16 121h428l-12 -84v-12z" />
    <glyph glyph-name="gbreve" unicode="&#x11f;" 
d="M639 1067q-123 0 -199 77t-61 187h123q-10 -73 27.5 -116.5t111.5 -43.5q77 0 127.5 42t60.5 118h123q-17 -113 -106.5 -188.5t-206.5 -75.5zM936 973h156q-3 -12 -15 -52t-18 -61l-164 -860q-27 -137 -168.5 -222t-329.5 -85q-165 0 -291 63l115 105q88 -37 203 -37
q132 0 220 45.5t106 130.5l38 203q-162 -109 -311 -109q-197 0 -296.5 130t-59.5 335q40 201 184 320.5t346 119.5q189 0 264 -145zM504 231q94 0 179 43t140 119l58 293q-29 90 -95 139t-157 49q-129 0 -235 -91t-132 -224q-25 -137 45 -232.5t197 -95.5z" />
    <glyph glyph-name="Gdotaccent" unicode="&#x120;" 
d="M575 1612q0 51 28 77.5t79 26.5q106 0 106 -104q0 -109 -106 -109q-107 0 -107 109zM1016 502l-6 -27q-42 -233 -176 -367.5t-338 -134.5q-229 0 -325.5 177t-45.5 503q49 322 219.5 513.5t407.5 191.5q102 0 187.5 -47.5t174.5 -151.5l-133 -92q-64 90 -114 123t-122 33
q-178 0 -295.5 -151.5t-164.5 -438.5q-41 -257 14 -389.5t205 -132.5q146 0 245 99.5t130 270.5l-295 -4l16 121h428l-12 -84v-12z" />
    <glyph glyph-name="gdotaccent" unicode="&#x121;" 
d="M631 1145q-107 0 -107 108q0 51 28 78t79 27q106 0 106 -105q0 -108 -106 -108zM936 973h156q-3 -12 -15 -52t-18 -61l-164 -860q-27 -137 -168.5 -222t-329.5 -85q-165 0 -291 63l115 105q88 -37 203 -37q132 0 220 45.5t106 130.5l38 203q-162 -109 -311 -109
q-197 0 -296.5 130t-59.5 335q40 201 184 320.5t346 119.5q189 0 264 -145zM504 231q94 0 179 43t140 119l58 293q-29 90 -95 139t-157 49q-129 0 -235 -91t-132 -224q-25 -137 45 -232.5t197 -95.5z" />
    <glyph glyph-name="Gcommaaccent" unicode="&#x122;" 
d="M584 477l16 121h428l-12 -84v-12l-6 -27q-42 -233 -176 -367.5t-338 -134.5q-229 0 -325.5 177t-45.5 503q49 322 219.5 513.5t407.5 191.5q102 0 187.5 -47.5t174.5 -151.5l-133 -92q-64 90 -114 123t-122 33q-178 0 -295.5 -151.5t-164.5 -438.5q-41 -257 14 -389.5
t205 -132.5q146 0 245 99.5t130 270.5zM489 -55q41 0 60 -22t14 -62q-3 -23 -12 -41q-31 -56 -98 -133.5t-99 -96.5l-63 37q37 55 106 183q-10 20 -4 51q5 40 30 62t66 22z" />
    <glyph glyph-name="gcommaaccent" unicode="&#x123;" 
d="M618 1098q-42 -6 -60.5 11.5t-14.5 59.5q4 29 10 41q28 60 91.5 147t96.5 113l66 -24q-19 -29 -100 -199q9 -18 6 -49q-3 -41 -28 -66.5t-67 -33.5zM936 973h156q-3 -12 -15 -52t-18 -61l-164 -860q-27 -137 -168.5 -222t-329.5 -85q-165 0 -291 63l115 105
q88 -37 203 -37q132 0 220 45.5t106 130.5l38 203q-162 -109 -311 -109q-197 0 -296.5 130t-59.5 335q40 201 184 320.5t346 119.5q189 0 264 -145zM504 231q94 0 179 43t140 119l58 293q-29 90 -95 139t-157 49q-129 0 -235 -91t-132 -224q-25 -137 45 -232.5t197 -95.5z
" />
    <glyph glyph-name="Hbar" unicode="&#x126;" 
d="M1141 1331l-160 -829h104v-119h-127l-53 -272q-1 -3 -5 -21.5t-5 -24.5t-3 -20t-1 -24.5t4 -20.5h-154l72 383h-561l-74 -383h-143l74 383h-66v119h90l160 829h143l-123 -633l-22 -123l-15 -73h562l159 829h144zM852 575h-561l22 123h561z" />
    <glyph glyph-name="hbar" unicode="&#x127;" 
d="M860 106q29 0 88 29l23 -63q-44 -43 -94 -67.5t-77 -28.5l-28 -3q-41 0 -58 33.5t-5 85.5q6 17 92 352h-510l-90 -444h-146l275 1341l141 -10l-129 -631q83 157 173.5 228t205.5 71q95 0 162.5 -60.5t87.5 -157.5t-8 -218q-29 -101 -57 -193t-45 -146t-21 -68
q-11 -50 20 -50zM670 864q-85 0 -160 -70t-164 -231h485q28 126 -17 213.5t-144 87.5z" />
    <glyph glyph-name="Imacron" unicode="&#x12a;" 
d="M930 1587v-102h-496v102h496zM1001 1212h-237l-193 -1093h291v-6q-1 -4 -4 -18.5t-4.5 -20t-3.5 -18t-2 -20t1 -18t3 -18.5h-741l20 119h295l192 1093h-249l22 119h633z" />
    <glyph glyph-name="imacron" unicode="&#x12b;" 
d="M879 1126h-496v103h496v-103zM831 270l37 -51q-116 -246 -299 -246q-145 0 -206.5 97.5t-30.5 261.5q25 125 131 524l-193 -6l29 104l336 19q-7 -29 -74 -286.5t-84 -354.5q-36 -221 119 -221q64 0 127.5 42.5t107.5 116.5z" />
    <glyph glyph-name="Iogonek" unicode="&#x12e;" 
d="M1001 1212h-237l-193 -1093h291v-6q-1 -4 -4 -18.5t-4.5 -20t-3.5 -18t-2 -20t1 -18t3 -18.5h35q-112 -140 -117 -193q-4 -27 17.5 -39t54.5 -12q34 0 90 33l14 -115q-72 -41 -139 -41q-70 0 -115 44t-33 114q5 38 37 86t92 123h-677l20 119h295l192 1093h-249l22 119
h633z" />
    <glyph glyph-name="iogonek" unicode="&#x12f;" 
d="M524 1253q0 51 28 78t79 27q106 0 106 -105q0 -108 -106 -108q-107 0 -107 108zM831 270l37 -51q-116 -246 -299 -246q-145 0 -206.5 97.5t-30.5 261.5q25 125 131 524l-193 -6l29 104l336 19q-7 -29 -74 -286.5t-84 -354.5q-36 -221 119 -221q64 0 127.5 42.5
t107.5 116.5zM946 -326q-72 -41 -139 -41q-70 0 -115 44t-33 114q5 38 37 86t92 123h99q-112 -140 -117 -193q-4 -27 17.5 -39t54.5 -12q34 0 90 33z" />
    <glyph glyph-name="Idotaccent" unicode="&#x130;" 
d="M682 1503q-107 0 -107 109q0 51 28 77.5t79 26.5q106 0 106 -104q0 -109 -106 -109zM1001 1212h-237l-193 -1093h291v-6q-1 -4 -4 -18.5t-4.5 -20t-3.5 -18t-2 -20t1 -18t3 -18.5h-741l20 119h295l192 1093h-249l22 119h633z" />
    <glyph glyph-name="dotlessi" unicode="&#x131;" 
d="M831 270l37 -51q-116 -246 -299 -246q-145 0 -206.5 97.5t-30.5 261.5q25 125 131 524l-193 -6l29 104l336 19q-7 -29 -74 -286.5t-84 -354.5q-36 -221 119 -221q64 0 127.5 42.5t107.5 116.5z" />
    <glyph glyph-name="Kcommaaccent" unicode="&#x136;" 
d="M1145 1333l-676 -682l473 -651h-221l-379 526l-63 -67l-91 -459h-143l258 1333l143 -2l-120 -629l630 629zM489 -55q41 0 60 -22t14 -62q-3 -23 -12 -41q-31 -56 -98 -133.5t-99 -96.5l-63 37q37 55 106 183q-10 20 -4 51q5 40 30 62t66 22z" />
    <glyph glyph-name="kcommaaccent" unicode="&#x137;" 
d="M973 584q-74 -266 -273 -348q101 -160 201 -236l-203 -2q-27 20 -55.5 56t-45.5 63t-50 82q-10 0 -32 -1t-34 -1q-100 0 -186 47l-49 -244h-146l273 1341l143 -10l-90 -446q123 114 227 114q65 0 121 -18.5t93.5 -49.5t66 -72.5t39.5 -87.5t13 -94.5t-13 -92.5zM813 594
q9 38 11 79t-11.5 80.5t-36 70.5t-61.5 50t-88 19q-108 0 -219 -100l-21 -103q18 -15 36 -34t32.5 -35t33.5 -43t29 -42t30.5 -48t28 -46t30 -51.5t28.5 -48.5q117 57 178 252zM324 387q70 -60 155 -68q-70 122 -129 191zM489 -55q41 0 60 -22t14 -62q-3 -23 -12 -41
q-31 -56 -98 -133.5t-99 -96.5l-63 37q37 55 106 183q-10 20 -4 51q5 40 30 62t66 22z" />
    <glyph glyph-name="Lacute" unicode="&#x139;" 
d="M977 1724l-455 -235l-37 88l430 276zM854 0h-768l258 1331h148l-236 -1212h618z" />
    <glyph glyph-name="lacute" unicode="&#x13a;" 
d="M926 1661l-455 -238l-37 88l430 277zM633 111q66 0 131 42.5t110 116.5l37 -51q-116 -246 -303 -246q-120 0 -171.5 58.5t-51.5 177.5q0 26 2 51.5t7 56t8 45.5t11.5 53.5t10.5 47.5q-91 -59 -225 -117l-21 96q15 6 69 28t76 32.5t60.5 36t71.5 57.5q63 351 140.5 556.5
t152.5 205.5q64 0 123 -71t59 -167q0 -157 -87 -294t-288 -287q-18 -81 -39 -207q-8 -39 -8 -76q0 -145 125 -145zM768 1196q-34 0 -81.5 -134t-98.5 -370q114 111 174.5 215t60.5 183q0 42 -12.5 74t-42.5 32z" />
    <glyph glyph-name="Lcommaaccent" unicode="&#x13b;" 
d="M256 119h618l-20 -119h-768l258 1331h148zM489 -55q41 0 60 -22t14 -62q-3 -23 -12 -41q-31 -56 -98 -133.5t-99 -96.5l-63 37q37 55 106 183q-10 20 -4 51q5 40 30 62t66 22z" />
    <glyph glyph-name="lcommaaccent" unicode="&#x13c;" 
d="M633 111q66 0 131 42.5t110 116.5l37 -51q-116 -246 -303 -246q-120 0 -171.5 58.5t-51.5 177.5q0 26 2 51.5t7 56t8 45.5t11.5 53.5t10.5 47.5q-91 -59 -225 -117l-21 96q15 6 69 28t76 32.5t60.5 36t71.5 57.5q63 351 140.5 556.5t152.5 205.5q64 0 123 -71t59 -167
q0 -157 -87 -294t-288 -287q-18 -81 -39 -207q-8 -39 -8 -76q0 -145 125 -145zM768 1196q-34 0 -81.5 -134t-98.5 -370q114 111 174.5 215t60.5 183q0 42 -12.5 74t-42.5 32zM489 -55q41 0 60 -22t14 -62q-3 -23 -12 -41q-31 -56 -98 -133.5t-99 -96.5l-63 37q37 55 106 183
q-10 20 -4 51q5 40 30 62t66 22z" />
    <glyph glyph-name="Lcaron" unicode="&#x13d;" 
d="M889 1794h121l-262 -321h-117l-195 321h125l144 -182zM854 0h-768l258 1331h148l-236 -1212h618z" />
    <glyph glyph-name="lcaron" unicode="&#x13e;" 
d="M696 1407h-116l-195 322h125l143 -181l185 181h120zM555 539q-18 -81 -39 -207q-8 -39 -8 -76q0 -145 125 -145q66 0 131 42.5t110 116.5l37 -51q-116 -246 -303 -246q-120 0 -171.5 58.5t-51.5 177.5q0 26 2 51.5t7 56t8 45.5t11.5 53.5t10.5 47.5q-91 -59 -225 -117
l-21 96q15 6 69 28t76 32.5t60.5 36t71.5 57.5q63 351 140.5 556.5t152.5 205.5q64 0 123 -71t59 -167q0 -157 -87 -294t-288 -287zM768 1196q-34 0 -81.5 -134t-98.5 -370q114 111 174.5 215t60.5 183q0 42 -12.5 74t-42.5 32z" />
    <glyph glyph-name="Lslash" unicode="&#x141;" 
d="M258 125l-2 -6h618l-20 -119h-768l23 117h-5l7 10l233 1204h148l-189 -969l582 717l100 -63z" />
    <glyph glyph-name="lslash" unicode="&#x142;" 
d="M633 111q66 0 131 42.5t110 116.5l37 -51q-116 -246 -303 -246q-141 0 -192 88l-121 -149l-107 51l197 244v2q0 26 2 51.5t7 56t8 45.5t11.5 53.5t10.5 47.5q-91 -59 -225 -117l-21 96q15 6 69 28t76 32.5t60.5 36t71.5 57.5q63 351 140.5 556.5t152.5 205.5
q64 0 123 -71t59 -167q0 -157 -87 -294t-288 -287q-4 -22 -15.5 -77.5t-17.5 -86.5l449 551l98 -64l-551 -676q24 -75 115 -75zM768 1196q-34 0 -81.5 -134t-98.5 -370q114 111 174.5 215t60.5 183q0 42 -12.5 74t-42.5 32z" />
    <glyph glyph-name="Nacute" unicode="&#x143;" 
d="M977 1724l-455 -235l-37 88l430 276zM733 0h148l258 1331h-160l-186 -983l-328 983h-152l-258 -1331h144l194 1008z" />
    <glyph glyph-name="nacute" unicode="&#x144;" 
d="M926 1366l-455 -236l-37 89l430 276zM965 135l22 -63q-44 -43 -93.5 -67.5t-77.5 -28.5l-28 -3q-40 0 -57 33.5t-8 85.5q3 9 14 52t39 161t58 238q34 132 -13.5 226.5t-150.5 94.5q-95 0 -179 -93.5t-192 -315.5l4 32l35 193q82 168 172.5 243.5t210.5 75.5
q95 0 163.5 -60.5t89.5 -157.5t-5 -218q-26 -101 -52.5 -193.5t-43 -145.5t-19.5 -68q-14 -50 20 -50q29 0 91 29zM338 680l-35 -193l-84 -487h-145l170 973h182q-1 -1 -10.5 -16t-14.5 -24t-13 -24t-12.5 -29t-6.5 -26z" />
    <glyph glyph-name="Ncommaaccent" unicode="&#x145;" 
d="M979 1331h160l-258 -1331h-148l-340 1008l-194 -1008h-144l258 1331h152l328 -983zM489 -55q41 0 60 -22t14 -62q-3 -23 -12 -41q-31 -56 -98 -133.5t-99 -96.5l-63 37q37 55 106 183q-10 20 -4 51q5 40 30 62t66 22z" />
    <glyph glyph-name="ncommaaccent" unicode="&#x146;" 
d="M965 135l22 -63q-44 -43 -93.5 -67.5t-77.5 -28.5l-28 -3q-40 0 -57 33.5t-8 85.5q3 9 14 52t39 161t58 238q34 132 -13.5 226.5t-150.5 94.5q-95 0 -179 -93.5t-192 -315.5l4 32l35 193q82 168 172.5 243.5t210.5 75.5q95 0 163.5 -60.5t89.5 -157.5t-5 -218
q-26 -101 -52.5 -193.5t-43 -145.5t-19.5 -68q-14 -50 20 -50q29 0 91 29zM338 680l-35 -193l-84 -487h-145l170 973h182q-1 -1 -10.5 -16t-14.5 -24t-13 -24t-12.5 -29t-6.5 -26zM489 -55q41 0 60 -22t14 -62q-3 -23 -12 -41q-31 -56 -98 -133.5t-99 -96.5l-63 37
q37 55 106 183q-10 20 -4 51q5 40 30 62t66 22z" />
    <glyph glyph-name="Ncaron" unicode="&#x147;" 
d="M889 1794h121l-262 -321h-117l-195 321h125l144 -182zM733 0h148l258 1331h-160l-186 -983l-328 983h-152l-258 -1331h144l194 1008z" />
    <glyph glyph-name="ncaron" unicode="&#x148;" 
d="M696 1114h-116l-195 322h125l143 -183l185 183h120zM965 135l22 -63q-44 -43 -93.5 -67.5t-77.5 -28.5l-28 -3q-40 0 -57 33.5t-8 85.5q3 9 14 52t39 161t58 238q34 132 -13.5 226.5t-150.5 94.5q-95 0 -179 -93.5t-192 -315.5l4 32l35 193q82 168 172.5 243.5
t210.5 75.5q95 0 163.5 -60.5t89.5 -157.5t-5 -218q-26 -101 -52.5 -193.5t-43 -145.5t-19.5 -68q-14 -50 20 -50q29 0 91 29zM338 680l-35 -193l-84 -487h-145l170 973h182q-1 -1 -10.5 -16t-14.5 -24t-13 -24t-12.5 -29t-6.5 -26z" />
    <glyph glyph-name="Eng" unicode="&#x14a;" 
d="M1139 1331l-258 -1329h96v-121q0 -104 -80 -176t-186 -72q-57 0 -103.5 26.5t-99.5 86.5l74 92q56 -74 135 -74q114 0 114 152v84h-98l-340 1008l-194 -1008h-144l258 1331h152l328 -983l186 983h160z" />
    <glyph glyph-name="eng" unicode="&#x14b;" 
d="M688 999q62 0 112.5 -20t84.5 -54.5t58 -82t33 -102.5t11 -115.5t-8 -120.5l-72 -504l-16 -123q-13 -102 -101 -173t-192 -71q-59 0 -103 27t-89 88l81 86q44 -74 121 -74q109 0 133 158l11 82l77 547q19 134 -39 220.5t-182 86.5q-153 0 -250 -154l-98 -700h-145
l135 973h184q-41 -58 -53 -109q43 61 130.5 98t176.5 37z" />
    <glyph glyph-name="Omacron" unicode="&#x14c;" 
d="M930 1485h-496v102h496v-102zM483 -27q-229 0 -320.5 182.5t-33.5 522.5q58 330 207.5 505t372.5 175q224 0 318.5 -187t37.5 -514q-58 -327 -210.5 -505.5t-371.5 -178.5zM492 113q160 0 259.5 134.5t151.5 430.5q51 301 4 430t-202 127q-309 -3 -408 -578
q-49 -289 -1.5 -416.5t196.5 -127.5z" />
    <glyph glyph-name="omacron" unicode="&#x14d;" 
d="M879 1126h-496v103h496v-103zM496 -27q-205 0 -308 145t-71 388q32 228 170 360.5t342 132.5q207 0 311 -139.5t72 -372.5q-32 -232 -173.5 -373t-342.5 -141zM500 98q137 0 229.5 108t120.5 300q26 182 -34.5 279.5t-194.5 95.5q-132 -2 -220 -104.5t-116 -289.5
q-26 -181 31.5 -285t183.5 -104z" />
    <glyph glyph-name="Ohungarumlaut" unicode="&#x150;" 
d="M772 1692l-233 -236h-99l215 268zM1028 1692l-233 -236h-99l215 268zM483 -27q-229 0 -320.5 182.5t-33.5 522.5q58 330 207.5 505t372.5 175q224 0 318.5 -187t37.5 -514q-58 -327 -210.5 -505.5t-371.5 -178.5zM492 113q160 0 259.5 134.5t151.5 430.5q51 301 4 430
t-202 127q-309 -3 -408 -578q-49 -289 -1.5 -416.5t196.5 -127.5z" />
    <glyph glyph-name="ohungarumlaut" unicode="&#x151;" 
d="M721 1333l-234 -235h-98l215 268zM977 1333l-234 -235h-98l215 268zM496 -27q-205 0 -308 145t-71 388q32 228 170 360.5t342 132.5q207 0 311 -139.5t72 -372.5q-32 -232 -173.5 -373t-342.5 -141zM500 98q137 0 229.5 108t120.5 300q26 182 -34.5 279.5t-194.5 95.5
q-132 -2 -220 -104.5t-116 -289.5q-26 -181 31.5 -285t183.5 -104z" />
    <glyph glyph-name="OE" unicode="&#x152;" 
d="M1124 1331l-20 -145h-281q58 -145 33 -414h133l-20 -143h-131q-46 -312 -158 -484h276l-20 -145l-410 2q-66 -29 -123 -29q-124 0 -192 81.5t-81.5 238t17.5 383.5q47 341 151.5 511.5t285.5 170.5q68 0 121 -27h419zM698 676q28 199 28.5 323.5t-34 180.5t-112.5 55
q-109 -1 -175 -138.5t-108 -437.5q-27 -191 -26.5 -312.5t34 -177.5t105.5 -56q108 0 177 133t111 430z" />
    <glyph glyph-name="oe" unicode="&#x153;" 
d="M641 854q73 148 244 145q137 -2 179.5 -116.5t4.5 -382.5l-10 -80h-408l-6 -64q-6 -56 -8.5 -91.5t0 -66t10 -46.5t22.5 -27.5t36 -15t53 -3.5q67 0 108 22t84 81l74 -92q-84 -144 -266 -144q-96 0 -157.5 34.5t-70.5 90.5q-113 -125 -243 -125q-138 0 -200 142t-28 381
q34 232 130.5 367.5t228.5 135.5q74 0 140 -43t83 -102zM291 98q80 0 151.5 118t94.5 290q23 165 -12 276.5t-111 108.5q-69 -3 -122 -111.5t-81 -300.5q-25 -180 -4 -280.5t84 -100.5zM870 877q-78 0 -125 -82.5t-75 -266.5h264q18 136 16.5 213.5t-19.5 106.5t-61 29z" />
    <glyph glyph-name="Racute" unicode="&#x154;" 
d="M977 1724l-455 -235l-37 88l430 276zM711 1331q191 0 286.5 -115t57.5 -303q-60 -296 -379 -362q15 -40 41 -89.5t50 -88.5t50.5 -89.5t40.5 -91.5t20.5 -94t-8.5 -98h-170q9 45 10 80.5t-11 78.5t-26.5 77t-36.5 75.5t-41.5 74.5t-41 74.5t-35.5 74.5q-24 -3 -53 -3
h-152l-102 -532h-145l256 1331h389zM918 936q23 122 -34 186t-192 64h-252l-98 -508h225q148 0 237 65.5t114 192.5z" />
    <glyph glyph-name="racute" unicode="&#x155;" 
d="M926 1366l-455 -236l-37 89l430 276zM395 918q5 -5 15.5 -13.5t16.5 -14t16 -16.5t14.5 -19.5t10.5 -23t5 -28t-2 -33.5q62 89 182 146t187 57q100 0 200 -47l-110 -142q-55 31 -128.5 23.5t-144 -37t-127.5 -79.5t-79 -103l-119 -588h-139l133 709q4 20 4 36.5t-1.5 29
t-8.5 24.5t-12 19t-17 16.5t-19 14.5t-22 15z" />
    <glyph glyph-name="Rcommaaccent" unicode="&#x156;" 
d="M711 1331q191 0 286.5 -115t57.5 -303q-60 -296 -379 -362q15 -40 41 -89.5t50 -88.5t50.5 -89.5t40.5 -91.5t20.5 -94t-8.5 -98h-170q9 45 10 80.5t-11 78.5t-26.5 77t-36.5 75.5t-41.5 74.5t-41 74.5t-35.5 74.5q-24 -3 -53 -3h-152l-102 -532h-145l256 1331h389z
M918 936q23 122 -34 186t-192 64h-252l-98 -508h225q148 0 237 65.5t114 192.5zM489 -55q41 0 60 -22t14 -62q-3 -23 -12 -41q-31 -56 -98 -133.5t-99 -96.5l-63 37q37 55 106 183q-10 20 -4 51q5 40 30 62t66 22z" />
    <glyph glyph-name="rcommaaccent" unicode="&#x157;" 
d="M840 973q100 0 200 -47l-110 -142q-55 31 -128.5 23.5t-144 -37t-127.5 -79.5t-79 -103l-119 -588h-139l133 709q4 20 4 36.5t-1.5 29t-8.5 24.5t-12 19t-17 16.5t-19 14.5t-22 15l145 54q5 -5 15.5 -13.5t16.5 -14t16 -16.5t14.5 -19.5t10.5 -23t5 -28t-2 -33.5
q62 89 182 146t187 57zM489 -55q41 0 60 -22t14 -62q-3 -23 -12 -41q-31 -56 -98 -133.5t-99 -96.5l-63 37q37 55 106 183q-10 20 -4 51q5 40 30 62t66 22z" />
    <glyph glyph-name="Rcaron" unicode="&#x158;" 
d="M748 1473h-117l-195 321h125l144 -182l184 182h121zM711 1331q191 0 286.5 -115t57.5 -303q-60 -296 -379 -362q15 -40 41 -89.5t50 -88.5t50.5 -89.5t40.5 -91.5t20.5 -94t-8.5 -98h-170q9 45 10 80.5t-11 78.5t-26.5 77t-36.5 75.5t-41.5 74.5t-41 74.5t-35.5 74.5
q-24 -3 -53 -3h-152l-102 -532h-145l256 1331h389zM918 936q23 122 -34 186t-192 64h-252l-98 -508h225q148 0 237 65.5t114 192.5z" />
    <glyph glyph-name="rcaron" unicode="&#x159;" 
d="M838 1436h120l-262 -322h-116l-195 322h125l143 -183zM395 918q5 -5 15.5 -13.5t16.5 -14t16 -16.5t14.5 -19.5t10.5 -23t5 -28t-2 -33.5q62 89 182 146t187 57q100 0 200 -47l-110 -142q-55 31 -128.5 23.5t-144 -37t-127.5 -79.5t-79 -103l-119 -588h-139l133 709
q4 20 4 36.5t-1.5 29t-8.5 24.5t-12 19t-17 16.5t-19 14.5t-22 15z" />
    <glyph glyph-name="Sacute" unicode="&#x15a;" 
d="M977 1724l-455 -235l-37 88l430 276zM643 741q196 -38 275 -125.5t51 -263.5q-30 -188 -165.5 -283.5t-350.5 -95.5q-201 0 -316 115l92 88q46 -38 111 -60t125 -22q149 0 244.5 65.5t121.5 198.5q21 115 -31.5 168.5t-178.5 75.5q-202 36 -306.5 141t-78.5 265
q17 99 90.5 179.5t180 124.5t222.5 44q45 0 83.5 -6.5t77.5 -22t64.5 -42t44.5 -67t18 -96t-16 -129.5l-127 -22q10 51 10 92t-7 68t-23 46.5t-33.5 30t-43 16.5t-45.5 7.5t-48 1.5q-135 0 -215 -63.5t-98 -176.5q-14 -95 53.5 -159t218.5 -93z" />
    <glyph glyph-name="sacute" unicode="&#x15b;" 
d="M926 1366l-455 -236l-37 89l430 276zM772 623q76 -91 122 -194t46 -167q0 -122 -100 -204.5t-248 -82.5q-64 0 -140 17.5t-122 42.5l65 121q55 -35 117 -41q24 -6 76 -6q94 0 153.5 42t59.5 109q0 42 -31 101t-100 161q-31 44 -43 62.5t-23.5 42.5t-17.5 51
q-92 -162 -192 -293t-179 -190l-106 112q139 100 260 277.5t194 388.5h187q-23 -60 -30 -80t-13.5 -49.5t-6.5 -57.5q0 -40 15.5 -74.5t56.5 -88.5z" />
    <glyph glyph-name="Scedilla" unicode="&#x15e;" 
d="M1001 993l-127 -22q10 51 10 92t-7 68t-23 46.5t-33.5 30t-43 16.5t-45.5 7.5t-48 1.5q-135 0 -215 -63.5t-98 -176.5q-14 -95 53.5 -159t218.5 -93q196 -38 275 -125.5t51 -263.5q-30 -187 -165.5 -283t-348.5 -96l-31 -98q8 9 42 17t71 8q84 0 127.5 -45t37.5 -123
q-6 -82 -70.5 -125t-182.5 -43q-82 0 -133 22t-91 76l76 72q24 -39 56.5 -53.5t97.5 -14.5q73 0 105.5 17t35.5 55q3 78 -88 78q-32 0 -61.5 -9.5t-43.5 -23.5l-94 8l47 191q-131 18 -219 106l92 88q46 -38 111 -60t125 -22q149 0 244.5 65.5t121.5 198.5
q21 115 -31.5 168.5t-178.5 75.5q-202 36 -306.5 141t-78.5 265q17 99 90.5 179.5t180 124.5t222.5 44q45 0 83.5 -6.5t77.5 -22t64.5 -42t44.5 -67t18 -96t-16 -129.5z" />
    <glyph glyph-name="scedilla" unicode="&#x15f;" 
d="M592 -25q-18 0 -92 9l-29 -97q6 9 41 17t72 8q83 0 127 -45t39 -123q-6 -82 -71.5 -126t-182.5 -44q-83 0 -134.5 23t-91.5 77l78 72q22 -38 55 -53t99 -15q72 0 105 17t34 55q3 37 -20 57.5t-66 20.5q-32 0 -62 -9.5t-44 -23.5l-95 8l52 201q-45 16 -76 31l65 121
q55 -35 117 -41q24 -6 76 -6q94 0 153.5 42t59.5 109q0 42 -31 101t-100 161q-31 44 -43 62.5t-23.5 42.5t-17.5 51q-92 -162 -192 -293t-179 -190l-106 112q139 100 260 277.5t194 388.5h187q-23 -60 -30 -80t-13.5 -49.5t-6.5 -57.5q0 -40 15.5 -74.5t56.5 -88.5
q76 -91 122 -194t46 -167q0 -122 -100 -204.5t-248 -82.5z" />
    <glyph glyph-name="Scaron" unicode="&#x160;" 
d="M889 1794h121l-262 -321h-117l-195 321h125l144 -182zM643 741q196 -38 275 -125.5t51 -263.5q-30 -188 -165.5 -283.5t-350.5 -95.5q-201 0 -316 115l92 88q46 -38 111 -60t125 -22q149 0 244.5 65.5t121.5 198.5q21 115 -31.5 168.5t-178.5 75.5q-202 36 -306.5 141
t-78.5 265q17 99 90.5 179.5t180 124.5t222.5 44q45 0 83.5 -6.5t77.5 -22t64.5 -42t44.5 -67t18 -96t-16 -129.5l-127 -22q10 51 10 92t-7 68t-23 46.5t-33.5 30t-43 16.5t-45.5 7.5t-48 1.5q-135 0 -215 -63.5t-98 -176.5q-14 -95 53.5 -159t218.5 -93z" />
    <glyph glyph-name="scaron" unicode="&#x161;" 
d="M838 1436h120l-262 -322h-116l-195 322h125l143 -183zM772 623q76 -91 122 -194t46 -167q0 -122 -100 -204.5t-248 -82.5q-64 0 -140 17.5t-122 42.5l65 121q55 -35 117 -41q24 -6 76 -6q94 0 153.5 42t59.5 109q0 42 -31 101t-100 161q-31 44 -43 62.5t-23.5 42.5
t-17.5 51q-92 -162 -192 -293t-179 -190l-106 112q139 100 260 277.5t194 388.5h187q-23 -60 -30 -80t-13.5 -49.5t-6.5 -57.5q0 -40 15.5 -74.5t56.5 -88.5z" />
    <glyph glyph-name="uni0162" unicode="&#x162;" 
d="M293 1331h866l-22 -119h-367l-235 -1212h-72l-39 -125q8 9 42 17t71 8q84 0 127.5 -45t37.5 -123q-6 -82 -70.5 -125t-182.5 -43q-82 0 -133 22t-91 76l76 72q24 -39 56.5 -53.5t97.5 -14.5q73 0 105.5 17t35.5 55q3 78 -88 78q-32 0 -61.5 -9.5t-43.5 -23.5l-94 8
l53 209h29l234 1212h-355z" />
    <glyph glyph-name="uni0163" unicode="&#x163;" 
d="M473 332q-6 -24 -6 -45q-15 -176 123 -176q64 0 127.5 42.5t107.5 116.5l39 -51q-116 -239 -289 -246l-30 -98q6 9 40.5 17t71.5 8q83 0 127 -45t39 -123q-8 -82 -73 -125t-183 -43q-82 0 -132.5 22t-90.5 76l78 72q22 -39 54 -53.5t99 -14.5q72 0 104.5 17t35.5 55
t-20 58t-66 20q-32 0 -62.5 -9.5t-44.5 -23.5l-94 8l49 193q-84 24 -124.5 94t-35.5 174q3 42 11 80q3 20 90 420q3 18 11 51.5t11 50.5h-180l16 119h189q62 273 72 358h143q-17 -117 -72 -358h301l-16 -119h-309l-21 -92q-57 -257 -90 -430z" />
    <glyph glyph-name="Tcaron" unicode="&#x164;" 
d="M889 1794h121l-262 -321h-117l-195 321h125l144 -182zM1159 1331h-866l-23 -119h355l-234 -1212h144l235 1212h367z" />
    <glyph glyph-name="tcaron" unicode="&#x165;" 
d="M748 1473h-117l-195 321h125l144 -182l184 182h121zM680 1331q-17 -117 -72 -358h301l-16 -119h-309l-21 -92q-57 -257 -90 -430q-6 -24 -6 -45q-15 -176 123 -176q64 0 127.5 42.5t107.5 116.5l39 -51q-116 -246 -299 -246q-127 0 -190.5 74.5t-57.5 204.5q3 42 11 80
q3 20 90 420q3 18 11 51.5t11 50.5h-180l16 119h189q62 273 72 358h143z" />
    <glyph glyph-name="Tbar" unicode="&#x166;" 
d="M1137 1212h-367l-127 -649h260l-24 -119h-258l-86 -444h-144l84 444h-227v119h252l125 649h-355l23 119h866z" />
    <glyph glyph-name="tbar" unicode="&#x167;" 
d="M584 854l-21 -92q-28 -121 -43 -199h314l-23 -119h-315q-21 -99 -23 -112q-6 -24 -6 -45q-15 -176 123 -176q64 0 127.5 42.5t107.5 116.5l39 -51q-116 -246 -299 -246q-127 0 -190.5 74.5t-57.5 204.5q3 42 11 80q4 28 22 112h-172v119h197q21 87 43 189q3 18 11 51.5
t11 50.5h-180l16 119h189q62 273 72 358h143q-17 -117 -72 -358h301l-16 -119h-309z" />
    <glyph glyph-name="Umacron" unicode="&#x16a;" 
d="M930 1485h-496v102h496v-102zM813 352q-24 -127 -107.5 -192.5t-203.5 -65.5q-131 0 -198 70t-44 198l189 969h-144l-190 -979q-35 -176 52 -277.5t292 -101.5q207 0 336.5 106t162.5 283l189 969h-143z" />
    <glyph glyph-name="umacron" unicode="&#x16b;" 
d="M879 1229v-103h-496v103h496zM1042 973l-165 -860q-1 -7 -6.5 -28.5t-6.5 -28.5t-3 -28.5t3 -27.5h-153l26 139q-56 -75 -143.5 -120.5t-179.5 -45.5q-102 0 -172.5 65.5t-95 175t0.5 237.5l101 524h155l-108 -561q-25 -126 34.5 -219t176.5 -93q39 0 70.5 11t64 38
t57 54.5t66.5 79.5l-14 -82l147 770h145z" />
    <glyph glyph-name="Uring" unicode="&#x16e;" 
d="M813 352l191 979h143l-189 -969q-33 -177 -162.5 -283t-336.5 -106q-205 0 -292 101.5t-52 277.5l190 979h144l-189 -969q-23 -128 44 -198t198 -70q120 0 203.5 65.5t107.5 192.5z" />
    <glyph glyph-name="uring" unicode="&#x16f;" 
d="M631 985q-86 0 -141.5 56.5t-55.5 144.5q0 86 55 140t142 54q88 0 143 -54t55 -140t-56.5 -143.5t-141.5 -57.5zM631 1309q-54 0 -76.5 -28t-22.5 -95q0 -66 23.5 -95.5t75.5 -29.5q55 0 78.5 29t23.5 96q0 66 -23.5 94.5t-78.5 28.5zM1042 973l-165 -860
q-1 -7 -6.5 -28.5t-6.5 -28.5t-3 -28.5t3 -27.5h-153l26 139q-56 -75 -143.5 -120.5t-179.5 -45.5q-102 0 -172.5 65.5t-95 175t0.5 237.5l101 524h155l-108 -561q-25 -126 34.5 -219t176.5 -93q39 0 70.5 11t64 38t57 54.5t66.5 79.5l-14 -82l147 770h145z" />
    <glyph glyph-name="Uhungarumlaut" unicode="&#x170;" 
d="M772 1692l-233 -236h-99l215 268zM1028 1692l-233 -236h-99l215 268zM813 352q-24 -127 -107.5 -192.5t-203.5 -65.5q-131 0 -198 70t-44 198l189 969h-144l-190 -979q-35 -176 52 -277.5t292 -101.5q207 0 336.5 106t162.5 283l189 969h-143z" />
    <glyph glyph-name="uhungarumlaut" unicode="&#x171;" 
d="M721 1333l-234 -235h-98l215 268zM743 1098h-98l215 268l117 -33zM1042 973l-165 -860q-1 -7 -6.5 -28.5t-6.5 -28.5t-3 -28.5t3 -27.5h-153l26 139q-56 -75 -143.5 -120.5t-179.5 -45.5q-102 0 -172.5 65.5t-95 175t0.5 237.5l101 524h155l-108 -561q-25 -126 34.5 -219
t176.5 -93q39 0 70.5 11t64 38t57 54.5t66.5 79.5l-14 -82l147 770h145z" />
    <glyph glyph-name="Uogonek" unicode="&#x172;" 
d="M813 352l191 979h143l-189 -969q-33 -177 -162.5 -283t-336.5 -106q-205 0 -292 101.5t-52 277.5l190 979h144l-189 -969q-23 -128 44 -198t198 -70q120 0 203.5 65.5t107.5 192.5zM946 -326q-72 -41 -139 -41q-70 0 -115 44t-33 114q5 38 37 86t92 123h99
q-112 -140 -117 -193q-4 -27 17.5 -39t54.5 -12q34 0 90 33z" />
    <glyph glyph-name="uogonek" unicode="&#x173;" 
d="M805 -244q38 0 90 33l14 -115q-72 -41 -137 -41q-70 0 -114.5 43.5t-34.5 114.5q5 38 37 86t92 123h-41l26 139q-56 -75 -143.5 -120.5t-179.5 -45.5q-102 0 -172.5 65.5t-95 175t0.5 237.5l101 524h155l-108 -561q-25 -126 34.5 -219t176.5 -93q39 0 70.5 11t64 38
t57 54.5t66.5 79.5l-14 -82l147 770h145l-165 -860q-1 -7 -6.5 -28.5t-6.5 -28.5t-3 -28.5t3 -27.5h-12q-111 -139 -119 -193q-3 -27 19 -39t53 -12z" />
    <glyph glyph-name="Wcircumflex" unicode="&#x174;" 
d="M887 1448l-135 182l-193 -182h-125l285 321h115l174 -321h-121zM1042 1331h144q-42 -271 -159 -681.5t-222 -649.5h-135q-84 371 -92 594q-73 -197 -289 -594h-139q-19 231 3.5 638.5t63.5 692.5h143q-42 -261 -72.5 -595t-13.5 -498q5 10 28.5 53.5t30.5 56.5t28 53.5
t30 57.5t27.5 54t28 57.5t25 53.5t26 57t22 52.5t21.5 54.5l145 -6q4 -187 76 -544q76 169 158 505.5t122 587.5z" />
    <glyph glyph-name="wcircumflex" unicode="&#x175;" 
d="M836 1090l-136 182l-192 -182h-125l285 321h114l174 -321h-120zM975 999h143q-26 -165 -84.5 -352.5t-110 -313t-143.5 -333.5h-137q-70 321 -76 508q-16 -45 -36.5 -91.5t-35.5 -79.5t-43 -87t-40 -76.5t-48.5 -88.5t-46.5 -85h-139q-16 190 -22.5 329.5t-1.5 321.5
t28 348h144q-59 -383 -23 -761q68 127 94.5 178t68.5 144.5t71 176.5l143 -6q0 -225 57 -493q91 208 149.5 387t88.5 374z" />
    <glyph glyph-name="Ycircumflex" unicode="&#x176;" 
d="M752 1630l-193 -182h-125l285 321h115l174 -321h-121zM1202 1331l-563 -776l-78 -555h-145l80 553h-2l-318 778h156l264 -610l455 610h151z" />
    <glyph glyph-name="ycircumflex" unicode="&#x177;" 
d="M700 1272l-192 -182h-125l285 321h114l174 -321h-120zM901 973h162q-62 -154 -240.5 -483.5t-359.5 -636.5q-75 -131 -172.5 -181.5t-227.5 -27.5l37 112q144 -29 242 156l86 147q-23 109 -76.5 314.5t-84 353t-29.5 246.5h141q-1 -63 14.5 -162t30.5 -165t53 -217.5
t49 -197.5q298 529 375 742z" />
    <glyph glyph-name="Ydieresis" unicode="&#x178;" 
d="M561 1503q-106 0 -106 109q0 51 27.5 77.5t78.5 26.5t79 -26.5t28 -77.5q0 -54 -28 -81.5t-79 -27.5zM903 1503q-108 0 -108 109q0 104 108 104q105 0 105 -104q0 -109 -105 -109zM1202 1331l-563 -776l-78 -555h-145l80 553h-2l-318 778h156l264 -610l455 610h151z" />
    <glyph glyph-name="Zacute" unicode="&#x179;" 
d="M977 1724l-455 -235l-37 88l430 276zM1112 1331l-18 -137l-365 -461h186l-20 -119h-262l-379 -477h723l-19 -137h-911l19 137l380 477h-184l21 119h258l366 461h-639l19 137h825z" />
    <glyph glyph-name="zacute" unicode="&#x17a;" 
d="M926 1366l-455 -236l-37 89l430 276zM993 973l-16 -119l-676 -735h580l-2 -6q-1 -9 -4 -27.5t-4 -30t-0.5 -27.5t3.5 -28h-741l17 119l677 735h-553l17 119h702z" />
    <glyph glyph-name="Zdotaccent" unicode="&#x17b;" 
d="M682 1503q-107 0 -107 109q0 51 28 77.5t79 26.5q106 0 106 -104q0 -109 -106 -109zM1112 1331l-18 -137l-365 -461h186l-20 -119h-262l-379 -477h723l-19 -137h-911l19 137l380 477h-184l21 119h258l366 461h-639l19 137h825z" />
    <glyph glyph-name="zdotaccent" unicode="&#x17c;" 
d="M631 1145q-107 0 -107 108q0 51 28 78t79 27q106 0 106 -105q0 -108 -106 -108zM993 973l-16 -119l-676 -735h580l-2 -6q-1 -9 -4 -27.5t-4 -30t-0.5 -27.5t3.5 -28h-741l17 119l677 735h-553l17 119h702z" />
    <glyph glyph-name="Zcaron" unicode="&#x17d;" 
d="M748 1473h-117l-195 321h125l144 -182l184 182h121zM1112 1331l-18 -137l-365 -461h186l-20 -119h-262l-379 -477h723l-19 -137h-911l19 137l380 477h-184l21 119h258l366 461h-639l19 137h825z" />
    <glyph glyph-name="zcaron" unicode="&#x17e;" 
d="M696 1114h-116l-195 322h125l143 -183l185 183h120zM993 973l-16 -119l-676 -735h580l-2 -6q-1 -9 -4 -27.5t-4 -30t-0.5 -27.5t3.5 -28h-741l17 119l677 735h-553l17 119h702z" />
    <glyph glyph-name="uni01CD" unicode="&#x1cd;" 
d="M748 1473h-117l-195 321h125l144 -182l184 182h121zM608 1331h205l119 -1331h-141l-37 375h-428l-174 -375h-148zM381 496h362l-57 608h-22z" />
    <glyph glyph-name="uni01CE" unicode="&#x1ce;" 
d="M838 1436h120l-262 -322h-116l-195 322h125l143 -183zM813 303q-132 -190 -307 -190q-146 0 -216.5 99.5t-41.5 266.5q31 172 132.5 283.5t227.5 111.5q89 0 149.5 -58.5t110.5 -190.5l29 166q-31 101 -105.5 154.5t-183.5 53.5q-188 0 -324.5 -141t-177.5 -379
q-40 -230 61 -368t310 -138q145 0 295 105zM930 973l-170 -973h155q-3 10 -3.5 21t1 24.5t3 21t5.5 24.5t5 22l149 860h-145z" />
    <glyph glyph-name="uni01CF" unicode="&#x1cf;" 
d="M748 1473h-117l-195 321h125l144 -182l184 182h121zM1001 1212h-237l-193 -1093h291v-6q-1 -4 -4 -18.5t-4.5 -20t-3.5 -18t-2 -20t1 -18t3 -18.5h-741l20 119h295l192 1093h-249l22 119h633z" />
    <glyph glyph-name="uni01D0" unicode="&#x1d0;" 
d="M838 1436h120l-262 -322h-116l-195 322h125l143 -183zM831 270l37 -51q-116 -246 -299 -246q-145 0 -206.5 97.5t-30.5 261.5q25 125 131 524l-193 -6l29 104l336 19q-7 -29 -74 -286.5t-84 -354.5q-36 -221 119 -221q64 0 127.5 42.5t107.5 116.5z" />
    <glyph glyph-name="uni01D1" unicode="&#x1d1;" 
d="M889 1794h121l-262 -321h-117l-195 321h125l144 -182zM483 -27q-229 0 -320.5 182.5t-33.5 522.5q58 330 207.5 505t372.5 175q224 0 318.5 -187t37.5 -514q-58 -327 -210.5 -505.5t-371.5 -178.5zM492 113q160 0 259.5 134.5t151.5 430.5q51 301 4 430t-202 127
q-309 -3 -408 -578q-49 -289 -1.5 -416.5t196.5 -127.5z" />
    <glyph glyph-name="uni01D2" unicode="&#x1d2;" 
d="M838 1436h120l-262 -322h-116l-195 322h125l143 -183zM496 -27q-205 0 -308 145t-71 388q32 228 170 360.5t342 132.5q207 0 311 -139.5t72 -372.5q-32 -232 -173.5 -373t-342.5 -141zM500 98q137 0 229.5 108t120.5 300q26 182 -34.5 279.5t-194.5 95.5
q-132 -2 -220 -104.5t-116 -289.5q-26 -181 31.5 -285t183.5 -104z" />
    <glyph glyph-name="uni01D3" unicode="&#x1d3;" 
d="M889 1794h121l-262 -321h-117l-195 321h125l144 -182zM813 352q-24 -127 -107.5 -192.5t-203.5 -65.5q-131 0 -198 70t-44 198l189 969h-144l-190 -979q-35 -176 52 -277.5t292 -101.5q207 0 336.5 106t162.5 283l189 969h-143z" />
    <glyph glyph-name="uni01D4" unicode="&#x1d4;" 
d="M696 1114h-116l-195 322h125l143 -183l185 183h120zM1042 973l-165 -860q-1 -7 -6.5 -28.5t-6.5 -28.5t-3 -28.5t3 -27.5h-153l26 139q-56 -75 -143.5 -120.5t-179.5 -45.5q-102 0 -172.5 65.5t-95 175t0.5 237.5l101 524h155l-108 -561q-25 -126 34.5 -219t176.5 -93
q39 0 70.5 11t64 38t57 54.5t66.5 79.5l-14 -82l147 770h145z" />
    <glyph glyph-name="uni01D5" unicode="&#x1d5;" 
d="M993 1829h-497v102h497v-102zM455 1612q0 51 27.5 77.5t78.5 26.5t79 -26.5t28 -77.5q0 -54 -28 -81.5t-79 -27.5q-106 0 -106 109zM795 1612q0 104 108 104q105 0 105 -104q0 -109 -105 -109q-108 0 -108 109zM813 352q-24 -127 -107.5 -192.5t-203.5 -65.5
q-131 0 -198 70t-44 198l189 969h-144l-190 -979q-35 -176 52 -277.5t292 -101.5q207 0 336.5 106t162.5 283l189 969h-143z" />
    <glyph glyph-name="uni01D6" unicode="&#x1d6;" 
d="M942 1573v-103h-498v103h498zM510 1145q-107 0 -107 108q0 51 28 78t79 27t78.5 -27t27.5 -78q0 -108 -106 -108zM852 1358q104 0 104 -105q0 -108 -104 -108q-109 0 -109 108q0 51 28 78t81 27zM1042 973l-165 -860q-1 -7 -6.5 -28.5t-6.5 -28.5t-3 -28.5t3 -27.5h-153
l26 139q-56 -75 -143.5 -120.5t-179.5 -45.5q-102 0 -172.5 65.5t-95 175t0.5 237.5l101 524h155l-108 -561q-25 -126 34.5 -219t176.5 -93q39 0 70.5 11t64 38t57 54.5t66.5 79.5l-14 -82l147 770h145z" />
    <glyph glyph-name="uni01D7" unicode="&#x1d7;" 
d="M1038 2071l-452 -238l-39 88l432 277zM455 1612q0 51 27.5 77.5t78.5 26.5t79 -26.5t28 -77.5q0 -54 -28 -81.5t-79 -27.5q-106 0 -106 109zM795 1612q0 104 108 104q105 0 105 -104q0 -109 -105 -109q-108 0 -108 109zM813 352q-24 -127 -107.5 -192.5t-203.5 -65.5
q-131 0 -198 70t-44 198l189 969h-144l-190 -979q-35 -176 52 -277.5t292 -101.5q207 0 336.5 106t162.5 283l189 969h-143z" />
    <glyph glyph-name="uni01D8" unicode="&#x1d8;" 
d="M987 1712l-452 -237l-39 88l432 276zM510 1145q-107 0 -107 108q0 51 28 78t79 27t78.5 -27t27.5 -78q0 -108 -106 -108zM743 1253q0 51 28 78t81 27q104 0 104 -105q0 -108 -104 -108q-109 0 -109 108zM1042 973l-165 -860q-1 -7 -6.5 -28.5t-6.5 -28.5t-3 -28.5
t3 -27.5h-153l26 139q-56 -75 -143.5 -120.5t-179.5 -45.5q-102 0 -172.5 65.5t-95 175t0.5 237.5l101 524h155l-108 -561q-25 -126 34.5 -219t176.5 -93q39 0 70.5 11t64 38t57 54.5t66.5 79.5l-14 -82l147 770h145z" />
    <glyph glyph-name="uni01D9" unicode="&#x1d9;" 
d="M952 2138h121l-262 -321h-117l-194 321h125l143 -180zM455 1612q0 51 27.5 77.5t78.5 26.5t79 -26.5t28 -77.5q0 -54 -28 -81.5t-79 -27.5q-106 0 -106 109zM795 1612q0 104 108 104q105 0 105 -104q0 -109 -105 -109q-108 0 -108 109zM813 352q-24 -127 -107.5 -192.5
t-203.5 -65.5q-131 0 -198 70t-44 198l189 969h-144l-190 -979q-35 -176 52 -277.5t292 -101.5q207 0 336.5 106t162.5 283l189 969h-143z" />
    <glyph glyph-name="uni01DA" unicode="&#x1da;" 
d="M760 1458h-117l-194 322h124l144 -181l184 181h121zM510 1145q-107 0 -107 108q0 51 28 78t79 27t78.5 -27t27.5 -78q0 -108 -106 -108zM743 1253q0 51 28 78t81 27q104 0 104 -105q0 -108 -104 -108q-109 0 -109 108zM1042 973l-165 -860q-1 -7 -6.5 -28.5t-6.5 -28.5
t-3 -28.5t3 -27.5h-153l26 139q-56 -75 -143.5 -120.5t-179.5 -45.5q-102 0 -172.5 65.5t-95 175t0.5 237.5l101 524h155l-108 -561q-25 -126 34.5 -219t176.5 -93q39 0 70.5 11t64 38t57 54.5t66.5 79.5l-14 -82l147 770h145z" />
    <glyph glyph-name="uni01DB" unicode="&#x1db;" 
d="M567 2071l97 127l354 -277l-62 -88zM455 1612q0 51 27.5 77.5t78.5 26.5t79 -26.5t28 -77.5q0 -54 -28 -81.5t-79 -27.5q-106 0 -106 109zM795 1612q0 104 108 104q105 0 105 -104q0 -109 -105 -109q-108 0 -108 109zM813 352q-24 -127 -107.5 -192.5t-203.5 -65.5
q-131 0 -198 70t-44 198l189 969h-144l-190 -979q-35 -176 52 -277.5t292 -101.5q207 0 336.5 106t162.5 283l189 969h-143z" />
    <glyph glyph-name="uni01DC" unicode="&#x1dc;" 
d="M967 1563l-62 -88l-389 237l96 127zM510 1145q-107 0 -107 108q0 51 28 78t79 27t78.5 -27t27.5 -78q0 -108 -106 -108zM743 1253q0 51 28 78t81 27q104 0 104 -105q0 -108 -104 -108q-109 0 -109 108zM1042 973l-165 -860q-1 -7 -6.5 -28.5t-6.5 -28.5t-3 -28.5t3 -27.5
h-153l26 139q-56 -75 -143.5 -120.5t-179.5 -45.5q-102 0 -172.5 65.5t-95 175t0.5 237.5l101 524h155l-108 -561q-25 -126 34.5 -219t176.5 -93q39 0 70.5 11t64 38t57 54.5t66.5 79.5l-14 -82l147 770h145z" />
    <glyph glyph-name="Scommaaccent" unicode="&#x218;" 
d="M1001 993l-127 -22q10 51 10 92t-7 68t-23 46.5t-33.5 30t-43 16.5t-45.5 7.5t-48 1.5q-135 0 -215 -63.5t-98 -176.5q-14 -95 53.5 -159t218.5 -93q196 -38 275 -125.5t51 -263.5q-30 -188 -165.5 -283.5t-350.5 -95.5q-201 0 -316 115l92 88q46 -38 111 -60t125 -22
q149 0 244.5 65.5t121.5 198.5q21 115 -31.5 168.5t-178.5 75.5q-202 36 -306.5 141t-78.5 265q17 99 90.5 179.5t180 124.5t222.5 44q45 0 83.5 -6.5t77.5 -22t64.5 -42t44.5 -67t18 -96t-16 -129.5zM489 -55q41 0 60 -22t14 -62q-3 -23 -12 -41q-31 -56 -98 -133.5
t-99 -96.5l-63 37q37 55 106 183q-10 20 -4 51q5 40 30 62t66 22z" />
    <glyph glyph-name="scommaaccent" unicode="&#x219;" 
d="M772 623q76 -91 122 -194t46 -167q0 -122 -100 -204.5t-248 -82.5q-64 0 -140 17.5t-122 42.5l65 121q55 -35 117 -41q24 -6 76 -6q94 0 153.5 42t59.5 109q0 42 -31 101t-100 161q-31 44 -43 62.5t-23.5 42.5t-17.5 51q-92 -162 -192 -293t-179 -190l-106 112
q139 100 260 277.5t194 388.5h187q-23 -60 -30 -80t-13.5 -49.5t-6.5 -57.5q0 -40 15.5 -74.5t56.5 -88.5zM537 -43q40 0 58.5 -22.5t12.5 -63.5q0 -9 -10 -39q-32 -56 -99 -134t-98 -95l-63 37q15 19 106 180q-12 21 -6 51q4 41 30.5 63.5t68.5 22.5z" />
    <glyph glyph-name="uni021A" unicode="&#x21a;" 
d="M293 1331h866l-22 -119h-367l-235 -1212h-144l234 1212h-355zM489 -55q41 0 60 -22t14 -62q-3 -23 -12 -41q-31 -56 -98 -133.5t-99 -96.5l-63 37q37 55 106 183q-10 20 -4 51q5 40 30 62t66 22z" />
    <glyph glyph-name="uni021B" unicode="&#x21b;" 
d="M473 332q-6 -24 -6 -45q-15 -176 123 -176q64 0 127.5 42.5t107.5 116.5l39 -51q-116 -246 -299 -246q-127 0 -190.5 74.5t-57.5 204.5q3 42 11 80q3 20 90 420q3 18 11 51.5t11 50.5h-180l16 119h189q62 273 72 358h143q-17 -117 -72 -358h301l-16 -119h-309l-21 -92
q-57 -257 -90 -430zM608 -55q41 0 60.5 -22t13.5 -62q-3 -23 -12 -41q-30 -55 -96.5 -133t-98.5 -97l-63 37q26 39 104 183q-10 20 -4 51q4 39 30 61.5t66 22.5z" />
    <glyph glyph-name="uni0237" unicode="&#x237;" 
d="M881 973l-191 -975q-31 -171 -128.5 -268t-248.5 -97q-66 0 -110 35.5t-60.5 93t-9 132t38.5 151.5l82 29q-39 -90 -35.5 -158.5t37 -108.5t84.5 -40q160 0 205 235l166 852l-197 -6l21 108z" />
    <glyph glyph-name="circumflex" unicode="&#x2c6;" horiz-adv-x="1024" 
d="M801 1090l-135 182l-193 -182h-125l283 321h117l174 -321h-121z" />
    <glyph glyph-name="caron" unicode="&#x2c7;" horiz-adv-x="1024" 
d="M811 1436h121l-262 -322h-117l-195 322h125l144 -183z" />
    <glyph glyph-name="breve" unicode="&#x2d8;" horiz-adv-x="1024" 
d="M786 1331h123q-17 -113 -106.5 -188.5t-204.5 -75.5q-124 0 -200.5 77t-61.5 187h123q-10 -73 27.5 -116.5t111.5 -43.5q77 0 127.5 42t60.5 118z" />
    <glyph glyph-name="dotaccent" unicode="&#x2d9;" horiz-adv-x="1024" 
d="M455 1253q0 51 28.5 78t79.5 27t79 -27t28 -78q0 -108 -107 -108q-108 0 -108 108z" />
    <glyph glyph-name="ring" unicode="&#x2da;" horiz-adv-x="1024" 
d="M563 985q-86 0 -142 56.5t-56 144.5q0 86 55 140t143 54t143.5 -54t55.5 -140t-57 -143.5t-142 -57.5zM563 1061q55 0 79 29.5t24 95.5t-24 94.5t-79 28.5q-54 0 -76 -27.5t-22 -95.5q0 -66 23 -95.5t75 -29.5z" />
    <glyph glyph-name="ogonek" unicode="&#x2db;" horiz-adv-x="1024" 
d="M655 -326q-72 -41 -139 -41q-69 0 -114 43.5t-33 114.5q5 38 37 86t92 123h100q-111 -139 -119 -193q-3 -27 19 -39t53 -12q38 0 90 33z" />
    <glyph glyph-name="tilde" unicode="&#x2dc;" horiz-adv-x="1024" 
d="M541 1358q44 0 77 -12.5t51.5 -30t34 -34.5t35 -29.5t45.5 -12.5q96 0 172 115l86 -72q-47 -70 -114 -118t-150 -48q-44 0 -76.5 12.5t-51.5 30t-35 34.5t-36.5 29.5t-46.5 12.5q-95 0 -170 -115l-83 72q103 166 262 166z" />
    <glyph glyph-name="hungarumlaut" unicode="&#x2dd;" horiz-adv-x="1024" 
d="M705 1333l-234 -235h-98l215 268zM961 1333l-234 -235h-98l215 268z" />
    <glyph glyph-name="gravecomb" unicode="&#x300;" horiz-adv-x="0" 
d="M-702 1366l96 129l354 -276l-61 -89z" />
    <glyph glyph-name="acutecomb" unicode="&#x301;" horiz-adv-x="0" 
d="M-231 1366l-455 -236l-37 89l430 276z" />
    <glyph glyph-name="uni0302" unicode="&#x302;" horiz-adv-x="0" 
d="M-326 1090l-135 182l-192 -182h-125l282 321h117l174 -321h-121z" />
    <glyph glyph-name="tildecomb" unicode="&#x303;" horiz-adv-x="0" 
d="M-586 1358q44 0 77 -12.5t51.5 -30t34.5 -34.5t35.5 -29.5t45.5 -12.5q96 0 172 115l86 -72q-47 -70 -114 -118t-150 -48q-44 0 -76.5 12.5t-51.5 30t-35 34.5t-36.5 29.5t-46.5 12.5q-95 0 -170 -115l-84 72q103 166 262 166z" />
    <glyph glyph-name="uni0304" unicode="&#x304;" horiz-adv-x="0" 
d="M-315 1126h-498v103h498v-103z" />
    <glyph glyph-name="uni0306" unicode="&#x306;" horiz-adv-x="0" 
d="M-272 1331h122q-15 -112 -104.5 -188t-206.5 -76q-124 0 -200.5 77t-61.5 187h123q-9 -74 28.5 -117t112.5 -43q77 0 127.5 42t59.5 118z" />
    <glyph glyph-name="uni0307" unicode="&#x307;" horiz-adv-x="0" 
d="M-672 1253q0 51 29 78t80 27t78.5 -27t27.5 -78q0 -108 -106 -108q-109 0 -109 108z" />
    <glyph glyph-name="uni0308" unicode="&#x308;" horiz-adv-x="0" 
d="M-739 1253q0 51 28 78t80 27q51 0 78 -27t27 -78q0 -108 -105 -108q-108 0 -108 108zM-397 1253q0 51 27.5 78t78.5 27q107 0 107 -105q0 -108 -107 -108q-106 0 -106 108z" />
    <glyph glyph-name="uni030A" unicode="&#x30a;" horiz-adv-x="0" 
d="M-563 985q-86 0 -142.5 56.5t-56.5 144.5q0 86 55.5 140t143.5 54t143 -54t55 -140t-56.5 -143.5t-141.5 -57.5zM-563 1061q55 0 78.5 29t23.5 96q0 66 -23.5 94.5t-78.5 28.5q-54 0 -76.5 -28t-22.5 -95q0 -66 23.5 -95.5t75.5 -29.5z" />
    <glyph glyph-name="uni030B" unicode="&#x30b;" horiz-adv-x="0" 
d="M-422 1333l-233 -235h-99l215 268zM-166 1333l-233 -235h-99l215 268z" />
    <glyph glyph-name="uni030C" unicode="&#x30c;" horiz-adv-x="0" 
d="M-283 1436h123l-264 -322h-115l-194 322h123l143 -183z" />
    <glyph glyph-name="uni0312" unicode="&#x312;" horiz-adv-x="0" 
d="M-549 1446q-5 -9 -100 -199q8 -12 8 -49q-9 -84 -96 -100q-42 -6 -61 11.5t-15 59.5q3 19 10 41q27 59 92 146t97 114z" />
    <glyph glyph-name="uni0326" unicode="&#x326;" horiz-adv-x="0" 
d="M-578 -55q41 0 60 -22t14 -62q-3 -23 -12 -41q-31 -56 -98 -133.5t-99 -96.5l-61 37q3 5 21.5 37t42 73t40.5 73q-10 20 -4 51q4 39 30 61.5t66 22.5z" />
    <glyph glyph-name="uni0327" unicode="&#x327;" horiz-adv-x="0" 
d="M-567 -436q-82 0 -133 22t-91 76l78 72q22 -39 54.5 -53.5t99.5 -14.5q72 0 104 17t35 55t-20 58t-68 20q-30 0 -60 -9.5t-44 -23.5l-95 8l54 209h100l-37 -125q6 9 41 17t72 8q83 0 126.5 -45t37.5 -123q-6 -82 -71 -125t-183 -43z" />
    <glyph glyph-name="uni0328" unicode="&#x328;" horiz-adv-x="0" 
d="M-471 -326q-72 -41 -139 -41q-70 0 -115 44t-33 114q5 38 37 86t92 123h101q-111 -139 -119 -193q-3 -27 19 -39t53 -12q38 0 90 33z" />
    <glyph glyph-name="uni0335" unicode="&#x335;" horiz-adv-x="0" 
d="M-315 444h-633v119h655z" />
    <glyph glyph-name="uni0336" unicode="&#x336;" horiz-adv-x="0" 
d="M-41 537v-121h-1042v121h1042z" />
    <glyph glyph-name="uni0337" unicode="&#x337;" horiz-adv-x="0" 
d="M-918 66l-104 51l780 962l101 -63z" />
    <glyph glyph-name="uni0338" unicode="&#x338;" horiz-adv-x="0" 
d="M-201 1120l-635 -1306l-104 67l633 1303z" />
    <glyph glyph-name="tonos" unicode="&#x384;" 
d="M414 1331l-115 -272h-147l98 272h164z" />
    <glyph glyph-name="dieresistonos" unicode="&#x385;" horiz-adv-x="1024" 
d="M842 1675l-115 -272h-147l98 272h164zM387 1253q0 51 28 78t81 27q104 0 104 -105q0 -108 -104 -108q-109 0 -109 108zM729 1253q0 51 28 78t79 27q106 0 106 -105q0 -108 -106 -108q-107 0 -107 108z" />
    <glyph glyph-name="Alphatonos" unicode="&#x386;" horiz-adv-x="1024" 
 />
    <glyph glyph-name="Epsilontonos" unicode="&#x388;" horiz-adv-x="1024" 
 />
    <glyph glyph-name="Etatonos" unicode="&#x389;" horiz-adv-x="1024" 
 />
    <glyph glyph-name="Iotatonos" unicode="&#x38a;" horiz-adv-x="1024" 
 />
    <glyph glyph-name="Omicrontonos" unicode="&#x38c;" horiz-adv-x="1024" 
 />
    <glyph glyph-name="Upsilontonos" unicode="&#x38e;" horiz-adv-x="1024" 
 />
    <glyph glyph-name="Omegatonos" unicode="&#x38f;" horiz-adv-x="1024" 
 />
    <glyph glyph-name="iotadieresistonos" unicode="&#x390;" horiz-adv-x="1024" 
 />
    <glyph glyph-name="Alpha" unicode="&#x391;" 
d="M791 0l-37 375h-428l-174 -375h-148l604 1331h205l119 -1331h-141zM381 496h362l-57 608h-22z" />
    <glyph glyph-name="Beta" unicode="&#x392;" 
d="M786 745q105 -38 149 -128.5t21 -221.5q-35 -180 -168.5 -287.5t-322.5 -107.5h-408l258 1331h295q212 0 301 -84t56 -260q-18 -92 -59.5 -150t-121.5 -92zM592 1186h-158l-76 -387h148q152 0 227.5 50t97.5 159q19 99 -36 138.5t-203 39.5zM483 145q134 0 222.5 71
t113.5 200q23 120 -37.5 178.5t-208.5 58.5h-241l-101 -508h252z" />
    <glyph glyph-name="Gamma" unicode="&#x393;" 
d="M412 1331h612l-41 -137h-453l-208 -1194h-144z" />
    <glyph glyph-name="uni0394" unicode="&#x394;" 
d="M983 131l-16 -131h-942l18 131l561 1200h146zM190 131h644l-183 989z" />
    <glyph glyph-name="Epsilon" unicode="&#x395;" 
d="M360 629l-94 -484h598l-30 -145h-740l258 1331h740l-27 -145h-598l-80 -414h496l-29 -143h-494z" />
    <glyph glyph-name="Zeta" unicode="&#x396;" 
d="M254 137h723l-19 -137h-911l19 137l841 1057h-639l19 137h825l-18 -137z" />
    <glyph glyph-name="Eta" unicode="&#x397;" 
d="M291 575l-113 -575h-143l258 1331h143l-123 -633zM1141 1331l-236 -1220q-1 -3 -5 -21.5t-5 -24.5t-3 -20t-1 -24.5t4 -20.5h-154l256 1331h144zM852 575h-561l22 123h561z" />
    <glyph glyph-name="Theta" unicode="&#x398;" 
d="M483 -27q-229 0 -320.5 182.5t-33.5 522.5q58 330 207.5 505t372.5 175q224 0 318.5 -187t37.5 -514q-58 -327 -210.5 -505.5t-371.5 -178.5zM492 113q160 0 259.5 134.5t151.5 430.5q51 301 4 430t-202 127q-309 -3 -408 -578q-49 -289 -1.5 -416.5t196.5 -127.5z
M778 598h-377l23 135h379z" />
    <glyph glyph-name="Iota" unicode="&#x399;" 
d="M1001 1212h-237l-193 -1093h291v-6q-1 -4 -4 -18.5t-4.5 -20t-3.5 -18t-2 -20t1 -18t3 -18.5h-741l20 119h295l192 1093h-249l22 119h633z" />
    <glyph glyph-name="Kappa" unicode="&#x39a;" 
d="M1145 1333l-676 -682l473 -651h-221l-379 526l-63 -67l-91 -459h-143l258 1333l143 -2l-120 -629l630 629z" />
    <glyph glyph-name="Lambda" unicode="&#x39b;" 
d="M805 0l-168 1069l-449 -1069h-153l561 1331h145l215 -1331h-151z" />
    <glyph glyph-name="Mu" unicode="&#x39c;" 
d="M768 0l207 1061q-176 -341 -348 -592h-148q-8 37 -35.5 146t-52.5 224.5t-39 215.5l-200 -1055h-144l254 1331h152q24 -161 77 -371.5t93 -324.5q73 98 207 313t223 383h157l-260 -1331h-143z" />
    <glyph glyph-name="Nu" unicode="&#x39d;" 
d="M881 0h-148l-340 1008l-194 -1008h-144l258 1331h152l328 -983l186 983h160z" />
    <glyph glyph-name="Xi" unicode="&#x39e;" 
d="M258 1194l21 137h825l-21 -137h-825zM885 588h-615l19 131h614zM969 137l-19 -137h-911l18 137h912z" />
    <glyph glyph-name="Omicron" unicode="&#x39f;" 
d="M483 -27q-229 0 -320.5 182.5t-33.5 522.5q58 330 207.5 505t372.5 175q224 0 318.5 -187t37.5 -514q-58 -327 -210.5 -505.5t-371.5 -178.5zM492 113q160 0 259.5 134.5t151.5 430.5q51 301 4 430t-202 127q-309 -3 -408 -578q-49 -289 -1.5 -416.5t196.5 -127.5z" />
    <glyph glyph-name="Pi" unicode="&#x3a0;" 
d="M903 0h-153l213 1212h-560l-215 -1212h-143l236 1331h849l-217 -1225q-16 -73 -10 -106z" />
    <glyph glyph-name="Rho" unicode="&#x3a1;" 
d="M213 0h-147l258 1331h397q191 0 285 -114.5t59 -303.5q-21 -103 -71.5 -177.5t-128 -118.5t-173.5 -64.5t-217 -20.5h-160zM702 1186h-260l-100 -508h236q148 0 236.5 65.5t113.5 192.5q23 122 -34 186t-192 64z" />
    <glyph glyph-name="Sigma" unicode="&#x3a3;" 
d="M807 594l-488 -449h547l-24 -145h-744l29 145l563 543l-383 498l27 145h743l-26 -145h-564l349 -447z" />
    <glyph glyph-name="Tau" unicode="&#x3a4;" 
d="M293 1331h866l-22 -119h-367l-235 -1212h-144l234 1212h-355z" />
    <glyph glyph-name="Upsilon" unicode="&#x3a5;" 
d="M1202 1331l-563 -776l-78 -555h-145l80 553h-2l-318 778h156l264 -610l455 610h151z" />
    <glyph glyph-name="Phi" unicode="&#x3a6;" 
d="M754 1178q196 -22 281.5 -152.5t51.5 -355.5q-35 -220 -165.5 -354t-329.5 -156l-25 -160h-145l24 162q-192 23 -277.5 159.5t-51.5 366.5q35 224 160.5 349.5t330.5 144.5l25 149h145zM954 688q26 171 -26.5 254.5t-196.5 95.5l-117 -737q286 41 340 387zM250 670
q-50 -335 219 -369l119 737q-148 -19 -230 -108.5t-108 -259.5z" />
    <glyph glyph-name="Chi" unicode="&#x3a7;" 
d="M1147 1331l-475 -667l270 -664h-166l-209 516l-366 -516h-154l469 651l-274 680h159l217 -534l383 534h146z" />
    <glyph glyph-name="Psi" unicode="&#x3a8;" 
d="M1188 1331q-27 -173 -59 -293t-75.5 -209.5t-104 -142.5t-137.5 -80.5t-183 -34.5l-90 -571h-146l92 571q-85 4 -143 21t-99 55t-61.5 92t-25.5 141t5 194t34 257h137q-39 -226 -34.5 -360.5t52 -191t156.5 -68.5l100 620h146l-101 -622q123 10 196.5 71.5t119 188.5
t82.5 362h139z" />
    <glyph glyph-name="uni03A9" unicode="&#x3a9;" 
d="M598 139q25 0 67.5 35.5t90 98.5t90 170.5t59.5 230.5q36 277 -30 412t-205 133q-147 -2 -254.5 -140t-145.5 -420q-15 -104 -8.5 -187t24.5 -145.5t44 -104t50.5 -62.5t43.5 -21l-18 -139h-381l20 139l205 2q-77 69 -118 202t-13 331q47 328 194.5 506t362.5 178
q220 0 323 -183t56 -516q-27 -193 -103.5 -321.5t-175.5 -200.5l207 2l-20 -139h-383z" />
    <glyph glyph-name="Iotadieresis" unicode="&#x3aa;" 
d="M561 1503q-106 0 -106 109q0 51 27.5 77.5t78.5 26.5t79 -26.5t28 -77.5q0 -54 -28 -81.5t-79 -27.5zM903 1503q-108 0 -108 109q0 104 108 104q105 0 105 -104q0 -109 -105 -109zM1001 1212h-237l-193 -1093h291v-6q-1 -4 -4 -18.5t-4.5 -20t-3.5 -18t-2 -20t1 -18
t3 -18.5h-741l20 119h295l192 1093h-249l22 119h633z" />
    <glyph glyph-name="Upsilondieresis" unicode="&#x3ab;" 
d="M561 1503q-106 0 -106 109q0 51 27.5 77.5t78.5 26.5t79 -26.5t28 -77.5q0 -54 -28 -81.5t-79 -27.5zM903 1503q-108 0 -108 109q0 104 108 104q105 0 105 -104q0 -109 -105 -109zM1202 1331l-563 -776l-78 -555h-145l80 553h-2l-318 778h156l264 -610l455 610h151z" />
    <glyph glyph-name="etatonos" unicode="&#x3ae;" horiz-adv-x="1024" 
 />
    <glyph glyph-name="iotatonos" unicode="&#x3af;" horiz-adv-x="1024" 
 />
    <glyph glyph-name="upsilondieresistonos" unicode="&#x3b0;" horiz-adv-x="1024" 
 />
    <glyph glyph-name="beta" unicode="&#x3b2;" horiz-adv-x="1024" 
 />
    <glyph glyph-name="gamma" unicode="&#x3b3;" horiz-adv-x="1024" 
 />
    <glyph glyph-name="eta" unicode="&#x3b7;" horiz-adv-x="1024" 
 />
    <glyph glyph-name="theta" unicode="&#x3b8;" horiz-adv-x="1024" 
 />
    <glyph glyph-name="iota" unicode="&#x3b9;" horiz-adv-x="1024" 
 />
    <glyph glyph-name="kappa" unicode="&#x3ba;" horiz-adv-x="1024" 
 />
    <glyph glyph-name="lambda" unicode="&#x3bb;" 
d="M936 0h-164q-79 205 -207 651l-360 -651h-156l465 836q-31 107 -49 182q-30 81 -61.5 123t-75.5 57l71 131q140 -45 199 -282q228 -792 338 -1047z" />
    <glyph glyph-name="uni03BC" unicode="&#x3bc;" horiz-adv-x="1024" 
 />
    <glyph glyph-name="nu" unicode="&#x3bd;" horiz-adv-x="1024" 
 />
    <glyph glyph-name="omicron" unicode="&#x3bf;" horiz-adv-x="1024" 
 />
    <glyph glyph-name="pi" unicode="&#x3c0;" horiz-adv-x="1024" 
 />
    <glyph glyph-name="rho" unicode="&#x3c1;" horiz-adv-x="1024" 
 />
    <glyph glyph-name="sigma" unicode="&#x3c3;" horiz-adv-x="1024" 
 />
    <glyph glyph-name="tau" unicode="&#x3c4;" horiz-adv-x="1024" 
 />
    <glyph glyph-name="upsilon" unicode="&#x3c5;" horiz-adv-x="1024" 
 />
    <glyph glyph-name="phi" unicode="&#x3c6;" horiz-adv-x="1024" 
 />
    <glyph glyph-name="psi" unicode="&#x3c8;" horiz-adv-x="1024" 
 />
    <glyph glyph-name="iotadieresis" unicode="&#x3ca;" horiz-adv-x="1024" 
d="M387 1253q0 51 28 78t81 27q104 0 104 -105q0 -108 -104 -108q-109 0 -109 108zM729 1253q0 51 28 78t79 27q106 0 106 -105q0 -108 -106 -108q-107 0 -107 108z" />
    <glyph glyph-name="upsilondieresis" unicode="&#x3cb;" horiz-adv-x="1024" 
d="M387 1253q0 51 28 78t81 27q104 0 104 -105q0 -108 -104 -108q-109 0 -109 108zM729 1253q0 51 28 78t79 27q106 0 106 -105q0 -108 -106 -108q-107 0 -107 108z" />
    <glyph glyph-name="omicrontonos" unicode="&#x3cc;" horiz-adv-x="1024" 
 />
    <glyph glyph-name="upsilontonos" unicode="&#x3cd;" horiz-adv-x="1024" 
 />
    <glyph glyph-name="Wgrave" unicode="&#x1e80;" 
d="M506 1724l94 129l356 -276l-63 -88zM1042 1331h144q-42 -271 -159 -681.5t-222 -649.5h-135q-84 371 -92 594q-73 -197 -289 -594h-139q-19 231 3.5 638.5t63.5 692.5h143q-42 -261 -72.5 -595t-13.5 -498q5 10 28.5 53.5t30.5 56.5t28 53.5t30 57.5t27.5 54t28 57.5
t25 53.5t26 57t22 52.5t21.5 54.5l145 -6q4 -187 76 -544q76 169 158 505.5t122 587.5z" />
    <glyph glyph-name="wgrave" unicode="&#x1e81;" 
d="M455 1366l94 129l356 -276l-63 -89zM975 999h143q-26 -165 -84.5 -352.5t-110 -313t-143.5 -333.5h-137q-70 321 -76 508q-16 -45 -36.5 -91.5t-35.5 -79.5t-43 -87t-40 -76.5t-48.5 -88.5t-46.5 -85h-139q-16 190 -22.5 329.5t-1.5 321.5t28 348h144q-59 -383 -23 -761
q68 127 94.5 178t68.5 144.5t71 176.5l143 -6q0 -225 57 -493q91 208 149.5 387t88.5 374z" />
    <glyph glyph-name="Wacute" unicode="&#x1e82;" 
d="M977 1724l-455 -235l-37 88l430 276zM1042 1331h144q-42 -271 -159 -681.5t-222 -649.5h-135q-84 371 -92 594q-73 -197 -289 -594h-139q-19 231 3.5 638.5t63.5 692.5h143q-42 -261 -72.5 -595t-13.5 -498q5 10 28.5 53.5t30.5 56.5t28 53.5t30 57.5t27.5 54t28 57.5
t25 53.5t26 57t22 52.5t21.5 54.5l145 -6q4 -187 76 -544q76 169 158 505.5t122 587.5z" />
    <glyph glyph-name="wacute" unicode="&#x1e83;" 
d="M926 1366l-455 -236l-37 89l430 276zM975 999h143q-26 -165 -84.5 -352.5t-110 -313t-143.5 -333.5h-137q-70 321 -76 508q-16 -45 -36.5 -91.5t-35.5 -79.5t-43 -87t-40 -76.5t-48.5 -88.5t-46.5 -85h-139q-16 190 -22.5 329.5t-1.5 321.5t28 348h144q-59 -383 -23 -761
q68 127 94.5 178t68.5 144.5t71 176.5l143 -6q0 -225 57 -493q91 208 149.5 387t88.5 374z" />
    <glyph glyph-name="Wdieresis" unicode="&#x1e84;" 
d="M455 1612q0 51 27.5 77.5t78.5 26.5t79 -26.5t28 -77.5q0 -54 -28 -81.5t-79 -27.5q-106 0 -106 109zM795 1612q0 104 108 104q105 0 105 -104q0 -109 -105 -109q-108 0 -108 109zM1042 1331h144q-42 -271 -159 -681.5t-222 -649.5h-135q-84 371 -92 594
q-73 -197 -289 -594h-139q-19 231 3.5 638.5t63.5 692.5h143q-42 -261 -72.5 -595t-13.5 -498q5 10 28.5 53.5t30.5 56.5t28 53.5t30 57.5t27.5 54t28 57.5t25 53.5t26 57t22 52.5t21.5 54.5l145 -6q4 -187 76 -544q76 169 158 505.5t122 587.5z" />
    <glyph glyph-name="wdieresis" unicode="&#x1e85;" 
d="M403 1253q0 51 28 78t79 27t78.5 -27t27.5 -78q0 -108 -106 -108q-107 0 -107 108zM743 1253q0 51 28 78t81 27q104 0 104 -105q0 -108 -104 -108q-109 0 -109 108zM975 999h143q-26 -165 -84.5 -352.5t-110 -313t-143.5 -333.5h-137q-70 321 -76 508
q-16 -45 -36.5 -91.5t-35.5 -79.5t-43 -87t-40 -76.5t-48.5 -88.5t-46.5 -85h-139q-16 190 -22.5 329.5t-1.5 321.5t28 348h144q-59 -383 -23 -761q68 127 94.5 178t68.5 144.5t71 176.5l143 -6q0 -225 57 -493q91 208 149.5 387t88.5 374z" />
    <glyph glyph-name="Ygrave" unicode="&#x1ef2;" 
d="M956 1577l-63 -88l-387 235l94 129zM1202 1331l-563 -776l-78 -555h-145l80 553h-2l-318 778h156l264 -610l455 610h151z" />
    <glyph glyph-name="ygrave" unicode="&#x1ef3;" 
d="M905 1219l-63 -89l-387 236l94 129zM901 973h162q-62 -154 -240.5 -483.5t-359.5 -636.5q-75 -131 -172.5 -181.5t-227.5 -27.5l37 112q144 -29 242 156l86 147q-23 109 -76.5 314.5t-84 353t-29.5 246.5h141q-1 -63 14.5 -162t30.5 -165t53 -217.5t49 -197.5
q298 529 375 742z" />
    <glyph glyph-name="endash" unicode="&#x2013;" 
d="M948 444h-780q10 33 10 113v6h780q-10 -35 -10 -112v-7z" />
    <glyph glyph-name="emdash" unicode="&#x2014;" 
d="M1085 444h-1042v119h1042v-119z" />
    <glyph glyph-name="quoteleft" unicode="&#x2018;" 
d="M709 1321q-39 -62 -125 -248q14 -24 8 -61q-4 -52 -35.5 -85t-83.5 -42q-53 -8 -77.5 15t-18.5 75q3 30 14 51h-2q37 76 118 186t120 140z" />
    <glyph glyph-name="quoteright" unicode="&#x2019;" 
d="M690 1321q52 9 76 -14t18 -74q-3 -30 -12 -51q-37 -77 -116 -186.5t-119 -141.5l-82 31q41 74 123 248q-12 21 -9 61q6 52 37 85t84 42z" />
    <glyph glyph-name="quotesinglbase" unicode="&#x201a;" 
d="M535 188q51 0 74.5 -27.5t17.5 -78.5q-5 -29 -19 -57q-41 -71 -122 -164t-119 -117l-80 45q43 62 133 227q-12 27 -6 66q6 51 37.5 78.5t83.5 27.5z" />
    <glyph glyph-name="quotedblleft" unicode="&#x201c;" 
d="M672 1321q-42 -75 -125 -248q13 -18 10 -61q-6 -52 -37 -85t-84 -42q-53 -8 -77 15t-17 75q0 19 12 51h-2q37 76 118 186t120 140zM963 1321q-24 -38 -125 -248q14 -24 8 -61q-4 -52 -35.5 -85t-83.5 -42q-53 -8 -77.5 15t-18.5 75q2 19 14 51h-2q37 76 118 186t120 140z
" />
    <glyph glyph-name="quotedblright" unicode="&#x201d;" 
d="M532 1182h3q-37 -77 -117.5 -186.5t-120.5 -141.5l-82 31q28 51 125 248q-14 24 -8 61q4 52 35.5 85t83.5 42t77 -14t19 -74q-2 -21 -15 -51zM741 1321q52 9 76.5 -14t18.5 -74q-3 -27 -13 -51q-37 -77 -116 -186.5t-119 -141.5l-82 31q41 74 123 248q-11 20 -8 61
q6 53 37 85.5t83 41.5z" />
    <glyph glyph-name="quotedblbase" unicode="&#x201e;" 
d="M535 188q51 0 74.5 -27.5t17.5 -78.5q-5 -29 -19 -57q-41 -71 -122 -164t-119 -117l-80 45q43 62 133 227q-12 27 -6 66q6 51 37.5 78.5t83.5 27.5z" />
    <glyph glyph-name="dagger" unicode="&#x2020;" 
d="M965 973l-27 -144h-252l-147 -829h-154l147 829h-241l24 144h242l64 358h153l-63 -358h254z" />
    <glyph glyph-name="daggerdbl" unicode="&#x2021;" 
d="M956 829h-254l-55 -317h252l-25 -143h-253l-64 -369h-154l64 369h-242l25 143h244l55 317h-242l25 144h243l64 358h154l-64 -358h252z" />
    <glyph glyph-name="bullet" unicode="&#x2022;" 
d="M393 539q0 76 41.5 117.5t118.5 41.5q76 0 117 -41t41 -118q0 -78 -40.5 -119t-117.5 -41q-78 0 -119 41t-41 119z" />
    <glyph glyph-name="ellipsis" unicode="&#x2026;" 
d="M80 82q0 51 28 78.5t80 27.5q51 0 78 -27.5t27 -78.5q0 -53 -27 -81t-78 -28q-108 0 -108 109zM403 82q0 51 29 78.5t80 27.5t78.5 -27.5t27.5 -78.5q0 -52 -27.5 -80.5t-78.5 -28.5q-52 0 -80.5 28.5t-28.5 80.5zM729 82q0 51 28 78.5t79 27.5q106 0 106 -106
q0 -109 -106 -109q-52 0 -79.5 28t-27.5 81z" />
    <glyph glyph-name="perthousand" unicode="&#x2030;" 
d="M373 864q-108 0 -169 73.5t-46 184.5q13 105 88.5 170.5t181.5 65.5q112 0 173 -69.5t46 -178.5q-13 -105 -92 -175.5t-182 -70.5zM373 961q71 0 109 38t48 123q11 82 -12 115t-90 33q-68 0 -104 -37.5t-48 -122.5q-12 -81 10.5 -115t86.5 -34zM1137 1106l-889 -586
l-98 68l888 583zM246 -23q-108 0 -169 74t-46 187q13 104 88.5 169.5t181.5 65.5q112 0 173 -70t46 -180q-14 -104 -92.5 -175t-181.5 -71zM778 -23q-108 0 -169 74t-46 187q13 104 89 169.5t182 65.5q112 0 173 -70t46 -180q-13 -104 -92.5 -175t-182.5 -71zM246 76
q72 0 109.5 38t47.5 124q11 80 -11 112.5t-89 32.5q-70 0 -105.5 -36.5t-47.5 -123.5q-9 -80 12.5 -113.5t83.5 -33.5zM778 76q72 0 110 38t48 124q11 80 -11 112.5t-89 32.5q-70 0 -106 -36.5t-48 -123.5q-9 -80 12.5 -113.5t83.5 -33.5z" />
    <glyph glyph-name="guilsinglleft" unicode="&#x2039;" 
d="M604 121q-19 24 -65 80.5t-84 107t-103 140.5q-34 40 -33.5 55.5t41.5 58.5q110 104 204 190t143 132l55 -103q-4 -4 -27.5 -27t-30 -29t-28 -28t-31 -32t-28 -30.5t-30 -34.5t-26.5 -33t-27.5 -37t-23.5 -37q17 -51 50 -108.5t54 -86.5t66 -88z" />
    <glyph glyph-name="guilsinglright" unicode="&#x203a;" 
d="M385 121l-49 90q2 1 24.5 23.5l26.5 26.5l25 25t27.5 28t25 26.5t27 29.5t24 28.5t25 32t21.5 30.5t22 33q-7 21 -16 43t-17 38.5t-22 39.5t-21 35t-24.5 36.5t-23 32t-24.5 33.5t-22 30l84 103q35 -46 105 -132t151 -190q27 -42 24.5 -56.5t-41.5 -50.5q-5 -4 -8 -7
q-70 -70 -123 -121.5t-78 -75t-69.5 -64t-73.5 -67.5z" />
    <glyph glyph-name="Euro" unicode="&#x20ac;" 
d="M557 111q103 0 194.5 60t116.5 138l164 -28q-42 -125 -182.5 -216.5t-296.5 -91.5q-179 0 -281 120t-114 333h-103l27 121h78q2 35 10 104l10 66h-84l27 119h86q69 237 211 379.5t313 142.5q137 0 242.5 -85t126.5 -204l-164 -41q-12 86 -69.5 140.5t-139.5 54.5
q-114 0 -207 -102.5t-149 -284.5h393l-27 -119h-395q-12 -80 -12 -82q-10 -52 -10 -88h403l-27 -121h-381q6 -154 67 -234.5t173 -80.5z" />
    <glyph glyph-name="trademark" unicode="&#x2122;" 
d="M1071 1327l117 4l-107 -751h-106l78 571q-46 -76 -94 -163.5t-72 -127.5h-92q-5 18 -20 70t-30.5 101.5t-37.5 111.5l-78 -563h-107l94 661h-182l-92 -661h-109l93 661h-187l15 90h475l110 4q43 -175 119 -358q153 234 213 350z" />
    <glyph glyph-name="oneeighth" unicode="&#x215b;" 
d="M367 1219q-17 -24 -57 -37t-113 -23l-9 76q127 25 191 96h96l-84 -592h-94zM981 1001l70 -51l-912 -618l-63 53zM831 598q88 0 138 -43t41 -109q-6 -50 -39.5 -91t-87.5 -64q141 -56 123 -170q-9 -65 -78.5 -106.5t-169.5 -41.5t-160 46t-51 114q15 106 168 164
q-48 24 -71.5 67.5t-16.5 96.5q9 65 62.5 101t141.5 36zM934 455q6 34 -21 57t-73 23q-54 0 -94 -27.5t-46 -67.5q-6 -70 99 -112q123 54 135 127zM926 135q5 36 -29 69t-102 56q-72 -24 -119 -61.5t-51 -77.5q-9 -78 129 -78q73 0 118.5 24.5t53.5 67.5z" />
    <glyph glyph-name="threeeighths" unicode="&#x215c;" 
d="M309 745q-147 0 -203 101l58 37q28 -39 59 -52.5t92 -13.5q74 0 114.5 21.5t47.5 74.5q8 56 -28 83.5t-119 27.5h-45l8 66h39q77 0 123.5 31t52.5 83q6 48 -27.5 65t-97.5 17q-92 0 -131 -53l-45 57q22 32 73.5 50t110.5 18q93 0 159 -46.5t56 -119.5q-6 -43 -39.5 -80
t-87.5 -59q48 -16 77 -58.5t22 -95.5q-10 -70 -86 -112t-183 -42zM981 1001l70 -51l-912 -618l-63 53zM831 598q88 0 138 -43t41 -109q-6 -50 -39.5 -91t-87.5 -64q141 -56 123 -170q-9 -65 -78.5 -106.5t-169.5 -41.5t-160 46t-51 114q15 106 168 164q-48 24 -71.5 67.5
t-16.5 96.5q9 65 62.5 101t141.5 36zM934 455q6 34 -21 57t-73 23q-54 0 -94 -27.5t-46 -67.5q-6 -70 99 -112q123 54 135 127zM926 135q5 36 -29 69t-102 56q-72 -24 -119 -61.5t-51 -77.5q-9 -78 129 -78q73 0 118.5 24.5t53.5 67.5z" />
    <glyph glyph-name="fiveeighths" unicode="&#x215d;" 
d="M311 793q144 0 164 131q20 155 -119 155q-36 0 -70 -13t-53 -34l-86 -4l72 303h367l-11 -76h-276l-41 -161q20 23 55.5 40t79.5 17q87 0 138.5 -60.5t39.5 -154.5q-12 -92 -97 -154.5t-187 -62.5q-112 0 -193 78l64 57q61 -61 153 -61zM981 985l70 -51l-912 -621l-63 56z
M831 598q88 0 138 -43t41 -109q-6 -50 -39.5 -91t-87.5 -64q141 -56 123 -170q-9 -65 -78.5 -106.5t-169.5 -41.5t-160 46t-51 114q15 106 168 164q-48 24 -71.5 67.5t-16.5 96.5q9 65 62.5 101t141.5 36zM934 455q6 34 -21 57t-73 23q-54 0 -94 -27.5t-46 -67.5
q-6 -70 99 -112q123 54 135 127zM926 135q5 36 -29 69t-102 56q-72 -24 -119 -61.5t-51 -77.5q-9 -78 129 -78q73 0 118.5 24.5t53.5 67.5z" />
    <glyph glyph-name="seveneighths" unicode="&#x215e;" 
d="M279 739h-107q9 61 36 119.5t69 113t80.5 96t94 98.5t85.5 91h-359l10 74h471l-10 -74q-31 -37 -85 -91.5t-95 -98t-83.5 -96.5t-70 -112t-36.5 -120zM981 1018l70 -51l-912 -619l-63 55zM831 598q88 0 138 -43t41 -109q-6 -50 -39.5 -91t-87.5 -64q141 -56 123 -170
q-9 -65 -78.5 -106.5t-169.5 -41.5t-160 46t-51 114q15 106 168 164q-48 24 -71.5 67.5t-16.5 96.5q9 65 62.5 101t141.5 36zM934 455q6 34 -21 57t-73 23q-54 0 -94 -27.5t-46 -67.5q-6 -70 99 -112q123 54 135 127zM926 135q5 36 -29 69t-102 56q-72 -24 -119 -61.5
t-51 -77.5q-9 -78 129 -78q73 0 118.5 24.5t53.5 67.5z" />
    <glyph glyph-name="arrowleft" unicode="&#x2190;" 
d="M514 899l74 -102l-316 -256h766v-119h-759l309 -254l-80 -100l-412 356q-51 38 -51 59q0 24 51 62z" />
    <glyph glyph-name="arrowup" unicode="&#x2191;" 
d="M147 530l355 418q38 51 61 51q22 0 60 -51l354 -411l-98 -80l-254 309v-766h-119v772l-256 -315z" />
    <glyph glyph-name="arrowright" unicode="&#x2192;" 
d="M612 899l418 -354q51 -38 51 -62q0 -21 -51 -59l-412 -356l-79 100l309 254h-760v119h766l-315 256z" />
    <glyph glyph-name="arrowdown" unicode="&#x2193;" 
d="M147 444l103 72l256 -313v772h119v-766l254 307l98 -78l-354 -413q-1 -2 -4 -5q-37 -47 -56 -47q-9 0 -21 9t-19 17t-21 26z" />
    <glyph glyph-name="arrowboth" unicode="&#x2194;" 
d="M78 545l315 286l74 -102l-207 -188h604l-205 188l72 102l318 -286q4 -4 14.5 -13t14.5 -13.5t10.5 -11.5t9 -12.5t2.5 -11.5t-2.5 -11.5t-9 -12.5t-11 -11t-14.5 -12.5t-14 -11.5l-312 -287l-78 99l205 186h-604l207 -186l-78 -99l-311 287q-4 3 -14 11.5t-14.5 12.5
t-11 11t-9 12.5t-2.5 11.5t2.5 11.5t9 12.5t10.5 11.5t14.5 13.5t14.5 13z" />
    <glyph glyph-name="arrowupdn" unicode="&#x2195;" 
d="M502 1307q2 3 7.5 9t7.5 8.5t6.5 7.5t7 7.5t6.5 6t6.5 5.5t6 4t7 2.5t6.5 0.5q6 0 11.5 -2.5t12 -8.5t11 -11t12.5 -14.5t13 -14.5l321 -344l-100 -78l-219 245v-1269l219 245l100 -77l-321 -344q-5 -6 -15.5 -18t-16 -18t-13.5 -11t-15 -5q-4 0 -8 1.5t-9 4.5t-8 5.5
t-8.5 8.5t-8.5 9.5t-9.5 11.5t-9.5 11l-322 350l103 71l223 -245v1269l-223 -245l-103 71z" />
    <glyph glyph-name="uni2196" unicode="&#x2196;" 
d="M240 225l-43 547q0 6 -1.5 18t-1.5 18.5v15t2 14t5 8.5q14 14 80 10l544 -41l-14 -125l-397 41l534 -538l-84 -87l-540 543l41 -403z" />
    <glyph glyph-name="uni2197" unicode="&#x2197;" 
d="M872 225l-124 21l40 403l-540 -543l-84 87l536 538l-399 -41l-14 125l544 41q66 4 80 -10q3 -3 5 -8.5t2 -14v-15t-1.5 -18.5t-1.5 -18z" />
    <glyph glyph-name="uni2198" unicode="&#x2198;" 
d="M885 739l45 -546q4 -66 -4 -76q-13 -11 -82 -11l-543 41l14 125l398 -39l-535 539l82 84l543 -541l-41 404z" />
    <glyph glyph-name="uni2199" unicode="&#x2199;" 
d="M240 739l125 -20l-41 -404l540 541l84 -84l-534 -539l397 39l14 -125l-544 -41q-67 0 -80 11q-3 3 -5 8.5t-2 14v15.5t1.5 19t1.5 19z" />
    <glyph glyph-name="partialdiff" unicode="&#x2202;" 
d="M530 1356q102 -47 190.5 -125t154.5 -178.5t96.5 -227t13.5 -256.5q-39 -286 -168 -441t-305 -155q-178 0 -278 122.5t-74 307.5q26 179 149.5 287.5t304.5 108.5q90 0 146.5 -32.5t103.5 -111.5q5 115 -41 236t-140.5 223t-215.5 146zM516 106q256 0 330 400
q-62 172 -236 172q-120 0 -209 -81t-108 -206q-17 -127 44.5 -206t178.5 -79z" />
    <glyph glyph-name="emptyset" unicode="&#x2205;" 
d="M1108 938l-141 -135q104 -142 77 -338q-14 -99 -65 -189.5t-124.5 -156.5t-168.5 -105t-194 -39q-159 0 -279 99l-137 -135l-80 75l141 140q-98 141 -71 329q28 201 190.5 345.5t361.5 144.5q152 0 267 -88l139 137zM178 469q-15 -130 49 -229l572 561q-82 53 -185 53
q-158 0 -285.5 -112.5t-150.5 -272.5zM932 485q18 135 -51 236l-578 -561q88 -58 193 -58q159 0 286 111.5t150 271.5z" />
    <glyph glyph-name="product" unicode="&#x220f;" 
d="M1110 1245l-16 -119h-138l-188 -1341l-143 10l186 1331h-334l-186 -1341l-144 10l185 1331h-144l17 119h905z" />
    <glyph glyph-name="summation" unicode="&#x2211;" 
d="M1018 1194h-522l362 -481l-12 -105l-496 -471h518l-18 -137h-727l18 137l570 520l-420 537l20 137h727z" />
    <glyph glyph-name="minus" unicode="&#x2212;" 
d="M866 444h-633l17 119h633z" />
    <glyph glyph-name="radical" unicode="&#x221a;" 
d="M303 727l84 -549l426 1153h334l-21 -141h-223l-444 -1190h-187l-120 727h151z" />
    <glyph glyph-name="infinity" unicode="&#x221e;" 
d="M1108 506q-19 -142 -99 -230t-192 -88q-91 -1 -160.5 50t-105.5 143q-62 -95 -143.5 -145t-167.5 -48q-119 0 -178.5 93t-34.5 243q22 137 106.5 222.5t194.5 82.5q87 -3 154 -56.5t98 -143.5q60 94 140 146t165 54q117 2 178.5 -87t44.5 -236zM248 307q83 -1 145.5 46.5
t128.5 162.5q-31 108 -74.5 151.5t-121.5 45.5q-84 2 -126 -45t-61 -162q-17 -108 7.5 -152.5t101.5 -46.5zM817 307q82 2 122.5 50.5t55.5 164.5q14 108 -11.5 150t-104.5 41q-84 -1 -143.5 -48t-125.5 -163q32 -107 79.5 -152t127.5 -43z" />
    <glyph glyph-name="integral" unicode="&#x222b;" 
d="M782 1004l-397 -1119q-19 -54 -76.5 -97t-114.5 -62t-96 -19l13 127q48 0 104.5 35.5t75.5 89.5l393 1116q16 45 53 78.5t83.5 51.5t91 26t87.5 8l-8 -111q-60 0 -124 -32.5t-85 -91.5z" />
    <glyph glyph-name="approxequal" unicode="&#x2248;" 
d="M471 795q42 0 74 -12.5t50.5 -29.5t35 -34.5t37.5 -30t47 -12.5q82 0 188 115l86 -72q-32 -36 -57 -60.5t-61 -51.5t-76.5 -40.5t-85.5 -13.5q-43 0 -75 12.5t-51.5 29.5t-36.5 34.5t-38 30t-47 12.5q-47 0 -106.5 -34t-96.5 -81l-86 72q57 76 138 121t161 45zM426 487
q42 0 74 -12t51.5 -29.5t36.5 -35t37.5 -29.5t46.5 -12q84 0 186 114l88 -71q-67 -77 -132.5 -121.5t-149.5 -44.5q-43 0 -75 12.5t-51.5 30t-36 34.5t-37 29.5t-46.5 12.5q-47 0 -105.5 -32.5t-99.5 -82.5l-84 72q55 76 136 120.5t161 44.5z" />
    <glyph glyph-name="notequal" unicode="&#x2260;" 
d="M885 588h-221l-103 -170h311l-28 -119h-355l-137 -229l-94 30l117 199h-174l26 119h219l103 170h-307l26 121h353l139 229l94 -31l-119 -198h178z" />
    <glyph glyph-name="lessequal" unicode="&#x2264;" 
d="M182 678l754 326l49 -109l-653 -281l604 -280l-82 -105l-684 324zM106 51l19 119h770l-18 -119h-771z" />
    <glyph glyph-name="greaterequal" unicode="&#x2265;" 
d="M981 678l-23 -125l-778 -324l-47 105l680 280l-573 281l82 109zM879 51h-770l18 119h768z" />
    <glyph glyph-name="upblock" unicode="&#x2580;" 
d="M1282 1595l-143 -1024h-1127l144 1024h1126z" />
    <glyph glyph-name="uni2581" unicode="&#x2581;" 
d="M995 -453h-1126l35 256h1126z" />
    <glyph glyph-name="uni2582" unicode="&#x2582;" 
d="M995 -453h-1126l72 512h1126z" />
    <glyph glyph-name="uni2583" unicode="&#x2583;" 
d="M995 -453h-1126l106 768h1127z" />
    <glyph glyph-name="dnblock" unicode="&#x2584;" 
d="M995 -453h-1126l143 1024h1127z" />
    <glyph glyph-name="uni2585" unicode="&#x2585;" 
d="M995 -453h-1126l178 1280h1127z" />
    <glyph glyph-name="uni2586" unicode="&#x2586;" 
d="M995 -453h-1126l215 1536h1126z" />
    <glyph glyph-name="uni2587" unicode="&#x2587;" 
d="M995 -453h-1126l250 1792h1126z" />
    <glyph glyph-name="block" unicode="&#x2588;" 
d="M1282 1595l-289 -2050h-1126l289 2050h1126z" />
    <glyph glyph-name="uni2589" unicode="&#x2589;" 
d="M1141 1595l-287 -2048h-985l287 2048h985z" />
    <glyph glyph-name="uni258A" unicode="&#x258a;" 
d="M999 1595l-286 -2048h-844l287 2048h843z" />
    <glyph glyph-name="uni258B" unicode="&#x258b;" 
d="M860 1595l-287 -2048h-704l287 2048h704z" />
    <glyph glyph-name="lfblock" unicode="&#x258c;" 
d="M719 1595l-287 -2048h-563l287 2048h563z" />
    <glyph glyph-name="uni258D" unicode="&#x258d;" 
d="M578 1595l-287 -2048h-422l287 2048h422z" />
    <glyph glyph-name="uni258E" unicode="&#x258e;" 
d="M436 1595l-286 -2048h-281l287 2048h280z" />
    <glyph glyph-name="uni258F" unicode="&#x258f;" 
d="M297 1595l-287 -2048h-141l287 2048h141z" />
    <glyph glyph-name="rtblock" unicode="&#x2590;" 
d="M1282 1595l-287 -2048h-563l287 2048h563z" />
    <glyph glyph-name="ltshade" unicode="&#x2591;" 
d="M137 1335l35 260h96l-37 -260h-94zM408 1513l10 82h96l-10 -82h-96zM635 1335l35 260h96l-35 -260h-96zM913 1513l11 82h94l-10 -82h-95zM1133 1335l36 260h95l-35 -260h-96zM350 1104l35 262h96l-37 -262h-94zM854 1104l37 262h96l-37 -262h-96zM74 891l37 260h96
l-39 -260h-94zM571 891l37 260h97l-37 -260h-97zM1069 891l39 260h94l-37 -260h-96zM287 659l37 263h96l-37 -263h-96zM793 659l36 263h97l-39 -263h-94zM10 434l35 262h96l-35 -262h-96zM508 434l37 262h94l-35 -262h-96zM1008 434l34 262h97l-37 -262h-94zM223 205l37 260
h94l-35 -260h-96zM729 205l35 260h96l-37 -260h-94zM-53 -8l37 260h96l-37 -260h-96zM444 -8l39 260h95l-37 -260h-97zM944 -8l37 260h96l-39 -260h-94zM160 -240l39 263h94l-37 -263h-96zM666 -240l36 263h97l-37 -263h-96zM-115 -453l37 263h94l-34 -263h-97zM383 -453
l37 263h96l-37 -263h-96zM883 -453l35 263h96l-37 -263h-94zM131 -453l12 82h97l-13 -82h-96zM637 -453l12 82h94l-12 -82h-94z" />
    <glyph glyph-name="shade" unicode="&#x2592;" 
d="M322 1425l24 170h84l-24 -170h-84zM659 1425l25 170h84l-25 -170h-84zM967 1425l24 170h84l-24 -170h-84zM150 1231l32 227h84l-33 -227h-83zM465 1231l33 227h80l-31 -227h-82zM795 1231l32 227h84l-32 -227h-84zM1102 1231l33 227h84l-33 -227h-84zM268 1032l33 225h82
l-31 -225h-84zM606 1032l33 225h82l-31 -225h-84zM913 1032l33 225h82l-31 -225h-84zM96 848l35 242h84l-35 -242h-84zM414 848l32 242h80l-32 -242h-80zM741 848l35 242h84l-35 -242h-84zM1049 848l34 242h84l-34 -242h-84zM213 649l33 225h84l-33 -225h-84zM551 649
l33 225h84l-33 -225h-84zM858 649l33 225h84l-33 -225h-84zM41 453l35 243h82l-33 -243h-84zM356 453l35 243h80l-35 -243h-80zM686 453l35 243h82l-33 -243h-84zM993 453l35 243h82l-33 -243h-84zM158 254l32 227h84l-32 -227h-84zM496 254l32 227h84l-32 -227h-84z
M803 254l33 227h84l-33 -227h-84zM-12 72l35 239h83l-34 -239h-84zM303 72l35 239h80l-35 -239h-80zM633 72l35 239h84l-35 -239h-84zM940 72l35 239h84l-35 -239h-84zM104 -129l33 225h82l-31 -225h-84zM442 -129l33 225h82l-31 -225h-84zM750 -129l32 225h82l-30 -225h-84
zM-63 -297l30 227h84l-31 -227h-83zM252 -297l31 227h79l-30 -227h-80zM582 -297l30 227h84l-30 -227h-84zM889 -297l31 227h84l-31 -227h-84zM59 -453l23 158h84l-23 -158h-84zM397 -453l23 158h84l-23 -158h-84zM705 -453l22 158h84l-23 -158h-83z" />
    <glyph glyph-name="dkshade" unicode="&#x2593;" 
d="M264 1391l27 204h69l-28 -204h-68zM532 1391l27 204h70l-29 -204h-68zM774 1391l29 204h67l-26 -204h-70zM1038 1391l27 204h68l-27 -204h-68zM125 1212l33 246h69l-34 -246h-68zM373 1212l35 246h67l-35 -246h-67zM635 1212l35 246h67l-35 -246h-67zM877 1212l34 246h68
l-33 -246h-69zM1141 1212l33 246h69l-35 -246h-67zM211 1016l39 276h67l-36 -276h-70zM479 1016l37 276h70l-39 -276h-68zM721 1016l39 276h67l-36 -276h-70zM985 1016l37 276h68l-37 -276h-68zM70 831l36 259h70l-39 -259h-67zM319 831l37 259h68l-39 -259h-66zM580 831
l38 259h68l-37 -259h-69zM823 831l37 259h68l-37 -259h-68zM1085 831l37 259h70l-39 -259h-68zM158 631l39 276h67l-39 -276h-67zM424 631l41 276h67l-38 -276h-70zM668 631l39 276h67l-39 -276h-67zM930 631l39 276h69l-41 -276h-67zM14 434l37 262h68l-35 -262h-70z
M264 434l37 262h66l-35 -262h-68zM526 434l35 262h68l-35 -262h-68zM768 434l35 262h69l-36 -262h-68zM1030 434l37 262h68l-35 -262h-70zM102 238l37 278h70l-39 -278h-68zM371 238l37 278h67l-37 -278h-67zM612 238l37 278h70l-39 -278h-68zM874 238l39 278h68l-37 -278
h-70zM-39 55l37 256h68l-37 -256h-68zM209 55l39 256h65l-37 -256h-67zM471 55l37 256h70l-39 -256h-68zM713 55l39 256h67l-37 -256h-69zM977 55l37 256h67l-37 -256h-67zM47 -145l39 276h70l-39 -276h-70zM315 -145l39 276h70l-41 -276h-68zM557 -145l41 276h68l-39 -276
h-70zM821 -145l39 276h68l-39 -276h-68zM-92 -332l35 262h69l-37 -262h-67zM158 -332l35 262h67l-37 -262h-65zM418 -332l37 262h67l-37 -262h-67zM659 -332l37 262h68l-35 -262h-70zM924 -332l34 262h70l-37 -262h-67zM4 -453l27 191h67l-24 -191h-70zM272 -453l27 191h68
l-25 -191h-70zM516 -453l25 191h67l-24 -191h-68zM778 -453l25 191h69l-26 -191h-68z" />
    <glyph glyph-name="uni2594" unicode="&#x2594;" 
d="M1245 1339h-1126l37 256h1126z" />
    <glyph glyph-name="uni2595" unicode="&#x2595;" 
d="M1282 1595l-287 -2048h-141l287 2048h141z" />
    <glyph glyph-name="uni2596" unicode="&#x2596;" 
d="M432 -453h-563l143 1024h563z" />
    <glyph glyph-name="uni2597" unicode="&#x2597;" 
d="M995 -453h-563l143 1024h564z" />
    <glyph glyph-name="uni2598" unicode="&#x2598;" 
d="M575 571h-563l144 1024h563z" />
    <glyph glyph-name="uni2599" unicode="&#x2599;" 
d="M575 571h564l-144 -1024h-1126l287 2048h563z" />
    <glyph glyph-name="uni259A" unicode="&#x259a;" 
d="M575 571h-563l144 1024h563zM995 -453h-563l143 1024h564z" />
    <glyph glyph-name="uni259B" unicode="&#x259b;" 
d="M1282 1595l-143 -1024h-564l-143 -1024h-563l287 2048h1126z" />
    <glyph glyph-name="uni259C" unicode="&#x259c;" 
d="M1282 1595l-287 -2048h-563l143 1024h-563l144 1024h1126z" />
    <glyph glyph-name="uni259D" unicode="&#x259d;" 
d="M575 571l144 1024h563l-143 -1024h-564z" />
    <glyph glyph-name="uni259E" unicode="&#x259e;" 
d="M575 571l144 1024h563l-143 -1024h-564zM432 -453h-563l143 1024h563z" />
    <glyph glyph-name="uni259F" unicode="&#x259f;" 
d="M719 1595h563l-287 -2048h-1126l143 1024h563z" />
    <glyph glyph-name="triagup" unicode="&#x25b2;" 
d="M1022 0h-1059l670 999z" />
    <glyph glyph-name="uni25B3" unicode="&#x25b3;" 
d="M1022 0h-1059l670 999zM901 82l-287 747l-501 -747h788z" />
    <glyph glyph-name="uni25C7" unicode="&#x25c7;" 
d="M629 981l436 -504l-571 -504l-437 504zM618 858l-438 -381l326 -381l436 381z" />
    <glyph glyph-name="lozenge" unicode="&#x25ca;" 
d="M721 1194l287 -596l-453 -598h-145l-263 598l428 596h146zM506 184l332 414l-209 412l-312 -412z" />
    <glyph glyph-name="circle" unicode="&#x25cb;" 
d="M565 973q132 0 245.5 -67t180 -181.5t66.5 -249.5t-66.5 -250.5t-180 -182.5t-245.5 -67q-133 0 -246 67t-179 182t-66 251q0 135 66 249.5t179 181.5t246 67zM565 96q155 0 265 111t110 268q0 156 -110 267.5t-265 111.5q-156 0 -266.5 -111.5t-110.5 -267.5
q0 -157 110 -268t267 -111z" />
    <glyph glyph-name="uni25CE" unicode="&#x25ce;" 
d="M565 973q132 0 245.5 -67t180 -181.5t66.5 -249.5t-66.5 -250.5t-180 -182.5t-245.5 -67q-133 0 -246 67t-179 182t-66 251q0 135 66 249.5t179 181.5t246 67zM565 96q155 0 265 111t110 268q0 156 -110 267.5t-265 111.5q-156 0 -266.5 -111.5t-110.5 -267.5
q0 -157 110 -268t267 -111zM565 768q119 0 204 -86t85 -207q0 -123 -85 -209t-204 -86q-120 0 -204.5 86t-84.5 209q0 122 84.5 207.5t204.5 85.5zM565 289q185 0 185 186q0 184 -185 184q-184 0 -184 -184q0 -186 184 -186z" />
    <glyph glyph-name="uni25CF" unicode="&#x25cf;" 
d="M565 973q132 0 245.5 -67t180 -181.5t66.5 -249.5t-66.5 -250.5t-180 -182.5t-245.5 -67q-133 0 -246 67t-179 182t-66 251q0 135 66 249.5t179 181.5t246 67z" />
    <glyph glyph-name="uni25D0" unicode="&#x25d0;" 
d="M565 973q132 0 245.5 -67t180 -181.5t66.5 -249.5t-66.5 -250.5t-180 -182.5t-245.5 -67q-133 0 -246 67t-179 182t-66 251q0 135 66 249.5t179 181.5t246 67zM565 96q155 0 265 111t110 268q0 156 -110 267.5t-265 111.5v-758z" />
    <glyph glyph-name="uni25D1" unicode="&#x25d1;" 
d="M565 973q132 0 245.5 -67t180 -181.5t66.5 -249.5t-66.5 -250.5t-180 -182.5t-245.5 -67q-133 0 -246 67t-179 182t-66 251q0 135 66 249.5t179 181.5t246 67zM565 96v758q-156 0 -266.5 -111.5t-110.5 -267.5q0 -157 110 -268t267 -111z" />
    <glyph glyph-name="uni25D2" unicode="&#x25d2;" 
d="M565 973q132 0 245.5 -67t180 -181.5t66.5 -249.5t-66.5 -250.5t-180 -182.5t-245.5 -67q-133 0 -246 67t-179 182t-66 251q0 135 66 249.5t179 181.5t246 67zM188 475h752q0 156 -110 267.5t-265 111.5q-156 0 -266.5 -111.5t-110.5 -267.5z" />
    <glyph glyph-name="uni25D3" unicode="&#x25d3;" 
d="M565 973q132 0 245.5 -67t180 -181.5t66.5 -249.5t-66.5 -250.5t-180 -182.5t-245.5 -67q-133 0 -246 67t-179 182t-66 251q0 135 66 249.5t179 181.5t246 67zM565 96q155 0 265 111t110 268h-752q0 -157 110 -268t267 -111z" />
    <glyph glyph-name="uni25D4" unicode="&#x25d4;" 
d="M565 973q132 0 245.5 -67t180 -181.5t66.5 -249.5t-66.5 -250.5t-180 -182.5t-245.5 -67q-133 0 -246 67t-179 182t-66 251q0 135 66 249.5t179 181.5t246 67zM565 96q155 0 265 111t110 268h-375v379q-156 0 -266.5 -111.5t-110.5 -267.5q0 -157 110 -268t267 -111z" />
    <glyph glyph-name="uni25D5" unicode="&#x25d5;" 
d="M565 973q132 0 245.5 -67t180 -181.5t66.5 -249.5t-66.5 -250.5t-180 -182.5t-245.5 -67q-133 0 -246 67t-179 182t-66 251q0 135 66 249.5t179 181.5t246 67zM565 475v379q-156 0 -266.5 -111.5t-110.5 -267.5h377z" />
    <glyph glyph-name="uni25D6" unicode="&#x25d6;" 
d="M565 973v-998q-133 0 -246 67t-179 182t-66 251q0 135 66 249.5t179 181.5t246 67z" />
    <glyph glyph-name="uni25D7" unicode="&#x25d7;" 
d="M565 973q132 0 245.5 -67t180 -181.5t66.5 -249.5t-66.5 -250.5t-180 -182.5t-245.5 -67v998z" />
    <glyph glyph-name="uni25DC" unicode="&#x25dc;" 
d="M565 854q-156 0 -266.5 -111.5t-110.5 -267.5h-114q0 135 66 249.5t179 181.5t246 67v-119z" />
    <glyph glyph-name="uni25DD" unicode="&#x25dd;" 
d="M565 854v119q132 0 245.5 -67t180 -181.5t66.5 -249.5h-117q0 156 -110 267.5t-265 111.5z" />
    <glyph glyph-name="uni25DE" unicode="&#x25de;" 
d="M565 96q155 0 265 111t110 268h117q0 -135 -66.5 -250.5t-180 -182.5t-245.5 -67v121z" />
    <glyph glyph-name="uni25DF" unicode="&#x25df;" 
d="M565 96v-121q-133 0 -246 67t-179 182t-66 251h114q0 -157 110 -268t267 -111z" />
    <glyph glyph-name="uni25E0" unicode="&#x25e0;" 
d="M565 973q132 0 245.5 -67t180 -181.5t66.5 -249.5h-117q0 156 -110 267.5t-265 111.5q-156 0 -266.5 -111.5t-110.5 -267.5h-114q0 135 66 249.5t179 181.5t246 67z" />
    <glyph glyph-name="uni25E1" unicode="&#x25e1;" 
d="M940 475h117q0 -135 -66.5 -250.5t-180 -182.5t-245.5 -67q-133 0 -246 67t-179 182t-66 251h114q0 -157 110 -268t267 -111q155 0 265 111t110 268z" />
    <glyph glyph-name="uniE0A0" unicode="&#xe0a0;" 
d="M213 436l160 1159h231l-139 -1009zM86 -453l66 457q24 170 98 246q57 63 156 123l141 82q60 38 123 123q44 62 59 170l64 460h-175l283 285l203 -285h-172l-74 -514q-23 -177 -76 -250q-63 -83 -151 -137l-70 -43q-70 -45 -121 -106q-44 -56 -59 -162l-64 -449h-231z" />
    <glyph glyph-name="uniE0A1" unicode="&#xe0a1;" 
d="M705 532h-459l112 799h97l-101 -710h363zM684 -342h88l154 799h-95l-112 -590l-197 590h-90l-153 -799h83l119 606z" />
    <glyph glyph-name="uniE0A2" unicode="&#xe0a2;" 
d="M281 0q-119 0 -103 121l80 573q18 123 115 123l41 258q18 136 92 195q74 65 174 65q92 0 158 -80q65 -74 47 -186l-37 -252q104 0 86 -129l-80 -573q-14 -115 -133 -115h-440zM678 1227q-19 0 -38.5 -8.5t-29.5 -15.5t-32 -25q-43 -37 -52 -109l-34 -252h245l35 258
q15 86 -12 117q-35 35 -82 35zM608 467q63 28 72 100q9 52 -14 72q-29 23 -68 23q-11 0 -23 -4t-17.5 -7t-22 -13.5t-19.5 -12.5q-39 -27 -45 -76q-9 -58 43 -84l-37 -268h94z" />
    <glyph glyph-name="uniE0B0" unicode="&#xe0b0;" 
d="M915 573l-1044 -1026l287 2048z" />
    <glyph glyph-name="uniE0B1" unicode="&#xe0b1;" 
d="M236 1577l761 -1006l-1040 -1007l-72 80l959 927l-697 928z" />
    <glyph glyph-name="uniE0B2" unicode="&#xe0b2;" 
d="M238 573l1046 1022l-291 -2048z" />
    <glyph glyph-name="uniE0B3" unicode="&#xe0b3;" 
d="M1196 1577l68 -78l-959 -928l696 -927l-94 -80l-757 1007z" />
    <glyph glyph-name="i.loclTRK" 
d="M524 1253q0 51 28 78t79 27q106 0 106 -105q0 -108 -106 -108q-107 0 -107 108zM831 270l37 -51q-116 -246 -299 -246q-145 0 -206.5 97.5t-30.5 261.5q25 125 131 524l-193 -6l29 104l336 19q-7 -29 -74 -286.5t-84 -354.5q-36 -221 119 -221q64 0 127.5 42.5
t107.5 116.5z" />
    <glyph glyph-name="zero.dnom" 
d="M588 598q115 0 177 -93.5t42 -234.5q-19 -127 -102 -212t-191 -85q-114 0 -176 89t-43 223q19 135 102 224t191 89zM395 270q-9 -70 4 -123l277 347q-30 41 -84 41q-72 0 -126 -72t-71 -193zM711 285q10 81 -2 135l-273 -346q29 -29 74 -29q74 0 130 65.5t71 174.5z" />
    <glyph glyph-name="one.dnom" 
d="M483 0l70 479q-19 -24 -58 -36.5t-112 -22.5l-8 76q126 25 190 96h94l-81 -592h-95z" />
    <glyph glyph-name="two.dnom" 
d="M700 455q5 34 -23 52.5t-87 18.5q-102 0 -176 -82l-70 39q37 51 102.5 83t135.5 32q96 0 158 -46.5t53 -109.5q-6 -43 -47.5 -92t-90.5 -86t-126.5 -94.5t-122.5 -95.5h352l-10 -74h-480l8 74q50 43 167 124t182.5 141.5t74.5 115.5z" />
    <glyph glyph-name="three.dnom" 
d="M369 518q22 33 74 51.5t110 18.5q93 0 159 -47.5t56 -120.5q-6 -43 -39.5 -79.5t-87.5 -59.5q48 -16 76.5 -58t21.5 -96q-10 -70 -85.5 -112t-182.5 -42q-148 0 -203 103l58 35q28 -39 59 -52.5t92 -13.5q74 0 114.5 21.5t47.5 74.5q8 56 -28 83.5t-119 27.5h-46l9 67h39
q77 0 123.5 31t52.5 84q7 47 -26.5 64.5t-96.5 17.5q-92 0 -133 -53z" />
    <glyph glyph-name="four.dnom" 
d="M725 223l-10 -73h-111l-20 -150h-97l21 150h-242l10 73l287 369h105l-289 -369h139l17 109h104q-21 -68 -25 -109h111z" />
    <glyph glyph-name="five.dnom" 
d="M403 289l-88 -4l74 303h365l-11 -76h-276l-41 -162q20 24 56 41t81 17q87 0 138.5 -60.5t39.5 -154.5q-13 -93 -98.5 -156.5t-187.5 -63.5q-107 0 -193 80l66 58q59 -62 151 -62q144 0 164 129q23 158 -117 158q-38 0 -71.5 -13t-51.5 -34z" />
    <glyph glyph-name="six.dnom" 
d="M719 506q-41 18 -105 18q-87 0 -140 -48t-64 -134l-7 -31q24 20 40 31t48 21t70 10q100 0 163 -56t50 -147q-11 -82 -81.5 -139.5t-176.5 -57.5q-111 0 -174.5 58t-50.5 151l22 168q15 108 99.5 176t199.5 68q86 0 154 -37zM514 49q70 0 114 37.5t52 97.5q8 55 -22.5 87
t-92.5 32q-101 0 -170 -76l-10 -51q-6 -60 28 -93.5t101 -33.5z" />
    <glyph glyph-name="seven.dnom" 
d="M809 592l-10 -74q-34 -40 -107.5 -114.5t-119 -124.5t-89.5 -127t-55 -152h-106q9 61 35.5 119.5t69 113t80.5 96t93.5 98.5t85.5 91h-358l12 74h469z" />
    <glyph glyph-name="eight.dnom" 
d="M748 446q-6 -49 -41 -90.5t-89 -64.5q141 -55 123 -170q-8 -65 -76.5 -106.5t-168.5 -41.5q-101 0 -161.5 46t-51.5 114q15 107 170 164q-48 24 -73 67.5t-18 96.5q9 64 63.5 100.5t141.5 36.5q89 0 139.5 -43t41.5 -109zM670 455q7 34 -19.5 57t-72.5 23
q-54 0 -95 -27.5t-45 -67.5q-6 -70 99 -112q122 54 133 127zM662 135q6 36 -28 69t-102 56q-72 -24 -119 -61.5t-51 -77.5q-6 -38 27.5 -58t102.5 -20q72 0 118 24.5t52 67.5z" />
    <glyph glyph-name="nine.dnom" 
d="M340 76q24 -31 102 -31q92 0 147.5 47.5t74.5 134.5l6 31q-43 -36 -77.5 -48.5t-80.5 -12.5q-105 0 -163.5 55.5t-47.5 144.5q12 87 84 142t172 55q110 0 174 -59t51 -150l-22 -166q-17 -113 -103 -179.5t-213 -66.5q-92 0 -153 52zM557 514q-144 0 -162 -131
q-8 -54 21 -83.5t92 -29.5q106 0 172 82q13 90 -18.5 126t-104.5 36z" />
    <glyph glyph-name="zero.numr" 
d="M690 1331q115 0 177 -92.5t42 -232.5q-19 -128 -102 -212.5t-191 -84.5q-114 0 -176 88.5t-43 220.5q19 136 101.5 224.5t191.5 88.5zM498 1006q-9 -70 4 -125l276 346q-30 41 -84 41q-72 0 -125.5 -71t-70.5 -191zM813 1018q10 81 -2 135l-272 -346q29 -29 73 -29
q74 0 130 66t71 174z" />
    <glyph glyph-name="one.numr" 
d="M588 739l69 480q-19 -25 -59 -37.5t-113 -22.5l-6 76q124 25 191 96h94l-84 -592h-92z" />
    <glyph glyph-name="two.numr" 
d="M807 1214q9 72 -109 72q-102 0 -176 -80l-69 37q37 52 101.5 83.5t135.5 31.5q95 0 157.5 -46.5t53.5 -109.5q-6 -43 -47.5 -92t-91 -86t-126.5 -94t-122 -96h350l-10 -72h-479l8 72q50 43 167 123.5t183 141t74 115.5z" />
    <glyph glyph-name="three.numr" 
d="M477 1290q22 32 74 50t111 18q95 0 160.5 -46.5t54.5 -119.5q-6 -43 -39 -80.5t-86 -58.5q47 -16 75 -58t21 -96q-10 -71 -85 -112.5t-183 -41.5q-144 0 -203 101l57 37q29 -39 61 -52.5t93 -13.5q74 0 114.5 21.5t47.5 74.5q8 56 -29.5 83.5t-120.5 27.5h-43l8 66h37
q78 0 125 31t53 83q6 48 -27.5 65t-97.5 17q-95 0 -131 -53z" />
    <glyph glyph-name="four.numr" 
d="M829 963l-10 -74h-110l-21 -150h-96l20 150h-241l10 74l287 368h104l-289 -368h140l16 106h104q-18 -57 -24 -106h110z" />
    <glyph glyph-name="five.numr" 
d="M506 1032l-86 -4l74 303h364l-10 -76h-277l-41 -161q49 57 138 57q87 0 138 -60.5t38 -154.5q-12 -92 -97.5 -154.5t-187.5 -62.5q-108 0 -192 78l65 57q58 -61 152 -61q144 0 164 131q20 155 -119 155q-36 0 -70 -13t-53 -34z" />
    <glyph glyph-name="six.numr" 
d="M825 1270q-32 18 -104 18q-86 0 -139.5 -47.5t-65.5 -132.5l-6 -31q23 19 40.5 30t49 20.5t70.5 9.5q100 0 162.5 -55.5t50.5 -145.5q-13 -83 -82.5 -140t-175.5 -57q-113 0 -176.5 57.5t-51.5 149.5l25 168q15 108 99 176t200 68q77 0 153 -35zM621 813q71 0 115 38
t52 97q8 55 -22.5 88t-93.5 33q-49 0 -94 -22t-74 -56l-10 -51q-6 -59 27.5 -93t99.5 -34z" />
    <glyph glyph-name="seven.numr" 
d="M913 1331l-10 -74q-34 -40 -107.5 -114.5t-119 -124.5t-89.5 -127t-55 -152h-106q9 61 36 119.5t69 113t80.5 96t94 98.5t85.5 91h-359l12 74h469z" />
    <glyph glyph-name="eight.numr" 
d="M854 1208q-6 -51 -39.5 -92t-87.5 -63q67 -27 99.5 -70.5t23.5 -99.5q-9 -65 -78.5 -106.5t-169.5 -41.5q-101 0 -160.5 45.5t-50.5 114.5q15 106 168 164q-48 24 -71.5 67.5t-16.5 96.5q9 63 63.5 99t141.5 36t137 -42.5t41 -107.5zM778 1214q6 35 -21 57.5t-73 22.5
q-54 0 -93 -26.5t-44 -65.5q-10 -69 96 -112q123 50 135 124zM770 895q9 77 -131 127q-70 -24 -118 -62t-52 -77q-9 -80 129 -80q73 0 119.5 25t52.5 67z" />
    <glyph glyph-name="nine.numr" 
d="M446 840q24 -31 103 -31q180 0 223 182l6 31q-44 -35 -79 -48t-81 -13q-106 0 -163 55.5t-45 144.5q10 87 82 142t172 55q112 0 175.5 -58.5t51.5 -148.5l-25 -166q-17 -114 -102 -180t-213 -66q-97 0 -152 49zM666 1278q-144 0 -162 -129q-8 -56 20.5 -85.5t91.5 -29.5
q105 0 170 84q13 89 -17.5 124.5t-102.5 35.5z" />
    <glyph glyph-name="fraction" 
d="M733 780l-1040 -630l-62 81l1041 617z" />
    <glyph glyph-name="underscore.more" 
d="M1028 -221l-16 -121h-1129l19 121h1126z" />
    <glyph glyph-name="asterisk_slash.liga" 
d="M2073 1370l-1004 -1603l-96 65l999 1604zM702 952l-219 129l80 103l203 -82l57 258l125 -8l-43 -265l250 60l37 -109l-287 -102l150 -217l-113 -66l-160 170l-184 -149l-98 82z" />
    <glyph glyph-name="braceleft_bar.liga" 
d="M1819 1219h-387l-254 -1448h436l-15 -113h-749q-167 0 -236 63t-41 220q9 54 29 162t27 149q8 56 3.5 94.5t-50 59t-142.5 20.5l19 137q74 0 121.5 11.5t74.5 38.5t39.5 57.5t20.5 81.5q5 27 26.5 140.5t30.5 174.5q12 77 43 129.5t81.5 81.5t111.5 41t145 12h682z
M1022 -229l254 1448h-135q-103 0 -152 -29t-65 -123q-57 -318 -60 -336q-21 -107 -70.5 -162t-148.5 -73q90 -15 120 -79t11 -177q-32 -194 -57 -334q-4 -27 -4.5 -47t2.5 -34.5t12 -24t19.5 -15.5t29 -9t37 -4t47.5 -1h160z" />
    <glyph glyph-name="bracketleft_bar.liga" 
d="M1817 1196h-390l-245 -1405h436l-19 -133h-1148l258 1673h1126zM1026 -209l248 1405h-430l-219 -1405h401z" />
    <glyph glyph-name="colon_colon.liga" 
d="M612 799q19 106 127 106q51 0 73 -27.5t13 -78.5q-19 -109 -125 -109q-52 0 -74.5 28t-13.5 81zM1499 799q7 51 40.5 78.5t84.5 27.5q52 0 74.5 -27.5t13.5 -78.5q-9 -52 -41.5 -80.5t-83.5 -28.5q-52 0 -74.5 28t-13.5 81zM479 150q18 106 127 106q104 0 86 -106
q-18 -107 -125 -107q-106 0 -88 107zM1366 150q7 52 40 79t85 27q106 0 88 -106q-9 -52 -41.5 -79.5t-83.5 -27.5q-106 0 -88 107z" />
    <glyph glyph-name="colon_colon_colon.liga" 
d="M711 799q9 51 42.5 78.5t84.5 27.5t73.5 -27.5t14.5 -78.5q-9 -52 -41.5 -80.5t-83.5 -28.5q-106 0 -90 109zM1632 799q7 51 40.5 78.5t84.5 27.5q52 0 74.5 -27.5t13.5 -78.5q-9 -52 -41.5 -80.5t-83.5 -28.5q-52 0 -74.5 28t-13.5 81zM2554 799q7 51 40.5 78.5
t84.5 27.5q52 0 74.5 -27.5t13.5 -78.5q-9 -52 -41.5 -80.5t-83.5 -28.5q-52 0 -74.5 28t-13.5 81zM578 150q9 52 42 79t85 27q103 0 88 -106q-9 -52 -41.5 -79.5t-83.5 -27.5q-105 0 -90 107zM1499 150q7 52 40 79t85 27q106 0 88 -106q-9 -52 -41.5 -79.5t-83.5 -27.5
q-106 0 -88 107zM2421 150q7 52 40 79t85 27q106 0 88 -106q-9 -52 -41.5 -79.5t-83.5 -27.5q-106 0 -88 107z" />
    <glyph glyph-name="exclam_equal.liga" 
d="M2021 618h-741l-150 -184h877l-27 -119h-946l-260 -317l-104 51l215 266h-692l26 119h764l147 184h-897l27 119h967l223 275l100 -66l-172 -209h670z" />
    <glyph glyph-name="exclam_equal_equal.liga" 
d="M3138 717h-1252l-117 -162h1358l-28 -121h-1416l-116 -162h1519l-26 -118h-1579l-197 -277l-92 84l139 193h-1167l26 118h1227l115 162h-1329l26 121h1389l117 162h-1493l28 119h1549l190 264l94 -82l-133 -182h1196z" />
    <glyph glyph-name="hyphen_greater.liga" 
d="M1501 1051l580 -449l-21 -156l-696 -448l-90 117l534 340h-1554l18 137h1555l-438 340z" />
    <glyph glyph-name="period_equal.liga" 
d="M1872 635h-991l-7 137h1018zM383 526q7 60 44 91.5t97 31.5t87 -31.5t18 -91.5q-7 -61 -44 -92t-96 -31q-121 0 -106 123zM1823 281h-1020l47 137h991z" />
    <glyph glyph-name="slash_asterisk.liga" 
d="M1120 1370l-1001 -1603l-96 65l999 1604zM1520 932l-222 129l80 102l203 -82l59 258l125 -8l-43 -264l248 59l37 -108l-285 -103l148 -217l-113 -65l-158 170l-184 -150l-100 82z" />
    <glyph glyph-name="bar_braceright.liga" 
d="M1618 752q-9 -61 -3 -103t52.5 -64t142.5 -22l-26 -137q-74 0 -121 -10.5t-72 -36t-35 -52.5t-18 -75q-43 -271 -49 -311q-24 -157 -114 -220t-257 -63h-749l22 113h436l230 1448h-387l20 112h682q55 0 97.5 -5t80.5 -16.5t62 -31t41.5 -49t18 -69.5t-6.5 -93
q-18 -105 -47 -315zM1386 240q36 228 216 256q-92 18 -123.5 73.5t-16.5 161.5q12 73 31 200.5t20 135.5q7 29 4.5 51t-5.5 38t-15.5 27.5t-24.5 18.5t-33.5 10.5t-41.5 5t-49 1.5h-136l-229 -1448h160q51 0 78.5 3.5t52.5 17t37.5 40.5t21.5 74q7 50 53 334z" />
    <glyph glyph-name="bar_bracketright.liga" 
d="M1835 1331l-301 -1673h-1149l27 133h436l221 1405h-387l27 135h1126zM1405 -209l248 1405h-428l-221 -1405h401z" />
    <glyph glyph-name="bar_greater.liga" 
d="M1671 578l-22 -154l-1061 -666l-19 -100h-155l297 1673h153l-20 -123zM618 -59l881 559l-686 536z" />
    <glyph glyph-name="plus_plus.liga" 
d="M1954 569l-17 -118h-276l-39 -275h-121l39 275h-835l-39 -275h-119l39 275h-275l17 118h272l39 275h121l-39 -275h835l39 275h119l-39 -275h279z" />
    <glyph glyph-name="equal_equal.liga" 
d="M233 618l27 119h1788l-27 -119h-1788zM2007 434l-27 -119h-1787l26 119h1788z" />
    <glyph glyph-name="equal_equal_equal.liga" 
d="M242 717l28 119h2896l-28 -119h-2896zM3127 555l-28 -121h-2896l26 121h2898zM3086 272l-26 -118h-2896l26 118h2896z" />
    <glyph glyph-name="equal_greater.liga" 
d="M1466 1053l596 -441l-20 -155l-713 -441l-45 134l307 188h-1380l18 119h1557l123 78l-103 73h-1556l16 121h1381l-254 186z" />
    <glyph glyph-name="less_bar.liga" 
d="M1671 578l-22 -154l-1061 -666l-19 -100h-155l297 1673h153l-20 -123zM618 -59l881 559l-686 536z" />
    <glyph glyph-name="less_hyphen.liga" 
d="M2021 592l-20 -137h-1557l437 -340l-121 -117l-570 448l25 156l709 449l77 -119l-536 -340h1556z" />
    <glyph glyph-name="liga1" horiz-adv-x="1024" 
 />
    <glyph glyph-name="liga2" horiz-adv-x="1024" 
 />
    <glyph glyph-name="liga3" horiz-adv-x="1024" 
 />
    <glyph glyph-name="liga4" horiz-adv-x="1024" 
 />
    <glyph glyph-name="liga5" horiz-adv-x="1024" 
 />
    <glyph glyph-name="liga6" horiz-adv-x="1024" 
 />
    <glyph glyph-name="liga7" horiz-adv-x="1024" 
 />
    <glyph glyph-name="liga8" horiz-adv-x="1024" 
 />
    <glyph glyph-name="liga9" horiz-adv-x="1024" 
 />
    <glyph glyph-name="liga10" horiz-adv-x="1024" 
 />
    <glyph glyph-name="liga11" horiz-adv-x="1024" 
 />
    <glyph glyph-name="liga12" horiz-adv-x="1024" 
 />
    <glyph glyph-name="liga13" horiz-adv-x="1024" 
 />
    <glyph glyph-name="liga14" horiz-adv-x="1024" 
 />
    <glyph glyph-name="liga15" horiz-adv-x="1024" 
 />
    <glyph glyph-name="liga16" horiz-adv-x="1024" 
 />
    <glyph glyph-name="liga17" horiz-adv-x="1024" 
 />
    <glyph glyph-name="liga18" horiz-adv-x="1024" 
 />
    <glyph glyph-name="liga19" horiz-adv-x="1024" 
 />
    <glyph glyph-name="uni0338.case" horiz-adv-x="0" 
d="M-166 1374l-715 -1466l-104 65l713 1465z" />
    <glyph glyph-name="NULL" horiz-adv-x="0" 
 />
    <glyph glyph-name="CR" 
 />
  </font>
</defs>
</svg>
