<?xml version="1.0" standalone="no"?>
<!DOCTYPE svg PUBLIC "-//W3C//DTD SVG 1.1//EN" "http://www.w3.org/Graphics/SVG/1.1/DTD/svg11.dtd" >
<svg xmlns="http://www.w3.org/2000/svg" xmlns:xlink="http://www.w3.org/1999/xlink" version="1.1">
<metadata>
Created by FontForge 20170731 at Thu Jan 26 16:57:53 2023
 By Aleksey,,,
Copyright (c) 2018 by Phil Pluckthun. All rights reserved. |DCNT
</metadata>
<defs>
<font id="DankMono-Regular" horiz-adv-x="1126" >
  <font-face 
    font-family="Dank Mono"
    font-weight="400"
    font-stretch="normal"
    units-per-em="2048"
    panose-1="0 0 5 9 0 0 0 0 0 0"
    ascent="1595"
    descent="-453"
    x-height="973"
    cap-height="1331"
    bbox="-1083 -453 3142 2154"
    underline-thickness="86"
    underline-position="-342"
    unicode-range="U+0020-E0B3"
  />
<missing-glyph 
 />
    <glyph glyph-name=".notdef" 
 />
    <glyph glyph-name=".null" horiz-adv-x="0" 
 />
    <glyph glyph-name="nonmarkingreturn" horiz-adv-x="682" 
 />
    <glyph glyph-name="space" unicode=" " 
 />
    <glyph glyph-name="exclam" unicode="!" 
d="M496 381l-25 618v332h178v-332l-22 -618h-131zM455 82q0 51 28.5 78.5t79.5 27.5t79 -27.5t28 -78.5q0 -52 -28 -80.5t-79 -28.5q-52 0 -80 28t-28 81z" />
    <glyph glyph-name="quotedbl" unicode="&#x22;" 
d="M301 1341l180 -10v-137q-11 -101 -42.5 -251t-43.5 -173l-94 18v553zM643 1341l180 -10v-137q-11 -99 -42 -249.5t-42 -174.5l-96 18v553z" />
    <glyph glyph-name="numbersign" unicode="#" 
d="M784 455h142v-121h-158l-47 -334h-139l49 334h-236l-49 -334h-137l49 334h-121v121h135l58 424h-131v122h149l47 328h140l-50 -328h236l49 328h137l-49 -328h131v-122h-149zM647 455l55 424h-237l-53 -424h235z" />
    <glyph glyph-name="dollar" unicode="$" 
d="M985 362q0 -167 -95.5 -263t-266.5 -117v-111h-146v104q-114 7 -208.5 54.5t-129.5 113.5l101 95q79 -114 237 -132v521q-155 49 -242.5 143t-87.5 227q0 139 91 237t239 118v82h146v-80q102 -14 185 -59t128 -113l-96 -90q-57 63 -106.5 93t-110.5 36v-482
q189 -40 275.5 -125t86.5 -252zM285 1004q0 -156 192 -226v436q-93 -17 -142.5 -70.5t-49.5 -139.5zM846 348q3 113 -51.5 167t-171.5 79v-485q220 32 223 239z" />
    <glyph glyph-name="percent" unicode="%" 
d="M311 864q-107 0 -176 71.5t-69 180.5q0 107 68 174.5t177 67.5q108 0 177 -67.5t69 -174.5q0 -108 -70 -180t-176 -72zM1032 1294l-823 -1321l-103 68l820 1317zM311 961q69 0 98 35.5t29 119.5q0 83 -29 118.5t-98 35.5q-68 0 -95.5 -34.5t-27.5 -119.5q0 -83 28.5 -119
t94.5 -36zM827 -23q-105 0 -175 72t-70 180q0 107 68 175.5t177 68.5t178.5 -68.5t69.5 -175.5t-71 -179.5t-177 -72.5zM827 76q69 0 99 35t30 118q0 84 -29.5 119t-99.5 35q-66 0 -94 -35t-28 -119q0 -83 28.5 -118t93.5 -35z" />
    <glyph glyph-name="ampersand" unicode="&#x26;" 
d="M1081 53l-125 -55l-143 162q-151 -180 -332 -180q-107 0 -204.5 57.5t-156.5 152.5t-59 199q0 219 246 373q-78 103 -106.5 163.5t-28.5 112.5q-1 148 87 235t237 87q222 0 307 -166l-88 -84q-35 54 -96 85.5t-127 31.5q-71 0 -123 -57.5t-52 -133.5q0 -34 7 -59.5
t30 -67t79.5 -111.5t141 -168t228.5 -261q49 83 100 225l92 -105q-49 -122 -106 -219q30 -35 95 -108t97 -109zM487 106q125 0 244 150q-222 251 -344 403q-176 -123 -176 -270q0 -108 86.5 -195.5t189.5 -87.5z" />
    <glyph glyph-name="quotesingle" unicode="'" 
d="M465 1341l180 -10v-137q-11 -101 -42.5 -251t-43.5 -173l-94 18v553z" />
    <glyph glyph-name="parenleft" unicode="(" 
d="M489 500q0 -223 73.5 -393t250.5 -359l-88 -90q-213 199 -309.5 399.5t-96.5 442.5q0 243 96 442.5t310 398.5l88 -88q-177 -191 -250.5 -361.5t-73.5 -391.5z" />
    <glyph glyph-name="parenright" unicode=")" 
d="M637 500q0 221 -73.5 391.5t-250.5 361.5l88 88q214 -199 310 -398.5t96 -442.5q0 -242 -96.5 -442.5t-309.5 -399.5l-88 90q177 189 250.5 359t73.5 393z" />
    <glyph glyph-name="asterisk" unicode="*" 
d="M438 952l-239 129l67 103l213 -82l23 258l125 -8l-6 -265l243 60l51 -109l-272 -102l180 -217l-106 -66l-182 170l-164 -149l-109 82z" />
    <glyph glyph-name="plus" unicode="+" 
d="M897 596v-137h-268v-266h-137v266h-265v137h265v266h137v-266h268z" />
    <glyph glyph-name="comma" unicode="," 
d="M670 82q0 -23 -11 -49q-22 -71 -96 -176t-112 -129l-82 41q13 19 49.5 95.5t60.5 141.5q-24 31 -24 76q0 51 28.5 78.5t79.5 27.5t79 -27.5t28 -78.5z" />
    <glyph glyph-name="hyphen" unicode="-" 
d="M897 444h-668v136h668v-136z" />
    <glyph glyph-name="period" unicode="." 
d="M455 82q0 51 28.5 78.5t79.5 27.5t79 -27.5t28 -78.5q0 -52 -28 -80.5t-79 -28.5q-52 0 -80 28t-28 81z" />
    <glyph glyph-name="slash" unicode="/" 
d="M1006 1370l-779 -1603l-104 65l776 1604z" />
    <glyph glyph-name="zero" unicode="0" 
d="M561 1358q132 0 237.5 -90t165.5 -252t60 -367q0 -189 -59 -343.5t-165 -243.5t-239 -89q-132 0 -237 89t-163.5 243t-58.5 344q0 207 59 369t163.5 251t236.5 89zM561 1249q-130 -2 -209.5 -165t-79.5 -435q0 -179 50 -321l426 805q-75 116 -187 116zM561 102
q134 0 215.5 152t81.5 395q0 203 -47 346l-418 -807q73 -86 168 -86z" />
    <glyph glyph-name="one" unicode="1" 
d="M946 113q0 -78 10 -113h-739v119h295v991q-38 -54 -120 -90.5t-189 -46.5l-15 143q107 25 191 80.5t133 134.5h145v-1212h289v-6z" />
    <glyph glyph-name="two" unicode="2" 
d="M807 1051q0 84 -60 132t-169 48q-91 0 -163 -38t-130 -130l-101 67q113 232 383 232q169 0 276 -86.5t107 -222.5q0 -70 -29.5 -149t-73 -149t-112 -156t-128.5 -152.5t-141 -157.5t-132 -152h674v-137h-871v137q54 66 135.5 154t150 158.5t142.5 155.5t125 156t84 148
t33 142z" />
    <glyph glyph-name="three" unicode="3" 
d="M231 1206q33 71 128.5 111.5t199.5 40.5q168 0 279.5 -100.5t111.5 -260.5q0 -219 -178 -315q93 -40 147 -131.5t54 -210.5q0 -172 -114 -269.5t-316 -97.5q-266 0 -385 224l102 67q61 -89 126.5 -124.5t174.5 -35.5q127 0 192.5 60.5t65.5 173.5q0 136 -84 210.5
t-235 74.5h-76v118h76q144 0 221.5 66.5t77.5 189.5q0 108 -68 170t-190 62q-66 0 -128.5 -25.5t-90.5 -81.5z" />
    <glyph glyph-name="four" unicode="4" 
d="M940 510v-137h-186v-373h-146v373h-454v137l428 821h153l-428 -821h301v244h156q-10 -33 -10 -113v-131h186z" />
    <glyph glyph-name="five" unicode="5" 
d="M301 662h-129l55 669h668v-119h-535l-38 -428q23 51 82 79t145 28q183 0 295 -120.5t112 -315.5q0 -208 -117 -345t-296 -137q-199 0 -379 183l96 94q120 -137 283 -137q127 0 198.5 90.5t71.5 251.5q0 149 -74.5 228t-214.5 79q-73 0 -133.5 -27t-89.5 -73z" />
    <glyph glyph-name="six" unicode="6" 
d="M836 1182q-82 45 -197 45q-152 0 -247 -113t-95 -295v-86q44 53 126.5 83t182.5 30q196 0 312 -114t116 -308q0 -204 -122.5 -327.5t-323.5 -123.5t-318.5 126t-117.5 341v379q0 238 137.5 388.5t355.5 150.5q76 0 151.5 -18t127.5 -50zM588 113q129 0 217 89.5t88 221.5
q0 130 -81 213.5t-206 83.5q-94 0 -181 -44.5t-128 -113.5v-123q1 -144 83 -235.5t208 -91.5z" />
    <glyph glyph-name="seven" unicode="7" 
d="M997 1331v-119q-34 -51 -91 -133t-96 -138t-91 -138t-88 -147t-74 -150t-61 -161t-38.5 -166t-15.5 -179h-161q1 89 16.5 179t38.5 166t62 161t75 149.5t89.5 147.5t92.5 138.5t97 138t92 132.5h-715v119h868z" />
    <glyph glyph-name="eight" unicode="8" 
d="M973 305q0 -153 -115.5 -242.5t-300.5 -89.5q-176 0 -289.5 91.5t-113.5 238.5q0 82 30.5 156t98.5 135.5t166 89.5q-108 45 -171 145t-63 220q0 147 92.5 228t249.5 81q156 0 248.5 -82t93.5 -227q2 -117 -59 -218t-162 -145q100 -27 168.5 -88.5t97.5 -135t29 -157.5z
M563 1223q-97 0 -154 -50t-57 -139q0 -180 211 -280q96 50 147.5 121.5t51.5 158.5q2 89 -50 139t-149 50zM557 111q134 0 204 50t70 146q0 102 -70 189.5t-204 126.5q-131 -40 -198.5 -125t-67.5 -191q0 -196 266 -196z" />
    <glyph glyph-name="nine" unicode="9" 
d="M322 150q80 -44 194 -44q154 0 249 112.5t95 293.5v86q-46 -57 -129.5 -94t-179.5 -37q-198 0 -313 117t-115 323q0 203 122 326t322 123q203 0 321 -125t118 -340v-379q0 -238 -138 -388.5t-356 -150.5q-76 0 -151.5 18t-127.5 50zM567 1219q-128 0 -215.5 -90
t-87.5 -222q0 -142 80 -228.5t207 -86.5q90 0 177 52t132 124v123q-1 145 -83 236.5t-210 91.5z" />
    <glyph glyph-name="colon" unicode=":" 
d="M455 782q0 51 28.5 78t79.5 27t79 -27t28 -78q0 -108 -107 -108q-108 0 -108 108zM455 133q0 51 28.5 79t79.5 28t79 -28t28 -79q0 -52 -28 -80t-79 -28q-53 0 -80.5 27.5t-27.5 80.5z" />
    <glyph glyph-name="semicolon" unicode=";" 
d="M563 674q-108 0 -108 108q0 51 28.5 78t79.5 27t79 -27t28 -78q0 -108 -107 -108zM563 240q51 0 79 -28t28 -79q0 -23 -11 -49q-22 -71 -96 -176t-112 -129l-82 41q13 19 49.5 95.5t60.5 141.5q-24 31 -24 76q0 51 28.5 79t79.5 28z" />
    <glyph glyph-name="less" unicode="&#x3c;" 
d="M199 612l657 406l57 -135l-571 -348l571 -351l-61 -133l-653 406v155z" />
    <glyph glyph-name="equal" unicode="=" 
d="M895 635h-676l10 137h676zM895 281h-676l10 137h676z" />
    <glyph glyph-name="greater" unicode="&#x3e;" 
d="M926 612v-155l-652 -406l-61 133l571 351l-571 348l57 135z" />
    <glyph glyph-name="question" unicode="?" 
d="M553 1366q192 0 300 -82t108 -248q0 -72 -20.5 -128.5t-53.5 -93t-73 -68t-80 -64t-73 -70t-54 -95.5t-21 -132h-158q1 88 23 156.5t56.5 110.5t75.5 76t82 62.5t74.5 60t54.5 78t21 107.5q0 102 -63 149.5t-195 47.5q-91 0 -178 -38t-127 -110l-86 107q39 82 144 128
t243 46zM399 82q0 51 28 78.5t79 27.5q106 0 106 -106q0 -109 -106 -109q-52 0 -79.5 28t-27.5 81z" />
    <glyph glyph-name="at" unicode="@" 
d="M580 1358q215 0 326.5 -145t111.5 -410v-803h-144v57q-78 -84 -178 -84q-137 0 -225 122t-88 311q0 179 84 284t225 105q55 0 97 -22t85 -73v103q0 424 -294 424q-119 0 -189.5 -78.5t-104.5 -264t-34 -507.5q0 -226 46 -365t142 -217q15 -12 33 -27.5t25 -21t17.5 -12.5
t21.5 -13l-115 -90q-59 32 -113 82q-102 97 -152.5 267t-50.5 434q0 193 15 340t49 263.5t89 190t135 112t186 38.5zM731 113q86 0 143 77v390q-31 51 -62.5 70.5t-84.5 19.5q-98 0 -149.5 -67.5t-51.5 -196.5q0 -140 53.5 -216.5t151.5 -76.5z" />
    <glyph glyph-name="A" unicode="A" 
d="M883 0l-109 375h-428l-102 -375h-146l351 1331h202l377 -1331h-145zM377 496h364l-176 608h-22z" />
    <glyph glyph-name="B" unicode="B" 
d="M737 752q116 -41 176 -129t60 -217q0 -184 -114.5 -295t-303.5 -111h-401v1331h299q211 0 314 -81.5t103 -252.5q0 -94 -31.5 -153.5t-101.5 -91.5zM453 1186h-154v-387h154q150 0 214 47t64 151q0 102 -65 145.5t-213 43.5zM555 145q133 0 206 68t73 193q0 247 -297 247
h-238v-508h256z" />
    <glyph glyph-name="C" unicode="C" 
d="M854 305l166 -22q-16 -81 -85 -153t-169 -114.5t-205 -42.5q-222 0 -347.5 182t-125.5 488q0 206 60.5 369.5t168.5 254.5t244 91q137 0 261 -84.5t159 -202.5l-160 -45q-25 84 -99.5 140.5t-160.5 56.5q-141 0 -226 -158t-85 -422q0 -256 81 -394t230 -138
q103 0 191 58.5t102 135.5z" />
    <glyph glyph-name="D" unicode="D" 
d="M145 1331h316q290 0 413 -152t123 -509q0 -670 -417 -670h-435v1331zM291 145h289q136 0 206 134t70 391q0 263 -75 386.5t-234 123.5h-256v-1035z" />
    <glyph glyph-name="E" unicode="E" 
d="M332 629v-484h598v-145h-742v1331h742v-145h-598v-414h495v-143h-495z" />
    <glyph glyph-name="F" unicode="F" 
d="M844 532h-494v-532h-145v1331h741v-145h-596v-508h494v-146z" />
    <glyph glyph-name="G" unicode="G" 
d="M1020 477q0 -229 -125 -366.5t-334 -137.5q-226 0 -349.5 174.5t-123.5 495.5q0 327 142.5 521t381.5 194q100 0 192.5 -46.5t194.5 -150.5l-120 -98q-78 91 -136 125.5t-131 34.5q-175 0 -268.5 -149.5t-93.5 -430.5q0 -261 79.5 -396.5t231.5 -135.5q147 0 235 99
t91 267h-312v121h445v-121z" />
    <glyph glyph-name="H" unicode="H" 
d="M995 0h-155v580h-559v-580h-146v1331h146v-631h559v631h145v-1218q0 -78 10 -113z" />
    <glyph glyph-name="I" unicode="I" 
d="M926 113q0 -78 10 -113h-741v119h294v1093h-249v119h632v-119h-237v-1093h291v-6z" />
    <glyph glyph-name="J" unicode="J" 
d="M969 1331h12q-10 -35 -10 -112v-938q0 -139 -111.5 -223.5t-296.5 -84.5q-135 0 -251.5 43.5t-170.5 114.5l88 107q111 -132 338 -132q258 0 258 175v921h-573v131h717v-2z" />
    <glyph glyph-name="K" unicode="K" 
d="M1057 0h-217l-488 526l-53 -69v-457h-145v1333l145 -2v-629l514 629l195 2l-555 -684z" />
    <glyph glyph-name="L" unicode="L" 
d="M946 0h-764v1331h146v-1212h618v-119z" />
    <glyph glyph-name="M" unicode="M" 
d="M883 0v1059q-122 -343 -240 -588h-147q-15 37 -65.5 146.5t-100.5 225.5t-86 216v-1059h-146v1331h150q63 -167 160.5 -380.5t154.5 -315.5q56 106 150 319.5t153 376.5h162v-1331h-145z" />
    <glyph glyph-name="N" unicode="N" 
d="M977 0h-146l-536 1008v-1008h-145v1331h149l532 -983v983h146v-1331z" />
    <glyph glyph-name="O" unicode="O" 
d="M561 -27q-225 0 -346 179.5t-121 515.5q0 333 120.5 511.5t346.5 178.5q221 0 346 -183t125 -507q0 -331 -124 -513t-347 -182zM561 113q158 0 231.5 131t73.5 424q0 302 -73 435.5t-232 131.5q-149 -2 -223 -139.5t-74 -427.5q0 -289 73 -422t224 -133z" />
    <glyph glyph-name="P" unicode="P" 
d="M307 0h-145v1331h401q189 0 303.5 -110.5t114.5 -294.5q0 -394 -520 -394h-154v-532zM563 1186h-256v-508h240q147 0 222 62.5t75 185.5q0 124 -73.5 192t-207.5 68z" />
    <glyph glyph-name="Q" unicode="Q" 
d="M1032 668q0 -300 -102.5 -477.5t-290.5 -208.5v-230h-154v228q-189 29 -290 206t-101 482q0 333 120.5 511.5t346.5 178.5q221 0 346 -183t125 -507zM639 121q116 29 171.5 160.5t55.5 386.5q0 302 -73 435.5t-232 131.5q-149 -2 -223 -139.5t-74 -427.5
q0 -250 55 -383.5t166 -163.5v332h154v-332z" />
    <glyph glyph-name="R" unicode="R" 
d="M999 0h-170q0 26 -17 69.5t-50 103t-65 113t-78 130t-72 121.5q-77 -5 -94 -5h-154v-532h-145v1331h401q189 0 303.5 -110.5t114.5 -294.5q0 -285 -271 -363q27 -48 119.5 -199t135 -236t42.5 -128zM299 678h238q297 0 297 248q0 124 -72.5 192t-206.5 68h-256v-508z" />
    <glyph glyph-name="S" unicode="S" 
d="M606 741q199 -38 289 -122.5t90 -256.5q0 -192 -123.5 -290.5t-341.5 -98.5q-126 0 -234.5 48.5t-146.5 121.5l101 95q91 -134 297 -134q306 0 309 244q3 119 -60 173.5t-198 78.5q-204 36 -322.5 138.5t-118.5 258.5q0 157 113.5 258t290.5 101q125 0 228 -46.5
t157 -127.5l-96 -90q-65 74 -124.5 102.5t-146.5 28.5q-135 0 -209.5 -57.5t-74.5 -161.5q0 -199 321 -263z" />
    <glyph glyph-name="T" unicode="T" 
d="M129 1331h868v-119h-368v-1212h-144v1212h-356v119z" />
    <glyph glyph-name="U" unicode="U" 
d="M844 356v975h143v-975q0 -176 -108.5 -279.5t-311.5 -103.5q-208 0 -319 103.5t-111 279.5v975h146v-975q0 -125 78.5 -193.5t205.5 -68.5q124 0 200.5 68.5t76.5 193.5z" />
    <glyph glyph-name="V" unicode="V" 
d="M905 1331h154l-436 -1331h-146l-409 1331h153l332 -1104z" />
    <glyph glyph-name="W" unicode="W" 
d="M903 1331h146q0 -269 -52.5 -680t-119.5 -651h-138q-142 365 -184 594q-48 -221 -197 -594h-139q-56 228 -97 633.5t-46 697.5h145q0 -257 23.5 -591.5t66.5 -501.5q126 335 170 546h148q9 -50 21.5 -102t35 -121t33.5 -100.5t43 -120.5t37 -102q47 169 75.5 508
t28.5 585z" />
    <glyph glyph-name="X" unicode="X" 
d="M1020 1331l-381 -672l360 -659h-161l-281 516l-295 -516h-156l377 655l-366 676h153l295 -534l307 534h148z" />
    <glyph glyph-name="Y" unicode="Y" 
d="M922 1331h153l-454 -778v-553h-146v553l-426 778h154l348 -610z" />
    <glyph glyph-name="Z" unicode="Z" 
d="M293 137h725v-137h-912v137l297 451h-198v131h282l314 475h-643v137h827v-137l-311 -475h248v-131h-334z" />
    <glyph glyph-name="bracketleft" unicode="[" 
d="M358 1331h445v-135h-289v-1405h289v-133h-445v1673z" />
    <glyph glyph-name="backslash" unicode="\" 
d="M121 1370l106 66l777 -1604l-105 -65z" />
    <glyph glyph-name="bracketright" unicode="]" 
d="M768 1331v-1673h-446v133h290v1405h-290v135h446z" />
    <glyph glyph-name="asciicircum" unicode="^" 
d="M788 973l-237 268l-215 -268h-154l293 444h146l321 -444h-154z" />
    <glyph glyph-name="underscore" unicode="_" 
d="M1085 -342h-1042v121h1042v-121z" />
    <glyph glyph-name="grave" unicode="`" horiz-adv-x="1024" 
d="M328 1366l78 129l391 -276l-52 -89z" />
    <glyph glyph-name="a" unicode="a" 
d="M528 999q194 0 318.5 -124.5t124.5 -317.5v-557h-183q37 61 37 119q-37 -64 -119 -103.5t-184 -40.5q-168 0 -276.5 73t-108.5 204q0 295 586 295q67 0 102 -2v12q0 138 -80.5 224.5t-209.5 86.5q-145 0 -289 -137l-88 105q72 78 168 120.5t202 42.5zM496 98q93 0 183 42
t146 120v158q-37 2 -108 2q-224 0 -328 -39t-104 -129q0 -72 60.5 -113t150.5 -41z" />
    <glyph glyph-name="b" unicode="b" 
d="M584 999q204 0 318 -127.5t114 -357.5q0 -244 -123.5 -391.5t-325.5 -147.5q-154 0 -266 91q8 -37 29 -66h-183v1341l144 -10v-481q55 78 125.5 113.5t167.5 35.5zM567 115q132 0 217.5 112t85.5 287q0 163 -78 260.5t-208 97.5q-93 0 -169.5 -50t-123.5 -142v-416
q34 -78 100.5 -113.5t175.5 -35.5z" />
    <glyph glyph-name="c" unicode="c" 
d="M821 305l166 -24q-28 -140 -143.5 -223t-282.5 -83q-210 0 -324 126t-114 354q0 158 47 278.5t147.5 193t243.5 72.5t257.5 -74t152.5 -194l-160 -45q-26 83 -94.5 130.5t-155.5 47.5q-139 0 -207.5 -106.5t-68.5 -302.5q0 -169 70.5 -256.5t205.5 -87.5q107 0 174 49.5
t86 144.5z" />
    <glyph glyph-name="d" unicode="d" 
d="M993 0h-155v74q-113 -99 -275 -99q-203 0 -325.5 147.5t-122.5 391.5q0 230 113.5 357.5t318.5 127.5q97 0 166.5 -35.5t124.5 -113.5v491l145 -10v-1218q0 -78 10 -113zM563 115q109 0 175 35.5t100 113.5v416q-47 92 -123 142t-168 50q-130 0 -208.5 -97.5
t-78.5 -260.5q0 -175 85 -287t218 -112z" />
    <glyph glyph-name="e" unicode="e" 
d="M569 999q206 0 311.5 -129t96.5 -366l-2 -84l-694 -4q0 -137 81.5 -223.5t210.5 -86.5q144 0 289 138l86 -107q-71 -77 -167.5 -120.5t-202.5 -43.5q-192 0 -316.5 125t-124.5 318v88q6 238 115.5 366.5t316.5 128.5zM823 547q8 158 -60 241.5t-208 83.5
q-259 0 -272 -325h540z" />
    <glyph glyph-name="f" unicode="f" 
d="M721 1214q-81 0 -137 -56t-56 -159v-452h387v-131h-387v-768l-145 10v758h-184v131h184v452q0 164 100.5 261.5t237.5 97.5q102 0 190.5 -56.5t141.5 -171.5l-129 -57q-31 70 -86 105.5t-117 35.5z" />
    <glyph glyph-name="g" unicode="g" 
d="M825 973h156q-10 -35 -10 -113v-860q0 -140 -111 -223.5t-297 -83.5q-135 0 -251.5 43.5t-170.5 113.5l88 105q112 -131 338 -131q258 0 258 176v205q-139 -111 -290 -111q-198 0 -322.5 129.5t-124.5 335.5q0 201 121.5 320.5t325.5 119.5q186 0 290 -145v119zM535 231
q95 0 172.5 44t117.5 120v287q-47 92 -122.5 142t-167.5 50q-129 0 -217.5 -91t-88.5 -224q0 -137 89.5 -232.5t216.5 -95.5z" />
    <glyph glyph-name="h" unicode="h" 
d="M963 113q0 -78 10 -113h-166v543q0 134 -72.5 222.5t-197.5 88.5q-83 0 -135.5 -40t-88.5 -112v-702h-145v1341l145 -10v-473q35 63 118.5 102t176.5 39q91 0 161 -42t111.5 -113.5t62 -157t20.5 -180.5v-393z" />
    <glyph glyph-name="i" unicode="i" 
d="M549 1145q-107 0 -107 108q0 51 28 78t79 27q106 0 106 -105q0 -108 -106 -108zM934 113q0 -78 10 -113h-741v119h293v735l-199 10v109h340l-2 -854h299v-6z" />
    <glyph glyph-name="j" unicode="j" 
d="M735 1145q-106 0 -106 108q0 51 27.5 78t78.5 27t79 -27t28 -78q0 -108 -107 -108zM475 973h348l-2 -973q0 -83 -28.5 -152t-76 -113.5t-108 -68.5t-125.5 -24q-102 0 -190 56t-141 171l129 57q31 -70 85.5 -105.5t118.5 -35.5q79 0 135 56t56 159v854l-201 10v109z" />
    <glyph glyph-name="k" unicode="k" 
d="M1063 0h-234l-444 430l-45 -41v-389h-145v1341l145 -10v-747l451 389l208 -17l-491 -421z" />
    <glyph glyph-name="l" unicode="l" 
d="M926 113q0 -78 10 -113h-739v119h295v1093l-201 11v108h346v-1212h289v-6z" />
    <glyph glyph-name="m" unicode="m" 
d="M807 999q63 0 105.5 -22t65 -65t31.5 -94t9 -120v-698h-137v733q0 60 -30 99.5t-83 39.5q-34 0 -64 -32t-63 -107q2 -16 2 -53v-680h-137v717q0 59 -30.5 98t-82.5 39q-38 0 -65 -28.5t-60 -94.5v-618q0 -75 11 -113h-156v973h145v-88q29 63 66 88.5t98 25.5
q134 0 186 -153v8q29 79 69 112t120 33z" />
    <glyph glyph-name="n" unicode="n" 
d="M967 113q0 -78 10 -113h-164v543q0 134 -73.5 222.5t-198.5 88.5q-82 0 -134 -40t-88 -112v-702h-145v973h182q-12 -17 -24 -51t-13 -64v-4v4q33 63 117 102t176 39q91 0 161 -42t111.5 -113.5t62 -157t20.5 -180.5v-393z" />
    <glyph glyph-name="o" unicode="o" 
d="M561 -27q-203 0 -324.5 142.5t-121.5 380.5q0 233 120 368t326 135q205 0 328 -136.5t123 -366.5q0 -235 -123.5 -379t-327.5 -144zM561 98q135 0 210 105t75 293q0 187 -74.5 287t-210.5 98q-130 -2 -203 -102t-73 -283q0 -185 73.5 -291.5t202.5 -106.5z" />
    <glyph glyph-name="p" unicode="p" 
d="M573 999q204 0 318.5 -127.5t114.5 -357.5q0 -244 -123.5 -391.5t-325.5 -147.5q-163 0 -276 99v-416l-144 -10v1325h182q-14 -20 -26 -54.5t-12 -64.5v-4q55 78 125 113.5t167 35.5zM557 115q132 0 217.5 112t85.5 287q0 163 -78.5 260.5t-208.5 97.5q-92 0 -168.5 -50
t-123.5 -142v-416q34 -78 100.5 -113.5t175.5 -35.5z" />
    <glyph glyph-name="q" unicode="q" 
d="M842 973h155q-10 -35 -10 -113v-1202l-145 -10v426q-113 -99 -275 -99q-203 0 -326.5 147.5t-123.5 391.5q0 230 114 357.5t318 127.5q98 0 167.5 -35.5t125.5 -113.5v123zM842 264v416q-47 92 -123.5 142t-169.5 50q-130 0 -208.5 -97.5t-78.5 -260.5q0 -175 85.5 -287
t219.5 -112q108 0 174.5 36t100.5 113z" />
    <glyph glyph-name="r" unicode="r" 
d="M958 813q-86 42 -165.5 37t-140.5 -52.5t-77 -119.5v-559h289v-6q0 -78 10 -113h-741v119h301v735l-198 10v109h358q-8 -13 -17.5 -54.5t-9.5 -60.5q74 141 297 141q69 0 185 -45z" />
    <glyph glyph-name="s" unicode="s" 
d="M621 557q185 -35 265.5 -97.5t80.5 -172.5q0 -138 -107 -226t-282 -88q-254 0 -408 205l98 101q148 -175 312 -175q100 0 174.5 54.5t74.5 126.5q0 50 -47 77t-174 52q-210 43 -303.5 113t-93.5 184q0 130 104 209t273 79q123 0 217.5 -40.5t148.5 -116.5l-92 -92
q-60 63 -119 89.5t-139 26.5q-112 0 -184 -42.5t-72 -108.5q0 -57 65.5 -94t207.5 -64z" />
    <glyph glyph-name="t" unicode="t" 
d="M866 260l131 -59q-53 -114 -141.5 -171t-189.5 -57q-88 0 -164 41.5t-125 125t-49 192.5v510h-158v131h158v368l145 -10v-358h414v-131h-414v-510q0 -102 56 -158.5t135 -56.5q62 0 116.5 36t85.5 107z" />
    <glyph glyph-name="u" unicode="u" 
d="M952 0h-155v139q-40 -75 -119.5 -120.5t-171.5 -45.5q-102 0 -185 65.5t-128.5 175t-45.5 237.5v524h154v-561q0 -126 77.5 -219t194.5 -93q73 0 117.5 41t106.5 142v688h145v-860q0 -78 10 -113z" />
    <glyph glyph-name="v" unicode="v" 
d="M840 973h153l-372 -973h-146l-344 973h154l266 -746z" />
    <glyph glyph-name="w" unicode="w" 
d="M885 999h145q0 -126 -13.5 -251t-44.5 -266.5t-54 -230t-68 -251.5h-139q-43 113 -65.5 176.5t-48.5 155t-42 176.5q-18 -85 -47.5 -177t-53 -154t-69.5 -177h-137q-72 292 -111.5 525.5t-42.5 473.5h146q0 -378 98 -761q58 153 92 263.5t57 231.5h148q34 -208 137 -495
q113 409 113 761z" />
    <glyph glyph-name="x" unicode="x" 
d="M958 0h-155l-238 375l-241 -375h-156l321 496l-303 477h154l227 -357l230 357h153l-307 -477z" />
    <glyph glyph-name="y" unicode="y" 
d="M811 973h162q-39 -158 -162 -490.5t-248 -621.5q-51 -135 -139.5 -187.5t-220.5 -29.5l24 112q147 -29 211 148l60 147h-2q-42 111 -131.5 317t-146.5 356t-73 249h144q8 -52 27 -116t52.5 -149.5t57.5 -144t72.5 -171.5t68.5 -159q198 510 244 740z" />
    <glyph glyph-name="z" unicode="z" 
d="M924 113q0 -78 10 -113h-741v119l573 735h-551v119h700v-119l-571 -735h580v-6z" />
    <glyph glyph-name="braceleft" unicode="{" 
d="M834 1219q-63 6 -116 1t-87.5 -38t-34.5 -90q0 -39 33 -156.5t33 -194.5q0 -98 -43 -162.5t-134 -80.5q93 -16 135 -86.5t42 -171.5q0 -81 -33 -181.5t-33 -144.5q0 -47 20 -79t53.5 -46.5t76.5 -20t88 2.5v-113q-109 -8 -195 17t-140.5 91t-54.5 166q0 60 34 148.5
t34 163.5q0 28 -3.5 49.5t-16.5 48t-36 43.5t-65 29t-100 12v137q57 0 99 11.5t65 28t36.5 42t17 47.5t3.5 51q0 73 -34 177t-34 161q0 93 55 153.5t141 82.5t194 14v-112z" />
    <glyph glyph-name="bar" unicode="|" 
d="M485 1331h154v-1673h-154v1673z" />
    <glyph glyph-name="braceright" unicode="}" 
d="M291 1219v112q109 8 195.5 -14t141 -82.5t54.5 -153.5q0 -57 -34 -161t-34 -177q0 -36 7.5 -63.5t28.5 -56.5t68 -44.5t118 -15.5v-137q-71 0 -118.5 -16.5t-68.5 -46.5t-28 -57t-7 -62q0 -75 34 -163.5t34 -148.5q0 -100 -54 -166t-140.5 -91t-196.5 -17v113
q103 -13 171 20t68 123q0 44 -32.5 144.5t-32.5 181.5q0 48 9 88.5t28 76.5t54 60.5t83 32.5q-90 16 -132 80.5t-42 162.5q0 77 32.5 194.5t32.5 156.5q0 57 -34.5 90t-87.5 38t-117 -1z" />
    <glyph glyph-name="asciitilde" unicode="~" 
d="M401 690q49 0 90.5 -17.5t70.5 -42t55 -49t55 -42t59 -17.5q45 0 88.5 39t77.5 103l100 -72q-40 -83 -109 -145t-163 -62q-47 0 -88 17.5t-70 42.5t-55.5 50t-56 42.5t-60.5 17.5q-88 0 -166 -143l-100 73q103 205 272 205z" />
    <glyph glyph-name="exclamdown" unicode="&#xa1;" 
d="M455 1079q0 107 108 107q51 0 79 -27.5t28 -79.5t-28 -79t-79 -27q-52 0 -80 27t-28 79zM496 780h131l22 -620v-330h-178v330z" />
    <glyph glyph-name="cent" unicode="&#xa2;" 
d="M987 281q-25 -127 -122 -207t-242 -94v-195l-146 10v187q-170 25 -262 147.5t-92 325.5q0 217 90.5 362.5t263.5 175.5v178h146v-174q123 -15 219 -87.5t129 -178.5l-160 -45q-26 83 -94.5 130.5t-155.5 47.5q-139 0 -207.5 -106.5t-68.5 -302.5q0 -169 70.5 -256.5
t205.5 -87.5q107 0 174 49.5t86 144.5z" />
    <glyph glyph-name="sterling" unicode="&#xa3;" 
d="M479 537q-24 -229 -151 -418h618v-119h-764v119q129 189 150 418h-185l11 120h182q1 68 -4.5 183t-5.5 159q0 168 85.5 263.5t239.5 95.5q105 0 185.5 -44.5t122.5 -121.5l-89 -84q-38 54 -99.5 85.5t-125.5 31.5q-84 0 -129 -57.5t-45 -168.5q0 -44 5.5 -159t4.5 -183
h316l-10 -120h-312z" />
    <glyph glyph-name="currency" unicode="&#xa4;" 
d="M354 805q88 55 211 55q122 0 207 -55l148 149l98 -98l-146 -145q60 -92 60 -213q0 -116 -62 -215l148 -146l-98 -96l-150 147q-86 -53 -205 -53q-122 0 -211 53l-147 -149l-98 98l149 148q-59 86 -59 213q0 123 57 211l-147 149l98 98zM565 733q-103 0 -157 -61.5
t-54 -173.5t54 -174t157 -62q101 0 154 62t53 174t-53 173.5t-154 61.5z" />
    <glyph glyph-name="yen" unicode="&#xa5;" 
d="M866 463h-245v-137h256l-11 -119h-245v-207h-146v207h-252l10 119h242v137h-252l10 119h228l-412 749h154l348 -610l371 610h153l-436 -749h238z" />
    <glyph glyph-name="brokenbar" unicode="&#xa6;" 
d="M485 614v717h154v-717h-154zM639 358v-700h-154v700h154z" />
    <glyph glyph-name="section" unicode="&#xa7;" 
d="M862 297q115 -100 115 -221q0 -144 -109.5 -242t-298.5 -98q-127 0 -248 43.5t-174 111.5l89 107q54 -63 145.5 -97t193.5 -34q132 0 195.5 58t63.5 151q0 25 -3 44t-6.5 33.5t-14 28t-19 22t-29 20.5t-35 19.5t-47 24.5t-55.5 29q-33 18 -170.5 93.5t-153.5 84.5
q-64 33 -100 74.5t-44 84t3.5 89.5t38 90t65.5 86q-117 102 -117 221q0 144 110 242t300 98q125 0 246 -43.5t174 -111.5l-86 -107q-54 63 -146 97t-194 34q-133 0 -195.5 -57.5t-62.5 -151.5q0 -25 3 -44t6.5 -33.5t14 -28t19 -22t29 -20.5t35 -19.5t47 -24.5t55.5 -29
q178 -96 321 -178q80 -41 117 -94t32.5 -110t-32.5 -111t-78 -109zM403 563q210 -116 285 -155q16 -10 64 -35q79 85 74.5 145.5t-105.5 114.5q-133 77 -283 155q-26 16 -65 35q-78 -85 -74 -145.5t104 -114.5z" />
    <glyph glyph-name="dieresis" unicode="&#xa8;" horiz-adv-x="1024" 
d="M285 1253q0 51 28 78t80 27q51 0 78 -27t27 -78q0 -108 -105 -108q-108 0 -108 108zM627 1253q0 51 27.5 78t78.5 27q107 0 107 -105q0 -108 -107 -108q-106 0 -106 108z" />
    <glyph glyph-name="copyright" unicode="&#xa9;" 
d="M561 1460q95 0 178 -36t145 -103.5t98 -172t36 -233.5q0 -256 -130 -401t-327 -145q-94 0 -176.5 36t-144.5 103.5t-98 172.5t-36 234t36 233.5t98 172t144.5 103.5t176.5 36zM561 477q151 0 252.5 120t101.5 321t-101 318.5t-253 117.5q-151 0 -251.5 -117.5
t-100.5 -318.5q0 -202 100.5 -321.5t251.5 -119.5zM719 809l100 -16q-12 -88 -79 -141.5t-171 -53.5q-123 0 -189.5 80t-66.5 223q0 150 65 246t191 96q89 0 155 -49t85 -125l-96 -27q-9 51 -48 80t-96 29q-157 0 -157 -250q0 -211 157 -211q138 0 150 119z" />
    <glyph glyph-name="guillemotleft" unicode="&#xab;" 
d="M506 117q-34 37 -78.5 83t-94.5 100.5t-126 141.5q-37 43 -37 57.5t37 57.5q102 116 193.5 212.5t105.5 111.5l65 -97q-4 -4 -21.5 -23.5t-23 -25.5t-21.5 -25t-23.5 -27.5t-22 -27t-22.5 -30t-20.5 -29t-20.5 -31.5t-17.5 -31t-16.5 -34q24 -52 66 -111.5t64.5 -85
t78.5 -88.5zM864 117q-34 37 -78.5 83t-94.5 100.5t-126 141.5q-37 43 -37 57.5t37 57.5q102 116 193.5 212.5t105.5 111.5l66 -97q-4 -4 -21.5 -23.5t-23 -25.5t-21.5 -25t-23.5 -27.5t-22 -27t-22.5 -30t-20.5 -29t-20.5 -31.5t-17.5 -31t-16.5 -34q24 -52 66 -111.5
t64.5 -85t78.5 -88.5z" />
    <glyph glyph-name="logicalnot" unicode="&#xac;" 
d="M881 240h-138v204h-495v119h633v-323z" />
    <glyph glyph-name="registered" unicode="&#xae;" 
d="M565 1460q184 0 313.5 -132t129.5 -320q0 -186 -129.5 -318.5t-313.5 -132.5q-183 0 -314.5 132.5t-131.5 318.5q0 187 131.5 319.5t314.5 132.5zM565 670q141 0 240.5 100.5t99.5 241.5t-99.5 240.5t-240.5 99.5q-142 0 -242 -99.5t-100 -240.5t100 -241.5t242 -100.5z
M741 1079q0 -90 -71 -123q5 -7 16 -25l16.5 -27t15 -24t14.5 -24.5t10 -20.5t7.5 -18.5t2.5 -13.5h-93q0 29 -67 133h-96l-2 -133h-82v420h161q65 0 116.5 -39.5t51.5 -104.5zM494 1018h73q50 0 72.5 11.5t22.5 47.5q0 38 -22.5 52t-68.5 14h-75z" />
    <glyph glyph-name="macron" unicode="&#xaf;" horiz-adv-x="1024" 
d="M811 1126h-498v103h498v-103z" />
    <glyph glyph-name="degree" unicode="&#xb0;" 
d="M414 846q-107 0 -184.5 77.5t-77.5 184.5q0 104 76.5 177t185.5 73t187.5 -74.5t78.5 -175.5q0 -106 -79.5 -184t-186.5 -78zM414 946q70 0 107.5 42.5t37.5 119.5q0 76 -38 117t-107 41q-68 0 -104 -41t-36 -117q0 -77 36.5 -119.5t103.5 -42.5z" />
    <glyph glyph-name="plusminus" unicode="&#xb1;" 
d="M635 670h321v-131h-321v-254h-164v254h-317v131h317v252h164v-252zM195 96v129h733v-129h-733z" />
    <glyph glyph-name="acute" unicode="&#xb4;" horiz-adv-x="1024" 
d="M799 1366l-418 -236l-51 89l391 276z" />
    <glyph glyph-name="paragraph" unicode="&#xb6;" 
d="M608 1331h391v-1683l-145 10v1554h-184v-1564l-146 10v776q-214 27 -310.5 141t-96.5 316q0 216 112 322t379 116v2z" />
    <glyph glyph-name="periodcentered" unicode="&#xb7;" 
d="M455 543q0 51 28.5 78.5t79.5 27.5t79 -27.5t28 -78.5q0 -52 -28 -80.5t-79 -28.5q-52 0 -80 28t-28 81z" />
    <glyph glyph-name="cedilla" unicode="&#xb8;" horiz-adv-x="1024" 
d="M637 -436q-83 0 -135 22t-96 76l71 72q25 -39 59 -53.5t101 -14.5q72 0 103.5 17t31.5 55t-24.5 58t-67.5 20q-32 0 -62.5 -9.5t-42.5 -23.5h-98l41 217h100l-28 -125q6 9 39.5 17t70.5 8q84 0 131.5 -45t47.5 -123q0 -82 -62.5 -125t-179.5 -43z" />
    <glyph glyph-name="guillemotright" unicode="&#xbb;" 
d="M260 117l-63 98q39 44 57 64.5t51.5 62t57.5 80t43 78.5q-24 52 -66 110.5t-66 86t-77 87.5l63 97q32 -34 79 -82.5t96 -101.5t126 -140q37 -43 37 -57.5t-37 -57.5q-77 -88 -125.5 -141t-96.5 -102t-79 -82zM618 117l-63 98q39 44 57 64.5t51.5 62t57.5 80t43 78.5
q-24 52 -66 110.5t-66 86t-77 87.5l63 97q33 -35 79.5 -83t96 -101t126.5 -140q37 -43 37 -57.5t-37 -57.5q-77 -88 -126 -141t-96.5 -101.5t-79.5 -82.5z" />
    <glyph glyph-name="onequarter" unicode="&#xbc;" 
d="M244 1223q-26 -45 -164 -64l-10 76q119 24 174 96h94v-592h-94v484zM981 985l70 -51l-912 -621l-63 56zM1057 223v-73h-111v-150h-96v150h-242v73l236 369h100l-235 -369h141v109h106q-10 -33 -10 -109h111z" />
    <glyph glyph-name="onehalf" unicode="&#xbd;" 
d="M242 739v484q-26 -45 -164 -64l-10 76q119 24 174 96h94v-592h-94zM1049 950l-912 -618l-61 53l903 616zM944 446q0 37 -33 58.5t-94 21.5q-102 0 -160 -77l-71 30q32 52 93.5 85.5t133.5 33.5q92 0 158.5 -44.5t66.5 -104.5q0 -44 -35.5 -94.5t-79 -88t-114 -96
t-109.5 -96.5h355v-74h-480v74q41 41 113.5 97.5t124 95.5t91.5 88.5t40 90.5z" />
    <glyph glyph-name="threequarters" unicode="&#xbe;" 
d="M291 817q72 0 107.5 19t35.5 69q0 119 -168 119h-41v66h41q78 0 118 28.5t40 79.5q0 50 -38 69t-105 19q-91 0 -121 -49l-49 49q20 33 70.5 52.5t109.5 19.5q91 0 161 -45t70 -115q0 -45 -28.5 -83t-77.5 -58q53 -18 87 -59t34 -93q0 -73 -73 -116.5t-183 -43.5
q-76 0 -126 24t-85 75l57 41q33 -39 67.5 -53.5t96.5 -14.5zM981 985l70 -51l-912 -621l-63 56zM1057 223v-73h-111v-150h-96v150h-242v73l236 369h100l-235 -369h141v109h106q-10 -33 -10 -109h111z" />
    <glyph glyph-name="questiondown" unicode="&#xbf;" 
d="M727 1079q0 -106 -109 -106q-104 0 -104 106q0 107 104 107q109 0 109 -107zM573 -205q-193 0 -300 81.5t-107 248.5q0 72 20.5 128.5t53.5 93t73 68t80 63.5t73 69.5t54 95t21 131.5h157q-1 -88 -23 -156t-56.5 -110t-75.5 -76t-82 -62.5t-74.5 -60t-54.5 -78
t-21 -106.5q0 -104 62.5 -151.5t193.5 -47.5q92 0 179.5 39t127.5 111l87 -107q-41 -82 -146.5 -128t-241.5 -46z" />
    <glyph glyph-name="Agrave" unicode="&#xc0;" 
d="M784 1577l-51 -88l-418 235l78 129zM883 0l-109 375h-428l-102 -375h-146l351 1331h202l377 -1331h-145zM377 496h364l-176 608h-22z" />
    <glyph glyph-name="Aacute" unicode="&#xc1;" 
d="M784 1724l-417 -235l-52 88l392 276zM883 0l-109 375h-428l-102 -375h-146l351 1331h202l377 -1331h-145zM377 496h364l-176 608h-22z" />
    <glyph glyph-name="Acircumflex" unicode="&#xc2;" 
d="M541 1630l-154 -182h-123l217 321h117l240 -321h-123zM883 0l-109 375h-428l-102 -375h-146l351 1331h202l377 -1331h-145zM377 496h364l-176 608h-22z" />
    <glyph glyph-name="Atilde" unicode="&#xc3;" 
d="M416 1593q-91 0 -150 -112l-90 67q85 168 246 168q43 0 77 -12.5t55 -30t39.5 -34.5t40.5 -29.5t48 -12.5q90 0 152 111l92 -66q-36 -70 -98.5 -118.5t-147.5 -48.5q-52 0 -92 18.5t-60.5 40.5t-49.5 40.5t-62 18.5zM883 0l-109 375h-428l-102 -375h-146l351 1331h202
l377 -1331h-145zM377 496h364l-176 608h-22z" />
    <glyph glyph-name="Adieresis" unicode="&#xc4;" 
d="M381 1468q-53 0 -81 28t-28 81q0 51 28.5 78.5t80.5 27.5q51 0 77.5 -27.5t26.5 -78.5q0 -53 -26.5 -81t-77.5 -28zM721 1468q-52 0 -79.5 28t-27.5 81q0 51 28 78.5t79 27.5q106 0 106 -106q0 -109 -106 -109zM883 0l-109 375h-428l-102 -375h-146l351 1331h202
l377 -1331h-145zM377 496h364l-176 608h-22z" />
    <glyph glyph-name="Aring" unicode="&#xc5;" 
d="M883 0l-109 375h-428l-102 -375h-146l351 1329q-45 26 -71 69.5t-26 100.5q0 85 55.5 139t143.5 54t143.5 -54t55.5 -139q0 -57 -26.5 -100.5t-72.5 -69.5l377 -1329h-145zM551 1614q-45 0 -73.5 -32.5t-28.5 -82.5t29 -83.5t73 -33.5q46 0 74 33t28 84q0 49 -28 82
t-74 33zM377 496h364l-176 608h-22z" />
    <glyph glyph-name="AE" unicode="&#xc6;" 
d="M821 145h176v-145h-286l-84 375h-316l-67 -375h-146l264 1331h627v-145h-422l103 -414h270v-143h-238zM332 496h268l-137 608h-23z" />
    <glyph glyph-name="Ccedilla" unicode="&#xc7;" 
d="M1020 283q-15 -78 -80.5 -148t-161.5 -113.5t-198 -48.5l-23 -98q6 9 40 17t71 8q83 0 129.5 -45t46.5 -123q0 -82 -62 -125t-180 -43q-82 0 -134 22t-95 76l71 72q23 -38 57.5 -53t100.5 -15q73 0 104 17t31 55t-24.5 58t-67.5 20q-32 0 -62 -9.5t-42 -23.5h-97l37 199
q-186 32 -289.5 208t-103.5 453q0 206 60.5 369.5t168.5 254.5t244 91q137 0 261 -84.5t159 -202.5l-160 -45q-25 84 -99.5 140.5t-160.5 56.5q-141 0 -226 -158t-85 -422q0 -256 81 -394t230 -138q103 0 191 58.5t102 135.5z" />
    <glyph glyph-name="Egrave" unicode="&#xc8;" 
d="M328 1724l78 129l391 -276l-52 -88zM332 145v484h495v143h-495v414h598v145h-742v-1331h742v145h-598z" />
    <glyph glyph-name="Eacute" unicode="&#xc9;" 
d="M797 1724l-418 -235l-51 88l391 276zM332 145v484h495v143h-495v414h598v145h-742v-1331h742v145h-598z" />
    <glyph glyph-name="Ecircumflex" unicode="&#xca;" 
d="M727 1448l-174 182l-154 -182h-123l218 321h114l242 -321h-123zM332 145v484h495v143h-495v414h598v145h-742v-1331h742v145h-598z" />
    <glyph glyph-name="Edieresis" unicode="&#xcb;" 
d="M285 1577q0 51 28 78.5t80 27.5q51 0 78 -27.5t27 -78.5q0 -53 -27 -81t-78 -28q-108 0 -108 109zM627 1577q0 51 27.5 78.5t78.5 27.5q52 0 79.5 -27.5t27.5 -78.5q0 -53 -27.5 -81t-79.5 -28q-106 0 -106 109zM332 145v484h495v143h-495v414h598v145h-742v-1331h742
v145h-598z" />
    <glyph glyph-name="Igrave" unicode="&#xcc;" 
d="M797 1577l-52 -88l-417 235l78 129zM926 113q0 -78 10 -113h-741v119h294v1093h-249v119h632v-119h-237v-1093h291v-6z" />
    <glyph glyph-name="Iacute" unicode="&#xcd;" 
d="M797 1724l-418 -235l-51 88l391 276zM926 113q0 -78 10 -113h-741v119h294v1093h-249v119h632v-119h-237v-1093h291v-6z" />
    <glyph glyph-name="Icircumflex" unicode="&#xce;" 
d="M553 1630l-154 -182h-123l218 321h114l242 -321h-123zM926 113q0 -78 10 -113h-741v119h294v1093h-249v119h632v-119h-237v-1093h291v-6z" />
    <glyph glyph-name="Idieresis" unicode="&#xcf;" 
d="M393 1468q-108 0 -108 109q0 51 28 78.5t80 27.5q51 0 78 -27.5t27 -78.5q0 -53 -27 -81t-78 -28zM733 1468q-106 0 -106 109q0 51 27.5 78.5t78.5 27.5q52 0 79.5 -27.5t27.5 -78.5q0 -53 -27.5 -81t-79.5 -28zM926 113q0 -78 10 -113h-741v119h294v1093h-249v119h632
v-119h-237v-1093h291v-6z" />
    <glyph glyph-name="Eth" unicode="&#xd0;" 
d="M461 1331q290 0 413 -152t123 -509q0 -670 -417 -670h-435v1331h316zM547 1180h-256v-617h563q0 17 1 52.5t1 54.5q0 263 -75 386.5t-234 123.5zM580 145q100 0 165 73t91 214h-545v-287h289z" />
    <glyph glyph-name="Ntilde" unicode="&#xd1;" 
d="M434 1716q43 0 77 -12.5t55 -30t39.5 -34.5t40.5 -29.5t48 -12.5q92 0 150 111l92 -66q-36 -70 -98 -118.5t-148 -48.5q-43 0 -76.5 12t-54.5 29.5t-39.5 35t-41.5 29.5t-50 12q-90 0 -149 -112l-91 67q85 168 246 168zM831 0h146v1331h-146v-983l-532 983h-149v-1331
h145v1008z" />
    <glyph glyph-name="Ograve" unicode="&#xd2;" 
d="M328 1724l78 129l391 -276l-52 -88zM561 -27q-225 0 -346 179.5t-121 515.5q0 333 120.5 511.5t346.5 178.5q221 0 346 -183t125 -507q0 -331 -124 -513t-347 -182zM561 113q158 0 231.5 131t73.5 424q0 302 -73 435.5t-232 131.5q-149 -2 -223 -139.5t-74 -427.5
q0 -289 73 -422t224 -133z" />
    <glyph glyph-name="Oacute" unicode="&#xd3;" 
d="M797 1724l-418 -235l-51 88l391 276zM561 -27q-225 0 -346 179.5t-121 515.5q0 333 120.5 511.5t346.5 178.5q221 0 346 -183t125 -507q0 -331 -124 -513t-347 -182zM561 113q158 0 231.5 131t73.5 424q0 302 -73 435.5t-232 131.5q-149 -2 -223 -139.5t-74 -427.5
q0 -289 73 -422t224 -133z" />
    <glyph glyph-name="Ocircumflex" unicode="&#xd4;" 
d="M727 1448l-174 182l-154 -182h-123l218 321h114l242 -321h-123zM561 -27q-225 0 -346 179.5t-121 515.5q0 333 120.5 511.5t346.5 178.5q221 0 346 -183t125 -507q0 -331 -124 -513t-347 -182zM561 113q158 0 231.5 131t73.5 424q0 302 -73 435.5t-232 131.5
q-149 -2 -223 -139.5t-74 -427.5q0 -289 73 -422t224 -133z" />
    <glyph glyph-name="Otilde" unicode="&#xd5;" 
d="M434 1716q43 0 77 -12.5t55 -30t39.5 -34.5t40.5 -29.5t48 -12.5q92 0 150 111l92 -66q-36 -70 -98 -118.5t-148 -48.5q-43 0 -76.5 12t-54.5 29.5t-39.5 35t-41.5 29.5t-50 12q-90 0 -149 -112l-91 67q85 168 246 168zM561 -27q-225 0 -346 179.5t-121 515.5
q0 333 120.5 511.5t346.5 178.5q221 0 346 -183t125 -507q0 -331 -124 -513t-347 -182zM561 113q158 0 231.5 131t73.5 424q0 302 -73 435.5t-232 131.5q-149 -2 -223 -139.5t-74 -427.5q0 -289 73 -422t224 -133z" />
    <glyph glyph-name="Odieresis" unicode="&#xd6;" 
d="M285 1577q0 51 28 78.5t80 27.5q51 0 78 -27.5t27 -78.5q0 -53 -27 -81t-78 -28q-108 0 -108 109zM627 1577q0 51 27.5 78.5t78.5 27.5q52 0 79.5 -27.5t27.5 -78.5q0 -53 -27.5 -81t-79.5 -28q-106 0 -106 109zM561 -27q-225 0 -346 179.5t-121 515.5q0 333 120.5 511.5
t346.5 178.5q221 0 346 -183t125 -507q0 -331 -124 -513t-347 -182zM561 113q158 0 231.5 131t73.5 424q0 302 -73 435.5t-232 131.5q-149 -2 -223 -139.5t-74 -427.5q0 -289 73 -422t224 -133z" />
    <glyph glyph-name="multiply" unicode="&#xd7;" 
d="M864 289l-82 -80l-219 217l-217 -217l-86 84l217 217l-215 213l84 84l215 -213l217 217l86 -84l-219 -219z" />
    <glyph glyph-name="Oslash" unicode="&#xd8;" 
d="M891 1198q141 -182 141 -530q0 -331 -124 -513t-347 -182q-132 0 -235 68l-68 -141l-104 65l79 164q-139 177 -139 539q0 333 120.5 511.5t346.5 178.5q138 0 236 -70l69 142l107 -64zM264 668q0 -242 49 -373l428 876q-67 64 -180 64q-149 -2 -223 -139.5t-74 -427.5z
M561 113q158 0 231.5 131t73.5 424q0 252 -49 381l-426 -875q64 -61 170 -61z" />
    <glyph glyph-name="Ugrave" unicode="&#xd9;" 
d="M328 1724l78 129l391 -276l-52 -88zM844 356q0 -125 -76.5 -193.5t-200.5 -68.5q-127 0 -205.5 68.5t-78.5 193.5v975h-146v-975q0 -176 111 -279.5t319 -103.5q203 0 311.5 103.5t108.5 279.5v975h-143v-975z" />
    <glyph glyph-name="Uacute" unicode="&#xda;" 
d="M797 1724l-418 -235l-51 88l391 276zM844 356q0 -125 -76.5 -193.5t-200.5 -68.5q-127 0 -205.5 68.5t-78.5 193.5v975h-146v-975q0 -176 111 -279.5t319 -103.5q203 0 311.5 103.5t108.5 279.5v975h-143v-975z" />
    <glyph glyph-name="Ucircumflex" unicode="&#xdb;" 
d="M727 1448l-174 182l-154 -182h-123l218 321h114l242 -321h-123zM844 356q0 -125 -76.5 -193.5t-200.5 -68.5q-127 0 -205.5 68.5t-78.5 193.5v975h-146v-975q0 -176 111 -279.5t319 -103.5q203 0 311.5 103.5t108.5 279.5v975h-143v-975z" />
    <glyph glyph-name="Udieresis" unicode="&#xdc;" 
d="M285 1577q0 51 28 78.5t80 27.5q51 0 78 -27.5t27 -78.5q0 -53 -27 -81t-78 -28q-108 0 -108 109zM627 1577q0 51 27.5 78.5t78.5 27.5q52 0 79.5 -27.5t27.5 -78.5q0 -53 -27.5 -81t-79.5 -28q-106 0 -106 109zM844 356q0 -125 -76.5 -193.5t-200.5 -68.5
q-127 0 -205.5 68.5t-78.5 193.5v975h-146v-975q0 -176 111 -279.5t319 -103.5q203 0 311.5 103.5t108.5 279.5v975h-143v-975z" />
    <glyph glyph-name="Yacute" unicode="&#xdd;" 
d="M797 1724l-418 -235l-51 88l391 276zM922 1331h153l-454 -778v-553h-146v553l-426 778h154l348 -610z" />
    <glyph glyph-name="Thorn" unicode="&#xde;" 
d="M307 0h-145v1331h145v-334h256q188 0 303 -93.5t115 -246.5q0 -161 -135.5 -248t-384.5 -87h-154v-322zM563 862h-256v-407h240q136 0 216.5 55t80.5 147t-77.5 148.5t-203.5 56.5z" />
    <glyph glyph-name="germandbls" unicode="&#xdf;" 
d="M530 1358q75 0 137.5 -28.5t102 -75.5t61 -104.5t21.5 -117.5q0 -48 -18 -88t-44.5 -64.5t-57.5 -48t-57.5 -41.5t-44.5 -41.5t-18 -50.5t18.5 -49t48 -38.5t65.5 -33.5t72 -41.5t65.5 -55.5t48 -81t18.5 -114q0 -133 -77 -219t-212 -86q-128 0 -219 57l64 110
q64 -36 141 -36q40 0 68 15t42.5 40.5t20.5 53t6 59.5q0 50 -18 88.5t-46.5 62.5t-63.5 43.5t-69.5 37t-63 38t-46.5 53t-18 74.5q0 49 24.5 87.5t59.5 63.5t69.5 50t59 60.5t24.5 80.5q0 85 -50 149t-116 64q-186 0 -186 -311v-920h-145v909q0 207 87.5 328t245.5 121z" />
    <glyph glyph-name="agrave" unicode="&#xe0;" 
d="M797 1219l-52 -89l-417 236l78 129zM528 999q194 0 318.5 -124.5t124.5 -317.5v-557h-183q37 61 37 119q-37 -64 -119 -103.5t-184 -40.5q-168 0 -276.5 73t-108.5 204q0 295 586 295q67 0 102 -2v12q0 138 -80.5 224.5t-209.5 86.5q-145 0 -289 -137l-88 105
q72 78 168 120.5t202 42.5zM496 98q93 0 183 42t146 120v158q-37 2 -108 2q-224 0 -328 -39t-104 -129q0 -72 60.5 -113t150.5 -41z" />
    <glyph glyph-name="aacute" unicode="&#xe1;" 
d="M797 1366l-418 -236l-51 89l391 276zM528 999q194 0 318.5 -124.5t124.5 -317.5v-557h-183q37 61 37 119q-37 -64 -119 -103.5t-184 -40.5q-168 0 -276.5 73t-108.5 204q0 295 586 295q67 0 102 -2v12q0 138 -80.5 224.5t-209.5 86.5q-145 0 -289 -137l-88 105
q72 78 168 120.5t202 42.5zM496 98q93 0 183 42t146 120v158q-37 2 -108 2q-224 0 -328 -39t-104 -129q0 -72 60.5 -113t150.5 -41z" />
    <glyph glyph-name="acircumflex" unicode="&#xe2;" 
d="M553 1272l-154 -182h-123l218 321h114l242 -321h-123zM528 999q194 0 318.5 -124.5t124.5 -317.5v-557h-183q37 61 37 119q-37 -64 -119 -103.5t-184 -40.5q-168 0 -276.5 73t-108.5 204q0 295 586 295q67 0 102 -2v12q0 138 -80.5 224.5t-209.5 86.5q-145 0 -289 -137
l-88 105q72 78 168 120.5t202 42.5zM496 98q93 0 183 42t146 120v158q-37 2 -108 2q-224 0 -328 -39t-104 -129q0 -72 60.5 -113t150.5 -41z" />
    <glyph glyph-name="atilde" unicode="&#xe3;" 
d="M428 1235q-90 0 -149 -113l-91 68q85 168 246 168q43 0 77 -12.5t55 -30t39.5 -34.5t40.5 -29.5t48 -12.5q92 0 150 111l92 -66q-36 -71 -98 -119.5t-148 -48.5q-43 0 -76.5 12.5t-54.5 30t-39.5 34.5t-41.5 29.5t-50 12.5zM528 999q194 0 318.5 -124.5t124.5 -317.5
v-557h-183q37 61 37 119q-37 -64 -119 -103.5t-184 -40.5q-168 0 -276.5 73t-108.5 204q0 295 586 295q67 0 102 -2v12q0 138 -80.5 224.5t-209.5 86.5q-145 0 -289 -137l-88 105q72 78 168 120.5t202 42.5zM496 98q93 0 183 42t146 120v158q-37 2 -108 2q-224 0 -328 -39
t-104 -129q0 -72 60.5 -113t150.5 -41z" />
    <glyph glyph-name="adieresis" unicode="&#xe4;" 
d="M393 1110q-108 0 -108 109q0 51 28 78.5t80 27.5q51 0 78 -27.5t27 -78.5q0 -53 -27 -81t-78 -28zM733 1110q-106 0 -106 109q0 51 27.5 78.5t78.5 27.5q52 0 79.5 -27.5t27.5 -78.5q0 -53 -27.5 -81t-79.5 -28zM528 999q194 0 318.5 -124.5t124.5 -317.5v-557h-183
q37 61 37 119q-37 -64 -119 -103.5t-184 -40.5q-168 0 -276.5 73t-108.5 204q0 295 586 295q67 0 102 -2v12q0 138 -80.5 224.5t-209.5 86.5q-145 0 -289 -137l-88 105q72 78 168 120.5t202 42.5zM496 98q93 0 183 42t146 120v158q-37 2 -108 2q-224 0 -328 -39t-104 -129
q0 -72 60.5 -113t150.5 -41z" />
    <glyph glyph-name="aring" unicode="&#xe5;" 
d="M676 977q135 -42 215 -154.5t80 -265.5v-557h-183q37 61 37 119q-37 -64 -119 -103.5t-184 -40.5q-168 0 -276.5 73t-108.5 204q0 295 586 295q67 0 102 -2v12q0 138 -80.5 224.5t-209.5 86.5q-145 0 -289 -137l-88 105q113 122 274 153q-67 57 -67 152q0 85 55 138.5
t143 53.5t143.5 -53.5t55.5 -138.5q0 -107 -86 -164zM563 1255q-45 0 -73.5 -32t-28.5 -82t29 -83.5t73 -33.5q46 0 74.5 33t28.5 84q0 48 -28.5 81t-74.5 33zM496 98q93 0 183 42t146 120v158q-37 2 -108 2q-224 0 -328 -39t-104 -129q0 -72 60.5 -113t150.5 -41z" />
    <glyph glyph-name="ae" unicode="&#xe6;" 
d="M629 360q0 -155 30.5 -204.5t124.5 -49.5q64 0 104.5 33t65.5 105l86 -107q-36 -164 -249 -164q-199 0 -256 160q-35 -88 -80 -123t-121 -35q-129 0 -206 76t-77 201q0 143 101 219t290 76q40 0 60 -2v12q0 134 -13 198t-44.5 88.5t-98.5 24.5q-56 0 -98 -31t-88 -106
l-86 105q78 163 268 163q77 0 135.5 -29.5t81.5 -80.5q46 110 219 110q148 0 219.5 -120.5t71.5 -374.5l-2 -84l-438 -4v-56zM776 877q-74 0 -109 -82.5t-36 -262.5h284q-6 191 -36.5 268t-102.5 77zM502 260v158q-20 2 -58 2q-129 0 -187 -40t-58 -128q0 -75 35.5 -115.5
t87.5 -40.5q54 0 103.5 43t76.5 121z" />
    <glyph glyph-name="ccedilla" unicode="&#xe7;" 
d="M987 281q-26 -136 -136 -218t-271 -88l-23 -100q6 9 40 17t71 8q83 0 129.5 -45t46.5 -123q0 -82 -62 -125t-180 -43q-82 0 -134 22t-95 76l71 72q23 -38 57.5 -53t100.5 -15q73 0 104 17t31 55t-24.5 58t-67.5 20q-32 0 -62 -9.5t-42 -23.5h-97l37 199
q-173 23 -265.5 146t-92.5 327q0 158 47 278.5t147.5 193t243.5 72.5t257.5 -74t152.5 -194l-160 -45q-26 83 -94.5 130.5t-155.5 47.5q-139 0 -207.5 -106.5t-68.5 -302.5q0 -169 70.5 -256.5t205.5 -87.5q107 0 174 49.5t86 144.5z" />
    <glyph glyph-name="egrave" unicode="&#xe8;" 
d="M797 1219l-52 -89l-417 236l78 129zM569 999q206 0 311.5 -129t96.5 -366l-2 -84l-694 -4q0 -137 81.5 -223.5t210.5 -86.5q144 0 289 138l86 -107q-71 -77 -167.5 -120.5t-202.5 -43.5q-192 0 -316.5 125t-124.5 318v88q6 238 115.5 366.5t316.5 128.5zM823 547
q8 158 -60 241.5t-208 83.5q-259 0 -272 -325h540z" />
    <glyph glyph-name="eacute" unicode="&#xe9;" 
d="M797 1366l-418 -236l-51 89l391 276zM569 999q206 0 311.5 -129t96.5 -366l-2 -84l-694 -4q0 -137 81.5 -223.5t210.5 -86.5q144 0 289 138l86 -107q-71 -77 -167.5 -120.5t-202.5 -43.5q-192 0 -316.5 125t-124.5 318v88q6 238 115.5 366.5t316.5 128.5zM823 547
q8 158 -60 241.5t-208 83.5q-259 0 -272 -325h540z" />
    <glyph glyph-name="ecircumflex" unicode="&#xea;" 
d="M553 1272l-154 -182h-123l218 321h114l242 -321h-123zM569 999q206 0 311.5 -129t96.5 -366l-2 -84l-694 -4q0 -137 81.5 -223.5t210.5 -86.5q144 0 289 138l86 -107q-71 -77 -167.5 -120.5t-202.5 -43.5q-192 0 -316.5 125t-124.5 318v88q6 238 115.5 366.5t316.5 128.5
zM823 547q8 158 -60 241.5t-208 83.5q-259 0 -272 -325h540z" />
    <glyph glyph-name="edieresis" unicode="&#xeb;" 
d="M393 1110q-108 0 -108 109q0 51 28 78.5t80 27.5q51 0 78 -27.5t27 -78.5q0 -53 -27 -81t-78 -28zM733 1110q-106 0 -106 109q0 51 27.5 78.5t78.5 27.5q52 0 79.5 -27.5t27.5 -78.5q0 -53 -27.5 -81t-79.5 -28zM569 999q206 0 311.5 -129t96.5 -366l-2 -84l-694 -4
q0 -137 81.5 -223.5t210.5 -86.5q144 0 289 138l86 -107q-71 -77 -167.5 -120.5t-202.5 -43.5q-192 0 -316.5 125t-124.5 318v88q6 238 115.5 366.5t316.5 128.5zM823 547q8 158 -60 241.5t-208 83.5q-259 0 -272 -325h540z" />
    <glyph glyph-name="igrave" unicode="&#xec;" 
d="M797 1219l-52 -89l-417 236l78 129zM934 113q0 -78 10 -113h-741v119h293v735l-199 10v109h340l-2 -854h299v-6z" />
    <glyph glyph-name="iacute" unicode="&#xed;" 
d="M797 1366l-418 -236l-51 89l391 276zM934 113q0 -78 10 -113h-741v119h293v735l-199 10v109h340l-2 -854h299v-6z" />
    <glyph glyph-name="icircumflex" unicode="&#xee;" 
d="M553 1272l-154 -182h-123l218 321h114l242 -321h-123zM934 113q0 -78 10 -113h-741v119h293v735l-199 10v109h340l-2 -854h299v-6z" />
    <glyph glyph-name="idieresis" unicode="&#xef;" 
d="M393 1110q-108 0 -108 109q0 51 28 78.5t80 27.5q51 0 78 -27.5t27 -78.5q0 -53 -27 -81t-78 -28zM733 1110q-106 0 -106 109q0 51 27.5 78.5t78.5 27.5q52 0 79.5 -27.5t27.5 -78.5q0 -53 -27.5 -81t-79.5 -28zM934 113q0 -78 10 -113h-741v119h293v735l-199 10v109h340
l-2 -854h299v-6z" />
    <glyph glyph-name="eth" unicode="&#xf0;" 
d="M690 1210q279 -241 289 -573v-205q0 -76 -19 -142t-50.5 -111.5t-72 -82.5t-82 -59.5t-84 -37.5t-74 -20.5t-54.5 -5.5q-197 0 -322 131t-125 336q0 201 121.5 321t325.5 120q187 0 291 -148v-16v16q-11 212 -256 397l-197 -137l-51 88l145 121q-122 77 -250 123l62 111
q143 -47 291 -142l159 133l78 -129zM543 113q40 0 79.5 11t78 36t68 61t47.5 91t18 120v131q-46 92 -122 142.5t-169 50.5q-128 0 -215.5 -91.5t-87.5 -224.5q0 -137 88 -232t215 -95z" />
    <glyph glyph-name="ntilde" unicode="&#xf1;" 
d="M428 1235q-90 0 -149 -113l-91 68q85 168 246 168q43 0 77 -12.5t55 -30t39.5 -34.5t40.5 -29.5t48 -12.5q92 0 150 111l92 -66q-36 -71 -98 -119.5t-148 -48.5q-43 0 -76.5 12.5t-54.5 30t-39.5 34.5t-41.5 29.5t-50 12.5zM967 113q0 -78 10 -113h-164v543
q0 134 -73.5 222.5t-198.5 88.5q-82 0 -134 -40t-88 -112v-702h-145v973h182q-12 -17 -24 -51t-13 -64v-4v4q33 63 117 102t176 39q91 0 161 -42t111.5 -113.5t62 -157t20.5 -180.5v-393z" />
    <glyph glyph-name="ograve" unicode="&#xf2;" 
d="M328 1366l78 129l391 -276l-52 -89zM561 -27q-203 0 -324.5 142.5t-121.5 380.5q0 233 120 368t326 135q205 0 328 -136.5t123 -366.5q0 -235 -123.5 -379t-327.5 -144zM561 98q135 0 210 105t75 293q0 187 -74.5 287t-210.5 98q-130 -2 -203 -102t-73 -283
q0 -185 73.5 -291.5t202.5 -106.5z" />
    <glyph glyph-name="oacute" unicode="&#xf3;" 
d="M797 1366l-418 -236l-51 89l391 276zM561 -27q-203 0 -324.5 142.5t-121.5 380.5q0 233 120 368t326 135q205 0 328 -136.5t123 -366.5q0 -235 -123.5 -379t-327.5 -144zM561 98q135 0 210 105t75 293q0 187 -74.5 287t-210.5 98q-130 -2 -203 -102t-73 -283
q0 -185 73.5 -291.5t202.5 -106.5z" />
    <glyph glyph-name="ocircumflex" unicode="&#xf4;" 
d="M727 1090l-174 182l-154 -182h-123l218 321h114l242 -321h-123zM561 -27q-203 0 -324.5 142.5t-121.5 380.5q0 233 120 368t326 135q205 0 328 -136.5t123 -366.5q0 -235 -123.5 -379t-327.5 -144zM561 98q135 0 210 105t75 293q0 187 -74.5 287t-210.5 98
q-130 -2 -203 -102t-73 -283q0 -185 73.5 -291.5t202.5 -106.5z" />
    <glyph glyph-name="otilde" unicode="&#xf5;" 
d="M434 1358q43 0 77 -12.5t55 -30t39.5 -34.5t40.5 -29.5t48 -12.5q92 0 150 111l92 -66q-36 -71 -98 -119.5t-148 -48.5q-43 0 -76.5 12.5t-54.5 30t-39.5 34.5t-41.5 29.5t-50 12.5q-90 0 -149 -113l-91 68q85 168 246 168zM561 -27q-203 0 -324.5 142.5t-121.5 380.5
q0 233 120 368t326 135q205 0 328 -136.5t123 -366.5q0 -235 -123.5 -379t-327.5 -144zM561 98q135 0 210 105t75 293q0 187 -74.5 287t-210.5 98q-130 -2 -203 -102t-73 -283q0 -185 73.5 -291.5t202.5 -106.5z" />
    <glyph glyph-name="odieresis" unicode="&#xf6;" 
d="M285 1219q0 51 28 78.5t80 27.5q51 0 78 -27.5t27 -78.5q0 -53 -27 -81t-78 -28q-108 0 -108 109zM627 1219q0 51 27.5 78.5t78.5 27.5q52 0 79.5 -27.5t27.5 -78.5q0 -53 -27.5 -81t-79.5 -28q-106 0 -106 109zM561 -27q-203 0 -324.5 142.5t-121.5 380.5q0 233 120 368
t326 135q205 0 328 -136.5t123 -366.5q0 -235 -123.5 -379t-327.5 -144zM561 98q135 0 210 105t75 293q0 187 -74.5 287t-210.5 98q-130 -2 -203 -102t-73 -283q0 -185 73.5 -291.5t202.5 -106.5z" />
    <glyph glyph-name="divide" unicode="&#xf7;" 
d="M461 825q0 52 27.5 79.5t78.5 27.5q107 0 107 -107q0 -106 -107 -106q-106 0 -106 106zM948 444h-770v119h770v-119zM461 178q0 52 27.5 79.5t78.5 27.5q107 0 107 -107q0 -106 -107 -106q-106 0 -106 106z" />
    <glyph glyph-name="oslash" unicode="&#xf8;" 
d="M838 911q83 -65 128.5 -172t45.5 -243q0 -235 -123.5 -379t-327.5 -144q-90 0 -166 31l-98 -205l-104 68l96 199q-84 66 -129 177t-45 253q0 233 120 368t326 135q92 0 168 -28l96 200l107 -65zM285 496q0 -183 73 -289l316 653q-49 21 -113 21q-130 -2 -203 -102
t-73 -283zM561 98q135 0 210 105t75 293q0 184 -74 284l-317 -657q48 -25 106 -25z" />
    <glyph glyph-name="ugrave" unicode="&#xf9;" 
d="M797 1270l-52 -88l-417 235l78 129zM952 0h-155v139q-40 -75 -119.5 -120.5t-171.5 -45.5q-102 0 -185 65.5t-128.5 175t-45.5 237.5v524h154v-561q0 -126 77.5 -219t194.5 -93q73 0 117.5 41t106.5 142v688h145v-860q0 -78 10 -113z" />
    <glyph glyph-name="uacute" unicode="&#xfa;" 
d="M797 1417l-418 -235l-51 88l391 276zM952 0h-155v139q-40 -75 -119.5 -120.5t-171.5 -45.5q-102 0 -185 65.5t-128.5 175t-45.5 237.5v524h154v-561q0 -126 77.5 -219t194.5 -93q73 0 117.5 41t106.5 142v688h145v-860q0 -78 10 -113z" />
    <glyph glyph-name="ucircumflex" unicode="&#xfb;" 
d="M553 1323l-154 -182h-123l218 321h114l242 -321h-123zM952 0h-155v139q-40 -75 -119.5 -120.5t-171.5 -45.5q-102 0 -185 65.5t-128.5 175t-45.5 237.5v524h154v-561q0 -126 77.5 -219t194.5 -93q73 0 117.5 41t106.5 142v688h145v-860q0 -78 10 -113z" />
    <glyph glyph-name="udieresis" unicode="&#xfc;" 
d="M393 1161q-108 0 -108 109q0 51 28 78.5t80 27.5q51 0 78 -27.5t27 -78.5q0 -53 -27 -81t-78 -28zM733 1161q-106 0 -106 109q0 51 27.5 78.5t78.5 27.5q52 0 79.5 -27.5t27.5 -78.5q0 -53 -27.5 -81t-79.5 -28zM952 0h-155v139q-40 -75 -119.5 -120.5t-171.5 -45.5
q-102 0 -185 65.5t-128.5 175t-45.5 237.5v524h154v-561q0 -126 77.5 -219t194.5 -93q73 0 117.5 41t106.5 142v688h145v-860q0 -78 10 -113z" />
    <glyph glyph-name="yacute" unicode="&#xfd;" 
d="M797 1366l-418 -236l-51 89l391 276zM811 973h162q-39 -158 -162 -490.5t-248 -621.5q-51 -135 -139.5 -187.5t-220.5 -29.5l24 112q147 -29 211 148l60 147h-2q-42 111 -131.5 317t-146.5 356t-73 249h144q8 -52 27 -116t52.5 -149.5t57.5 -144t72.5 -171.5t68.5 -159
q198 510 244 740z" />
    <glyph glyph-name="thorn" unicode="&#xfe;" 
d="M567 999q205 0 318.5 -127.5t113.5 -357.5q0 -244 -122.5 -391.5t-325.5 -147.5q-162 0 -275 99v-426l-145 10v1673h145v-481q55 78 124.5 113.5t166.5 35.5zM551 115q133 0 218 112t85 287q0 163 -78.5 260.5t-208.5 97.5q-92 0 -168 -50t-123 -142v-416
q34 -78 100 -113.5t175 -35.5z" />
    <glyph glyph-name="ydieresis" unicode="&#xff;" 
d="M393 1110q-108 0 -108 109q0 51 28 78.5t80 27.5q51 0 78 -27.5t27 -78.5q0 -53 -27 -81t-78 -28zM733 1110q-106 0 -106 109q0 51 27.5 78.5t78.5 27.5q52 0 79.5 -27.5t27.5 -78.5q0 -53 -27.5 -81t-79.5 -28zM811 973h162q-39 -158 -162 -490.5t-248 -621.5
q-51 -135 -139.5 -187.5t-220.5 -29.5l24 112q147 -29 211 148l60 147h-2q-42 111 -131.5 317t-146.5 356t-73 249h144q8 -52 27 -116t52.5 -149.5t57.5 -144t72.5 -171.5t68.5 -159q198 510 244 740z" />
    <glyph glyph-name="Amacron" unicode="&#x100;" 
d="M799 1587v-102h-498v102h498zM883 0l-109 375h-428l-102 -375h-146l351 1331h202l377 -1331h-145zM377 496h364l-176 608h-22z" />
    <glyph glyph-name="amacron" unicode="&#x101;" 
d="M811 1229v-103h-498v103h498zM528 999q194 0 318.5 -124.5t124.5 -317.5v-557h-183q37 61 37 119q-37 -64 -119 -103.5t-184 -40.5q-168 0 -276.5 73t-108.5 204q0 295 586 295q67 0 102 -2v12q0 138 -80.5 224.5t-209.5 86.5q-145 0 -289 -137l-88 105q72 78 168 120.5
t202 42.5zM496 98q93 0 183 42t146 120v158q-37 2 -108 2q-224 0 -328 -39t-104 -129q0 -72 60.5 -113t150.5 -41z" />
    <glyph glyph-name="Abreve" unicode="&#x102;" 
d="M557 1425q-123 0 -208 78t-85 189h123q0 -73 46.5 -117.5t123.5 -44.5q74 0 116 43t42 119h123q0 -114 -81 -190.5t-200 -76.5zM883 0l-109 375h-428l-102 -375h-146l351 1331h202l377 -1331h-145zM377 496h364l-176 608h-22z" />
    <glyph glyph-name="abreve" unicode="&#x103;" 
d="M567 1067q-121 0 -206 78t-85 188h123q0 -74 46 -118t122 -44q75 0 117.5 43t42.5 119h123q0 -114 -81.5 -190t-201.5 -76zM528 999q194 0 318.5 -124.5t124.5 -317.5v-557h-183q37 61 37 119q-37 -64 -119 -103.5t-184 -40.5q-168 0 -276.5 73t-108.5 204q0 295 586 295
q67 0 102 -2v12q0 138 -80.5 224.5t-209.5 86.5q-145 0 -289 -137l-88 105q72 78 168 120.5t202 42.5zM496 98q93 0 183 42t146 120v158q-37 2 -108 2q-224 0 -328 -39t-104 -129q0 -72 60.5 -113t150.5 -41z" />
    <glyph glyph-name="Aogonek" unicode="&#x104;" 
d="M1053 -209l24 -113q-73 -43 -137 -43q-67 0 -115.5 42t-48.5 110q0 28 16.5 66.5t34 67.5t52.5 83h2l-107 371h-428l-102 -375h-146l351 1331h202l377 -1331h-55q-88 -128 -88 -180q0 -31 26 -46.5t60 -15.5q30 0 82 33zM377 496h364l-176 608h-22z" />
    <glyph glyph-name="aogonek" unicode="&#x105;" 
d="M973 -211l24 -113q-68 -43 -137 -43q-68 0 -116 41t-48 109q0 40 26 91t77 126h-11q37 61 37 119q-37 -64 -119 -103.5t-184 -40.5q-168 0 -276.5 73t-108.5 204q0 295 586 295q67 0 102 -2v12q0 138 -80.5 224.5t-209.5 86.5q-145 0 -289 -137l-88 105q72 78 168 120.5
t202 42.5q194 0 318.5 -124.5t124.5 -317.5v-557h-76q-90 -134 -90 -184q0 -31 26 -45.5t60 -14.5q36 0 82 33zM496 98q93 0 183 42t146 120v158q-37 2 -108 2q-224 0 -328 -39t-104 -129q0 -72 60.5 -113t150.5 -41z" />
    <glyph glyph-name="Cacute" unicode="&#x106;" 
d="M797 1724l-418 -235l-51 88l391 276zM854 305l166 -22q-16 -81 -85 -153t-169 -114.5t-205 -42.5q-222 0 -347.5 182t-125.5 488q0 206 60.5 369.5t168.5 254.5t244 91q137 0 261 -84.5t159 -202.5l-160 -45q-25 84 -99.5 140.5t-160.5 56.5q-141 0 -226 -158t-85 -422
q0 -256 81 -394t230 -138q103 0 191 58.5t102 135.5z" />
    <glyph glyph-name="cacute" unicode="&#x107;" 
d="M797 1366l-418 -236l-51 89l391 276zM821 305l166 -24q-28 -140 -143.5 -223t-282.5 -83q-210 0 -324 126t-114 354q0 158 47 278.5t147.5 193t243.5 72.5t257.5 -74t152.5 -194l-160 -45q-26 83 -94.5 130.5t-155.5 47.5q-139 0 -207.5 -106.5t-68.5 -302.5
q0 -169 70.5 -256.5t205.5 -87.5q107 0 174 49.5t86 144.5z" />
    <glyph glyph-name="Cdotaccent" unicode="&#x10a;" 
d="M455 1612q0 51 28.5 77.5t79.5 26.5t79 -26.5t28 -77.5q0 -54 -28 -81.5t-79 -27.5q-108 0 -108 109zM854 305l166 -22q-16 -81 -85 -153t-169 -114.5t-205 -42.5q-222 0 -347.5 182t-125.5 488q0 206 60.5 369.5t168.5 254.5t244 91q137 0 261 -84.5t159 -202.5
l-160 -45q-25 84 -99.5 140.5t-160.5 56.5q-141 0 -226 -158t-85 -422q0 -256 81 -394t230 -138q103 0 191 58.5t102 135.5z" />
    <glyph glyph-name="cdotaccent" unicode="&#x10b;" 
d="M455 1253q0 51 28.5 78t79.5 27t79 -27t28 -78q0 -108 -107 -108q-108 0 -108 108zM821 305l166 -24q-28 -140 -143.5 -223t-282.5 -83q-210 0 -324 126t-114 354q0 158 47 278.5t147.5 193t243.5 72.5t257.5 -74t152.5 -194l-160 -45q-26 83 -94.5 130.5t-155.5 47.5
q-139 0 -207.5 -106.5t-68.5 -302.5q0 -169 70.5 -256.5t205.5 -87.5q107 0 174 49.5t86 144.5z" />
    <glyph glyph-name="Ccaron" unicode="&#x10c;" 
d="M727 1794h123l-242 -321h-114l-218 321h123l154 -182zM854 305l166 -22q-16 -81 -85 -153t-169 -114.5t-205 -42.5q-222 0 -347.5 182t-125.5 488q0 206 60.5 369.5t168.5 254.5t244 91q137 0 261 -84.5t159 -202.5l-160 -45q-25 84 -99.5 140.5t-160.5 56.5
q-141 0 -226 -158t-85 -422q0 -256 81 -394t230 -138q103 0 191 58.5t102 135.5z" />
    <glyph glyph-name="ccaron" unicode="&#x10d;" 
d="M727 1436h123l-242 -322h-114l-218 322h123l154 -183zM821 305l166 -24q-28 -140 -143.5 -223t-282.5 -83q-210 0 -324 126t-114 354q0 158 47 278.5t147.5 193t243.5 72.5t257.5 -74t152.5 -194l-160 -45q-26 83 -94.5 130.5t-155.5 47.5q-139 0 -207.5 -106.5
t-68.5 -302.5q0 -169 70.5 -256.5t205.5 -87.5q107 0 174 49.5t86 144.5z" />
    <glyph glyph-name="Dcaron" unicode="&#x10e;" 
d="M727 1794h123l-242 -321h-114l-218 321h123l154 -182zM461 1331h-316v-1331h435q417 0 417 670q0 357 -123 509t-413 152zM580 145h-289v1035h256q159 0 234 -123.5t75 -386.5q0 -257 -70 -391t-206 -134z" />
    <glyph glyph-name="dcaron" unicode="&#x10f;" 
d="M608 1114h-114l-218 322h123l154 -183l174 183h123zM993 0h-155v74q-113 -99 -275 -99q-203 0 -325.5 147.5t-122.5 391.5q0 230 113.5 357.5t318.5 127.5q97 0 166.5 -35.5t124.5 -113.5v491l145 -10v-1218q0 -78 10 -113zM563 115q109 0 175 35.5t100 113.5v416
q-47 92 -123 142t-168 50q-130 0 -208.5 -97.5t-78.5 -260.5q0 -175 85 -287t218 -112z" />
    <glyph glyph-name="Dcroat" unicode="&#x110;" 
d="M461 1331q290 0 413 -152t123 -509q0 -670 -417 -670h-435v1331h316zM547 1180h-256v-617h563q0 17 1 52.5t1 54.5q0 263 -75 386.5t-234 123.5zM580 145q100 0 165 73t91 214h-545v-287h289z" />
    <glyph glyph-name="dcroat" unicode="&#x111;" 
d="M993 0h-155v74q-113 -99 -275 -99q-203 0 -325.5 147.5t-122.5 391.5q0 230 113.5 357.5t318.5 127.5q97 0 166.5 -35.5t124.5 -113.5v491l145 -10v-1218q0 -78 10 -113zM547 872q-121 0 -197 -83.5t-90 -225.5h578v117q-47 92 -123 142t-168 50zM563 115q109 0 175 35.5
t100 113.5v168h-574q20 -143 101.5 -230t197.5 -87z" />
    <glyph glyph-name="Emacron" unicode="&#x112;" 
d="M811 1485h-498v102h498v-102zM332 145v484h495v143h-495v414h598v145h-742v-1331h742v145h-598z" />
    <glyph glyph-name="emacron" unicode="&#x113;" 
d="M811 1229v-103h-498v103h498zM569 999q206 0 311.5 -129t96.5 -366l-2 -84l-694 -4q0 -137 81.5 -223.5t210.5 -86.5q144 0 289 138l86 -107q-71 -77 -167.5 -120.5t-202.5 -43.5q-192 0 -316.5 125t-124.5 318v88q6 238 115.5 366.5t316.5 128.5zM823 547
q8 158 -60 241.5t-208 83.5q-259 0 -272 -325h540z" />
    <glyph glyph-name="Edotaccent" unicode="&#x116;" 
d="M455 1612q0 51 28.5 77.5t79.5 26.5t79 -26.5t28 -77.5q0 -54 -28 -81.5t-79 -27.5q-108 0 -108 109zM332 145v484h495v143h-495v414h598v145h-742v-1331h742v145h-598z" />
    <glyph glyph-name="edotaccent" unicode="&#x117;" 
d="M563 1145q-108 0 -108 108q0 51 28.5 78t79.5 27t79 -27t28 -78q0 -108 -107 -108zM569 999q206 0 311.5 -129t96.5 -366l-2 -84l-694 -4q0 -137 81.5 -223.5t210.5 -86.5q144 0 289 138l86 -107q-71 -77 -167.5 -120.5t-202.5 -43.5q-192 0 -316.5 125t-124.5 318v88
q6 238 115.5 366.5t316.5 128.5zM823 547q8 158 -60 241.5t-208 83.5q-259 0 -272 -325h540z" />
    <glyph glyph-name="Eogonek" unicode="&#x118;" 
d="M973 -211l24 -113q-68 -43 -137 -43q-68 0 -116 41t-48 109q0 40 26 91t77 126h-611v1331h742v-145h-598v-414h495v-143h-495v-484h598v-145h-35q-90 -134 -90 -184q0 -31 26 -45.5t60 -14.5q36 0 82 33z" />
    <glyph glyph-name="eogonek" unicode="&#x119;" 
d="M569 999q206 0 311.5 -129t96.5 -366l-2 -84l-694 -4q0 -137 81.5 -223.5t210.5 -86.5q144 0 289 138l86 -107q-46 -49 -96 -82q-80 -123 -80 -172q0 -30 25 -44.5t59 -14.5q35 0 82 33l25 -113q-70 -43 -138 -43q-66 0 -114.5 41.5t-48.5 107.5q0 56 55 144
q-79 -21 -139 -21q-192 0 -316.5 125t-124.5 318v88q6 238 115.5 366.5t316.5 128.5zM823 547q8 158 -60 241.5t-208 83.5q-259 0 -272 -325h540z" />
    <glyph glyph-name="Ecaron" unicode="&#x11a;" 
d="M727 1794h123l-242 -321h-114l-218 321h123l154 -182zM332 145v484h495v143h-495v414h598v145h-742v-1331h742v145h-598z" />
    <glyph glyph-name="ecaron" unicode="&#x11b;" 
d="M608 1114h-114l-218 322h123l154 -183l174 183h123zM569 999q206 0 311.5 -129t96.5 -366l-2 -84l-694 -4q0 -137 81.5 -223.5t210.5 -86.5q144 0 289 138l86 -107q-71 -77 -167.5 -120.5t-202.5 -43.5q-192 0 -316.5 125t-124.5 318v88q6 238 115.5 366.5t316.5 128.5z
M823 547q8 158 -60 241.5t-208 83.5q-259 0 -272 -325h540z" />
    <glyph glyph-name="Gbreve" unicode="&#x11e;" 
d="M727 1692h123q0 -114 -81.5 -190.5t-201.5 -76.5q-121 0 -206 78t-85 189h123q0 -74 46 -118t122 -44q75 0 117.5 43t42.5 119zM1020 477q0 -229 -125 -366.5t-334 -137.5q-226 0 -349.5 174.5t-123.5 495.5q0 327 142.5 521t381.5 194q100 0 192.5 -46.5t194.5 -150.5
l-120 -98q-78 91 -136 125.5t-131 34.5q-175 0 -268.5 -149.5t-93.5 -430.5q0 -261 79.5 -396.5t231.5 -135.5q147 0 235 99t91 267h-312v121h445v-121z" />
    <glyph glyph-name="gbreve" unicode="&#x11f;" 
d="M567 1067q-121 0 -206 78t-85 188h123q0 -74 46 -118t122 -44q75 0 117.5 43t42.5 119h123q0 -114 -81.5 -190t-201.5 -76zM825 973h156q-10 -35 -10 -113v-860q0 -140 -111 -223.5t-297 -83.5q-135 0 -251.5 43.5t-170.5 113.5l88 105q112 -131 338 -131q258 0 258 176
v205q-139 -111 -290 -111q-198 0 -322.5 129.5t-124.5 335.5q0 201 121.5 320.5t325.5 119.5q186 0 290 -145v119zM535 231q95 0 172.5 44t117.5 120v287q-47 92 -122.5 142t-167.5 50q-129 0 -217.5 -91t-88.5 -224q0 -137 89.5 -232.5t216.5 -95.5z" />
    <glyph glyph-name="Gdotaccent" unicode="&#x120;" 
d="M455 1612q0 51 28.5 77.5t79.5 26.5t79 -26.5t28 -77.5q0 -54 -28 -81.5t-79 -27.5q-108 0 -108 109zM1020 477q0 -229 -125 -366.5t-334 -137.5q-226 0 -349.5 174.5t-123.5 495.5q0 327 142.5 521t381.5 194q100 0 192.5 -46.5t194.5 -150.5l-120 -98
q-78 91 -136 125.5t-131 34.5q-175 0 -268.5 -149.5t-93.5 -430.5q0 -261 79.5 -396.5t231.5 -135.5q147 0 235 99t91 267h-312v121h445v-121z" />
    <glyph glyph-name="gdotaccent" unicode="&#x121;" 
d="M563 1145q-108 0 -108 108q0 51 28.5 78t79.5 27t79 -27t28 -78q0 -108 -107 -108zM825 973h156q-10 -35 -10 -113v-860q0 -140 -111 -223.5t-297 -83.5q-135 0 -251.5 43.5t-170.5 113.5l88 105q112 -131 338 -131q258 0 258 176v205q-139 -111 -290 -111
q-198 0 -322.5 129.5t-124.5 335.5q0 201 121.5 320.5t325.5 119.5q186 0 290 -145v119zM535 231q95 0 172.5 44t117.5 120v287q-47 92 -122.5 142t-167.5 50q-129 0 -217.5 -91t-88.5 -224q0 -137 89.5 -232.5t216.5 -95.5z" />
    <glyph glyph-name="Gcommaaccent" unicode="&#x122;" 
d="M575 598h445v-121q0 -229 -125 -366.5t-334 -137.5q-226 0 -349.5 174.5t-123.5 495.5q0 327 142.5 521t381.5 194q100 0 192.5 -46.5t194.5 -150.5l-120 -98q-78 91 -136 125.5t-131 34.5q-175 0 -268.5 -149.5t-93.5 -430.5q0 -261 79.5 -396.5t231.5 -135.5
q147 0 235 99t91 267h-312v121zM596 -55q40 0 62 -22t22 -62q0 -31 -6 -41q-19 -57 -79 -141t-89 -103l-66 33q10 16 39.5 77.5t48.5 112.5q-18 21 -18 62q0 40 22.5 62t63.5 22z" />
    <glyph glyph-name="gcommaaccent" unicode="&#x123;" 
d="M467 1180q-1 53 47.5 157t77.5 131l70 -20q-35 -104 -54 -203q22 -19 31 -55q6 -40 -13 -66t-59 -34q-83 -13 -98 71q-2 6 -2 19zM825 973h156q-10 -35 -10 -113v-860q0 -140 -111 -223.5t-297 -83.5q-135 0 -251.5 43.5t-170.5 113.5l88 105q112 -131 338 -131
q258 0 258 176v205q-139 -111 -290 -111q-198 0 -322.5 129.5t-124.5 335.5q0 201 121.5 320.5t325.5 119.5q186 0 290 -145v119zM535 231q95 0 172.5 44t117.5 120v287q-47 92 -122.5 142t-167.5 50q-129 0 -217.5 -91t-88.5 -224q0 -137 89.5 -232.5t216.5 -95.5z" />
    <glyph glyph-name="Hbar" unicode="&#x126;" 
d="M1085 332h-100v-219q0 -78 10 -113h-155v332h-559v-332h-146v332h-92v119h92v880h146v-631h559v631h145v-880h100v-119zM281 451h559v129h-559v-129z" />
    <glyph glyph-name="hbar" unicode="&#x127;" 
d="M963 113q0 -78 10 -113h-166v432h-494v-432h-145v1341l145 -10v-473q35 63 118.5 102t176.5 39q91 0 161 -42t111.5 -113.5t62 -157t20.5 -180.5v-393zM313 702v-139h494q-6 126 -78.5 208.5t-191.5 82.5q-83 0 -135.5 -40t-88.5 -112z" />
    <glyph glyph-name="Imacron" unicode="&#x12a;" 
d="M811 1587v-102h-498v102h498zM926 113q0 -78 10 -113h-741v119h294v1093h-249v119h632v-119h-237v-1093h291v-6z" />
    <glyph glyph-name="imacron" unicode="&#x12b;" 
d="M811 1229v-103h-498v103h498zM934 113q0 -78 10 -113h-741v119h293v735l-199 10v109h340l-2 -854h299v-6z" />
    <glyph glyph-name="Iogonek" unicode="&#x12e;" 
d="M973 -211l24 -113q-68 -43 -137 -43q-68 0 -116 41t-48 109q0 40 26 91t77 126h-604v119h294v1093h-249v119h632v-119h-237v-1093h291v-6q0 -78 10 -113h-41q-90 -134 -90 -184q0 -31 26 -45.5t60 -14.5q36 0 82 33z" />
    <glyph glyph-name="iogonek" unicode="&#x12f;" 
d="M563 1145q-108 0 -108 108q0 51 28.5 78t79.5 27t79 -27t28 -78q0 -108 -107 -108zM973 -211l24 -113q-68 -43 -137 -43q-68 0 -116 41t-48 109q0 40 26 91t77 126h-596v119h293v735l-199 10v109h340l-2 -854h299v-6q0 -78 10 -113h-49q-90 -134 -90 -184q0 -31 26 -45.5
t60 -14.5q36 0 82 33z" />
    <glyph glyph-name="Idotaccent" unicode="&#x130;" 
d="M563 1503q-108 0 -108 109q0 51 28.5 77.5t79.5 26.5t79 -26.5t28 -77.5q0 -54 -28 -81.5t-79 -27.5zM926 113q0 -78 10 -113h-741v119h294v1093h-249v119h632v-119h-237v-1093h291v-6z" />
    <glyph glyph-name="dotlessi" unicode="&#x131;" 
d="M934 113q0 -78 10 -113h-741v119h293v735l-199 10v109h340l-2 -854h299v-6z" />
    <glyph glyph-name="Kcommaaccent" unicode="&#x136;" 
d="M453 649l604 -649h-217l-488 526l-53 -69v-457h-145v1333l145 -2v-629l514 629l195 2zM596 -55q40 0 62 -22t22 -62q0 -31 -6 -41q-19 -57 -79 -141t-89 -103l-66 33q10 16 39.5 77.5t48.5 112.5q-18 21 -18 62q0 40 22.5 62t63.5 22z" />
    <glyph glyph-name="kcommaaccent" unicode="&#x137;" 
d="M508 535l555 -535h-234l-444 430l-45 -41v-389h-145v1341l145 -10v-747l451 389l208 -17zM596 -55q40 0 62 -22t22 -62q0 -31 -6 -41q-19 -57 -79 -141t-89 -103l-66 33q10 16 39.5 77.5t48.5 112.5q-18 21 -18 62q0 40 22.5 62t63.5 22z" />
    <glyph glyph-name="Lacute" unicode="&#x139;" 
d="M797 1724l-418 -235l-51 88l391 276zM946 0h-764v1331h146v-1212h618v-119z" />
    <glyph glyph-name="lacute" unicode="&#x13a;" 
d="M797 1724l-418 -235l-51 88l391 276zM926 113q0 -78 10 -113h-739v119h295v1093l-201 11v108h346v-1212h289v-6z" />
    <glyph glyph-name="Lcommaaccent" unicode="&#x13b;" 
d="M328 119h618v-119h-764v1331h146v-1212zM596 -55q40 0 62 -22t22 -62q0 -31 -6 -41q-19 -57 -79 -141t-89 -103l-66 33q10 16 39.5 77.5t48.5 112.5q-18 21 -18 62q0 40 22.5 62t63.5 22z" />
    <glyph glyph-name="lcommaaccent" unicode="&#x13c;" 
d="M926 113q0 -78 10 -113h-739v119h295v1093l-201 11v108h346v-1212h289v-6zM596 -55q40 0 62 -22t22 -62q0 -31 -6 -41q-19 -57 -79 -141t-89 -103l-66 33q10 16 39.5 77.5t48.5 112.5q-18 21 -18 62q0 40 22.5 62t63.5 22z" />
    <glyph glyph-name="Lcaron" unicode="&#x13d;" 
d="M727 1794h123l-242 -321h-114l-218 321h123l154 -182zM946 0h-764v1331h146v-1212h618v-119z" />
    <glyph glyph-name="lcaron" unicode="&#x13e;" 
d="M608 1473h-114l-218 321h123l154 -182l174 182h123zM926 113q0 -78 10 -113h-739v119h295v1093l-201 11v108h346v-1212h289v-6z" />
    <glyph glyph-name="Lslash" unicode="&#x141;" 
d="M328 119h618v-119h-764v166l-8 2l8 16v1147h146v-872l465 876l106 -63l-571 -1073v-80z" />
    <glyph glyph-name="lslash" unicode="&#x142;" 
d="M926 113q0 -78 10 -113h-739v119h295v366l-195 -366l-111 51l306 575v467l-201 11v108h346v-313l168 319l106 -63l-274 -516v-639h289v-6z" />
    <glyph glyph-name="Nacute" unicode="&#x143;" 
d="M797 1724l-418 -235l-51 88l391 276zM831 0h146v1331h-146v-983l-532 983h-149v-1331h145v1008z" />
    <glyph glyph-name="nacute" unicode="&#x144;" 
d="M797 1366l-418 -236l-51 89l391 276zM967 113q0 -78 10 -113h-164v543q0 134 -73.5 222.5t-198.5 88.5q-82 0 -134 -40t-88 -112v-702h-145v973h182q-12 -17 -24 -51t-13 -64v-4v4q33 63 117 102t176 39q91 0 161 -42t111.5 -113.5t62 -157t20.5 -180.5v-393z" />
    <glyph glyph-name="Ncommaaccent" unicode="&#x145;" 
d="M831 1331h146v-1331h-146l-536 1008v-1008h-145v1331h149l532 -983v983zM596 -55q40 0 62 -22t22 -62q0 -31 -6 -41q-19 -57 -79 -141t-89 -103l-66 33q10 16 39.5 77.5t48.5 112.5q-18 21 -18 62q0 40 22.5 62t63.5 22z" />
    <glyph glyph-name="ncommaaccent" unicode="&#x146;" 
d="M967 113q0 -78 10 -113h-164v543q0 134 -73.5 222.5t-198.5 88.5q-82 0 -134 -40t-88 -112v-702h-145v973h182q-12 -17 -24 -51t-13 -64v-4v4q33 63 117 102t176 39q91 0 161 -42t111.5 -113.5t62 -157t20.5 -180.5v-393zM596 -55q40 0 62 -22t22 -62q0 -31 -6 -41
q-19 -57 -79 -141t-89 -103l-66 33q10 16 39.5 77.5t48.5 112.5q-18 21 -18 62q0 40 22.5 62t63.5 22z" />
    <glyph glyph-name="Ncaron" unicode="&#x147;" 
d="M727 1794h123l-242 -321h-114l-218 321h123l154 -182zM831 0h146v1331h-146v-983l-532 983h-149v-1331h145v1008z" />
    <glyph glyph-name="ncaron" unicode="&#x148;" 
d="M608 1114h-114l-218 322h123l154 -183l174 183h123zM967 113q0 -78 10 -113h-164v543q0 134 -73.5 222.5t-198.5 88.5q-82 0 -134 -40t-88 -112v-702h-145v973h182q-12 -17 -24 -51t-13 -64v-4v4q33 63 117 102t176 39q91 0 161 -42t111.5 -113.5t62 -157t20.5 -180.5
v-393z" />
    <glyph glyph-name="Eng" unicode="&#x14a;" 
d="M831 1331h146v-1450q0 -104 -80 -176t-186 -72q-57 0 -103.5 26.5t-99.5 86.5l74 92q56 -74 135 -74q114 0 114 152v84l-536 1008v-1008h-145v1331h149l532 -983v983z" />
    <glyph glyph-name="eng" unicode="&#x14b;" 
d="M612 999q91 0 161 -42t111.5 -113.5t62 -157t20.5 -180.5v-625q-1 -104 -80.5 -176t-186.5 -72q-55 0 -102 26.5t-98 86.5l73 92q56 -78 136 -78q54 0 79 38t25 116v629q0 134 -73.5 222.5t-198.5 88.5q-82 0 -134 -40t-88 -112v-702h-145v973h182q-12 -17 -24 -51
t-13 -64q33 63 117 102t176 39z" />
    <glyph glyph-name="Omacron" unicode="&#x14c;" 
d="M811 1485h-498v102h498v-102zM561 -27q-225 0 -346 179.5t-121 515.5q0 333 120.5 511.5t346.5 178.5q221 0 346 -183t125 -507q0 -331 -124 -513t-347 -182zM561 113q158 0 231.5 131t73.5 424q0 302 -73 435.5t-232 131.5q-149 -2 -223 -139.5t-74 -427.5
q0 -289 73 -422t224 -133z" />
    <glyph glyph-name="omacron" unicode="&#x14d;" 
d="M811 1126h-498v103h498v-103zM561 -27q-203 0 -324.5 142.5t-121.5 380.5q0 233 120 368t326 135q205 0 328 -136.5t123 -366.5q0 -235 -123.5 -379t-327.5 -144zM561 98q135 0 210 105t75 293q0 187 -74.5 287t-210.5 98q-130 -2 -203 -102t-73 -283q0 -185 73.5 -291.5
t202.5 -106.5z" />
    <glyph glyph-name="Ohungarumlaut" unicode="&#x150;" 
d="M584 1692l-201 -236h-96l178 268zM840 1692l-201 -236h-96l178 268zM561 -27q-225 0 -346 179.5t-121 515.5q0 333 120.5 511.5t346.5 178.5q221 0 346 -183t125 -507q0 -331 -124 -513t-347 -182zM561 113q158 0 231.5 131t73.5 424q0 302 -73 435.5t-232 131.5
q-149 -2 -223 -139.5t-74 -427.5q0 -289 73 -422t224 -133z" />
    <glyph glyph-name="ohungarumlaut" unicode="&#x151;" 
d="M584 1333l-201 -235h-96l178 268zM840 1333l-201 -235h-96l178 268zM561 -27q-203 0 -324.5 142.5t-121.5 380.5q0 233 120 368t326 135q205 0 328 -136.5t123 -366.5q0 -235 -123.5 -379t-327.5 -144zM561 98q135 0 210 105t75 293q0 187 -74.5 287t-210.5 98
q-130 -2 -203 -102t-73 -283q0 -185 73.5 -291.5t202.5 -106.5z" />
    <glyph glyph-name="OE" unicode="&#x152;" 
d="M997 1186h-276q76 -145 88 -414h131v-143h-129q-6 -315 -96 -484h282v-145l-419 2q-56 -29 -119 -29q-173 0 -269 180.5t-96 514.5q0 345 85 517.5t280 172.5q69 0 125 -27h413v-145zM459 113q103 0 144.5 127.5t41.5 427.5q0 131 -4 216.5t-15.5 158t-32 112t-53.5 60.5
t-81 20q-116 -1 -155.5 -129t-39.5 -438q0 -289 48 -422t147 -133z" />
    <glyph glyph-name="oe" unicode="&#x153;" 
d="M588 854q51 145 221 145q138 0 196.5 -112.5t59.5 -382.5v-84l-406 -4v-56q0 -108 13 -160.5t44.5 -73t96.5 -20.5q67 0 103 21t71 80l82 -86q-65 -148 -250 -148q-93 0 -157.5 34t-83.5 91q-93 -125 -230 -125q-135 0 -214 139t-79 375t79 374t214 138q73 0 143.5 -42
t96.5 -103zM348 98q78 0 130 114.5t52 283.5q0 168 -51.5 281.5t-126.5 113.5q-69 0 -106 -106t-37 -298q0 -183 36.5 -286t102.5 -103zM805 877q-75 0 -110 -82t-36 -263h265q-6 208 -29.5 276.5t-89.5 68.5z" />
    <glyph glyph-name="Racute" unicode="&#x154;" 
d="M797 1724l-418 -235l-51 88l391 276zM999 0h-170q0 26 -17 69.5t-50 103t-65 113t-78 130t-72 121.5q-77 -5 -94 -5h-154v-532h-145v1331h401q189 0 303.5 -110.5t114.5 -294.5q0 -285 -271 -363q27 -48 119.5 -199t135 -236t42.5 -128zM299 678h238q297 0 297 248
q0 124 -72.5 192t-206.5 68h-256v-508z" />
    <glyph glyph-name="racute" unicode="&#x155;" 
d="M797 1366l-418 -236l-51 89l391 276zM958 813q-86 42 -165.5 37t-140.5 -52.5t-77 -119.5v-559h289v-6q0 -78 10 -113h-741v119h301v735l-198 10v109h358q-8 -13 -17.5 -54.5t-9.5 -60.5q74 141 297 141q69 0 185 -45z" />
    <glyph glyph-name="Rcommaaccent" unicode="&#x156;" 
d="M702 563q27 -48 119.5 -199t135 -236t42.5 -128h-170q0 26 -17 69.5t-50 103t-65 113t-78 130t-72 121.5q-77 -5 -94 -5h-154v-532h-145v1331h401q189 0 303.5 -110.5t114.5 -294.5q0 -285 -271 -363zM299 678h238q297 0 297 248q0 124 -72.5 192t-206.5 68h-256v-508z
M596 -55q40 0 62 -22t22 -62q0 -31 -6 -41q-19 -57 -79 -141t-89 -103l-66 33q10 16 39.5 77.5t48.5 112.5q-18 21 -18 62q0 40 22.5 62t63.5 22z" />
    <glyph glyph-name="rcommaaccent" unicode="&#x157;" 
d="M958 813q-86 42 -165.5 37t-140.5 -52.5t-77 -119.5v-559h289v-6q0 -78 10 -113h-741v119h301v735l-198 10v109h358q-8 -13 -17.5 -54.5t-9.5 -60.5q74 141 297 141q69 0 185 -45zM596 -55q40 0 62 -22t22 -62q0 -31 -6 -41q-19 -57 -79 -141t-89 -103l-66 33
q10 16 39.5 77.5t48.5 112.5q-18 21 -18 62q0 40 22.5 62t63.5 22z" />
    <glyph glyph-name="Rcaron" unicode="&#x158;" 
d="M608 1473h-114l-218 321h123l154 -182l174 182h123zM999 0h-170q0 26 -17 69.5t-50 103t-65 113t-78 130t-72 121.5q-77 -5 -94 -5h-154v-532h-145v1331h401q189 0 303.5 -110.5t114.5 -294.5q0 -285 -271 -363q27 -48 119.5 -199t135 -236t42.5 -128zM299 678h238
q297 0 297 248q0 124 -72.5 192t-206.5 68h-256v-508z" />
    <glyph glyph-name="rcaron" unicode="&#x159;" 
d="M608 1114h-114l-218 322h123l154 -183l174 183h123zM958 813q-86 42 -165.5 37t-140.5 -52.5t-77 -119.5v-559h289v-6q0 -78 10 -113h-741v119h301v735l-198 10v109h358q-8 -13 -17.5 -54.5t-9.5 -60.5q74 141 297 141q69 0 185 -45z" />
    <glyph glyph-name="Sacute" unicode="&#x15a;" 
d="M797 1724l-418 -235l-51 88l391 276zM606 741q199 -38 289 -122.5t90 -256.5q0 -192 -123.5 -290.5t-341.5 -98.5q-126 0 -234.5 48.5t-146.5 121.5l101 95q91 -134 297 -134q306 0 309 244q3 119 -60 173.5t-198 78.5q-204 36 -322.5 138.5t-118.5 258.5
q0 157 113.5 258t290.5 101q125 0 228 -46.5t157 -127.5l-96 -90q-65 74 -124.5 102.5t-146.5 28.5q-135 0 -209.5 -57.5t-74.5 -161.5q0 -199 321 -263z" />
    <glyph glyph-name="sacute" unicode="&#x15b;" 
d="M821 1366l-418 -236l-51 89l389 276zM621 557q185 -35 265.5 -97.5t80.5 -172.5q0 -138 -107 -226t-282 -88q-254 0 -408 205l98 101q148 -175 312 -175q100 0 174.5 54.5t74.5 126.5q0 50 -47 77t-174 52q-210 43 -303.5 113t-93.5 184q0 130 104 209t273 79
q123 0 217.5 -40.5t148.5 -116.5l-92 -92q-60 63 -119 89.5t-139 26.5q-112 0 -184 -42.5t-72 -108.5q0 -57 65.5 -94t207.5 -64z" />
    <glyph glyph-name="Scedilla" unicode="&#x15e;" 
d="M985 362q0 -178 -107 -275.5t-298 -111.5l-23 -100q6 9 40 17t71 8q83 0 129.5 -45t46.5 -123q0 -82 -62 -125t-180 -43q-82 0 -134 22t-95 76l71 72q23 -38 57.5 -53t100.5 -15q73 0 104 17t31 55t-24.5 58t-67.5 20q-32 0 -62 -9.5t-42 -23.5h-97l35 192
q-113 7 -208 54.5t-132 113.5l101 95q91 -134 297 -134q306 0 309 244q3 119 -60 173.5t-198 78.5q-204 36 -322.5 138.5t-118.5 258.5q0 157 113.5 258t290.5 101q125 0 228 -46.5t157 -127.5l-96 -90q-65 74 -124.5 102.5t-146.5 28.5q-135 0 -209.5 -57.5t-74.5 -161.5
q0 -199 321 -263q199 -38 289 -122.5t90 -256.5z" />
    <glyph glyph-name="scedilla" unicode="&#x15f;" 
d="M967 287q0 -134 -100.5 -221t-268.5 -93l-25 -98q6 9 40 17t71 8q83 0 130.5 -45t47.5 -123q0 -82 -62.5 -125t-181.5 -43q-82 0 -134 22t-95 76l72 72q25 -39 58.5 -53.5t98.5 -14.5q73 0 104.5 17t31.5 55q0 78 -92 78q-32 0 -61.5 -9.5t-43.5 -23.5h-96l37 197
q-197 26 -328 198l98 101q148 -175 312 -175q100 0 174.5 54.5t74.5 126.5q0 50 -47 77t-174 52q-210 43 -303.5 113t-93.5 184q0 130 104 209t273 79q123 0 217.5 -40.5t148.5 -116.5l-92 -92q-60 63 -119 89.5t-139 26.5q-112 0 -184 -42.5t-72 -108.5q0 -57 65.5 -94
t207.5 -64q185 -35 265.5 -97.5t80.5 -172.5z" />
    <glyph glyph-name="Scaron" unicode="&#x160;" 
d="M727 1794h123l-242 -321h-114l-218 321h123l154 -182zM606 741q199 -38 289 -122.5t90 -256.5q0 -192 -123.5 -290.5t-341.5 -98.5q-126 0 -234.5 48.5t-146.5 121.5l101 95q91 -134 297 -134q306 0 309 244q3 119 -60 173.5t-198 78.5q-204 36 -322.5 138.5
t-118.5 258.5q0 157 113.5 258t290.5 101q125 0 228 -46.5t157 -127.5l-96 -90q-65 74 -124.5 102.5t-146.5 28.5q-135 0 -209.5 -57.5t-74.5 -161.5q0 -199 321 -263z" />
    <glyph glyph-name="scaron" unicode="&#x161;" 
d="M752 1436h122l-241 -322h-117l-215 322h123l154 -183zM621 557q185 -35 265.5 -97.5t80.5 -172.5q0 -138 -107 -226t-282 -88q-254 0 -408 205l98 101q148 -175 312 -175q100 0 174.5 54.5t74.5 126.5q0 50 -47 77t-174 52q-210 43 -303.5 113t-93.5 184q0 130 104 209
t273 79q123 0 217.5 -40.5t148.5 -116.5l-92 -92q-60 63 -119 89.5t-139 26.5q-112 0 -184 -42.5t-72 -108.5q0 -57 65.5 -94t207.5 -64z" />
    <glyph glyph-name="uni0162" unicode="&#x162;" 
d="M629 0h-43l-29 -125q6 9 40 17t71 8q83 0 129.5 -45t46.5 -123q0 -82 -62 -125t-180 -43q-82 0 -134 22t-95 76l71 72q23 -38 57.5 -53t100.5 -15q73 0 104 17t31 55t-24.5 58t-67.5 20q-32 0 -62 -9.5t-42 -23.5h-97l41 217v1212h-356v119h868v-119h-368v-1212z" />
    <glyph glyph-name="uni0163" unicode="&#x163;" 
d="M666 -27h-21l-24 -98q6 9 39.5 17t70.5 8q84 0 131 -45t47 -123q0 -82 -62 -125t-179 -43q-83 0 -135.5 22t-96.5 76l72 72q25 -39 59 -53.5t101 -14.5q72 0 103.5 17t31.5 55t-24.5 58t-67.5 20q-32 0 -62.5 -9.5t-42.5 -23.5h-98l39 211q-97 35 -158 124t-61 214v510
h-158v131h158v368l145 -10v-358h414v-131h-414v-510q0 -102 56 -158.5t135 -56.5q62 0 116.5 36t85.5 107l131 -59q-53 -114 -141.5 -171t-189.5 -57z" />
    <glyph glyph-name="Tcaron" unicode="&#x164;" 
d="M727 1794h123l-242 -321h-114l-218 321h123l154 -182zM997 1331h-868v-119h356v-1212h144v1212h368v119z" />
    <glyph glyph-name="tcaron" unicode="&#x165;" 
d="M541 1473h-117l-215 321h123l153 -182l174 182h123zM866 260l131 -59q-53 -114 -141.5 -171t-189.5 -57q-88 0 -164 41.5t-125 125t-49 192.5v510h-158v131h158v368l145 -10v-358h414v-131h-414v-510q0 -102 56 -158.5t135 -56.5q62 0 116.5 36t85.5 107z" />
    <glyph glyph-name="Tbar" unicode="&#x166;" 
d="M997 1212h-368v-649h295v-131h-295v-432h-144v432h-280v131h280v649h-356v119h868v-119z" />
    <glyph glyph-name="tbar" unicode="&#x167;" 
d="M866 260l131 -59q-53 -114 -141.5 -171t-189.5 -57q-88 0 -164 41.5t-125 125t-49 192.5v100h-170v131h170v279h-158v131h158v368l145 -10v-358h414v-131h-414v-279h404v-131h-404v-100q0 -102 56 -158.5t135 -56.5q62 0 116.5 36t85.5 107z" />
    <glyph glyph-name="Umacron" unicode="&#x16a;" 
d="M811 1485h-498v102h498v-102zM844 356q0 -125 -76.5 -193.5t-200.5 -68.5q-127 0 -205.5 68.5t-78.5 193.5v975h-146v-975q0 -176 111 -279.5t319 -103.5q203 0 311.5 103.5t108.5 279.5v975h-143v-975z" />
    <glyph glyph-name="umacron" unicode="&#x16b;" 
d="M811 1280v-102h-498v102h498zM952 0h-155v139q-40 -75 -119.5 -120.5t-171.5 -45.5q-102 0 -185 65.5t-128.5 175t-45.5 237.5v524h154v-561q0 -126 77.5 -219t194.5 -93q73 0 117.5 41t106.5 142v688h145v-860q0 -78 10 -113z" />
    <glyph glyph-name="Uring" unicode="&#x16e;" 
d="M563 1305q-87 0 -142.5 53.5t-55.5 140.5q0 85 55 139t143 54t143.5 -54t55.5 -139t-56.5 -139.5t-142.5 -54.5zM563 1382q46 0 74.5 33t28.5 84q0 49 -28.5 82t-74.5 33q-45 0 -73.5 -32.5t-28.5 -82.5t29 -83.5t73 -33.5zM844 356q0 -125 -76.5 -193.5t-200.5 -68.5
q-127 0 -205.5 68.5t-78.5 193.5v975h-146v-975q0 -176 111 -279.5t319 -103.5q203 0 311.5 103.5t108.5 279.5v975h-143v-975z" />
    <glyph glyph-name="uring" unicode="&#x16f;" 
d="M563 997q-87 0 -142.5 54t-55.5 141q0 85 55 138.5t143 53.5t143.5 -53.5t55.5 -138.5q0 -86 -56.5 -140.5t-142.5 -54.5zM563 1307q-45 0 -73.5 -32.5t-28.5 -82.5t29 -83.5t73 -33.5q46 0 74.5 33t28.5 84q0 49 -28.5 82t-74.5 33zM952 0h-155v139
q-40 -75 -119.5 -120.5t-171.5 -45.5q-102 0 -185 65.5t-128.5 175t-45.5 237.5v524h154v-561q0 -126 77.5 -219t194.5 -93q73 0 117.5 41t106.5 142v688h145v-860q0 -78 10 -113z" />
    <glyph glyph-name="Uhungarumlaut" unicode="&#x170;" 
d="M584 1692l-201 -236h-96l178 268zM840 1692l-201 -236h-96l178 268zM844 356q0 -125 -76.5 -193.5t-200.5 -68.5q-127 0 -205.5 68.5t-78.5 193.5v975h-146v-975q0 -176 111 -279.5t319 -103.5q203 0 311.5 103.5t108.5 279.5v975h-143v-975z" />
    <glyph glyph-name="uhungarumlaut" unicode="&#x171;" 
d="M584 1384l-201 -235h-96l178 268zM639 1149h-96l178 268l119 -33zM952 0h-155v139q-40 -75 -119.5 -120.5t-171.5 -45.5q-102 0 -185 65.5t-128.5 175t-45.5 237.5v524h154v-561q0 -126 77.5 -219t194.5 -93q73 0 117.5 41t106.5 142v688h145v-860q0 -78 10 -113z" />
    <glyph glyph-name="Uogonek" unicode="&#x172;" 
d="M844 356v975h143v-975q0 -176 -108.5 -279.5t-311.5 -103.5q-208 0 -319 103.5t-111 279.5v975h146v-975q0 -125 78.5 -193.5t205.5 -68.5q124 0 200.5 68.5t76.5 193.5zM997 -324q-68 -43 -137 -43q-68 0 -116 41t-48 109q0 40 26 91t77 126h96q-90 -134 -90 -184
q0 -31 26 -45.5t60 -14.5q36 0 82 33z" />
    <glyph glyph-name="uogonek" unicode="&#x173;" 
d="M973 -211l24 -113q-68 -43 -137 -43q-68 0 -116 41t-48 109q0 40 26 91t77 126h-2v139q-40 -75 -119.5 -120.5t-171.5 -45.5q-102 0 -185 65.5t-128.5 175t-45.5 237.5v524h154v-561q0 -126 77.5 -219t194.5 -93q73 0 117.5 41t106.5 142v688h145v-860q0 -78 10 -113h-57
q-90 -134 -90 -184q0 -31 26 -45.5t60 -14.5q36 0 82 33z" />
    <glyph glyph-name="Wcircumflex" unicode="&#x174;" 
d="M727 1448l-174 182l-154 -182h-123l218 321h114l242 -321h-123zM903 1331h146q0 -269 -52.5 -680t-119.5 -651h-138q-142 365 -184 594q-48 -221 -197 -594h-139q-56 228 -97 633.5t-46 697.5h145q0 -257 23.5 -591.5t66.5 -501.5q126 335 170 546h148q9 -50 21.5 -102
t35 -121t33.5 -100.5t43 -120.5t37 -102q47 169 75.5 508t28.5 585z" />
    <glyph glyph-name="wcircumflex" unicode="&#x175;" 
d="M727 1090l-174 182l-154 -182h-123l218 321h114l242 -321h-123zM885 999h145q0 -126 -13.5 -251t-44.5 -266.5t-54 -230t-68 -251.5h-139q-43 113 -65.5 176.5t-48.5 155t-42 176.5q-18 -85 -47.5 -177t-53 -154t-69.5 -177h-137q-72 292 -111.5 525.5t-42.5 473.5h146
q0 -378 98 -761q58 153 92 263.5t57 231.5h148q34 -208 137 -495q113 409 113 761z" />
    <glyph glyph-name="Ycircumflex" unicode="&#x176;" 
d="M553 1630l-154 -182h-123l218 321h114l242 -321h-123zM922 1331h153l-454 -778v-553h-146v553l-426 778h154l348 -610z" />
    <glyph glyph-name="ycircumflex" unicode="&#x177;" 
d="M553 1272l-154 -182h-123l218 321h114l242 -321h-123zM811 973h162q-39 -158 -162 -490.5t-248 -621.5q-51 -135 -139.5 -187.5t-220.5 -29.5l24 112q147 -29 211 148l60 147h-2q-42 111 -131.5 317t-146.5 356t-73 249h144q8 -52 27 -116t52.5 -149.5t57.5 -144
t72.5 -171.5t68.5 -159q198 510 244 740z" />
    <glyph glyph-name="Ydieresis" unicode="&#x178;" 
d="M393 1468q-108 0 -108 109q0 51 28 78.5t80 27.5q51 0 78 -27.5t27 -78.5q0 -53 -27 -81t-78 -28zM733 1468q-106 0 -106 109q0 51 27.5 78.5t78.5 27.5q52 0 79.5 -27.5t27.5 -78.5q0 -53 -27.5 -81t-79.5 -28zM922 1331h153l-454 -778v-553h-146v553l-426 778h154
l348 -610z" />
    <glyph glyph-name="Zacute" unicode="&#x179;" 
d="M797 1724l-418 -235l-51 88l391 276zM293 137h725v-137h-912v137l297 451h-198v131h282l314 475h-643v137h827v-137l-311 -475h248v-131h-334z" />
    <glyph glyph-name="zacute" unicode="&#x17a;" 
d="M797 1366l-418 -236l-51 89l391 276zM924 113q0 -78 10 -113h-741v119l573 735h-551v119h700v-119l-571 -735h580v-6z" />
    <glyph glyph-name="Zdotaccent" unicode="&#x17b;" 
d="M563 1503q-108 0 -108 109q0 51 28.5 77.5t79.5 26.5t79 -26.5t28 -77.5q0 -54 -28 -81.5t-79 -27.5zM293 137h725v-137h-912v137l297 451h-198v131h282l314 475h-643v137h827v-137l-311 -475h248v-131h-334z" />
    <glyph glyph-name="zdotaccent" unicode="&#x17c;" 
d="M563 1145q-108 0 -108 108q0 51 28.5 78t79.5 27t79 -27t28 -78q0 -108 -107 -108zM924 113q0 -78 10 -113h-741v119l573 735h-551v119h700v-119l-571 -735h580v-6z" />
    <glyph glyph-name="Zcaron" unicode="&#x17d;" 
d="M608 1473h-114l-218 321h123l154 -182l174 182h123zM293 137h725v-137h-912v137l297 451h-198v131h282l314 475h-643v137h827v-137l-311 -475h248v-131h-334z" />
    <glyph glyph-name="zcaron" unicode="&#x17e;" 
d="M608 1114h-114l-218 322h123l154 -183l174 183h123zM924 113q0 -78 10 -113h-741v119l573 735h-551v119h700v-119l-571 -735h580v-6z" />
    <glyph glyph-name="uni01CD" unicode="&#x1cd;" 
d="M598 1473h-117l-217 321h123l154 -182l174 182h123zM883 0l-109 375h-428l-102 -375h-146l351 1331h202l377 -1331h-145zM377 496h364l-176 608h-22z" />
    <glyph glyph-name="uni01CE" unicode="&#x1ce;" 
d="M608 1114h-114l-218 322h123l154 -183l174 183h123zM528 999q194 0 318.5 -124.5t124.5 -317.5v-557h-183q37 61 37 119q-37 -64 -119 -103.5t-184 -40.5q-168 0 -276.5 73t-108.5 204q0 295 586 295q67 0 102 -2v12q0 138 -80.5 224.5t-209.5 86.5q-145 0 -289 -137
l-88 105q72 78 168 120.5t202 42.5zM496 98q93 0 183 42t146 120v158q-37 2 -108 2q-224 0 -328 -39t-104 -129q0 -72 60.5 -113t150.5 -41z" />
    <glyph glyph-name="uni01CF" unicode="&#x1cf;" 
d="M608 1473h-114l-218 321h123l154 -182l174 182h123zM926 113q0 -78 10 -113h-741v119h294v1093h-249v119h632v-119h-237v-1093h291v-6z" />
    <glyph glyph-name="uni01D0" unicode="&#x1d0;" 
d="M608 1114h-114l-218 322h123l154 -183l174 183h123zM934 113q0 -78 10 -113h-741v119h293v735l-199 10v109h340l-2 -854h299v-6z" />
    <glyph glyph-name="uni01D1" unicode="&#x1d1;" 
d="M727 1794h123l-242 -321h-114l-218 321h123l154 -182zM561 -27q-225 0 -346 179.5t-121 515.5q0 333 120.5 511.5t346.5 178.5q221 0 346 -183t125 -507q0 -331 -124 -513t-347 -182zM561 113q158 0 231.5 131t73.5 424q0 302 -73 435.5t-232 131.5q-149 -2 -223 -139.5
t-74 -427.5q0 -289 73 -422t224 -133z" />
    <glyph glyph-name="uni01D2" unicode="&#x1d2;" 
d="M727 1436h123l-242 -322h-114l-218 322h123l154 -183zM561 -27q-203 0 -324.5 142.5t-121.5 380.5q0 233 120 368t326 135q205 0 328 -136.5t123 -366.5q0 -235 -123.5 -379t-327.5 -144zM561 98q135 0 210 105t75 293q0 187 -74.5 287t-210.5 98q-130 -2 -203 -102
t-73 -283q0 -185 73.5 -291.5t202.5 -106.5z" />
    <glyph glyph-name="uni01D3" unicode="&#x1d3;" 
d="M727 1794h123l-242 -321h-114l-218 321h123l154 -182zM844 356q0 -125 -76.5 -193.5t-200.5 -68.5q-127 0 -205.5 68.5t-78.5 193.5v975h-146v-975q0 -176 111 -279.5t319 -103.5q203 0 311.5 103.5t108.5 279.5v975h-143v-975z" />
    <glyph glyph-name="uni01D4" unicode="&#x1d4;" 
d="M608 1165h-114l-218 322h123l154 -182l174 182h123zM952 0h-155v139q-40 -75 -119.5 -120.5t-171.5 -45.5q-102 0 -185 65.5t-128.5 175t-45.5 237.5v524h154v-561q0 -126 77.5 -219t194.5 -93q73 0 117.5 41t106.5 142v688h145v-860q0 -78 10 -113z" />
    <glyph glyph-name="uni01D5" unicode="&#x1d5;" 
d="M809 1786h-498v102h498v-102zM285 1577q0 51 28 78.5t80 27.5q51 0 78 -27.5t27 -78.5q0 -53 -27 -81t-78 -28q-108 0 -108 109zM627 1577q0 51 27.5 78.5t78.5 27.5q52 0 79.5 -27.5t27.5 -78.5q0 -53 -27.5 -81t-79.5 -28q-106 0 -106 109zM844 356
q0 -125 -76.5 -193.5t-200.5 -68.5q-127 0 -205.5 68.5t-78.5 193.5v975h-146v-975q0 -176 111 -279.5t319 -103.5q203 0 311.5 103.5t108.5 279.5v975h-143v-975z" />
    <glyph glyph-name="uni01D6" unicode="&#x1d6;" 
d="M809 1581v-102h-498v102h498zM393 1161q-108 0 -108 109q0 51 28 78.5t80 27.5q51 0 78 -27.5t27 -78.5q0 -53 -27 -81t-78 -28zM627 1270q0 51 27.5 78.5t78.5 27.5q52 0 79.5 -27.5t27.5 -78.5q0 -53 -27.5 -81t-79.5 -28q-106 0 -106 109zM952 0h-155v139
q-40 -75 -119.5 -120.5t-171.5 -45.5q-102 0 -185 65.5t-128.5 175t-45.5 237.5v524h154v-561q0 -126 77.5 -219t194.5 -93q73 0 117.5 41t106.5 142v688h145v-860q0 -78 10 -113z" />
    <glyph glyph-name="uni01D7" unicode="&#x1d7;" 
d="M795 2025l-418 -237l-51 90l391 276zM285 1577q0 51 28 78.5t80 27.5q51 0 78 -27.5t27 -78.5q0 -53 -27 -81t-78 -28q-108 0 -108 109zM627 1577q0 51 27.5 78.5t78.5 27.5q52 0 79.5 -27.5t27.5 -78.5q0 -53 -27.5 -81t-79.5 -28q-106 0 -106 109zM844 356
q0 -125 -76.5 -193.5t-200.5 -68.5q-127 0 -205.5 68.5t-78.5 193.5v975h-146v-975q0 -176 111 -279.5t319 -103.5q203 0 311.5 103.5t108.5 279.5v975h-143v-975z" />
    <glyph glyph-name="uni01D8" unicode="&#x1d8;" 
d="M795 1718l-418 -237l-51 90l391 276zM393 1161q-108 0 -108 109q0 51 28 78.5t80 27.5q51 0 78 -27.5t27 -78.5q0 -53 -27 -81t-78 -28zM627 1270q0 51 27.5 78.5t78.5 27.5q52 0 79.5 -27.5t27.5 -78.5q0 -53 -27.5 -81t-79.5 -28q-106 0 -106 109zM952 0h-155v139
q-40 -75 -119.5 -120.5t-171.5 -45.5q-102 0 -185 65.5t-128.5 175t-45.5 237.5v524h154v-561q0 -126 77.5 -219t194.5 -93q73 0 117.5 41t106.5 142v688h145v-860q0 -78 10 -113z" />
    <glyph glyph-name="uni01D9" unicode="&#x1d9;" 
d="M725 2093h123l-240 -319h-116l-218 319h123l154 -180zM285 1577q0 51 28 78.5t80 27.5q51 0 78 -27.5t27 -78.5q0 -53 -27 -81t-78 -28q-108 0 -108 109zM627 1577q0 51 27.5 78.5t78.5 27.5q52 0 79.5 -27.5t27.5 -78.5q0 -53 -27.5 -81t-79.5 -28q-106 0 -106 109z
M844 356q0 -125 -76.5 -193.5t-200.5 -68.5q-127 0 -205.5 68.5t-78.5 193.5v975h-146v-975q0 -176 111 -279.5t319 -103.5q203 0 311.5 103.5t108.5 279.5v975h-143v-975z" />
    <glyph glyph-name="uni01DA" unicode="&#x1da;" 
d="M608 1466h-116l-218 320h123l154 -180l174 180h123zM393 1376q51 0 78 -27.5t27 -78.5q0 -53 -27 -81t-78 -28q-108 0 -108 109q0 51 28 78.5t80 27.5zM627 1270q0 51 27.5 78.5t78.5 27.5q52 0 79.5 -27.5t27.5 -78.5q0 -53 -27.5 -81t-79.5 -28q-106 0 -106 109zM952 0
h-155v139q-40 -75 -119.5 -120.5t-171.5 -45.5q-102 0 -185 65.5t-128.5 175t-45.5 237.5v524h154v-561q0 -126 77.5 -219t194.5 -93q73 0 117.5 41t106.5 142v688h145v-860q0 -78 10 -113z" />
    <glyph glyph-name="uni01DB" unicode="&#x1db;" 
d="M326 2025l77 129l392 -276l-52 -90zM285 1577q0 51 28 78.5t80 27.5q51 0 78 -27.5t27 -78.5q0 -53 -27 -81t-78 -28q-108 0 -108 109zM627 1577q0 51 27.5 78.5t78.5 27.5q52 0 79.5 -27.5t27.5 -78.5q0 -53 -27.5 -81t-79.5 -28q-106 0 -106 109zM844 356
q0 -125 -76.5 -193.5t-200.5 -68.5q-127 0 -205.5 68.5t-78.5 193.5v975h-146v-975q0 -176 111 -279.5t319 -103.5q203 0 311.5 103.5t108.5 279.5v975h-143v-975z" />
    <glyph glyph-name="uni01DC" unicode="&#x1dc;" 
d="M795 1571l-52 -90l-417 237l77 129zM393 1161q-108 0 -108 109q0 51 28 78.5t80 27.5q51 0 78 -27.5t27 -78.5q0 -53 -27 -81t-78 -28zM627 1270q0 51 27.5 78.5t78.5 27.5q52 0 79.5 -27.5t27.5 -78.5q0 -53 -27.5 -81t-79.5 -28q-106 0 -106 109zM952 0h-155v139
q-40 -75 -119.5 -120.5t-171.5 -45.5q-102 0 -185 65.5t-128.5 175t-45.5 237.5v524h154v-561q0 -126 77.5 -219t194.5 -93q73 0 117.5 41t106.5 142v688h145v-860q0 -78 10 -113z" />
    <glyph glyph-name="Scommaaccent" unicode="&#x218;" 
d="M606 741q199 -38 289 -122.5t90 -256.5q0 -192 -123.5 -290.5t-341.5 -98.5q-126 0 -234.5 48.5t-146.5 121.5l101 95q91 -134 297 -134q306 0 309 244q3 119 -60 173.5t-198 78.5q-204 36 -322.5 138.5t-118.5 258.5q0 157 113.5 258t290.5 101q125 0 228 -46.5
t157 -127.5l-96 -90q-65 74 -124.5 102.5t-146.5 28.5q-135 0 -209.5 -57.5t-74.5 -161.5q0 -199 321 -263zM596 -55q40 0 62 -22t22 -62q0 -31 -6 -41q-19 -57 -79 -141t-89 -103l-66 33q10 16 39.5 77.5t48.5 112.5q-18 21 -18 62q0 40 22.5 62t63.5 22z" />
    <glyph glyph-name="scommaaccent" unicode="&#x219;" 
d="M621 557q185 -35 265.5 -97.5t80.5 -172.5q0 -138 -107 -226t-282 -88q-254 0 -408 205l98 101q148 -175 312 -175q100 0 174.5 54.5t74.5 126.5q0 50 -47 77t-174 52q-210 43 -303.5 113t-93.5 184q0 130 104 209t273 79q123 0 217.5 -40.5t148.5 -116.5l-92 -92
q-60 63 -119 89.5t-139 26.5q-112 0 -184 -42.5t-72 -108.5q0 -57 65.5 -94t207.5 -64zM612 -55q41 0 63.5 -22t22.5 -62q0 -28 -8 -41q-19 -57 -79 -141t-89 -103l-65 33q36 58 90 190q-21 25 -21 62q0 40 22.5 62t63.5 22z" />
    <glyph glyph-name="uni021A" unicode="&#x21a;" 
d="M129 1331h868v-119h-368v-1212h-144v1212h-356v119zM596 -55q40 0 62 -22t22 -62q0 -31 -6 -41q-19 -57 -79 -141t-89 -103l-66 33q10 16 39.5 77.5t48.5 112.5q-18 21 -18 62q0 40 22.5 62t63.5 22z" />
    <glyph glyph-name="uni021B" unicode="&#x21b;" 
d="M866 260l131 -59q-53 -114 -141.5 -171t-189.5 -57q-88 0 -164 41.5t-125 125t-49 192.5v510h-158v131h158v368l145 -10v-358h414v-131h-414v-510q0 -102 56 -158.5t135 -56.5q62 0 116.5 36t85.5 107zM659 -55q41 0 63.5 -22t22.5 -62q0 -26 -6 -41
q-21 -58 -80.5 -141.5t-89.5 -102.5l-63 33q10 16 39.5 77.5t48.5 112.5q-19 22 -19 62t22 62t62 22z" />
    <glyph glyph-name="uni0237" unicode="&#x237;" 
d="M823 973l-2 -973q0 -83 -28.5 -152t-76 -113.5t-108 -68.5t-125.5 -24q-102 0 -190 56t-141 171l129 57q31 -70 85.5 -105.5t118.5 -35.5q79 0 135 56t56 159v854l-201 10v109h348z" />
    <glyph glyph-name="circumflex" unicode="&#x2c6;" horiz-adv-x="1024" 
d="M727 1090l-174 182l-154 -182h-123l218 321h114l242 -321h-123z" />
    <glyph glyph-name="caron" unicode="&#x2c7;" horiz-adv-x="1024" 
d="M727 1436h123l-242 -322h-114l-218 322h123l154 -183z" />
    <glyph glyph-name="breve" unicode="&#x2d8;" horiz-adv-x="1024" 
d="M727 1333h123q0 -114 -81.5 -190t-201.5 -76q-121 0 -206 78t-85 188h123q0 -74 46 -118t122 -44q75 0 117.5 43t42.5 119z" />
    <glyph glyph-name="dotaccent" unicode="&#x2d9;" horiz-adv-x="1024" 
d="M455 1253q0 51 28.5 78t79.5 27t79 -27t28 -78q0 -108 -107 -108q-108 0 -108 108z" />
    <glyph glyph-name="ring" unicode="&#x2da;" horiz-adv-x="1024" 
d="M563 973q-87 0 -142.5 52.5t-55.5 139.5q0 86 55 139.5t143 53.5t143.5 -53.5t55.5 -139.5q0 -85 -56.5 -138.5t-142.5 -53.5zM563 1049q46 0 74.5 33t28.5 83q0 51 -28.5 84t-74.5 33q-45 0 -73.5 -33t-28.5 -84q0 -50 29 -83t73 -33z" />
    <glyph glyph-name="ogonek" unicode="&#x2db;" horiz-adv-x="1024" 
d="M707 -324q-65 -43 -138 -43q-66 0 -114.5 41t-48.5 109q0 28 15.5 66t34 68.5t52.5 82.5h96q-88 -131 -88 -184q0 -31 25 -45.5t59 -14.5q40 0 82 33z" />
    <glyph glyph-name="tilde" unicode="&#x2dc;" horiz-adv-x="1024" 
d="M434 1358q43 0 77 -12.5t55 -30t39.5 -34.5t40.5 -29.5t48 -12.5q92 0 150 111l92 -66q-36 -71 -98 -119.5t-148 -48.5q-43 0 -76.5 12.5t-54.5 30t-39.5 34.5t-41.5 29.5t-50 12.5q-90 0 -149 -113l-91 68q85 168 246 168z" />
    <glyph glyph-name="hungarumlaut" unicode="&#x2dd;" horiz-adv-x="1024" 
d="M592 1333l-199 -235h-98l178 268zM848 1333l-199 -235h-98l178 268z" />
    <glyph glyph-name="gravecomb" unicode="&#x300;" horiz-adv-x="0" 
d="M-799 1366l78 129l391 -276l-51 -89z" />
    <glyph glyph-name="acutecomb" unicode="&#x301;" horiz-adv-x="0" 
d="M-328 1366l-417 -236l-52 89l391 276z" />
    <glyph glyph-name="uni0302" unicode="&#x302;" horiz-adv-x="0" 
d="M-399 1090l-174 182l-154 -182h-123l217 321h115l242 -321h-123z" />
    <glyph glyph-name="tildecomb" unicode="&#x303;" horiz-adv-x="0" 
d="M-692 1358q43 0 77 -12.5t55 -30t39.5 -34.5t40.5 -29.5t48 -12.5q90 0 149 111l93 -66q-36 -71 -98 -119.5t-148 -48.5q-43 0 -76.5 12.5t-54.5 30t-39.5 34.5t-41.5 29.5t-50 12.5q-91 0 -150 -113l-90 68q85 168 246 168z" />
    <glyph glyph-name="uni0304" unicode="&#x304;" horiz-adv-x="0" 
d="M-315 1126h-498v103h498v-103z" />
    <glyph glyph-name="uni0306" unicode="&#x306;" horiz-adv-x="0" 
d="M-399 1333h123q0 -114 -81.5 -190t-201.5 -76q-121 0 -206 78t-85 188h123q0 -74 46 -118t122 -44q75 0 117.5 43t42.5 119z" />
    <glyph glyph-name="uni0307" unicode="&#x307;" horiz-adv-x="0" 
d="M-672 1253q0 51 29 78t80 27t78.5 -27t27.5 -78q0 -108 -106 -108q-109 0 -109 108z" />
    <glyph glyph-name="uni0308" unicode="&#x308;" horiz-adv-x="0" 
d="M-842 1253q0 51 28 78t81 27q104 0 104 -105q0 -108 -104 -108q-109 0 -109 108zM-500 1253q0 51 28 78t79 27q106 0 106 -105q0 -108 -106 -108q-107 0 -107 108z" />
    <glyph glyph-name="uni030A" unicode="&#x30a;" horiz-adv-x="0" 
d="M-563 973q-87 0 -143 52.5t-56 139.5q0 86 55.5 139.5t143.5 53.5t143 -53.5t55 -139.5q0 -85 -56 -138.5t-142 -53.5zM-563 1049q46 0 74 32.5t28 83.5t-28 84t-74 33t-74.5 -33t-28.5 -84q0 -50 29.5 -83t73.5 -33z" />
    <glyph glyph-name="uni030B" unicode="&#x30b;" horiz-adv-x="0" 
d="M-535 1333l-198 -235h-98l178 268zM-279 1333l-198 -235h-98l178 268z" />
    <glyph glyph-name="uni030C" unicode="&#x30c;" horiz-adv-x="0" 
d="M-399 1436h123l-242 -322h-115l-217 322h123l154 -183z" />
    <glyph glyph-name="uni0312" unicode="&#x312;" horiz-adv-x="0" 
d="M-743 1245q21 -18 30 -55q6 -40 -12.5 -66.5t-58.5 -33.5q-40 -6 -66 12t-33 59q-2 6 -2 19q-1 53 47.5 157t77.5 131l70 -20q-32 -97 -53 -203z" />
    <glyph glyph-name="uni0326" unicode="&#x326;" horiz-adv-x="0" 
d="M-455 -139q0 -26 -6 -41q-19 -58 -79.5 -141.5t-90.5 -102.5l-63 33q10 16 39.5 77.5t48.5 112.5q-19 22 -19 62t22.5 62t63.5 22q40 0 62 -22t22 -62z" />
    <glyph glyph-name="uni0327" unicode="&#x327;" horiz-adv-x="0" 
d="M-489 -436q-83 0 -135.5 22t-96.5 76l72 72q25 -39 59 -53.5t101 -14.5q72 0 103.5 17t31.5 55t-24.5 58t-67.5 20q-32 0 -62.5 -9.5t-42.5 -23.5h-98l41 217h100l-29 -125q6 9 40 17t71 8q84 0 131 -45t47 -123q0 -82 -62 -125t-179 -43z" />
    <glyph glyph-name="uni0328" unicode="&#x328;" horiz-adv-x="0" 
d="M-420 -324q-65 -43 -137 -43q-66 0 -115 41t-49 109q0 28 16.5 66.5t34 67.5t52.5 83h96q-88 -131 -88 -184q0 -31 25 -45.5t59 -14.5q40 0 82 33z" />
    <glyph glyph-name="uni0335" unicode="&#x335;" horiz-adv-x="0" 
d="M-203 432h-719v131h719v-131z" />
    <glyph glyph-name="uni0336" unicode="&#x336;" horiz-adv-x="0" 
d="M-41 537v-121h-1042v121h1042z" />
    <glyph glyph-name="uni0337" unicode="&#x337;" horiz-adv-x="0" 
d="M-842 117l-110 51l618 1167l107 -63z" />
    <glyph glyph-name="uni0338" unicode="&#x338;" horiz-adv-x="0" 
d="M-201 1120l-635 -1306l-104 67l633 1303z" />
    <glyph glyph-name="tonos" unicode="&#x384;" 
d="M276 1346l-59 -275h-145l43 275h161z" />
    <glyph glyph-name="dieresistonos" unicode="&#x385;" 
d="M672 1407l-60 -274h-145l43 274h162zM166 1253q0 51 27.5 78t78.5 27q107 0 107 -105q0 -108 -107 -108q-106 0 -106 108zM745 1253q0 51 28 78t81 27q104 0 104 -105q0 -108 -104 -108q-109 0 -109 108z" />
    <glyph glyph-name="Alphatonos" unicode="&#x386;" 
d="M883 0l-109 375h-428l-102 -375h-146l351 1331h202l377 -1331h-145zM346 1331l-76 -307h-145l59 307h162zM377 496h364l-176 608h-22z" />
    <glyph glyph-name="Epsilontonos" unicode="&#x388;" 
d="M276 1346l-59 -275h-145l43 275h161zM469 145v484h393v143h-393v414h496v145h-641v-1331h641v145h-496z" />
    <glyph glyph-name="Etatonos" unicode="&#x389;" 
d="M66 1071l43 275h161l-59 -275h-145zM1012 0h-156v580h-405v-580h-146v1331h146v-631h405v631h145v-1218q0 -75 11 -113z" />
    <glyph glyph-name="Iotatonos" unicode="&#x38a;" 
d="M72 1071l43 275h161l-59 -275h-145zM1010 113q0 -78 10 -113h-739v119h294v1093h-251v119h632v-119h-235v-1093h289v-6z" />
    <glyph glyph-name="Omicrontonos" unicode="&#x38c;" 
d="M629 -27q-189 0 -302.5 182.5t-113.5 512.5q0 328 112.5 509t303.5 181q188 0 304 -185.5t116 -504.5q0 -325 -116 -510t-304 -185zM272 1346l-59 -275h-145l43 275h161zM629 113q256 0 256 555q0 295 -66 432t-190 135q-113 -2 -179.5 -143.5t-66.5 -423.5t65.5 -418.5
t180.5 -136.5z" />
    <glyph glyph-name="Upsilontonos" unicode="&#x38e;" 
d="M72 1071l43 275h161l-59 -275h-145zM905 1331h154l-318 -762v-569h-145v569l-291 762h154l211 -592z" />
    <glyph glyph-name="Omegatonos" unicode="&#x38f;" horiz-adv-x="1024" 
d="M672 139q9 0 26 20.5t37 65.5t38 105t30 149.5t12 188.5q0 140 -23 249t-60 171.5t-79 93.5t-86 30q-44 0 -86 -31t-78.5 -93t-58.5 -171t-22 -249q0 -99 14 -188.5t34.5 -149.5t43.5 -105t41 -65.5t26 -20.5v-139h-313v139h203q-87 69 -145 201t-58 328
q0 321 114.5 505.5t284.5 184.5q169 0 285.5 -185t116.5 -505q0 -196 -59 -328t-148 -201h207v-139h-297v139zM256 1346l-59 -275h-146l43 275h162z" />
    <glyph glyph-name="iotadieresistonos" unicode="&#x390;" 
d="M672 1407l-60 -274h-145l43 274h162zM166 1253q0 51 27.5 78t78.5 27q107 0 107 -105q0 -108 -107 -108q-106 0 -106 108zM745 1253q0 51 28 78t81 27q104 0 104 -105q0 -108 -104 -108q-109 0 -109 108zM616 973l2 -627q-3 -192 144 -217l-37 -129q-261 52 -252 336v518
l-201 10v109h344z" />
    <glyph glyph-name="Alpha" unicode="&#x391;" 
d="M883 0l-109 375h-428l-102 -375h-146l351 1331h202l377 -1331h-145zM377 496h364l-176 608h-22z" />
    <glyph glyph-name="Beta" unicode="&#x392;" 
d="M737 752q116 -41 176 -129t60 -217q0 -184 -114.5 -295t-303.5 -111h-401v1331h299q211 0 314 -81.5t103 -252.5q0 -94 -31.5 -153.5t-101.5 -91.5zM453 1186h-154v-387h154q150 0 214 47t64 151q0 102 -65 145.5t-213 43.5zM555 145q133 0 206 68t73 193q0 247 -297 247
h-238v-508h256z" />
    <glyph glyph-name="Gamma" unicode="&#x393;" 
d="M246 1331h614l-16 -137h-453v-1194h-145v1331z" />
    <glyph glyph-name="uni0394" unicode="&#x394;" 
d="M1032 131v-131h-940v131l393 1200h144zM240 131h643l-324 989z" />
    <glyph glyph-name="Epsilon" unicode="&#x395;" 
d="M332 629v-484h598v-145h-742v1331h742v-145h-598v-414h495v-143h-495z" />
    <glyph glyph-name="Zeta" unicode="&#x396;" 
d="M293 137h725v-137h-912v137l695 1057h-643v137h827v-137z" />
    <glyph glyph-name="Eta" unicode="&#x397;" 
d="M995 0h-155v580h-559v-580h-146v1331h146v-631h559v631h145v-1218q0 -78 10 -113z" />
    <glyph glyph-name="Theta" unicode="&#x398;" 
d="M561 -27q-225 0 -346 179.5t-121 515.5q0 333 120.5 511.5t346.5 178.5q221 0 346 -183t125 -507q0 -331 -124 -513t-347 -182zM561 113q158 0 231.5 131t73.5 424q0 302 -73 435.5t-232 131.5q-149 -2 -223 -139.5t-74 -427.5q0 -289 73 -422t224 -133zM756 598h-377
v135h377v-135z" />
    <glyph glyph-name="Iota" unicode="&#x399;" 
d="M926 113q0 -78 10 -113h-741v119h294v1093h-249v119h632v-119h-237v-1093h291v-6z" />
    <glyph glyph-name="Kappa" unicode="&#x39a;" 
d="M1057 0h-217l-488 526l-53 -69v-457h-145v1333l145 -2v-629l514 629l195 2l-555 -684z" />
    <glyph glyph-name="Lambda" unicode="&#x39b;" 
d="M872 0l-319 1069l-297 -1069h-154l375 1331h146l403 -1331h-154z" />
    <glyph glyph-name="Mu" unicode="&#x39c;" 
d="M883 0v1059q-122 -343 -240 -588h-147q-15 37 -65.5 146.5t-100.5 225.5t-86 216v-1059h-146v1331h150q63 -167 160.5 -380.5t154.5 -315.5q56 106 150 319.5t153 376.5h162v-1331h-145z" />
    <glyph glyph-name="Nu" unicode="&#x39d;" 
d="M977 0h-146l-536 1008v-1008h-145v1331h149l532 -983v983h146v-1331z" />
    <glyph glyph-name="Xi" unicode="&#x39e;" 
d="M158 1194v137h827v-137h-827zM870 588h-614v131h614v-131zM1018 137v-137h-912v137h912z" />
    <glyph glyph-name="Omicron" unicode="&#x39f;" 
d="M561 -27q-225 0 -346 179.5t-121 515.5q0 333 120.5 511.5t346.5 178.5q221 0 346 -183t125 -507q0 -331 -124 -513t-347 -182zM561 113q158 0 231.5 131t73.5 424q0 302 -73 435.5t-232 131.5q-149 -2 -223 -139.5t-74 -427.5q0 -289 73 -422t224 -133z" />
    <glyph glyph-name="Pi" unicode="&#x3a0;" 
d="M995 0h-155v1212h-559v-1212h-146v1331h850v-1218q0 -78 10 -113z" />
    <glyph glyph-name="Rho" unicode="&#x3a1;" 
d="M307 0h-145v1331h401q189 0 303.5 -110.5t114.5 -294.5q0 -394 -520 -394h-154v-532zM563 1186h-256v-508h240q147 0 222 62.5t75 185.5q0 124 -73.5 192t-207.5 68z" />
    <glyph glyph-name="Sigma" unicode="&#x3a3;" 
d="M793 594l-426 -449h563v-145h-742v145l463 525l-463 516v145h742v-145h-563l426 -447v-145z" />
    <glyph glyph-name="Tau" unicode="&#x3a4;" 
d="M129 1331h868v-119h-368v-1212h-144v1212h-356v119z" />
    <glyph glyph-name="Upsilon" unicode="&#x3a5;" 
d="M922 1331h153l-454 -778v-553h-146v553l-426 778h154l348 -610z" />
    <glyph glyph-name="Phi" unicode="&#x3a6;" 
d="M1049 680q0 -222 -109.5 -359.5t-304.5 -160.5v-160h-146v160q-197 22 -305 157t-108 363q0 224 106 352t307 148v151h146v-151q201 -22 307.5 -150t106.5 -350zM635 301q141 17 209.5 110.5t68.5 268.5q0 171 -66.5 257t-211.5 101v-737zM213 680q0 -338 276 -379v737
q-143 -17 -209.5 -103.5t-66.5 -254.5z" />
    <glyph glyph-name="Chi" unicode="&#x3a7;" 
d="M1020 1331l-381 -672l360 -659h-161l-281 516l-295 -516h-156l377 655l-366 676h153l295 -534l307 534h148z" />
    <glyph glyph-name="Psi" unicode="&#x3a8;" 
d="M905 1331h137v-332q0 -210 -106.5 -334t-298.5 -143v-522h-145v522q-192 20 -299 144.5t-107 330.5v334h135v-332q0 -158 67 -241.5t204 -98.5v672h145v-672q138 15 203 96.5t65 241.5v334z" />
    <glyph glyph-name="uni03A9" unicode="&#x3a9;" 
d="M649 139q20 0 48 20.5t60 65.5t59 105t45 149t18 189q0 280 -87 416.5t-231 134.5q-69 -1 -124.5 -32.5t-98.5 -96.5t-66.5 -172t-23.5 -250q0 -99 18 -188.5t45.5 -149.5t59 -105t59 -65.5t45.5 -20.5v-139h-381v139h203q-41 33 -76.5 77.5t-70 108.5t-54.5 152.5
t-20 190.5q0 326 133 508t352 182t353.5 -182t134.5 -508q0 -102 -20.5 -190.5t-55 -152.5t-71.5 -108.5t-79 -77.5h209v-139h-383v139z" />
    <glyph glyph-name="Iotadieresis" unicode="&#x3aa;" 
d="M393 1468q-108 0 -108 109q0 51 28 78.5t80 27.5q51 0 78 -27.5t27 -78.5q0 -53 -27 -81t-78 -28zM733 1468q-106 0 -106 109q0 51 27.5 78.5t78.5 27.5q52 0 79.5 -27.5t27.5 -78.5q0 -53 -27.5 -81t-79.5 -28zM926 113q0 -78 10 -113h-741v119h294v1093h-249v119h632
v-119h-237v-1093h291v-6z" />
    <glyph glyph-name="Upsilondieresis" unicode="&#x3ab;" 
d="M393 1468q-108 0 -108 109q0 51 28 78.5t80 27.5q51 0 78 -27.5t27 -78.5q0 -53 -27 -81t-78 -28zM733 1468q-106 0 -106 109q0 51 27.5 78.5t78.5 27.5q52 0 79.5 -27.5t27.5 -78.5q0 -53 -27.5 -81t-79.5 -28zM922 1331h153l-454 -778v-553h-146v553l-426 778h154
l348 -610z" />
    <glyph glyph-name="etatonos" unicode="&#x3ae;" 
d="M674 1346l-60 -275h-145l43 275h162zM604 999q160 0 261.5 -138t101.5 -355v-848h-154v885q0 134 -75 222.5t-189 88.5q-166 0 -230 -199v-655h-145v821q0 75 -47 152h143q49 -57 49 -152q25 80 103 129t182 49z" />
    <glyph glyph-name="iotatonos" unicode="&#x3af;" 
d="M674 1346l-60 -275h-145l43 275h162zM616 973l2 -627q-3 -192 144 -217l-37 -129q-261 52 -252 336v518l-201 10v109h344z" />
    <glyph glyph-name="upsilondieresistonos" unicode="&#x3b0;" 
d="M672 1407l-60 -274h-145l43 274h162zM166 1253q0 51 27.5 78t78.5 27q107 0 107 -105q0 -108 -107 -108q-106 0 -106 108zM745 1253q0 51 28 78t81 27q104 0 104 -105q0 -108 -104 -108q-109 0 -109 108zM680 950l143 23q366 -1000 -248 -1000q-192 0 -299.5 109
t-107.5 317v576h154v-613q0 -116 70.5 -178.5t215.5 -62.5q80 0 128 26.5t70 83.5t13.5 156t-42.5 234.5t-97 328.5z" />
    <glyph glyph-name="beta" unicode="&#x3b2;" 
d="M752 717q92 -35 154.5 -143.5t62.5 -233.5q0 -154 -124.5 -260.5t-305.5 -106.5q-137 0 -238 95v-420l-145 10v1325q0 171 110.5 273t290.5 102q163 0 256.5 -89.5t93.5 -246.5q0 -106 -43 -191t-112 -114zM557 104q123 0 190.5 61t67.5 173q0 138 -90.5 228.5
t-228.5 90.5h-74v119h74q126 0 200 66.5t74 179.5q0 100 -60.5 153.5t-172.5 53.5q-236 0 -236 -246v-754q77 -125 256 -125z" />
    <glyph glyph-name="gamma" unicode="&#x3b3;" 
d="M977 973q-13 -117 -40 -224.5t-77.5 -224.5t-94 -203.5t-124.5 -234.5l-2 -428h-143v428l-381 870l153 17l299 -662q122 207 179 346.5t77 315.5h154z" />
    <glyph glyph-name="eta" unicode="&#x3b7;" 
d="M604 999q160 0 261.5 -138t101.5 -355v-848h-154v885q0 134 -75 222.5t-189 88.5q-166 0 -230 -199v-655h-145v821q0 75 -47 152h143q49 -57 49 -152q25 80 103 129t182 49z" />
    <glyph glyph-name="theta" unicode="&#x3b8;" 
d="M561 1358q138 0 236 -91.5t145 -249t47 -368.5q0 -145 -27 -267t-79 -214t-134.5 -143.5t-187.5 -51.5q-104 0 -186 51.5t-133.5 143t-78 214t-26.5 267.5q0 213 46 370.5t143 248t235 90.5zM561 1249q-247 -3 -260 -532h524q-13 535 -264 532zM561 102q251 0 264 478
h-524q17 -478 260 -478z" />
    <glyph glyph-name="iota" unicode="&#x3b9;" 
d="M616 973l2 -627q-3 -192 144 -217l-37 -129q-261 52 -252 336v518l-201 10v109h344z" />
    <glyph glyph-name="kappa" unicode="&#x3ba;" 
d="M987 0h-215l-377 360l-45 -59v-301h-145v975l145 -2v-424l344 424l193 2l-398 -500z" />
    <glyph glyph-name="lambda" unicode="&#x3bb;" 
d="M1024 0h-168q-94 181 -299 649l-268 -649h-152l344 827q-69 168 -75 183q-75 157 -164 186l59 135q141 -44 238 -278q341 -800 485 -1053z" />
    <glyph glyph-name="uni03BC" unicode="&#x3bc;" 
d="M901 330q0 -159 16.5 -202.5t94.5 -43.5l-31 -111q-31 0 -60.5 5.5t-63.5 18t-59.5 40.5t-35.5 67q-46 -60 -118.5 -95.5t-151.5 -35.5q-126 0 -216 93v-408l-145 -10v1325h145v-668q32 -105 107 -154t176 -49q64 0 107.5 33t87.5 105v733h143z" />
    <glyph glyph-name="nu" unicode="&#x3bd;" 
d="M805 973h153q-44 -434 -337 -973h-146l-360 956l135 17l301 -746q212 358 254 746z" />
    <glyph glyph-name="omicron" unicode="&#x3bf;" 
d="M561 -27q-203 0 -324.5 142.5t-121.5 380.5q0 233 120 368t326 135q205 0 328 -136.5t123 -366.5q0 -235 -123.5 -379t-327.5 -144zM561 98q135 0 210 105t75 293q0 187 -74.5 287t-210.5 98q-130 -2 -203 -102t-73 -283q0 -185 73.5 -291.5t202.5 -106.5z" />
    <glyph glyph-name="pi" unicode="&#x3c0;" 
d="M879 330q-2 -53 1 -84t16.5 -62t43.5 -47.5t80 -23.5l-35 -129q-260 52 -254 335v535h-352l-2 -854h-137v854h-144v119h934l-16 -119h-140z" />
    <glyph glyph-name="rho" unicode="&#x3c1;" 
d="M573 999q204 0 318.5 -127.5t114.5 -357.5q0 -244 -123.5 -391.5t-325.5 -147.5q-163 0 -276 99v-416l-144 -10v866q0 255 99 370t337 115zM557 115q132 0 217.5 112t85.5 287q0 163 -78.5 260.5t-208.5 97.5q-154 0 -223 -88t-69 -270v-250q34 -78 100.5 -113.5
t175.5 -35.5z" />
    <glyph glyph-name="sigma" unicode="&#x3c3;" 
d="M1047 999l-15 -135h-174q119 -138 119 -368q0 -232 -121 -377.5t-311 -145.5q-191 0 -310.5 144t-119.5 379q0 232 117 367.5t313 135.5h502zM807 496q0 178 -66.5 272t-189.5 96h-6q-124 -2 -192 -96t-68 -272q0 -180 70.5 -282.5t189.5 -102.5q122 0 192 101t70 284z
" />
    <glyph glyph-name="tau" unicode="&#x3c4;" 
d="M946 973l-18 -119h-310l3 -524q-1 -43 0.5 -68t9 -54.5t22 -46t42 -30t67.5 -18.5l-35 -129q-261 52 -252 335v535h-295v119h766z" />
    <glyph glyph-name="upsilon" unicode="&#x3c5;" 
d="M680 950l143 23q366 -1000 -248 -1000q-192 0 -299.5 109t-107.5 317v576h154v-613q0 -116 70.5 -178.5t215.5 -62.5q80 0 128 26.5t70 83.5t13.5 156t-42.5 234.5t-97 328.5z" />
    <glyph glyph-name="phi" unicode="&#x3c6;" 
d="M748 999q146 0 213 -131.5t67 -396.5q0 -249 -100 -369t-305 -125v-329l-146 10v319q-393 9 -393 529q0 260 82 467h153q-90 -229 -90 -467q0 -190 63 -288t185 -103v493q0 192 70 293t201 98zM623 115q66 2 108.5 12t74 31.5t47.5 63t23 99t7 146.5q0 205 -28 296
t-107 91q-70 0 -97.5 -61.5t-27.5 -184.5v-493z" />
    <glyph glyph-name="psi" unicode="&#x3c8;" 
d="M1024 973q47 -497 -47 -733.5t-350 -262.5v-319h-146v319q-213 20 -304 173.5t-91 488.5v334h145v-334q0 -254 57.5 -373t192.5 -141v848h146v-848q177 32 237.5 236t14.5 612h145z" />
    <glyph glyph-name="iotadieresis" unicode="&#x3ca;" 
d="M285 1219q0 51 28 78.5t80 27.5q51 0 78 -27.5t27 -78.5q0 -53 -27 -81t-78 -28q-108 0 -108 109zM627 1219q0 51 27.5 78.5t78.5 27.5q52 0 79.5 -27.5t27.5 -78.5q0 -53 -27.5 -81t-79.5 -28q-106 0 -106 109zM616 973l2 -627q-3 -192 144 -217l-37 -129
q-261 52 -252 336v518l-201 10v109h344z" />
    <glyph glyph-name="upsilondieresis" unicode="&#x3cb;" 
d="M285 1219q0 51 28 78.5t80 27.5q51 0 78 -27.5t27 -78.5q0 -53 -27 -81t-78 -28q-108 0 -108 109zM627 1219q0 51 27.5 78.5t78.5 27.5q52 0 79.5 -27.5t27.5 -78.5q0 -53 -27.5 -81t-79.5 -28q-106 0 -106 109zM680 950l143 23q366 -1000 -248 -1000q-192 0 -299.5 109
t-107.5 317v576h154v-613q0 -116 70.5 -178.5t215.5 -62.5q80 0 128 26.5t70 83.5t13.5 156t-42.5 234.5t-97 328.5z" />
    <glyph glyph-name="omicrontonos" unicode="&#x3cc;" 
d="M674 1346l-60 -275h-145l43 275h162zM561 -27q-203 0 -324.5 142.5t-121.5 380.5q0 233 120 368t326 135q205 0 328 -136.5t123 -366.5q0 -235 -123.5 -379t-327.5 -144zM561 98q135 0 210 105t75 293q0 187 -74.5 287t-210.5 98q-130 -2 -203 -102t-73 -283
q0 -185 73.5 -291.5t202.5 -106.5z" />
    <glyph glyph-name="upsilontonos" unicode="&#x3cd;" 
d="M674 1346l-60 -275h-145l43 275h162zM680 950l143 23q366 -1000 -248 -1000q-192 0 -299.5 109t-107.5 317v576h154v-613q0 -116 70.5 -178.5t215.5 -62.5q80 0 128 26.5t70 83.5t13.5 156t-42.5 234.5t-97 328.5z" />
    <glyph glyph-name="Wgrave" unicode="&#x1e80;" 
d="M328 1724l78 129l391 -276l-52 -88zM903 1331h146q0 -269 -52.5 -680t-119.5 -651h-138q-142 365 -184 594q-48 -221 -197 -594h-139q-56 228 -97 633.5t-46 697.5h145q0 -257 23.5 -591.5t66.5 -501.5q126 335 170 546h148q9 -50 21.5 -102t35 -121t33.5 -100.5
t43 -120.5t37 -102q47 169 75.5 508t28.5 585z" />
    <glyph glyph-name="wgrave" unicode="&#x1e81;" 
d="M328 1366l78 129l391 -276l-52 -89zM885 999h145q0 -126 -13.5 -251t-44.5 -266.5t-54 -230t-68 -251.5h-139q-43 113 -65.5 176.5t-48.5 155t-42 176.5q-18 -85 -47.5 -177t-53 -154t-69.5 -177h-137q-72 292 -111.5 525.5t-42.5 473.5h146q0 -378 98 -761
q58 153 92 263.5t57 231.5h148q34 -208 137 -495q113 409 113 761z" />
    <glyph glyph-name="Wacute" unicode="&#x1e82;" 
d="M797 1724l-418 -235l-51 88l391 276zM903 1331h146q0 -269 -52.5 -680t-119.5 -651h-138q-142 365 -184 594q-48 -221 -197 -594h-139q-56 228 -97 633.5t-46 697.5h145q0 -257 23.5 -591.5t66.5 -501.5q126 335 170 546h148q9 -50 21.5 -102t35 -121t33.5 -100.5
t43 -120.5t37 -102q47 169 75.5 508t28.5 585z" />
    <glyph glyph-name="wacute" unicode="&#x1e83;" 
d="M797 1366l-418 -236l-51 89l391 276zM885 999h145q0 -126 -13.5 -251t-44.5 -266.5t-54 -230t-68 -251.5h-139q-43 113 -65.5 176.5t-48.5 155t-42 176.5q-18 -85 -47.5 -177t-53 -154t-69.5 -177h-137q-72 292 -111.5 525.5t-42.5 473.5h146q0 -378 98 -761
q58 153 92 263.5t57 231.5h148q34 -208 137 -495q113 409 113 761z" />
    <glyph glyph-name="Wdieresis" unicode="&#x1e84;" 
d="M285 1577q0 51 28 78.5t80 27.5q51 0 78 -27.5t27 -78.5q0 -53 -27 -81t-78 -28q-108 0 -108 109zM627 1577q0 51 27.5 78.5t78.5 27.5q52 0 79.5 -27.5t27.5 -78.5q0 -53 -27.5 -81t-79.5 -28q-106 0 -106 109zM903 1331h146q0 -269 -52.5 -680t-119.5 -651h-138
q-142 365 -184 594q-48 -221 -197 -594h-139q-56 228 -97 633.5t-46 697.5h145q0 -257 23.5 -591.5t66.5 -501.5q126 335 170 546h148q9 -50 21.5 -102t35 -121t33.5 -100.5t43 -120.5t37 -102q47 169 75.5 508t28.5 585z" />
    <glyph glyph-name="wdieresis" unicode="&#x1e85;" 
d="M285 1219q0 51 28 78.5t80 27.5q51 0 78 -27.5t27 -78.5q0 -53 -27 -81t-78 -28q-108 0 -108 109zM627 1219q0 51 27.5 78.5t78.5 27.5q52 0 79.5 -27.5t27.5 -78.5q0 -53 -27.5 -81t-79.5 -28q-106 0 -106 109zM885 999h145q0 -126 -13.5 -251t-44.5 -266.5t-54 -230
t-68 -251.5h-139q-43 113 -65.5 176.5t-48.5 155t-42 176.5q-18 -85 -47.5 -177t-53 -154t-69.5 -177h-137q-72 292 -111.5 525.5t-42.5 473.5h146q0 -378 98 -761q58 153 92 263.5t57 231.5h148q34 -208 137 -495q113 409 113 761z" />
    <glyph glyph-name="Ygrave" unicode="&#x1ef2;" 
d="M797 1577l-52 -88l-417 235l78 129zM922 1331h153l-454 -778v-553h-146v553l-426 778h154l348 -610z" />
    <glyph glyph-name="ygrave" unicode="&#x1ef3;" 
d="M797 1219l-52 -89l-417 236l78 129zM811 973h162q-39 -158 -162 -490.5t-248 -621.5q-51 -135 -139.5 -187.5t-220.5 -29.5l24 112q147 -29 211 148l60 147h-2q-42 111 -131.5 317t-146.5 356t-73 249h144q8 -52 27 -116t52.5 -149.5t57.5 -144t72.5 -171.5t68.5 -159
q198 510 244 740z" />
    <glyph glyph-name="endash" unicode="&#x2013;" 
d="M948 444h-780q10 33 10 113v6h780q-10 -35 -10 -112v-7z" />
    <glyph glyph-name="emdash" unicode="&#x2014;" 
d="M1085 444h-1042v119h1042v-119z" />
    <glyph glyph-name="quoteleft" unicode="&#x2018;" 
d="M635 1071q29 -23 35 -72q9 -50 -13 -81.5t-73 -40.5q-105 -18 -123 88q-6 36 2 55q11 76 65 188t86 144l88 -27q-44 -127 -67 -254z" />
    <glyph glyph-name="quoteright" unicode="&#x2019;" 
d="M666 1243q6 -35 -2 -57q-11 -75 -65.5 -187.5t-86.5 -144.5l-88 29q47 135 68 252q-29 26 -37 71q-15 105 88 123q50 9 82 -13t41 -73z" />
    <glyph glyph-name="quotesinglbase" unicode="&#x201a;" 
d="M702 82q0 -30 -8 -49q-23 -71 -98 -175.5t-111 -129.5l-82 41q14 23 50.5 98.5t60.5 138.5q-25 28 -25 76q0 51 28.5 78.5t80.5 27.5q51 0 77.5 -27.5t26.5 -78.5z" />
    <glyph glyph-name="quotedblleft" unicode="&#x201c;" 
d="M461 1352l88 -27q-46 -133 -68 -254q29 -23 35 -72q9 -50 -13 -81.5t-73 -40.5q-105 -18 -123 88q-6 36 2 55q11 76 65.5 188t86.5 144zM772 1071q29 -23 35 -72q9 -50 -13 -81.5t-73 -40.5t-83.5 13.5t-39.5 74.5q-6 34 0 55q13 77 67 189t87 143l88 -27
q-46 -133 -68 -254z" />
    <glyph glyph-name="quotedblright" unicode="&#x201d;" 
d="M528 1243q6 -35 -2 -57q-11 -76 -64.5 -188.5t-86.5 -143.5l-88 29q45 129 67 252q-30 26 -35 71q-18 104 87 123q104 18 122 -86zM819 1243q6 -35 -2 -57q-11 -75 -65 -187.5t-86 -144.5l-88 29q45 129 67 252q-29 26 -37 71q-15 105 88 123q50 9 82 -13t41 -73z" />
    <glyph glyph-name="quotedblbase" unicode="&#x201e;" 
d="M528 111q6 -37 -2 -56q-11 -78 -64.5 -190t-86.5 -141l-88 26q45 129 67 254q-29 23 -35 72q-9 50 13.5 82t73.5 41q104 15 122 -88zM819 111q6 -37 -2 -56q-11 -77 -65 -189t-86 -142l-88 26q45 129 67 254q-28 22 -37 72q-8 50 14.5 82t73.5 41q50 8 82 -14.5t41 -73.5
z" />
    <glyph glyph-name="dagger" unicode="&#x2020;" 
d="M893 973v-144h-254v-829h-154v829h-241v144h241v358h154v-358h254z" />
    <glyph glyph-name="daggerdbl" unicode="&#x2021;" 
d="M893 829h-254v-317h254v-143h-254v-369h-154v369h-241v143h241v317h-241v144h241v358h154v-358h254v-144z" />
    <glyph glyph-name="bullet" unicode="&#x2022;" 
d="M393 539q0 76 41.5 117.5t118.5 41.5q76 0 117 -41t41 -118q0 -78 -40.5 -119t-117.5 -41q-78 0 -119 41t-41 119z" />
    <glyph glyph-name="ellipsis" unicode="&#x2026;" 
d="M131 82q0 51 28.5 78.5t80.5 27.5q51 0 77.5 -27.5t26.5 -78.5q0 -53 -26.5 -81t-77.5 -28q-109 0 -109 109zM455 82q0 51 28.5 78.5t79.5 27.5t79 -27.5t28 -78.5q0 -52 -28 -80.5t-79 -28.5q-52 0 -80 28t-28 81zM780 82q0 51 28 78.5t79 27.5q106 0 106 -106
q0 -109 -106 -109q-52 0 -79.5 28t-27.5 81z" />
    <glyph glyph-name="perthousand" unicode="&#x2030;" 
d="M295 864q-106 0 -176 71.5t-70 180.5q0 107 68.5 174.5t177.5 67.5t178.5 -67.5t69.5 -174.5t-71 -179.5t-177 -72.5zM295 961q69 0 99 36t30 119t-30 118.5t-99 35.5q-66 0 -94.5 -35t-28.5 -119q0 -83 29 -119t94 -36zM1032 1106l-809 -586l-104 68l807 583zM293 -23
q-106 0 -176 72t-70 180q0 107 68.5 175.5t177.5 68.5t178.5 -68.5t69.5 -175.5t-71 -179.5t-177 -72.5zM825 -23q-105 0 -175 72t-70 180q0 107 68 175.5t177 68.5t178.5 -68.5t69.5 -175.5t-71 -179.5t-177 -72.5zM293 76q69 0 99 35t30 118q0 84 -29.5 119t-99.5 35
q-66 0 -94.5 -35t-28.5 -119q0 -82 29 -117.5t94 -35.5zM825 76q69 0 99 35t30 118q0 84 -29.5 119t-99.5 35q-66 0 -94.5 -35t-28.5 -119q0 -82 29 -117.5t94 -35.5z" />
    <glyph glyph-name="guilsinglleft" unicode="&#x2039;" 
d="M662 117q-12 13 -105 110.5t-195 214.5q-28 32 -34 45t0 25.5t34 44.5q101 115 191.5 209.5t108.5 114.5l65 -97q-2 -2 -23.5 -25.5t-26 -29t-24 -27.5t-26.5 -32t-23.5 -30.5t-25.5 -34t-21.5 -32.5t-22 -37t-18.5 -36q24 -52 67 -111.5t65 -85t79 -88.5z" />
    <glyph glyph-name="guilsinglright" unicode="&#x203a;" 
d="M465 117l-66 98q108 121 150 181q36 53 59 104q-8 18 -17.5 36t-22 37.5t-21 32.5t-25.5 34t-23.5 30t-26.5 32t-23.5 27t-26 29t-23.5 26l66 97q14 -15 105.5 -111.5t193.5 -212.5q37 -43 37 -57.5t-37 -57.5q-76 -87 -126 -141.5t-94.5 -100.5t-78.5 -83z" />
    <glyph glyph-name="Euro" unicode="&#x20ac;" 
d="M872 305l166 -22q-25 -126 -154.5 -218t-287.5 -92q-179 0 -296 120t-157 333h-102l10 121h76q0 15 -1 46.5t-1 49.5q0 49 2 74h-86l10 119h88q37 238 160 380t297 142q135 0 250 -83.5t151 -203.5l-159 -45q-25 86 -91.5 141.5t-150.5 55.5q-113 0 -191 -103t-104 -284
h393l-10 -119h-395q-2 -25 -2 -74q0 -34 4 -96h403l-10 -121h-379q29 -154 103 -234.5t188 -80.5q100 0 181 58t95 136z" />
    <glyph glyph-name="trademark" unicode="&#x2122;" 
d="M961 1331h116v-751h-108v567q-28 -63 -64.5 -150.5t-58.5 -132.5h-90q-77 172 -131 283v-567h-109v661h-180v-661h-107v661h-186v90h584q57 -148 170 -354q112 213 164 354z" />
    <glyph glyph-name="oneeighth" unicode="&#x215b;" 
d="M244 1223q-26 -45 -164 -64l-10 76q119 24 174 96h94v-592h-94v484zM981 1001l70 -51l-912 -618l-63 53zM909 293q72 -25 110 -67.5t38 -98.5q0 -66 -66.5 -110t-167.5 -44q-99 0 -163 44t-64 110q0 54 38 97t107 69q-52 22 -82 65t-30 97q0 66 52 104.5t142 38.5
q84 0 138.5 -40.5t54.5 -102.5q1 -52 -27.5 -95.5t-79.5 -66.5zM709 446q0 -34 31 -65t87 -53l-4 -2q113 52 113 120q2 37 -30 63t-81 26q-50 0 -83 -26t-33 -63zM823 43q69 0 110.5 23t41.5 61t-41 74t-111 59q-69 -23 -108 -59t-39 -74q0 -40 38 -62t109 -22z" />
    <glyph glyph-name="threeeighths" unicode="&#x215c;" 
d="M291 817q72 0 107.5 19t35.5 69q0 119 -168 119h-41v66h41q78 0 118 28.5t40 79.5q0 50 -38 69t-105 19q-91 0 -121 -49l-49 49q20 33 70.5 52.5t109.5 19.5q91 0 161 -45t70 -115q0 -45 -28.5 -83t-77.5 -58q53 -18 87 -59t34 -93q0 -73 -73 -116.5t-183 -43.5
q-76 0 -126 24t-85 75l57 41q33 -39 67.5 -53.5t96.5 -14.5zM981 1001l70 -51l-912 -618l-63 53zM909 293q72 -25 110 -67.5t38 -98.5q0 -66 -66.5 -110t-167.5 -44q-99 0 -163 44t-64 110q0 54 38 97t107 69q-52 22 -82 65t-30 97q0 66 52 104.5t142 38.5q84 0 138.5 -40.5
t54.5 -102.5q1 -52 -27.5 -95.5t-79.5 -66.5zM709 446q0 -34 31 -65t87 -53l-4 -2q113 52 113 120q2 37 -30 63t-81 26q-50 0 -83 -26t-33 -63zM823 43q69 0 110.5 23t41.5 61t-41 74t-111 59q-69 -23 -108 -59t-39 -74q0 -40 38 -62t109 -22z" />
    <glyph glyph-name="fiveeighths" unicode="&#x215d;" 
d="M279 793q151 0 151 137q0 149 -133 149q-39 0 -72.5 -14.5t-48.5 -36.5h-90l31 303h368v-76h-276l-21 -157q15 22 47.5 37.5t75.5 15.5q89 0 152 -63t63 -158q0 -90 -74 -150.5t-173 -60.5q-109 0 -209 80l51 53q68 -59 158 -59zM981 985l70 -51l-912 -621l-63 56z
M909 293q72 -25 110 -67.5t38 -98.5q0 -66 -66.5 -110t-167.5 -44q-99 0 -163 44t-64 110q0 54 38 97t107 69q-52 22 -82 65t-30 97q0 66 52 104.5t142 38.5q84 0 138.5 -40.5t54.5 -102.5q1 -52 -27.5 -95.5t-79.5 -66.5zM709 446q0 -34 31 -65t87 -53l-4 -2
q113 52 113 120q2 37 -30 63t-81 26q-50 0 -83 -26t-33 -63zM823 43q69 0 110.5 23t41.5 61t-41 74t-111 59q-69 -23 -108 -59t-39 -74q0 -40 38 -62t109 -22z" />
    <glyph glyph-name="seveneighths" unicode="&#x215e;" 
d="M137 739q0 61 18 119t52.5 112t67 95.5t80.5 97.5t73 90h-358v78h469v-78q-26 -35 -73 -90t-81 -97t-69 -95.5t-54 -112t-20 -119.5h-105zM981 1018l70 -51l-912 -619l-63 55zM909 293q72 -25 110 -67.5t38 -98.5q0 -66 -66.5 -110t-167.5 -44q-99 0 -163 44t-64 110
q0 54 38 97t107 69q-52 22 -82 65t-30 97q0 66 52 104.5t142 38.5q84 0 138.5 -40.5t54.5 -102.5q1 -52 -27.5 -95.5t-79.5 -66.5zM709 446q0 -34 31 -65t87 -53l-4 -2q113 52 113 120q2 37 -30 63t-81 26q-50 0 -83 -26t-33 -63zM823 43q69 0 110.5 23t41.5 61t-41 74
t-111 59q-69 -23 -108 -59t-39 -74q0 -40 38 -62t109 -22z" />
    <glyph glyph-name="arrowleft" unicode="&#x2190;" 
d="M514 899l74 -102l-316 -256h766v-119h-759l309 -254l-80 -100l-412 356q-51 38 -51 59q0 24 51 62z" />
    <glyph glyph-name="arrowup" unicode="&#x2191;" 
d="M147 530l355 418q38 51 61 51q22 0 60 -51l354 -411l-98 -80l-254 309v-766h-119v772l-256 -315z" />
    <glyph glyph-name="arrowright" unicode="&#x2192;" 
d="M612 899l418 -354q51 -38 51 -62q0 -21 -51 -59l-412 -356l-79 100l309 254h-760v119h766l-315 256z" />
    <glyph glyph-name="arrowdown" unicode="&#x2193;" 
d="M147 444l103 72l256 -313v772h119v-766l254 307l98 -78l-354 -413q-1 -2 -4 -5q-37 -47 -56 -47q-9 0 -21 9t-19 17t-21 26z" />
    <glyph glyph-name="arrowboth" unicode="&#x2194;" 
d="M78 545l315 286l74 -102l-207 -188h604l-205 188l72 102l318 -286q4 -4 14.5 -13t14.5 -13.5t10.5 -11.5t9 -12.5t2.5 -11.5t-2.5 -11.5t-9 -12.5t-11 -11t-14.5 -12.5t-14 -11.5l-312 -287l-78 99l205 186h-604l207 -186l-78 -99l-311 287q-4 3 -14 11.5t-14.5 12.5
t-11 11t-9 12.5t-2.5 11.5t2.5 11.5t9 12.5t10.5 11.5t14.5 13.5t14.5 13z" />
    <glyph glyph-name="arrowupdn" unicode="&#x2195;" 
d="M502 1307q2 3 7.5 9t7.5 8.5t6.5 7.5t7 7.5t6.5 6t6.5 5.5t6 4t7 2.5t6.5 0.5q6 0 11.5 -2.5t12 -8.5t11 -11t12.5 -14.5t13 -14.5l321 -344l-100 -78l-219 245v-1269l219 245l100 -77l-321 -344q-5 -6 -15.5 -18t-16 -18t-13.5 -11t-15 -5q-4 0 -8 1.5t-9 4.5t-8 5.5
t-8.5 8.5t-8.5 9.5t-9.5 11.5t-9.5 11l-322 350l103 71l223 -245v1269l-223 -245l-103 71z" />
    <glyph glyph-name="uni2196" unicode="&#x2196;" 
d="M240 225l-43 547q0 6 -1.5 18t-1.5 18.5v15t2 14t5 8.5q14 14 80 10l544 -41l-14 -125l-397 41l534 -538l-84 -87l-540 543l41 -403z" />
    <glyph glyph-name="uni2197" unicode="&#x2197;" 
d="M885 225l-123 21l41 403l-543 -543l-82 87l535 538l-398 -41l-14 125l543 41q68 4 82 -10q8 -10 4 -74z" />
    <glyph glyph-name="uni2198" unicode="&#x2198;" 
d="M885 739l45 -546q4 -66 -4 -76q-13 -11 -82 -11l-543 41l14 125l398 -39l-535 539l82 84l543 -541l-41 404z" />
    <glyph glyph-name="uni2199" unicode="&#x2199;" 
d="M240 739l125 -20l-41 -404l540 541l84 -84l-534 -539l397 39l14 -125l-544 -41q-67 0 -80 11q-3 3 -5 8.5t-2 14v15.5t1.5 19t1.5 19z" />
    <glyph glyph-name="partialdiff" unicode="&#x2202;" 
d="M342 1358q88 -39 174.5 -94.5t169 -131.5t145.5 -161t102 -187.5t40 -205.5q3 -290 -107 -447.5t-288 -157.5q-177 0 -291.5 120.5t-114.5 303.5q0 182 111 292t295 110q88 0 146.5 -31t117.5 -113q-12 109 -94.5 232.5t-206 224t-252.5 145.5zM578 106q249 0 264 394
q-87 178 -264 178q-119 0 -195 -79t-76 -202q0 -129 75 -210t196 -81z" />
    <glyph glyph-name="emptyset" unicode="&#x2205;" 
d="M932 805q123 -142 123 -330q0 -136 -65.5 -251t-178.5 -182t-246 -67q-157 0 -289 97l-118 -133l-86 75l118 138q-116 138 -116 323q0 135 66 249.5t179 181.5t246 67q148 0 275 -86l118 135l93 -84zM188 477q0 -129 82 -235l492 557q-90 55 -197 55q-157 0 -267 -110
t-110 -267zM565 102q155 0 265 110t110 265q0 135 -86 242l-496 -555q94 -62 207 -62z" />
    <glyph glyph-name="product" unicode="&#x220f;" 
d="M1018 1245v-119h-139v-1341l-146 10v1331h-332v-1341l-145 10v1331h-145v119h907z" />
    <glyph glyph-name="summation" unicode="&#x2211;" 
d="M926 1194h-520l430 -481v-105l-430 -471h520v-137h-727v137l495 520l-495 537v137h727v-137z" />
    <glyph glyph-name="minus" unicode="&#x2212;" 
d="M897 444h-668v136h668v-136z" />
    <glyph glyph-name="radical" unicode="&#x221a;" 
d="M254 727l160 -549l266 1153h330v-141h-224l-276 -1190h-188l-222 727h154z" />
    <glyph glyph-name="infinity" unicode="&#x221e;" 
d="M1104 516q3 -146 -67 -237t-185 -91q-89 -1 -165.5 50t-123.5 143q-50 -94 -125 -144t-164 -49q-117 0 -185.5 90.5t-65.5 237.5q1 139 75 227.5t187 85.5q87 -3 160.5 -55.5t117.5 -144.5q44 92 118 144.5t161 55.5q115 3 187 -83.5t75 -229.5zM279 307q81 -1 135 45
t102 156q-45 113 -96.5 158t-132.5 47q-82 2 -116 -43.5t-34 -155.5q-1 -114 30.5 -159.5t111.5 -47.5zM848 307q80 2 111 47.5t30 159.5q-2 111 -35 155.5t-114 43.5q-82 -2 -133.5 -47t-98.5 -158q47 -108 103.5 -155.5t136.5 -45.5z" />
    <glyph glyph-name="integral" unicode="&#x222b;" 
d="M700 1008l-239 -1119q-12 -54 -64 -98t-106.5 -64t-93.5 -20v127q49 0 99 34.5t60 86.5l238 1116q10 45 42.5 79.5t77 52.5t89 27t86.5 9v-111q-37 0 -75 -11.5t-72 -40t-42 -68.5z" />
    <glyph glyph-name="approxequal" unicode="&#x2248;" 
d="M442 795q41 0 73.5 -12.5t54 -29.5t40.5 -34.5t42 -30t50 -12.5q83 0 168 110l93 -65q-25 -35 -48.5 -61t-56 -52.5t-73 -40.5t-85.5 -14q-42 0 -75.5 12.5t-55.5 29.5t-41 34.5t-42 30t-50 12.5q-46 0 -99 -32t-85 -81l-90 68q46 77 121.5 122.5t158.5 45.5zM442 471
q41 0 73.5 -12.5t54 -30t40.5 -34.5t42 -29.5t50 -12.5q82 0 168 111l93 -66q-25 -35 -48.5 -61t-56 -52.5t-73 -40.5t-85.5 -14q-42 0 -75.5 12.5t-55.5 29.5t-41 34.5t-42 30t-50 12.5q-44 0 -97 -31t-87 -81l-90 65q44 77 120.5 123.5t159.5 46.5z" />
    <glyph glyph-name="notequal" unicode="&#x2260;" 
d="M655 635l-98 -217h348l-10 -137h-401l-91 -195l-81 31l73 164h-176l10 137h228l100 217h-338l10 137h389l87 191l86 -31l-74 -160h188l-10 -137h-240z" />
    <glyph glyph-name="lessequal" unicode="&#x2264;" 
d="M172 678l723 326l61 -109l-628 -281l628 -280l-67 -105l-717 324v125zM178 51v119h768v-119h-768z" />
    <glyph glyph-name="greaterequal" unicode="&#x2265;" 
d="M954 678v-125l-716 -324l-68 105l629 280l-629 281l61 109zM948 51h-770v119h770v-119z" />
    <glyph glyph-name="upblock" unicode="&#x2580;" 
d="M1126 1985v-1219h-1126v1219h1126z" />
    <glyph glyph-name="uni2581" unicode="&#x2581;" 
d="M1126 -453h-1126v303h1126v-303z" />
    <glyph glyph-name="uni2582" unicode="&#x2582;" 
d="M1126 -453h-1126v611h1126v-611z" />
    <glyph glyph-name="uni2583" unicode="&#x2583;" 
d="M1126 -453h-1126v914h1126v-914z" />
    <glyph glyph-name="dnblock" unicode="&#x2584;" 
d="M1126 -453h-1126v1219h1126v-1219z" />
    <glyph glyph-name="uni2585" unicode="&#x2585;" 
d="M1126 -453h-1126v1522h1126v-1522z" />
    <glyph glyph-name="uni2586" unicode="&#x2586;" 
d="M1126 -453h-1126v1829h1126v-1829z" />
    <glyph glyph-name="uni2587" unicode="&#x2587;" 
d="M1126 -453h-1126v2132h1126v-2132z" />
    <glyph glyph-name="block" unicode="&#x2588;" 
d="M1126 1985v-2438h-1126v2438h1126z" />
    <glyph glyph-name="uni2589" unicode="&#x2589;" 
d="M987 1985v-2438h-987v2438h987z" />
    <glyph glyph-name="uni258A" unicode="&#x258a;" 
d="M844 1985v-2438h-844v2438h844z" />
    <glyph glyph-name="uni258B" unicode="&#x258b;" 
d="M705 1985v-2438h-705v2438h705z" />
    <glyph glyph-name="lfblock" unicode="&#x258c;" 
d="M563 1985v-2438h-563v2438h563z" />
    <glyph glyph-name="uni258D" unicode="&#x258d;" 
d="M424 1985v-2438h-424v2438h424z" />
    <glyph glyph-name="uni258E" unicode="&#x258e;" 
d="M281 1985v-2438h-281v2438h281z" />
    <glyph glyph-name="uni258F" unicode="&#x258f;" 
d="M141 1985v-2438h-141v2438h141z" />
    <glyph glyph-name="rtblock" unicode="&#x2590;" 
d="M1126 1985v-2438h-563v2438h563z" />
    <glyph glyph-name="ltshade" unicode="&#x2591;" 
d="M16 1673v312h97v-312h-97zM262 1888v97h96v-97h-96zM516 1673v312h94v-312h-94zM768 1888v97h96v-97h-96zM1014 1673v312h96v-312h-96zM262 1399v311h96v-311h-96zM768 1399v311h96v-311h-96zM16 1147v311h97v-311h-97zM516 1147v311h94v-311h-94zM1014 1147v311h96v-311
h-96zM262 872v310h96v-310h-96zM768 872v310h96v-310h-96zM16 604v311h97v-311h-97zM516 604v311h94v-311h-94zM1014 604v311h96v-311h-96zM262 330v309h96v-309h-96zM768 330v309h96v-309h-96zM16 76v309h97v-309h-97zM516 76v309h94v-309h-94zM1014 76v309h96v-309h-96z
M262 -199v312h96v-312h-96zM768 -199v312h96v-312h-96zM16 -453v312h97v-312h-97zM516 -453v312h94v-312h-94zM1014 -453v312h96v-312h-96zM262 -453v99h96v-99h-96zM768 -453v99h96v-99h-96z" />
    <glyph glyph-name="shade" unicode="&#x2592;" 
d="M190 1782v203h84v-203h-84zM528 1782v203h84v-203h-84zM836 1782v203h84v-203h-84zM45 1550v271h84v-271h-84zM362 1550v271h80v-271h-80zM690 1550v271h84v-271h-84zM997 1550v271h84v-271h-84zM190 1315v266h84v-266h-84zM528 1315v266h84v-266h-84zM836 1315v266h84
v-266h-84zM45 1096v286h84v-286h-84zM362 1096v286h80v-286h-80zM690 1096v286h84v-286h-84zM997 1096v286h84v-286h-84zM190 858v268h84v-268h-84zM528 858v268h84v-268h-84zM836 858v268h84v-268h-84zM45 625v290h84v-290h-84zM362 625v290h80v-290h-80zM690 625v290h84
v-290h-84zM997 625v290h84v-290h-84zM190 389v270h84v-270h-84zM528 389v270h84v-270h-84zM836 389v270h84v-270h-84zM45 170v287h84v-287h-84zM362 170v287h80v-287h-80zM690 170v287h84v-287h-84zM997 170v287h84v-287h-84zM190 -68v269h84v-269h-84zM528 -68v269h84v-269
h-84zM836 -68v269h84v-269h-84zM45 -268v272h84v-272h-84zM362 -268v272h80v-272h-80zM690 -268v272h84v-272h-84zM997 -268v272h84v-272h-84zM190 -453v187h84v-187h-84zM528 -453v187h84v-187h-84zM836 -453v187h84v-187h-84z" />
    <glyph glyph-name="dkshade" unicode="&#x2593;" 
d="M137 1741v244h68v-244h-68zM403 1741v244h70v-244h-70zM647 1741v244h68v-244h-68zM909 1741v244h68v-244h-68zM23 1530v291h67v-291h-67zM270 1530v291h68v-291h-68zM532 1530v291h68v-291h-68zM774 1530v291h70v-291h-70zM1038 1530v291h68v-291h-68zM137 1294v328h68
v-328h-68zM403 1294v328h70v-328h-70zM647 1294v328h68v-328h-68zM909 1294v328h68v-328h-68zM23 1075v307h67v-307h-67zM270 1075v307h68v-307h-68zM532 1075v307h68v-307h-68zM774 1075v307h70v-307h-70zM1038 1075v307h68v-307h-68zM137 838v327h68v-327h-68zM403 838
v327h70v-327h-70zM647 838v327h68v-327h-68zM909 838v327h68v-327h-68zM23 604v311h67v-311h-67zM270 604v311h68v-311h-68zM532 604v311h68v-311h-68zM774 604v311h70v-311h-70zM1038 604v311h68v-311h-68zM137 369v331h68v-331h-68zM403 369v331h70v-331h-70zM647 369v331
h68v-331h-68zM909 369v331h68v-331h-68zM23 150v307h67v-307h-67zM270 150v307h68v-307h-68zM532 150v307h68v-307h-68zM774 150v307h70v-307h-70zM1038 150v307h68v-307h-68zM137 -88v330h68v-330h-68zM403 -88v330h70v-330h-70zM647 -88v330h68v-330h-68zM909 -88v330h68
v-330h-68zM23 -309v313h67v-313h-67zM270 -309v313h68v-313h-68zM532 -309v313h68v-313h-68zM774 -309v313h70v-313h-70zM1038 -309v313h68v-313h-68zM137 -453v228h68v-228h-68zM403 -453v228h70v-228h-70zM647 -453v228h68v-228h-68zM909 -453v228h68v-228h-68z" />
    <glyph glyph-name="uni2594" unicode="&#x2594;" 
d="M1126 1339h-1126v303h1126v-303z" />
    <glyph glyph-name="uni2595" unicode="&#x2595;" 
d="M1126 1985v-2438h-141v2438h141z" />
    <glyph glyph-name="uni2596" unicode="&#x2596;" 
d="M563 -453h-563v1219h563v-1219z" />
    <glyph glyph-name="uni2597" unicode="&#x2597;" 
d="M1126 -453h-563v1219h563v-1219z" />
    <glyph glyph-name="uni2598" unicode="&#x2598;" 
d="M563 766h-563v1219h563v-1219z" />
    <glyph glyph-name="uni2599" unicode="&#x2599;" 
d="M563 766h563v-1219h-1126v2438h563v-1219z" />
    <glyph glyph-name="uni259A" unicode="&#x259a;" 
d="M563 766h-563v1219h563v-1219zM1126 -453h-563v1219h563v-1219z" />
    <glyph glyph-name="uni259B" unicode="&#x259b;" 
d="M1126 1985v-1219h-563v-1219h-563v2438h1126z" />
    <glyph glyph-name="uni259C" unicode="&#x259c;" 
d="M1126 1985v-2438h-563v1219h-563v1219h1126z" />
    <glyph glyph-name="uni259D" unicode="&#x259d;" 
d="M563 766v1219h563v-1219h-563z" />
    <glyph glyph-name="uni259E" unicode="&#x259e;" 
d="M563 766v1219h563v-1219h-563zM563 -453h-563v1219h563v-1219z" />
    <glyph glyph-name="uni259F" unicode="&#x259f;" 
d="M563 1985h563v-2438h-1126v1219h563v1219z" />
    <glyph glyph-name="triagup" unicode="&#x25b2;" 
d="M1092 0h-1057l528 999z" />
    <glyph glyph-name="uni25B3" unicode="&#x25b3;" 
d="M1092 0h-1057l528 999zM956 82l-393 747l-395 -747h788z" />
    <glyph glyph-name="uni25C7" unicode="&#x25c7;" 
d="M555 981l504 -504l-504 -504l-504 504zM555 858l-381 -381l381 -381l381 381z" />
    <glyph glyph-name="lozenge" unicode="&#x25ca;" 
d="M621 1194l372 -596l-372 -598h-146l-344 598l344 596h146zM551 184l272 414l-272 412l-250 -412z" />
    <glyph glyph-name="circle" unicode="&#x25cb;" 
d="M565 973q132 0 245.5 -67t180 -181.5t66.5 -249.5t-66.5 -250.5t-180 -182.5t-245.5 -67q-133 0 -246 67t-179 182t-66 251q0 135 66 249.5t179 181.5t246 67zM565 96q155 0 265 111t110 268q0 156 -110 267.5t-265 111.5q-156 0 -266.5 -111.5t-110.5 -267.5
q0 -157 110 -268t267 -111z" />
    <glyph glyph-name="uni25CE" unicode="&#x25ce;" 
d="M565 973q132 0 245.5 -67t180 -181.5t66.5 -249.5t-66.5 -250.5t-180 -182.5t-245.5 -67q-133 0 -246 67t-179 182t-66 251q0 135 66 249.5t179 181.5t246 67zM565 96q155 0 265 111t110 268q0 156 -110 267.5t-265 111.5q-156 0 -266.5 -111.5t-110.5 -267.5
q0 -157 110 -268t267 -111zM565 768q119 0 204 -86t85 -207q0 -123 -85 -209t-204 -86q-120 0 -204.5 86t-84.5 209q0 122 84.5 207.5t204.5 85.5zM565 289q185 0 185 186q0 184 -185 184q-184 0 -184 -184q0 -186 184 -186z" />
    <glyph glyph-name="uni25CF" unicode="&#x25cf;" 
d="M565 973q132 0 245.5 -67t180 -181.5t66.5 -249.5t-66.5 -250.5t-180 -182.5t-245.5 -67q-133 0 -246 67t-179 182t-66 251q0 135 66 249.5t179 181.5t246 67z" />
    <glyph glyph-name="uni25D0" unicode="&#x25d0;" 
d="M565 973q132 0 245.5 -67t180 -181.5t66.5 -249.5t-66.5 -250.5t-180 -182.5t-245.5 -67q-133 0 -246 67t-179 182t-66 251q0 135 66 249.5t179 181.5t246 67zM565 96q155 0 265 111t110 268q0 156 -110 267.5t-265 111.5v-758z" />
    <glyph glyph-name="uni25D1" unicode="&#x25d1;" 
d="M565 973q132 0 245.5 -67t180 -181.5t66.5 -249.5t-66.5 -250.5t-180 -182.5t-245.5 -67q-133 0 -246 67t-179 182t-66 251q0 135 66 249.5t179 181.5t246 67zM565 96v758q-156 0 -266.5 -111.5t-110.5 -267.5q0 -157 110 -268t267 -111z" />
    <glyph glyph-name="uni25D2" unicode="&#x25d2;" 
d="M565 973q132 0 245.5 -67t180 -181.5t66.5 -249.5t-66.5 -250.5t-180 -182.5t-245.5 -67q-133 0 -246 67t-179 182t-66 251q0 135 66 249.5t179 181.5t246 67zM188 475h752q0 156 -110 267.5t-265 111.5q-156 0 -266.5 -111.5t-110.5 -267.5z" />
    <glyph glyph-name="uni25D3" unicode="&#x25d3;" 
d="M565 973q132 0 245.5 -67t180 -181.5t66.5 -249.5t-66.5 -250.5t-180 -182.5t-245.5 -67q-133 0 -246 67t-179 182t-66 251q0 135 66 249.5t179 181.5t246 67zM565 96q155 0 265 111t110 268h-752q0 -157 110 -268t267 -111z" />
    <glyph glyph-name="uni25D4" unicode="&#x25d4;" 
d="M565 973q132 0 245.5 -67t180 -181.5t66.5 -249.5t-66.5 -250.5t-180 -182.5t-245.5 -67q-133 0 -246 67t-179 182t-66 251q0 135 66 249.5t179 181.5t246 67zM565 96q155 0 265 111t110 268h-375v379q-156 0 -266.5 -111.5t-110.5 -267.5q0 -157 110 -268t267 -111z" />
    <glyph glyph-name="uni25D5" unicode="&#x25d5;" 
d="M565 973q132 0 245.5 -67t180 -181.5t66.5 -249.5t-66.5 -250.5t-180 -182.5t-245.5 -67q-133 0 -246 67t-179 182t-66 251q0 135 66 249.5t179 181.5t246 67zM565 475v379q-156 0 -266.5 -111.5t-110.5 -267.5h377z" />
    <glyph glyph-name="uni25D6" unicode="&#x25d6;" 
d="M565 973v-998q-133 0 -246 67t-179 182t-66 251q0 135 66 249.5t179 181.5t246 67z" />
    <glyph glyph-name="uni25D7" unicode="&#x25d7;" 
d="M565 973q132 0 245.5 -67t180 -181.5t66.5 -249.5t-66.5 -250.5t-180 -182.5t-245.5 -67v998z" />
    <glyph glyph-name="uni25DC" unicode="&#x25dc;" 
d="M565 854q-156 0 -266.5 -111.5t-110.5 -267.5h-114q0 135 66 249.5t179 181.5t246 67v-119z" />
    <glyph glyph-name="uni25DD" unicode="&#x25dd;" 
d="M565 854v119q132 0 245.5 -67t180 -181.5t66.5 -249.5h-117q0 156 -110 267.5t-265 111.5z" />
    <glyph glyph-name="uni25DE" unicode="&#x25de;" 
d="M565 96q155 0 265 111t110 268h117q0 -135 -66.5 -250.5t-180 -182.5t-245.5 -67v121z" />
    <glyph glyph-name="uni25DF" unicode="&#x25df;" 
d="M565 96v-121q-133 0 -246 67t-179 182t-66 251h114q0 -157 110 -268t267 -111z" />
    <glyph glyph-name="uni25E0" unicode="&#x25e0;" 
d="M565 973q132 0 245.5 -67t180 -181.5t66.5 -249.5h-117q0 156 -110 267.5t-265 111.5q-156 0 -266.5 -111.5t-110.5 -267.5h-114q0 135 66 249.5t179 181.5t246 67z" />
    <glyph glyph-name="uni25E1" unicode="&#x25e1;" 
d="M940 475h117q0 -135 -66.5 -250.5t-180 -182.5t-245.5 -67q-133 0 -246 67t-179 182t-66 251h114q0 -157 110 -268t267 -111q155 0 265 111t110 268z" />
    <glyph glyph-name="uniE0A0" unicode="&#xe0a0;" 
d="M139 606l-2 1379h242l2 -1203zM139 -453v539q0 122 27.5 211t71 139t96.5 88.5t106 73t96.5 77.5t71 117.5t27.5 178.5v551h-182l288 340l291 -340h-184v-607q0 -113 -26 -198t-67 -135.5t-90.5 -90t-99.5 -74t-91 -74.5t-67 -104.5t-26 -152.5v-539h-242z" />
    <glyph glyph-name="uniE0A1" unicode="&#xe0a1;" 
d="M723 532h-459v799h98v-710h361v-89zM776 -342h88v799h-88v-590l-319 590h-88v-799h86v606z" />
    <glyph glyph-name="uniE0A2" unicode="&#xe0a2;" 
d="M342 0q-117 0 -117 117v573q0 127 101 127v254q0 115 69 193q68 71 168 71t168 -71q70 -79 70 -193v-254q100 0 100 -127v-573q0 -117 -119 -117h-440zM563 1227q-56 0 -90 -43q-33 -39 -33 -113v-254h246v254q0 72 -35 113q-34 43 -88 43zM608 465q58 30 58 92
q0 45 -29 74q-31 31 -74 31t-74 -31q-30 -30 -30 -74q0 -63 57 -92v-268h92v268z" />
    <glyph glyph-name="uniE0B0" unicode="&#xe0b0;" 
d="M918 768l-918 -1221v2438z" />
    <glyph glyph-name="uniE0B1" unicode="&#xe0b1;" 
d="M92 1960l920 -1198l-920 -1198l-80 94l844 1104l-844 1104z" />
    <glyph glyph-name="uniE0B2" unicode="&#xe0b2;" 
d="M209 827l917 1278v-2558z" />
    <glyph glyph-name="uniE0B3" unicode="&#xe0b3;" 
d="M1034 2079l80 -99l-844 -1157l844 -1159l-80 -100l-919 1259z" />
    <glyph glyph-name="i.loclTRK" 
d="M563 1145q-108 0 -108 108q0 51 28.5 78t79.5 27t79 -27t28 -78q0 -108 -107 -108zM934 113q0 -78 10 -113h-741v119h293v735l-199 10v109h340l-2 -854h299v-6z" />
    <glyph glyph-name="zero.dnom" 
d="M561 598q112 0 186 -90.5t74 -228.5q0 -130 -74 -218t-186 -88q-110 0 -183 87.5t-73 218.5q0 138 73 228.5t183 90.5zM561 535q-69 0 -110 -69.5t-41 -186.5q0 -81 22 -132l225 342q-43 46 -96 46zM561 45q72 0 116 63.5t44 170.5q0 64 -23 139l-221 -342q39 -31 84 -31
z" />
    <glyph glyph-name="one.dnom" 
d="M535 0v483q-25 -44 -164 -63l-11 76q121 25 175 96h94v-592h-94z" />
    <glyph glyph-name="two.dnom" 
d="M705 446q0 37 -33 58.5t-94 21.5q-99 0 -160 -77l-72 30q32 52 93.5 85.5t133.5 33.5q93 0 160.5 -44.5t67.5 -104.5q0 -44 -35.5 -94.5t-80 -88.5t-114 -96t-108.5 -96h352v-74h-479v74q41 40 114.5 97t124 96t90.5 88.5t40 90.5z" />
    <glyph glyph-name="three.dnom" 
d="M383 516q19 32 70 52t110 20q91 0 160.5 -45t69.5 -117q0 -44 -28.5 -82.5t-76.5 -58.5q51 -18 85 -58.5t34 -91.5q0 -73 -72 -117.5t-182 -44.5q-147 0 -211 99l55 43q35 -40 69 -55t97 -15q71 0 106.5 20t35.5 70q0 117 -168 117h-41v67h41q77 0 117 29t40 78
q0 90 -141 90q-89 0 -121 -51z" />
    <glyph glyph-name="four.dnom" 
d="M780 223v-73h-110v-150h-97v150h-241v73l235 369h101l-236 -369h141v109h107q-10 -33 -10 -109h110z" />
    <glyph glyph-name="five.dnom" 
d="M449 285h-89l31 303h367v-76h-277l-20 -160q15 24 47.5 40t77.5 16q88 0 150.5 -63.5t62.5 -158.5q0 -90 -74.5 -151.5t-173.5 -61.5q-107 0 -209 82l51 51q65 -57 158 -57q151 0 151 137q0 150 -133 150q-38 0 -71 -15t-49 -36z" />
    <glyph glyph-name="six.dnom" 
d="M731 504q-48 20 -113 20q-84 0 -128 -46.5t-44 -131.5v-37q22 20 37 31.5t46.5 22t70.5 10.5q99 0 167.5 -53.5t68.5 -141.5q0 -87 -64 -146t-174 -59q-108 0 -178 57t-70 148v168q0 108 77 178t194 70q77 0 153 -35zM598 49q68 0 105.5 35.5t37.5 93.5q0 57 -37.5 91
t-103.5 34q-46 0 -87.5 -20.5t-66.5 -53.5v-51q2 -59 42.5 -94t109.5 -35z" />
    <glyph glyph-name="seven.dnom" 
d="M793 592v-76q-26 -36 -73 -91t-81 -97.5t-69 -96t-54 -112t-20 -119.5h-105q1 61 19 119t52.5 112t67 96t79.5 98t73 91h-358v76h469z" />
    <glyph glyph-name="eight.dnom" 
d="M647 293q71 -25 108.5 -68t37.5 -98q0 -66 -66 -110t-168 -44q-98 0 -162.5 44t-64.5 110q0 53 38.5 96t108.5 70q-52 22 -82 65t-30 97q0 66 51.5 104.5t140.5 38.5q85 0 139 -40.5t54 -102.5q1 -52 -27 -95.5t-78 -66.5zM444 446q0 -34 31.5 -65t89.5 -53l-4 -2
q110 50 113 120q2 37 -30 63t-81 26q-51 0 -85 -26t-34 -63zM559 43q70 0 111 23t41 61q0 39 -40.5 74.5t-111.5 58.5q-68 -23 -106.5 -58.5t-38.5 -74.5q0 -40 37.5 -62t107.5 -22z" />
    <glyph glyph-name="nine.dnom" 
d="M416 78q33 -33 110 -33q92 0 141.5 46t49.5 132v37q-39 -36 -72.5 -49.5t-81.5 -13.5q-104 0 -167.5 53t-63.5 141q0 89 65 146t168 57q109 0 178.5 -58t69.5 -147v-166q0 -113 -78.5 -181.5t-208.5 -68.5q-94 0 -153 50zM565 514q-139 0 -139 -123q0 -58 35.5 -89.5
t101.5 -31.5q100 0 154 76q0 92 -38.5 130t-113.5 38z" />
    <glyph glyph-name="zero.numr" 
d="M561 1358q112 0 186 -91t74 -229q0 -129 -74 -216t-186 -87q-110 0 -183 86.5t-73 216.5q0 138 73 229t183 91zM561 1294q-69 0 -110 -69t-41 -187q0 -78 22 -129l225 342q-40 43 -96 43zM561 805q72 0 116 63t44 170q0 67 -23 142l-221 -342q41 -33 84 -33z" />
    <glyph glyph-name="one.numr" 
d="M535 739v484q-26 -45 -164 -64l-11 76q121 25 175 96h94v-592h-94z" />
    <glyph glyph-name="two.numr" 
d="M705 1208q0 37 -33 57.5t-94 20.5q-100 0 -160 -76l-72 31q31 52 93 84.5t134 32.5q93 0 160.5 -44t67.5 -104q0 -57 -48.5 -115t-150 -140.5t-139.5 -120.5h352v-72h-479v72q36 34 91 78t100 78.5t87.5 72t66.5 74.5t24 71z" />
    <glyph glyph-name="three.numr" 
d="M383 1286q18 33 69 52.5t111 19.5q91 0 160.5 -45t69.5 -115q0 -44 -28.5 -82.5t-76.5 -58.5q52 -18 85.5 -59t33.5 -93q0 -73 -72 -116.5t-182 -43.5q-147 0 -211 99l55 41q35 -39 69 -53.5t97 -14.5q71 0 106.5 19t35.5 69q0 119 -168 119h-41v66h41q78 0 117.5 28.5
t39.5 79.5q0 88 -141 88q-91 0 -121 -49z" />
    <glyph glyph-name="four.numr" 
d="M780 963v-74h-110v-150h-97v150h-241v74l235 368h101l-236 -368h141v106h107q-10 -31 -10 -106h110z" />
    <glyph glyph-name="five.numr" 
d="M449 1028h-89l31 303h367v-76h-277l-20 -157q15 22 48 37.5t77 15.5q88 0 150.5 -63t62.5 -158q0 -90 -74.5 -150.5t-173.5 -60.5q-109 0 -209 80l51 53q68 -59 158 -59q151 0 151 137q0 77 -33 113t-100 36q-39 0 -72 -14.5t-48 -36.5z" />
    <glyph glyph-name="six.numr" 
d="M731 1270q-41 20 -113 20q-84 0 -128 -46.5t-44 -131.5v-37q22 20 37 31.5t46.5 22t70.5 10.5q99 0 167.5 -53.5t68.5 -141.5q0 -87 -64 -145t-174 -58q-109 0 -178.5 56t-69.5 149v166q0 108 77 178t194 70q85 0 153 -35zM598 815q68 0 105.5 35.5t37.5 93.5
q0 57 -37.5 91t-103.5 34q-46 0 -87 -20t-67 -52v-51q2 -60 42.5 -95.5t109.5 -35.5z" />
    <glyph glyph-name="seven.numr" 
d="M793 1331v-78q-26 -35 -73 -90t-81 -97t-69 -95.5t-54 -112t-20 -119.5h-105q1 61 19 119t52.5 112t66.5 95.5t80 97.5t73 90h-358v78h469z" />
    <glyph glyph-name="eight.numr" 
d="M647 1055q146 -54 146 -166q0 -66 -66 -110t-168 -44q-98 0 -162.5 43.5t-64.5 108.5q0 53 38.5 96.5t108.5 71.5q-52 22 -82 64t-30 95q0 67 51.5 105.5t140.5 38.5q86 0 139.5 -40.5t53.5 -103.5q1 -51 -27 -93.5t-78 -65.5zM444 1208q0 -73 121 -118l-4 -3
q110 50 113 121q2 37 -30 61.5t-81 24.5q-51 0 -85 -24.5t-34 -61.5zM559 803q70 0 111 23t41 63q0 38 -40 73t-112 60q-68 -23 -106.5 -58.5t-38.5 -74.5q0 -41 37.5 -63.5t107.5 -22.5z" />
    <glyph glyph-name="nine.numr" 
d="M416 844q35 -35 110 -35q92 0 141.5 46.5t49.5 131.5v37q-40 -35 -73.5 -49t-80.5 -14q-104 0 -167.5 53t-63.5 141q0 89 65 146t168 57q109 0 178.5 -57t69.5 -148v-166q0 -113 -78.5 -180.5t-208.5 -67.5q-98 0 -153 47zM565 1278q-139 0 -139 -123q0 -57 35.5 -89
t101.5 -32q100 0 154 76q0 92 -38.5 130t-113.5 38z" />
    <glyph glyph-name="fraction" 
d="M625 780l-957 -630l-69 81l956 617z" />
    <glyph glyph-name="underscore.more" 
d="M1128 -221v-121h-1128v121h1128z" />
    <glyph glyph-name="asterisk_slash.liga" 
d="M1972 1370l-778 -1603l-104 65l778 1604zM647 932l-239 129l67 102l213 -82l23 258l123 -8l-5 -264l242 59l51 -108l-270 -103l178 -217l-104 -65l-185 170l-163 -150l-107 82z" />
    <glyph glyph-name="braceleft_bar.liga" 
d="M1741 1219h-453v-1448h453v-113h-754q-356 0 -356 291v295q0 36 -1 54.5t-6.5 44t-17 37.5t-32 24.5t-53 17t-77.5 4.5v137q45 0 77 4.5t52.5 17t32.5 25t17 36.5t6.5 43t1.5 54v306q0 282 356 282h754v-112zM1133 -229v1448h-146q-101 0 -153 -34.5t-52 -125.5v-318
q0 -110 -41.5 -168t-134.5 -75q96 -17 136 -80.5t40 -177.5v-308q0 -92 52.5 -126.5t152.5 -34.5h146z" />
    <glyph glyph-name="bracketleft_bar.liga" 
d="M1741 1196h-418v-1405h418v-133h-1127v1673h1127v-135zM1167 -209v1405h-397v-1405h397z" />
    <glyph glyph-name="colon_colon.liga" 
d="M524 799q0 51 28 78.5t79 27.5q106 0 106 -106q0 -109 -106 -109q-52 0 -79.5 28t-27.5 81zM1409 799q0 51 28.5 78.5t80.5 27.5q51 0 77.5 -27.5t26.5 -78.5q0 -53 -26.5 -81t-77.5 -28q-52 0 -80.5 28t-28.5 81zM524 150q0 52 28 79t79 27q106 0 106 -106
q0 -107 -106 -107q-107 0 -107 107zM1409 150q0 106 109 106q104 0 104 -106q0 -107 -104 -107q-53 0 -81 27.5t-28 79.5z" />
    <glyph glyph-name="colon_colon_colon.liga" 
d="M674 799q0 51 28 78.5t80 27.5q51 0 78 -27.5t27 -78.5q0 -53 -27 -81t-78 -28q-108 0 -108 109zM1593 799q0 51 28.5 78.5t80.5 27.5q51 0 77.5 -27.5t26.5 -78.5q0 -53 -26.5 -81t-77.5 -28q-52 0 -80.5 28t-28.5 81zM2515 799q0 51 28 78.5t80 27.5q51 0 78 -27.5
t27 -78.5q0 -53 -27 -81t-78 -28q-52 0 -80 28t-28 81zM674 150q0 106 108 106q105 0 105 -106q0 -107 -105 -107q-108 0 -108 107zM1593 150q0 106 109 106q104 0 104 -106q0 -107 -104 -107q-53 0 -81 27.5t-28 79.5zM2515 150q0 106 108 106q105 0 105 -106
q0 -107 -105 -107q-108 0 -108 107z" />
    <glyph glyph-name="exclam_equal.liga" 
d="M1243 635l-115 -217h895l-10 -137h-958l-205 -385l-111 51l176 334h-688l11 137h749l117 217h-877l11 137h938l182 342l106 -65l-149 -277h708l-10 -137h-770z" />
    <glyph glyph-name="exclam_equal_equal.liga" 
d="M3131 444h-1409l-94 -168h1514l-11 -137h-1581l-153 -278l-113 51l127 227h-1175l10 137h1243l92 168h-1345l10 136h1411l92 165h-1513l10 138h1579l147 266l107 -66l-113 -200h1176l-11 -138h-1243l-92 -165h1346z" />
    <glyph glyph-name="hyphen_greater.liga" 
d="M1399 1051l641 -449v-156l-635 -448l-105 117l488 340h-1557v137h1557l-488 340z" />
    <glyph glyph-name="period_equal.liga" 
d="M1835 635h-991l-10 137h1001v-137zM360 526q0 60 32.5 91.5t92.5 31.5q59 0 91 -31.5t32 -91.5q0 -61 -32 -92t-91 -31q-125 0 -125 123zM1835 281h-1001l10 137h991v-137z" />
    <glyph glyph-name="slash_asterisk.liga" 
d="M1022 1370l-778 -1603l-105 65l776 1604zM1462 932l-239 129l67 102l213 -82l23 258l125 -8l-6 -264l243 59l51 -108l-272 -103l180 -217l-106 -65l-182 170l-164 -150l-109 82z" />
    <glyph glyph-name="bar_braceright.liga" 
d="M1622 743q0 -35 1 -54t6.5 -43.5t17.5 -36.5t32 -24.5t52 -17t77 -4.5v-137q-39 0 -68 -4.5t-49 -10.5t-33.5 -20t-20.5 -25.5t-10.5 -34.5t-4 -39.5t-0.5 -47.5v-295q0 -291 -358 -291h-752v113h453v1448h-453v112h752q358 0 358 -282v-306zM1470 240q0 114 40.5 177.5
t136.5 80.5q-94 17 -135.5 75t-41.5 168q0 63 -1 172t-1 146q0 91 -51.5 125.5t-152.5 34.5h-144v-1448h144q101 0 152.5 34.5t51.5 126.5q0 36 1 138.5t1 169.5z" />
    <glyph glyph-name="bar_bracketright.liga" 
d="M1638 1331v-1673h-1126v133h418v1405h-418v135h1126zM1483 -209v1405h-398v-1405h398z" />
    <glyph glyph-name="bar_greater.liga" 
d="M1665 578v-154l-930 -639v-127h-155v1673h155v-112zM735 -39l772 539l-772 542v-1081z" />
    <glyph glyph-name="plus_plus.liga" 
d="M1939 596v-137h-270v-271h-137v271h-819v-271h-135v271h-267v137h267v270h135v-270h819v270h137v-270h270z" />
    <glyph glyph-name="equal_equal.liga" 
d="M227 635l11 137h1785l-10 -137h-1786zM2023 418l-10 -137h-1786l11 137h1785z" />
    <glyph glyph-name="equal_equal_equal.liga" 
d="M236 745l10 138h2896l-11 -138h-2895zM3142 580l-11 -136h-2895l10 136h2896zM3142 276l-11 -137h-2895l10 137h2896z" />
    <glyph glyph-name="equal_greater.liga" 
d="M1407 1069l657 -467v-156l-651 -464l-70 133l230 166h-1333v135h1525l150 108l-156 111h-1519v137h1329l-226 160z" />
    <glyph glyph-name="less_bar.liga" 
d="M1518 1331h155v-1673h-155v127l-930 639v154l930 641v112zM745 500l773 -539v1081z" />
    <glyph glyph-name="less_hyphen.liga" 
d="M2021 592v-137h-1556l487 -340l-104 -117l-635 448v156l641 449l98 -119l-487 -340h1556z" />
    <glyph glyph-name="liga1" 
 />
    <glyph glyph-name="liga2" 
 />
    <glyph glyph-name="liga3" 
 />
    <glyph glyph-name="liga4" 
 />
    <glyph glyph-name="liga5" 
 />
    <glyph glyph-name="liga6" 
 />
    <glyph glyph-name="liga7" 
 />
    <glyph glyph-name="liga8" 
 />
    <glyph glyph-name="liga9" 
 />
    <glyph glyph-name="liga10" 
 />
    <glyph glyph-name="liga11" 
 />
    <glyph glyph-name="liga12" 
 />
    <glyph glyph-name="liga13" 
 />
    <glyph glyph-name="liga14" 
 />
    <glyph glyph-name="liga15" 
 />
    <glyph glyph-name="liga16" 
 />
    <glyph glyph-name="liga17" 
 />
    <glyph glyph-name="liga18" 
 />
    <glyph glyph-name="liga19" 
 />
    <glyph glyph-name="uni0338.case" horiz-adv-x="0" 
d="M-166 1374l-715 -1466l-104 65l713 1465z" />
    <glyph glyph-name="NULL" horiz-adv-x="0" 
 />
    <glyph glyph-name="CR" 
 />
  </font>
</defs>
</svg>
